<svg xmlns="http://www.w3.org/2000/svg" width="673" height="286" viewBox="0 0 673 286" fill="none"><mask id="path-1-outside-1_107_830" maskUnits="userSpaceOnUse" x="13" y="13" width="647" height="260" fill="black"><rect fill="white" x="13" y="13" width="647" height="260"/><path d="M39.46 268.53C37.1867 268.53 35.17 267.613 33.41 265.78C31.7233 263.947 30.2933 261.527 29.12 258.52C28.02 255.513 27.1033 252.213 26.37 248.62C25.71 245.027 25.2333 241.433 24.94 237.84C24.6467 234.173 24.5 230.873 24.5 227.94C24.5 224.2 24.7933 220.24 25.38 216.06C25.9667 211.88 26.9933 207.957 28.46 204.29C29.9267 200.55 31.9433 197.507 34.51 195.16C37.0767 192.813 40.3767 191.64 44.41 191.64C47.1967 191.64 49.6167 192.557 51.67 194.39C53.7967 196.15 55.7033 198.643 57.39 201.87C59.0767 205.023 60.69 208.653 62.23 212.76C63.77 216.867 65.42 221.23 67.18 225.85C66.8867 219.543 67.07 213.823 67.73 208.69C68.4633 203.483 69.93 199.34 72.13 196.26C74.33 193.18 77.4467 191.64 81.48 191.64C84.9267 191.64 87.6767 192.813 89.73 195.16C91.8567 197.507 93.47 200.55 94.57 204.29C95.67 207.957 96.4033 211.88 96.77 216.06C97.21 220.24 97.43 224.2 97.43 227.94C97.43 230.947 97.21 234.247 96.77 237.84C96.33 241.433 95.5967 245.027 94.57 248.62C93.5433 252.213 92.15 255.513 90.39 258.52C88.63 261.527 86.4667 263.947 83.9 265.78C81.4067 267.613 78.4 268.53 74.88 268.53C71.7267 268.53 69.0133 267.54 66.74 265.56C64.54 263.507 62.56 260.83 60.8 257.53C59.1133 254.157 57.5367 250.453 56.07 246.42C54.6033 242.387 53.0633 238.353 51.45 234.32C51.5233 239.38 51.5233 244.037 51.45 248.29C51.3767 252.47 50.9733 256.063 50.24 259.07C49.58 262.077 48.4067 264.423 46.72 266.11C45.0333 267.723 42.6133 268.53 39.46 268.53Z"/><path d="M127.198 268.53C121.698 268.53 116.858 267.467 112.678 265.34C108.571 263.14 105.345 260.17 102.998 256.43C100.725 252.617 99.5879 248.253 99.5879 243.34C99.5879 238.573 100.725 234.173 102.998 230.14C105.345 226.107 108.535 222.88 112.568 220.46C116.675 218.04 121.368 216.83 126.648 216.83C131.561 216.83 135.778 217.82 139.298 219.8C142.818 221.78 145.495 224.31 147.328 227.39C149.235 230.397 150.188 233.587 150.188 236.96C150.188 240.333 149.418 243.12 147.878 245.32C146.338 247.447 144.321 249.097 141.828 250.27C139.408 251.37 136.805 252.103 134.018 252.47C131.231 252.837 128.555 252.91 125.988 252.69C123.421 252.397 121.258 251.957 119.498 251.37C120.818 253.497 122.468 254.963 124.448 255.77C126.501 256.503 128.628 256.833 130.828 256.76C133.101 256.613 135.155 256.357 136.988 255.99C139.261 255.477 141.131 255.587 142.598 256.32C144.065 257.053 144.835 258.227 144.908 259.84C144.981 261.16 144.505 262.48 143.478 263.8C142.525 265.12 140.765 266.257 138.198 267.21C135.631 268.09 131.965 268.53 127.198 268.53ZM119.828 237.95C120.561 239.123 121.625 239.967 123.018 240.48C124.411 240.92 125.805 241.067 127.198 240.92C128.665 240.773 129.875 240.37 130.828 239.71C131.855 239.05 132.368 238.133 132.368 236.96C132.368 235.713 131.855 234.613 130.828 233.66C129.875 232.633 128.335 232.12 126.208 232.12C124.155 232.12 122.578 232.78 121.478 234.1C120.378 235.347 119.828 236.63 119.828 237.95Z"/><path d="M164.128 215.18C160.534 215.18 157.491 213.897 154.998 211.33C152.504 208.69 151.258 205.5 151.258 201.76C151.258 199.267 151.808 197.03 152.908 195.05C154.081 193.07 155.621 191.493 157.528 190.32C159.508 189.073 161.708 188.45 164.128 188.45C166.474 188.45 168.601 189.073 170.508 190.32C172.488 191.493 174.064 193.07 175.238 195.05C176.411 197.03 176.998 199.267 176.998 201.76C176.998 204.253 176.411 206.527 175.238 208.58C174.064 210.56 172.488 212.173 170.508 213.42C168.601 214.593 166.474 215.18 164.128 215.18ZM164.128 268.53C161.194 268.53 158.994 267.687 157.528 266C156.134 264.313 155.181 261.747 154.668 258.3C154.228 254.78 153.971 250.27 153.898 244.77C153.898 239.27 154.118 234.76 154.558 231.24C155.071 227.72 156.061 225.153 157.528 223.54C158.994 221.853 161.194 221.01 164.128 221.01C167.061 221.01 169.224 221.853 170.618 223.54C172.084 225.153 173.074 227.72 173.588 231.24C174.101 234.76 174.358 239.27 174.358 244.77C174.431 250.27 174.211 254.78 173.698 258.3C173.184 261.747 172.194 264.313 170.728 266C169.261 267.687 167.061 268.53 164.128 268.53Z"/><path d="M194.288 268.53C191.794 268.53 189.741 267.723 188.128 266.11C186.588 264.423 185.414 262.187 184.608 259.4C183.801 256.613 183.251 253.423 182.958 249.83C182.664 246.237 182.518 242.533 182.518 238.72C182.518 236.153 182.554 233.55 182.628 230.91C182.774 228.197 183.141 225.703 183.728 223.43C184.388 221.157 185.451 219.323 186.918 217.93C188.458 216.463 190.621 215.73 193.408 215.73C195.388 215.73 197.184 216.207 198.798 217.16C200.411 218.04 201.438 219.397 201.878 221.23C203.564 219.69 205.691 218.59 208.258 217.93C210.898 217.197 213.611 216.83 216.398 216.83C218.744 216.83 221.128 217.417 223.548 218.59C225.968 219.69 228.021 221.23 229.708 223.21C231.394 225.19 232.238 227.427 232.238 229.92C232.238 232.047 231.431 234.063 229.818 235.97C228.278 237.877 226.078 238.83 223.218 238.83C221.971 238.83 220.944 238.683 220.138 238.39C219.331 238.023 218.561 237.693 217.828 237.4C217.094 237.107 216.214 236.96 215.188 236.96C212.474 236.96 209.981 238.06 207.708 240.26C205.508 242.387 204.408 245.283 204.408 248.95C204.408 250.857 204.334 252.947 204.188 255.22C204.114 257.42 203.784 259.547 203.198 261.6C202.684 263.653 201.731 265.34 200.338 266.66C198.944 267.907 196.928 268.53 194.288 268.53Z"/><path d="M259.754 268.64C254.327 268.713 249.561 267.613 245.454 265.34C241.421 262.993 238.231 259.84 235.884 255.88C233.611 251.847 232.401 247.41 232.254 242.57C232.181 237.583 233.317 233.183 235.664 229.37C238.011 225.483 241.274 222.403 245.454 220.13C249.634 217.857 254.401 216.72 259.754 216.72C265.034 216.647 269.691 217.747 273.724 220.02C277.831 222.293 281.094 225.373 283.514 229.26C285.934 233.147 287.217 237.583 287.364 242.57C287.437 247.337 286.301 251.7 283.954 255.66C281.607 259.547 278.344 262.663 274.164 265.01C269.984 267.283 265.181 268.493 259.754 268.64ZM260.084 252.58C262.064 252.58 263.787 251.81 265.254 250.27C266.721 248.73 267.454 246.933 267.454 244.88C267.454 242.827 266.721 241.067 265.254 239.6C263.787 238.06 262.064 237.29 260.084 237.29C258.104 237.29 256.381 238.06 254.914 239.6C253.447 241.067 252.714 242.827 252.714 244.88C252.714 246.933 253.447 248.73 254.914 250.27C256.381 251.81 258.104 252.58 260.084 252.58Z"/><path d="M322.76 205.39C322.76 208.323 322.247 211 321.22 213.42C320.193 215.84 318.873 217.893 317.26 219.58C315.72 221.267 314.106 222.587 312.42 223.54C310.806 224.42 309.377 224.86 308.13 224.86C306.59 224.86 305.343 224.42 304.39 223.54C303.51 222.66 303.07 221.56 303.07 220.24C303.07 218.92 303.436 217.82 304.17 216.94C304.976 216.06 305.82 215.18 306.7 214.3C307.58 213.42 308.167 212.357 308.46 211.11C305.967 210.377 304.097 209.203 302.85 207.59C301.677 205.903 301.09 204.033 301.09 201.98C301.09 199.413 302.007 197.03 303.84 194.83C305.747 192.63 308.24 191.53 311.32 191.53C314.62 191.53 317.333 192.63 319.46 194.83C321.66 197.03 322.76 200.55 322.76 205.39Z"/><path d="M357.681 268.53C351.227 268.53 346.094 267.467 342.281 265.34C338.467 263.213 336.561 260.463 336.561 257.09C336.561 254.743 337.331 253.02 338.871 251.92C340.484 250.747 342.391 250.16 344.591 250.16C346.351 250.16 347.634 250.453 348.441 251.04C349.321 251.627 350.091 252.213 350.751 252.8C351.411 253.387 352.217 253.68 353.171 253.68C354.711 253.68 355.481 253.13 355.481 252.03C355.481 250.563 354.601 249.5 352.841 248.84C351.154 248.18 349.027 247.263 346.461 246.09C342.941 244.403 340.411 242.46 338.871 240.26C337.331 237.987 336.561 235.677 336.561 233.33C336.561 230.543 337.551 227.903 339.531 225.41C341.511 222.917 344.297 220.863 347.891 219.25C351.557 217.637 355.921 216.83 360.981 216.83C365.234 216.83 369.047 217.417 372.421 218.59C375.794 219.763 378.471 221.377 380.451 223.43C382.431 225.41 383.421 227.61 383.421 230.03C383.421 232.303 382.687 234.027 381.221 235.2C379.754 236.373 377.847 236.96 375.501 236.96C374.181 236.96 373.117 236.777 372.311 236.41C371.577 235.97 370.881 235.567 370.221 235.2C369.634 234.833 368.791 234.65 367.691 234.65C367.104 234.65 366.591 234.87 366.151 235.31C365.711 235.677 365.491 236.153 365.491 236.74C365.491 237.18 365.674 237.62 366.041 238.06C366.407 238.5 367.031 238.867 367.911 239.16C370.184 239.893 372.384 240.847 374.511 242.02C376.711 243.12 378.507 244.587 379.901 246.42C381.367 248.18 382.101 250.453 382.101 253.24C382.101 258.007 379.864 261.747 375.391 264.46C370.917 267.173 365.014 268.53 357.681 268.53Z"/><path d="M450.784 268.53C444.917 268.53 439.784 266.917 435.384 263.69C431.057 260.463 427.72 255.917 425.374 250.05C423.027 244.11 421.854 237.07 421.854 228.93C421.854 225.63 422.257 222.037 423.064 218.15C423.944 214.19 425.227 210.45 426.914 206.93C428.6 203.337 430.654 200.403 433.074 198.13C435.494 195.857 438.28 194.72 441.434 194.72C444.734 194.72 447.41 195.893 449.464 198.24C451.59 200.587 452.654 203.483 452.654 206.93C452.654 208.69 452.177 210.963 451.224 213.75C450.27 216.463 449.317 219.397 448.364 222.55C447.41 225.63 446.934 228.637 446.934 231.57C446.934 235.017 447.447 237.437 448.474 238.83C449.5 240.15 450.637 240.81 451.884 240.81C453.717 240.81 455 239.893 455.734 238.06C456.54 236.227 456.944 232.743 456.944 227.61C456.944 224.897 456.907 222 456.834 218.92C456.834 215.84 457.09 212.943 457.604 210.23C458.19 207.443 459.29 205.17 460.904 203.41C462.59 201.65 465.084 200.77 468.384 200.77C471.684 200.77 474.177 201.613 475.864 203.3C477.624 204.987 478.797 207.187 479.384 209.9C479.97 212.54 480.264 215.363 480.264 218.37C480.337 221.377 480.374 224.237 480.374 226.95C480.374 232.45 480.85 236.3 481.804 238.5C482.757 240.627 484.224 241.69 486.204 241.69C487.67 241.69 488.807 240.883 489.614 239.27C490.42 237.583 490.75 235.017 490.604 231.57C490.457 228.637 489.907 225.74 488.954 222.88C488 219.947 487.047 217.123 486.094 214.41C485.214 211.697 484.774 209.203 484.774 206.93C484.774 203.337 485.91 200.44 488.184 198.24C490.457 196.04 493.06 194.94 495.994 194.94C499.44 194.94 502.41 196.077 504.904 198.35C507.397 200.623 509.45 203.52 511.064 207.04C512.677 210.56 513.85 214.263 514.584 218.15C515.39 222.037 515.794 225.63 515.794 228.93C515.794 237.07 514.62 244.11 512.274 250.05C509.927 255.917 506.59 260.463 502.264 263.69C497.937 266.843 492.804 268.42 486.864 268.42C483.71 268.42 480.594 267.723 477.514 266.33C474.434 264.863 471.537 262.627 468.824 259.62C466.11 262.627 463.177 264.863 460.024 266.33C456.944 267.797 453.864 268.53 450.784 268.53Z"/><path d="M534.196 215.18C530.603 215.18 527.559 213.897 525.066 211.33C522.573 208.69 521.326 205.5 521.326 201.76C521.326 199.267 521.876 197.03 522.976 195.05C524.149 193.07 525.689 191.493 527.596 190.32C529.576 189.073 531.776 188.45 534.196 188.45C536.543 188.45 538.67 189.073 540.576 190.32C542.556 191.493 544.133 193.07 545.306 195.05C546.479 197.03 547.066 199.267 547.066 201.76C547.066 204.253 546.479 206.527 545.306 208.58C544.133 210.56 542.556 212.173 540.576 213.42C538.67 214.593 536.543 215.18 534.196 215.18ZM534.196 268.53C531.263 268.53 529.063 267.687 527.596 266C526.203 264.313 525.25 261.747 524.736 258.3C524.296 254.78 524.04 250.27 523.966 244.77C523.966 239.27 524.186 234.76 524.626 231.24C525.139 227.72 526.129 225.153 527.596 223.54C529.063 221.853 531.263 221.01 534.196 221.01C537.13 221.01 539.293 221.853 540.686 223.54C542.153 225.153 543.143 227.72 543.656 231.24C544.17 234.76 544.426 239.27 544.426 244.77C544.499 250.27 544.28 254.78 543.766 258.3C543.253 261.747 542.263 264.313 540.796 266C539.329 267.687 537.13 268.53 534.196 268.53Z"/><path d="M574.472 268.31C571.685 268.31 569.448 267.32 567.762 265.34C566.075 263.36 564.792 260.647 563.912 257.2C563.105 253.68 562.555 249.61 562.262 244.99C557.788 244.623 554.305 243.743 551.812 242.35C549.392 240.957 548.182 238.537 548.182 235.09C548.182 231.643 549.392 229.223 551.812 227.83C554.305 226.363 557.788 225.41 562.262 224.97C562.628 218.443 563.618 212.65 565.232 207.59C566.918 202.53 569.632 198.607 573.372 195.82C577.112 192.96 582.355 191.53 589.102 191.53C592.842 191.53 596.105 192.41 598.892 194.17C601.752 195.93 603.182 198.68 603.182 202.42C603.182 206.307 601.935 209.167 599.442 211C597.022 212.76 594.088 213.97 590.642 214.63C587.928 215.143 586.022 216.353 584.922 218.26C583.822 220.093 583.125 222.257 582.832 224.75C589.432 224.897 594.455 225.593 597.902 226.84C601.422 228.087 603.182 230.837 603.182 235.09C603.182 237.877 602.375 240.003 600.762 241.47C599.148 242.863 596.802 243.817 593.722 244.33C590.715 244.843 587.158 245.137 583.052 245.21C583.052 248.143 583.088 250.82 583.162 253.24C583.235 255.587 583.272 257.75 583.272 259.73C583.272 262.077 582.795 263.873 581.842 265.12C580.888 266.367 579.715 267.21 578.322 267.65C577.002 268.09 575.718 268.31 574.472 268.31Z"/><path d="M632.403 268.53C626.903 268.53 622.063 267.467 617.883 265.34C613.776 263.14 610.55 260.17 608.203 256.43C605.93 252.617 604.793 248.253 604.793 243.34C604.793 238.573 605.93 234.173 608.203 230.14C610.55 226.107 613.74 222.88 617.773 220.46C621.88 218.04 626.573 216.83 631.853 216.83C636.766 216.83 640.983 217.82 644.503 219.8C648.023 221.78 650.7 224.31 652.533 227.39C654.44 230.397 655.393 233.587 655.393 236.96C655.393 240.333 654.623 243.12 653.083 245.32C651.543 247.447 649.526 249.097 647.033 250.27C644.613 251.37 642.01 252.103 639.223 252.47C636.436 252.837 633.76 252.91 631.193 252.69C628.626 252.397 626.463 251.957 624.703 251.37C626.023 253.497 627.673 254.963 629.653 255.77C631.706 256.503 633.833 256.833 636.033 256.76C638.306 256.613 640.36 256.357 642.193 255.99C644.466 255.477 646.336 255.587 647.803 256.32C649.27 257.053 650.04 258.227 650.113 259.84C650.186 261.16 649.71 262.48 648.683 263.8C647.73 265.12 645.97 266.257 643.403 267.21C640.836 268.09 637.17 268.53 632.403 268.53ZM625.033 237.95C625.766 239.123 626.83 239.967 628.223 240.48C629.616 240.92 631.01 241.067 632.403 240.92C633.87 240.773 635.08 240.37 636.033 239.71C637.06 239.05 637.573 238.133 637.573 236.96C637.573 235.713 637.06 234.613 636.033 233.66C635.08 232.633 633.54 232.12 631.413 232.12C629.36 232.12 627.783 232.78 626.683 234.1C625.583 235.347 625.033 236.63 625.033 237.95Z"/><path d="M106.08 124.1C106.08 132.713 102.963 139.627 96.73 144.84C90.61 150.053 81.8833 153.227 70.55 154.36C70.3233 159.007 69.9267 162.52 69.36 164.9C68.7933 167.28 68.0567 168.81 67.15 169.49C66.2433 170.283 65.11 170.68 63.75 170.68C62.39 170.68 61.2567 170.283 60.35 169.49C59.4433 168.81 58.7067 167.28 58.14 164.9C57.6867 162.633 57.29 159.177 56.95 154.53C50.15 154.077 43.69 152.83 37.57 150.79C31.5633 148.637 26.6333 145.803 22.78 142.29C18.9267 138.663 17 134.47 17 129.71C17 124.95 18.4167 121.267 21.25 118.66C24.1967 115.94 27.7667 114.58 31.96 114.58C34.9067 114.58 37.6267 115.487 40.12 117.3C42.7267 119 45.2767 120.983 47.77 123.25C50.3767 125.517 53.21 127.387 56.27 128.86C56.1567 126.48 56.1 123.93 56.1 121.21C56.1 118.49 56.1 115.6 56.1 112.54C54.74 112.087 53.2667 111.577 51.68 111.01C50.0933 110.443 48.45 109.877 46.75 109.31C37.4567 106.25 30.1467 102.057 24.82 96.73C19.6067 91.4033 17 83.6967 17 73.61C17 67.6033 18.7 61.9367 22.1 56.61C25.6133 51.2833 30.3733 46.8067 36.38 43.18C42.3867 39.5533 49.1867 37.23 56.78 36.21C57.0067 30.6567 57.4033 26.52 57.97 23.8C58.5367 20.9667 59.2733 19.1533 60.18 18.36C61.2 17.4533 62.39 17 63.75 17C65.11 17 66.2433 17.4533 67.15 18.36C68.17 19.1533 68.9633 20.91 69.53 23.63C70.0967 26.35 70.4933 30.4867 70.72 36.04C78.2 36.72 84.8867 38.5333 90.78 41.48C96.6733 44.4267 101.32 48.11 104.72 52.53C108.12 56.95 109.82 61.6533 109.82 66.64C109.82 71.1733 108.857 74.8 106.93 77.52C105.117 80.24 102.793 82.2233 99.96 83.47C97.24 84.7167 94.5767 85.34 91.97 85.34C87.21 85.34 83.2433 84.4333 80.07 82.62C77.01 80.6933 74.12 78.8233 71.4 77.01C71.4 79.1633 71.4 81.3733 71.4 83.64C71.4 85.9067 71.4 88.2867 71.4 90.78C72.76 91.2333 74.0633 91.63 75.31 91.97C85.7367 95.03 93.4433 99.1667 98.43 104.38C103.53 109.48 106.08 116.053 106.08 124.1ZM48.96 80.41C48.96 81.77 49.5267 82.96 50.66 83.98C51.9067 84.8867 53.72 85.7367 56.1 86.53C56.1 84.15 56.1 81.8833 56.1 79.73C56.1 77.5767 56.1 75.5367 56.1 73.61C53.72 74.0633 51.9067 74.97 50.66 76.33C49.5267 77.5767 48.96 78.9367 48.96 80.41ZM77.86 123.76C77.86 121.607 75.7067 119.623 71.4 117.81C71.4 122.57 71.3433 126.763 71.23 130.39C75.65 129.257 77.86 127.047 77.86 123.76Z"/><path d="M141.39 154.53C137.876 154.53 134.76 153.113 132.04 150.28C129.433 147.447 127.223 143.707 125.41 139.06C123.71 134.413 122.293 129.313 121.16 123.76C120.14 118.207 119.403 112.653 118.95 107.1C118.496 101.433 118.27 96.3333 118.27 91.8C118.27 86.02 118.723 79.9 119.63 73.44C120.536 66.98 122.123 60.9167 124.39 55.25C126.656 49.47 129.773 44.7667 133.74 41.14C137.706 37.5133 142.806 35.7 149.04 35.7C153.346 35.7 157.086 37.1167 160.26 39.95C163.546 42.67 166.493 46.5233 169.1 51.51C171.706 56.3833 174.2 61.9933 176.58 68.34C178.96 74.6867 181.51 81.43 184.23 88.57C183.776 78.8233 184.06 69.9833 185.08 62.05C186.213 54.0033 188.48 47.6 191.88 42.84C195.28 38.08 200.096 35.7 206.33 35.7C211.656 35.7 215.906 37.5133 219.08 41.14C222.366 44.7667 224.86 49.47 226.56 55.25C228.26 60.9167 229.393 66.98 229.96 73.44C230.64 79.9 230.98 86.02 230.98 91.8C230.98 96.4467 230.64 101.547 229.96 107.1C229.28 112.653 228.146 118.207 226.56 123.76C224.973 129.313 222.82 134.413 220.1 139.06C217.38 143.707 214.036 147.447 210.07 150.28C206.216 153.113 201.57 154.53 196.13 154.53C191.256 154.53 187.063 153 183.55 149.94C180.15 146.767 177.09 142.63 174.37 137.53C171.763 132.317 169.326 126.593 167.06 120.36C164.793 114.127 162.413 107.893 159.92 101.66C160.033 109.48 160.033 116.677 159.92 123.25C159.806 129.71 159.183 135.263 158.05 139.91C157.03 144.557 155.216 148.183 152.61 150.79C150.003 153.283 146.263 154.53 141.39 154.53Z"/><path d="M295.941 154.53C291.294 154.53 286.307 154.19 280.981 153.51C275.767 152.83 270.611 151.413 265.511 149.26C260.411 147.107 255.764 143.933 251.571 139.74C247.377 135.547 244.034 129.993 241.541 123.08C239.047 116.053 237.801 107.383 237.801 97.07C237.801 85.7367 239.727 75.4233 243.581 66.13C247.434 56.8367 253.271 49.4133 261.091 43.86C268.911 38.3067 278.714 35.53 290.501 35.53C299.001 35.53 305.914 36.2667 311.241 37.74C316.681 39.2133 320.931 41.14 323.991 43.52C327.051 45.9 329.147 48.5067 330.281 51.34C331.527 54.1733 332.151 57.0067 332.151 59.84C332.151 62.7867 331.357 65.62 329.771 68.34C328.297 71.06 325.917 73.2133 322.631 74.8C319.457 76.2733 316.171 76.9533 312.771 76.84C309.371 76.6133 306.311 76.5 303.591 76.5C297.697 76.5 293.051 77.5767 289.651 79.73C286.364 81.77 284.041 84.9433 282.681 89.25C284.494 89.1367 286.477 89.08 288.631 89.08C290.897 88.9667 293.221 88.91 295.601 88.91C300.247 88.91 304.667 89.0233 308.861 89.25C313.167 89.3633 316.171 89.59 317.871 89.93C321.837 90.7233 324.841 92.31 326.881 94.69C328.921 96.9567 329.941 99.5633 329.941 102.51C329.941 105.343 328.977 107.893 327.051 110.16C325.124 112.427 322.007 114.013 317.701 114.92C316.114 115.26 313.054 115.543 308.521 115.77C304.101 115.883 299.454 115.94 294.581 115.94C292.654 115.94 290.784 115.94 288.971 115.94C287.157 115.827 285.514 115.77 284.041 115.77C285.627 119.283 288.007 122.06 291.181 124.1C294.467 126.027 298.661 126.99 303.761 126.99C305.687 126.99 308.464 126.82 312.091 126.48C315.717 126.027 319.231 126.31 322.631 127.33C328.071 129.03 330.791 132.6 330.791 138.04C330.791 140.987 329.771 143.763 327.731 146.37C325.804 148.863 322.291 150.847 317.191 152.32C312.204 153.793 305.121 154.53 295.941 154.53Z"/><path d="M377.49 154.02C373.524 154.02 369.5 153.963 365.42 153.85C361.34 153.623 357.6 153.057 354.2 152.15C350.8 151.243 348.024 149.713 345.87 147.56C343.83 145.407 342.81 142.403 342.81 138.55C342.81 133.563 344.51 130.05 347.91 128.01C351.31 125.857 355.447 124.44 360.32 123.76C359.98 119.793 359.754 115.487 359.64 110.84C359.527 106.08 359.47 100.98 359.47 95.54C359.47 90.5533 359.527 85.85 359.64 81.43C359.754 76.8967 359.924 72.76 360.15 69.02C354.37 68.34 349.384 66.8667 345.19 64.6C341.11 62.3333 339.07 58.31 339.07 52.53C339.07 48.2233 340.204 44.9367 342.47 42.67C344.737 40.29 347.74 38.6467 351.48 37.74C355.334 36.72 359.47 36.0967 363.89 35.87C368.424 35.6433 372.9 35.53 377.32 35.53C381.74 35.53 386.217 35.6433 390.75 35.87C395.284 36.0967 399.42 36.72 403.16 37.74C406.9 38.6467 409.904 40.29 412.17 42.67C414.55 44.9367 415.74 48.2233 415.74 52.53C415.74 56.3833 414.777 59.4433 412.85 61.71C410.924 63.9767 408.317 65.6767 405.03 66.81C401.744 67.83 398.174 68.5667 394.32 69.02C394.66 72.76 394.887 76.84 395 81.26C395.114 85.68 395.17 90.44 395.17 95.54C395.17 100.98 395.057 106.08 394.83 110.84C394.717 115.487 394.49 119.793 394.15 123.76C399.25 124.327 403.557 125.687 407.07 127.84C410.697 129.88 412.51 133.45 412.51 138.55C412.51 142.403 411.434 145.407 409.28 147.56C407.24 149.713 404.464 151.243 400.95 152.15C397.55 153.057 393.81 153.623 389.73 153.85C385.65 153.963 381.57 154.02 377.49 154.02Z"/><path d="M441.44 154.7C436.34 154.7 432.09 153.057 428.69 149.77C425.403 146.37 422.796 141.893 420.87 136.34C418.943 130.673 417.583 124.497 416.79 117.81C416.11 111.123 415.77 104.493 415.77 97.92C415.77 90.2133 416.79 82.6767 418.83 75.31C420.983 67.9433 424.213 61.3133 428.52 55.42C432.94 49.4133 438.493 44.6533 445.18 41.14C451.866 37.6267 459.8 35.87 468.98 35.87C478.273 35.87 486.66 37.7967 494.14 41.65C501.733 45.5033 507.796 51 512.33 58.14C516.863 65.28 519.13 73.78 519.13 83.64C519.13 92.2533 517.826 99.7333 515.22 106.08C512.726 112.313 509.383 117.47 505.19 121.55C506.89 124.157 508.25 126.933 509.27 129.88C510.29 132.827 510.8 135.66 510.8 138.38C510.8 141.553 509.95 144.387 508.25 146.88C506.55 149.26 504.34 151.13 501.62 152.49C499.013 153.85 496.236 154.53 493.29 154.53C490.796 154.53 488.473 154.133 486.32 153.34C484.166 152.547 481.786 151.187 479.18 149.26C476.8 147.447 474.703 145.067 472.89 142.12C471.076 139.06 469.603 136.057 468.47 133.11C464.503 132.657 460.763 131.693 457.25 130.22C457.816 132.94 458.1 135.717 458.1 138.55C458.213 141.383 457.76 144.047 456.74 146.54C455.833 148.92 454.133 150.903 451.64 152.49C449.26 153.963 445.86 154.7 441.44 154.7ZM470.68 106.08C474.76 106.08 478.273 104.663 481.22 101.83C484.28 98.8833 485.81 95.4833 485.81 91.63C485.81 87.6633 484.28 84.2633 481.22 81.43C478.273 78.4833 474.76 77.01 470.68 77.01C466.6 77.01 463.03 78.4833 459.97 81.43C457.023 84.2633 455.55 87.6633 455.55 91.63C455.55 95.4833 457.023 98.8833 459.97 101.83C463.03 104.663 466.6 106.08 470.68 106.08Z"/><path d="M550.864 154.87C543.044 154.87 536.867 151.073 532.334 143.48C527.914 135.887 525.307 125.913 524.514 113.56C523.607 98.26 525.25 84.7733 529.444 73.1C533.75 61.3133 540.21 52.1333 548.824 45.56C557.437 38.9867 567.694 35.7 579.594 35.7C591.607 35.7 601.864 38.9867 610.364 45.56C618.977 52.1333 625.38 61.2567 629.574 72.93C633.88 84.6033 635.524 98.1467 634.504 113.56C633.71 126.253 631.047 136.283 626.514 143.65C622.094 151.017 615.974 154.7 608.154 154.7C603.734 154.7 600.334 153.907 597.954 152.32C595.574 150.62 593.874 148.523 592.854 146.03C591.947 143.423 591.494 140.817 591.494 138.21C591.494 135.49 591.664 133.167 592.004 131.24C588.377 131.353 584.127 131.467 579.254 131.58C574.38 131.58 570.3 131.467 567.014 131.24C567.354 133.167 567.524 135.49 567.524 138.21C567.524 140.817 567.014 143.423 565.994 146.03C565.087 148.523 563.444 150.62 561.064 152.32C558.684 154.02 555.284 154.87 550.864 154.87ZM565.824 100.98C574.777 100.64 583.73 100.64 592.684 100.98C593.25 97.0133 593.194 93.2167 592.514 89.59C591.834 85.9633 590.417 83.0167 588.264 80.75C586.11 78.4833 583.05 77.35 579.084 77.35C575.117 77.35 572.057 78.4833 569.904 80.75C567.864 83.0167 566.504 85.9633 565.824 89.59C565.257 93.1033 565.257 96.9 565.824 100.98Z"/></mask><path d="M39.46 268.53C37.1867 268.53 35.17 267.613 33.41 265.78C31.7233 263.947 30.2933 261.527 29.12 258.52C28.02 255.513 27.1033 252.213 26.37 248.62C25.71 245.027 25.2333 241.433 24.94 237.84C24.6467 234.173 24.5 230.873 24.5 227.94C24.5 224.2 24.7933 220.24 25.38 216.06C25.9667 211.88 26.9933 207.957 28.46 204.29C29.9267 200.55 31.9433 197.507 34.51 195.16C37.0767 192.813 40.3767 191.64 44.41 191.64C47.1967 191.64 49.6167 192.557 51.67 194.39C53.7967 196.15 55.7033 198.643 57.39 201.87C59.0767 205.023 60.69 208.653 62.23 212.76C63.77 216.867 65.42 221.23 67.18 225.85C66.8867 219.543 67.07 213.823 67.73 208.69C68.4633 203.483 69.93 199.34 72.13 196.26C74.33 193.18 77.4467 191.64 81.48 191.64C84.9267 191.64 87.6767 192.813 89.73 195.16C91.8567 197.507 93.47 200.55 94.57 204.29C95.67 207.957 96.4033 211.88 96.77 216.06C97.21 220.24 97.43 224.2 97.43 227.94C97.43 230.947 97.21 234.247 96.77 237.84C96.33 241.433 95.5967 245.027 94.57 248.62C93.5433 252.213 92.15 255.513 90.39 258.52C88.63 261.527 86.4667 263.947 83.9 265.78C81.4067 267.613 78.4 268.53 74.88 268.53C71.7267 268.53 69.0133 267.54 66.74 265.56C64.54 263.507 62.56 260.83 60.8 257.53C59.1133 254.157 57.5367 250.453 56.07 246.42C54.6033 242.387 53.0633 238.353 51.45 234.32C51.5233 239.38 51.5233 244.037 51.45 248.29C51.3767 252.47 50.9733 256.063 50.24 259.07C49.58 262.077 48.4067 264.423 46.72 266.11C45.0333 267.723 42.6133 268.53 39.46 268.53Z" fill="white"/><path d="M127.198 268.53C121.698 268.53 116.858 267.467 112.678 265.34C108.571 263.14 105.345 260.17 102.998 256.43C100.725 252.617 99.5879 248.253 99.5879 243.34C99.5879 238.573 100.725 234.173 102.998 230.14C105.345 226.107 108.535 222.88 112.568 220.46C116.675 218.04 121.368 216.83 126.648 216.83C131.561 216.83 135.778 217.82 139.298 219.8C142.818 221.78 145.495 224.31 147.328 227.39C149.235 230.397 150.188 233.587 150.188 236.96C150.188 240.333 149.418 243.12 147.878 245.32C146.338 247.447 144.321 249.097 141.828 250.27C139.408 251.37 136.805 252.103 134.018 252.47C131.231 252.837 128.555 252.91 125.988 252.69C123.421 252.397 121.258 251.957 119.498 251.37C120.818 253.497 122.468 254.963 124.448 255.77C126.501 256.503 128.628 256.833 130.828 256.76C133.101 256.613 135.155 256.357 136.988 255.99C139.261 255.477 141.131 255.587 142.598 256.32C144.065 257.053 144.835 258.227 144.908 259.84C144.981 261.16 144.505 262.48 143.478 263.8C142.525 265.12 140.765 266.257 138.198 267.21C135.631 268.09 131.965 268.53 127.198 268.53ZM119.828 237.95C120.561 239.123 121.625 239.967 123.018 240.48C124.411 240.92 125.805 241.067 127.198 240.92C128.665 240.773 129.875 240.37 130.828 239.71C131.855 239.05 132.368 238.133 132.368 236.96C132.368 235.713 131.855 234.613 130.828 233.66C129.875 232.633 128.335 232.12 126.208 232.12C124.155 232.12 122.578 232.78 121.478 234.1C120.378 235.347 119.828 236.63 119.828 237.95Z" fill="white"/><path d="M164.128 215.18C160.534 215.18 157.491 213.897 154.998 211.33C152.504 208.69 151.258 205.5 151.258 201.76C151.258 199.267 151.808 197.03 152.908 195.05C154.081 193.07 155.621 191.493 157.528 190.32C159.508 189.073 161.708 188.45 164.128 188.45C166.474 188.45 168.601 189.073 170.508 190.32C172.488 191.493 174.064 193.07 175.238 195.05C176.411 197.03 176.998 199.267 176.998 201.76C176.998 204.253 176.411 206.527 175.238 208.58C174.064 210.56 172.488 212.173 170.508 213.42C168.601 214.593 166.474 215.18 164.128 215.18ZM164.128 268.53C161.194 268.53 158.994 267.687 157.528 266C156.134 264.313 155.181 261.747 154.668 258.3C154.228 254.78 153.971 250.27 153.898 244.77C153.898 239.27 154.118 234.76 154.558 231.24C155.071 227.72 156.061 225.153 157.528 223.54C158.994 221.853 161.194 221.01 164.128 221.01C167.061 221.01 169.224 221.853 170.618 223.54C172.084 225.153 173.074 227.72 173.588 231.24C174.101 234.76 174.358 239.27 174.358 244.77C174.431 250.27 174.211 254.78 173.698 258.3C173.184 261.747 172.194 264.313 170.728 266C169.261 267.687 167.061 268.53 164.128 268.53Z" fill="white"/><path d="M194.288 268.53C191.794 268.53 189.741 267.723 188.128 266.11C186.588 264.423 185.414 262.187 184.608 259.4C183.801 256.613 183.251 253.423 182.958 249.83C182.664 246.237 182.518 242.533 182.518 238.72C182.518 236.153 182.554 233.55 182.628 230.91C182.774 228.197 183.141 225.703 183.728 223.43C184.388 221.157 185.451 219.323 186.918 217.93C188.458 216.463 190.621 215.73 193.408 215.73C195.388 215.73 197.184 216.207 198.798 217.16C200.411 218.04 201.438 219.397 201.878 221.23C203.564 219.69 205.691 218.59 208.258 217.93C210.898 217.197 213.611 216.83 216.398 216.83C218.744 216.83 221.128 217.417 223.548 218.59C225.968 219.69 228.021 221.23 229.708 223.21C231.394 225.19 232.238 227.427 232.238 229.92C232.238 232.047 231.431 234.063 229.818 235.97C228.278 237.877 226.078 238.83 223.218 238.83C221.971 238.83 220.944 238.683 220.138 238.39C219.331 238.023 218.561 237.693 217.828 237.4C217.094 237.107 216.214 236.96 215.188 236.96C212.474 236.96 209.981 238.06 207.708 240.26C205.508 242.387 204.408 245.283 204.408 248.95C204.408 250.857 204.334 252.947 204.188 255.22C204.114 257.42 203.784 259.547 203.198 261.6C202.684 263.653 201.731 265.34 200.338 266.66C198.944 267.907 196.928 268.53 194.288 268.53Z" fill="white"/><path d="M259.754 268.64C254.327 268.713 249.561 267.613 245.454 265.34C241.421 262.993 238.231 259.84 235.884 255.88C233.611 251.847 232.401 247.41 232.254 242.57C232.181 237.583 233.317 233.183 235.664 229.37C238.011 225.483 241.274 222.403 245.454 220.13C249.634 217.857 254.401 216.72 259.754 216.72C265.034 216.647 269.691 217.747 273.724 220.02C277.831 222.293 281.094 225.373 283.514 229.26C285.934 233.147 287.217 237.583 287.364 242.57C287.437 247.337 286.301 251.7 283.954 255.66C281.607 259.547 278.344 262.663 274.164 265.01C269.984 267.283 265.181 268.493 259.754 268.64ZM260.084 252.58C262.064 252.58 263.787 251.81 265.254 250.27C266.721 248.73 267.454 246.933 267.454 244.88C267.454 242.827 266.721 241.067 265.254 239.6C263.787 238.06 262.064 237.29 260.084 237.29C258.104 237.29 256.381 238.06 254.914 239.6C253.447 241.067 252.714 242.827 252.714 244.88C252.714 246.933 253.447 248.73 254.914 250.27C256.381 251.81 258.104 252.58 260.084 252.58Z" fill="white"/><path d="M322.76 205.39C322.76 208.323 322.247 211 321.22 213.42C320.193 215.84 318.873 217.893 317.26 219.58C315.72 221.267 314.106 222.587 312.42 223.54C310.806 224.42 309.377 224.86 308.13 224.86C306.59 224.86 305.343 224.42 304.39 223.54C303.51 222.66 303.07 221.56 303.07 220.24C303.07 218.92 303.436 217.82 304.17 216.94C304.976 216.06 305.82 215.18 306.7 214.3C307.58 213.42 308.167 212.357 308.46 211.11C305.967 210.377 304.097 209.203 302.85 207.59C301.677 205.903 301.09 204.033 301.09 201.98C301.09 199.413 302.007 197.03 303.84 194.83C305.747 192.63 308.24 191.53 311.32 191.53C314.62 191.53 317.333 192.63 319.46 194.83C321.66 197.03 322.76 200.55 322.76 205.39Z" fill="white"/><path d="M357.681 268.53C351.227 268.53 346.094 267.467 342.281 265.34C338.467 263.213 336.561 260.463 336.561 257.09C336.561 254.743 337.331 253.02 338.871 251.92C340.484 250.747 342.391 250.16 344.591 250.16C346.351 250.16 347.634 250.453 348.441 251.04C349.321 251.627 350.091 252.213 350.751 252.8C351.411 253.387 352.217 253.68 353.171 253.68C354.711 253.68 355.481 253.13 355.481 252.03C355.481 250.563 354.601 249.5 352.841 248.84C351.154 248.18 349.027 247.263 346.461 246.09C342.941 244.403 340.411 242.46 338.871 240.26C337.331 237.987 336.561 235.677 336.561 233.33C336.561 230.543 337.551 227.903 339.531 225.41C341.511 222.917 344.297 220.863 347.891 219.25C351.557 217.637 355.921 216.83 360.981 216.83C365.234 216.83 369.047 217.417 372.421 218.59C375.794 219.763 378.471 221.377 380.451 223.43C382.431 225.41 383.421 227.61 383.421 230.03C383.421 232.303 382.687 234.027 381.221 235.2C379.754 236.373 377.847 236.96 375.501 236.96C374.181 236.96 373.117 236.777 372.311 236.41C371.577 235.97 370.881 235.567 370.221 235.2C369.634 234.833 368.791 234.65 367.691 234.65C367.104 234.65 366.591 234.87 366.151 235.31C365.711 235.677 365.491 236.153 365.491 236.74C365.491 237.18 365.674 237.62 366.041 238.06C366.407 238.5 367.031 238.867 367.911 239.16C370.184 239.893 372.384 240.847 374.511 242.02C376.711 243.12 378.507 244.587 379.901 246.42C381.367 248.18 382.101 250.453 382.101 253.24C382.101 258.007 379.864 261.747 375.391 264.46C370.917 267.173 365.014 268.53 357.681 268.53Z" fill="white"/><path d="M450.784 268.53C444.917 268.53 439.784 266.917 435.384 263.69C431.057 260.463 427.72 255.917 425.374 250.05C423.027 244.11 421.854 237.07 421.854 228.93C421.854 225.63 422.257 222.037 423.064 218.15C423.944 214.19 425.227 210.45 426.914 206.93C428.6 203.337 430.654 200.403 433.074 198.13C435.494 195.857 438.28 194.72 441.434 194.72C444.734 194.72 447.41 195.893 449.464 198.24C451.59 200.587 452.654 203.483 452.654 206.93C452.654 208.69 452.177 210.963 451.224 213.75C450.27 216.463 449.317 219.397 448.364 222.55C447.41 225.63 446.934 228.637 446.934 231.57C446.934 235.017 447.447 237.437 448.474 238.83C449.5 240.15 450.637 240.81 451.884 240.81C453.717 240.81 455 239.893 455.734 238.06C456.54 236.227 456.944 232.743 456.944 227.61C456.944 224.897 456.907 222 456.834 218.92C456.834 215.84 457.09 212.943 457.604 210.23C458.19 207.443 459.29 205.17 460.904 203.41C462.59 201.65 465.084 200.77 468.384 200.77C471.684 200.77 474.177 201.613 475.864 203.3C477.624 204.987 478.797 207.187 479.384 209.9C479.97 212.54 480.264 215.363 480.264 218.37C480.337 221.377 480.374 224.237 480.374 226.95C480.374 232.45 480.85 236.3 481.804 238.5C482.757 240.627 484.224 241.69 486.204 241.69C487.67 241.69 488.807 240.883 489.614 239.27C490.42 237.583 490.75 235.017 490.604 231.57C490.457 228.637 489.907 225.74 488.954 222.88C488 219.947 487.047 217.123 486.094 214.41C485.214 211.697 484.774 209.203 484.774 206.93C484.774 203.337 485.91 200.44 488.184 198.24C490.457 196.04 493.06 194.94 495.994 194.94C499.44 194.94 502.41 196.077 504.904 198.35C507.397 200.623 509.45 203.52 511.064 207.04C512.677 210.56 513.85 214.263 514.584 218.15C515.39 222.037 515.794 225.63 515.794 228.93C515.794 237.07 514.62 244.11 512.274 250.05C509.927 255.917 506.59 260.463 502.264 263.69C497.937 266.843 492.804 268.42 486.864 268.42C483.71 268.42 480.594 267.723 477.514 266.33C474.434 264.863 471.537 262.627 468.824 259.62C466.11 262.627 463.177 264.863 460.024 266.33C456.944 267.797 453.864 268.53 450.784 268.53Z" fill="white"/><path d="M534.196 215.18C530.603 215.18 527.559 213.897 525.066 211.33C522.573 208.69 521.326 205.5 521.326 201.76C521.326 199.267 521.876 197.03 522.976 195.05C524.149 193.07 525.689 191.493 527.596 190.32C529.576 189.073 531.776 188.45 534.196 188.45C536.543 188.45 538.67 189.073 540.576 190.32C542.556 191.493 544.133 193.07 545.306 195.05C546.479 197.03 547.066 199.267 547.066 201.76C547.066 204.253 546.479 206.527 545.306 208.58C544.133 210.56 542.556 212.173 540.576 213.42C538.67 214.593 536.543 215.18 534.196 215.18ZM534.196 268.53C531.263 268.53 529.063 267.687 527.596 266C526.203 264.313 525.25 261.747 524.736 258.3C524.296 254.78 524.04 250.27 523.966 244.77C523.966 239.27 524.186 234.76 524.626 231.24C525.139 227.72 526.129 225.153 527.596 223.54C529.063 221.853 531.263 221.01 534.196 221.01C537.13 221.01 539.293 221.853 540.686 223.54C542.153 225.153 543.143 227.72 543.656 231.24C544.17 234.76 544.426 239.27 544.426 244.77C544.499 250.27 544.28 254.78 543.766 258.3C543.253 261.747 542.263 264.313 540.796 266C539.329 267.687 537.13 268.53 534.196 268.53Z" fill="white"/><path d="M574.472 268.31C571.685 268.31 569.448 267.32 567.762 265.34C566.075 263.36 564.792 260.647 563.912 257.2C563.105 253.68 562.555 249.61 562.262 244.99C557.788 244.623 554.305 243.743 551.812 242.35C549.392 240.957 548.182 238.537 548.182 235.09C548.182 231.643 549.392 229.223 551.812 227.83C554.305 226.363 557.788 225.41 562.262 224.97C562.628 218.443 563.618 212.65 565.232 207.59C566.918 202.53 569.632 198.607 573.372 195.82C577.112 192.96 582.355 191.53 589.102 191.53C592.842 191.53 596.105 192.41 598.892 194.17C601.752 195.93 603.182 198.68 603.182 202.42C603.182 206.307 601.935 209.167 599.442 211C597.022 212.76 594.088 213.97 590.642 214.63C587.928 215.143 586.022 216.353 584.922 218.26C583.822 220.093 583.125 222.257 582.832 224.75C589.432 224.897 594.455 225.593 597.902 226.84C601.422 228.087 603.182 230.837 603.182 235.09C603.182 237.877 602.375 240.003 600.762 241.47C599.148 242.863 596.802 243.817 593.722 244.33C590.715 244.843 587.158 245.137 583.052 245.21C583.052 248.143 583.088 250.82 583.162 253.24C583.235 255.587 583.272 257.75 583.272 259.73C583.272 262.077 582.795 263.873 581.842 265.12C580.888 266.367 579.715 267.21 578.322 267.65C577.002 268.09 575.718 268.31 574.472 268.31Z" fill="white"/><path d="M632.403 268.53C626.903 268.53 622.063 267.467 617.883 265.34C613.776 263.14 610.55 260.17 608.203 256.43C605.93 252.617 604.793 248.253 604.793 243.34C604.793 238.573 605.93 234.173 608.203 230.14C610.55 226.107 613.74 222.88 617.773 220.46C621.88 218.04 626.573 216.83 631.853 216.83C636.766 216.83 640.983 217.82 644.503 219.8C648.023 221.78 650.7 224.31 652.533 227.39C654.44 230.397 655.393 233.587 655.393 236.96C655.393 240.333 654.623 243.12 653.083 245.32C651.543 247.447 649.526 249.097 647.033 250.27C644.613 251.37 642.01 252.103 639.223 252.47C636.436 252.837 633.76 252.91 631.193 252.69C628.626 252.397 626.463 251.957 624.703 251.37C626.023 253.497 627.673 254.963 629.653 255.77C631.706 256.503 633.833 256.833 636.033 256.76C638.306 256.613 640.36 256.357 642.193 255.99C644.466 255.477 646.336 255.587 647.803 256.32C649.27 257.053 650.04 258.227 650.113 259.84C650.186 261.16 649.71 262.48 648.683 263.8C647.73 265.12 645.97 266.257 643.403 267.21C640.836 268.09 637.17 268.53 632.403 268.53ZM625.033 237.95C625.766 239.123 626.83 239.967 628.223 240.48C629.616 240.92 631.01 241.067 632.403 240.92C633.87 240.773 635.08 240.37 636.033 239.71C637.06 239.05 637.573 238.133 637.573 236.96C637.573 235.713 637.06 234.613 636.033 233.66C635.08 232.633 633.54 232.12 631.413 232.12C629.36 232.12 627.783 232.78 626.683 234.1C625.583 235.347 625.033 236.63 625.033 237.95Z" fill="white"/><path d="M106.08 124.1C106.08 132.713 102.963 139.627 96.73 144.84C90.61 150.053 81.8833 153.227 70.55 154.36C70.3233 159.007 69.9267 162.52 69.36 164.9C68.7933 167.28 68.0567 168.81 67.15 169.49C66.2433 170.283 65.11 170.68 63.75 170.68C62.39 170.68 61.2567 170.283 60.35 169.49C59.4433 168.81 58.7067 167.28 58.14 164.9C57.6867 162.633 57.29 159.177 56.95 154.53C50.15 154.077 43.69 152.83 37.57 150.79C31.5633 148.637 26.6333 145.803 22.78 142.29C18.9267 138.663 17 134.47 17 129.71C17 124.95 18.4167 121.267 21.25 118.66C24.1967 115.94 27.7667 114.58 31.96 114.58C34.9067 114.58 37.6267 115.487 40.12 117.3C42.7267 119 45.2767 120.983 47.77 123.25C50.3767 125.517 53.21 127.387 56.27 128.86C56.1567 126.48 56.1 123.93 56.1 121.21C56.1 118.49 56.1 115.6 56.1 112.54C54.74 112.087 53.2667 111.577 51.68 111.01C50.0933 110.443 48.45 109.877 46.75 109.31C37.4567 106.25 30.1467 102.057 24.82 96.73C19.6067 91.4033 17 83.6967 17 73.61C17 67.6033 18.7 61.9367 22.1 56.61C25.6133 51.2833 30.3733 46.8067 36.38 43.18C42.3867 39.5533 49.1867 37.23 56.78 36.21C57.0067 30.6567 57.4033 26.52 57.97 23.8C58.5367 20.9667 59.2733 19.1533 60.18 18.36C61.2 17.4533 62.39 17 63.75 17C65.11 17 66.2433 17.4533 67.15 18.36C68.17 19.1533 68.9633 20.91 69.53 23.63C70.0967 26.35 70.4933 30.4867 70.72 36.04C78.2 36.72 84.8867 38.5333 90.78 41.48C96.6733 44.4267 101.32 48.11 104.72 52.53C108.12 56.95 109.82 61.6533 109.82 66.64C109.82 71.1733 108.857 74.8 106.93 77.52C105.117 80.24 102.793 82.2233 99.96 83.47C97.24 84.7167 94.5767 85.34 91.97 85.34C87.21 85.34 83.2433 84.4333 80.07 82.62C77.01 80.6933 74.12 78.8233 71.4 77.01C71.4 79.1633 71.4 81.3733 71.4 83.64C71.4 85.9067 71.4 88.2867 71.4 90.78C72.76 91.2333 74.0633 91.63 75.31 91.97C85.7367 95.03 93.4433 99.1667 98.43 104.38C103.53 109.48 106.08 116.053 106.08 124.1ZM48.96 80.41C48.96 81.77 49.5267 82.96 50.66 83.98C51.9067 84.8867 53.72 85.7367 56.1 86.53C56.1 84.15 56.1 81.8833 56.1 79.73C56.1 77.5767 56.1 75.5367 56.1 73.61C53.72 74.0633 51.9067 74.97 50.66 76.33C49.5267 77.5767 48.96 78.9367 48.96 80.41ZM77.86 123.76C77.86 121.607 75.7067 119.623 71.4 117.81C71.4 122.57 71.3433 126.763 71.23 130.39C75.65 129.257 77.86 127.047 77.86 123.76Z" fill="white"/><path d="M141.39 154.53C137.876 154.53 134.76 153.113 132.04 150.28C129.433 147.447 127.223 143.707 125.41 139.06C123.71 134.413 122.293 129.313 121.16 123.76C120.14 118.207 119.403 112.653 118.95 107.1C118.496 101.433 118.27 96.3333 118.27 91.8C118.27 86.02 118.723 79.9 119.63 73.44C120.536 66.98 122.123 60.9167 124.39 55.25C126.656 49.47 129.773 44.7667 133.74 41.14C137.706 37.5133 142.806 35.7 149.04 35.7C153.346 35.7 157.086 37.1167 160.26 39.95C163.546 42.67 166.493 46.5233 169.1 51.51C171.706 56.3833 174.2 61.9933 176.58 68.34C178.96 74.6867 181.51 81.43 184.23 88.57C183.776 78.8233 184.06 69.9833 185.08 62.05C186.213 54.0033 188.48 47.6 191.88 42.84C195.28 38.08 200.096 35.7 206.33 35.7C211.656 35.7 215.906 37.5133 219.08 41.14C222.366 44.7667 224.86 49.47 226.56 55.25C228.26 60.9167 229.393 66.98 229.96 73.44C230.64 79.9 230.98 86.02 230.98 91.8C230.98 96.4467 230.64 101.547 229.96 107.1C229.28 112.653 228.146 118.207 226.56 123.76C224.973 129.313 222.82 134.413 220.1 139.06C217.38 143.707 214.036 147.447 210.07 150.28C206.216 153.113 201.57 154.53 196.13 154.53C191.256 154.53 187.063 153 183.55 149.94C180.15 146.767 177.09 142.63 174.37 137.53C171.763 132.317 169.326 126.593 167.06 120.36C164.793 114.127 162.413 107.893 159.92 101.66C160.033 109.48 160.033 116.677 159.92 123.25C159.806 129.71 159.183 135.263 158.05 139.91C157.03 144.557 155.216 148.183 152.61 150.79C150.003 153.283 146.263 154.53 141.39 154.53Z" fill="white"/><path d="M295.941 154.53C291.294 154.53 286.307 154.19 280.981 153.51C275.767 152.83 270.611 151.413 265.511 149.26C260.411 147.107 255.764 143.933 251.571 139.74C247.377 135.547 244.034 129.993 241.541 123.08C239.047 116.053 237.801 107.383 237.801 97.07C237.801 85.7367 239.727 75.4233 243.581 66.13C247.434 56.8367 253.271 49.4133 261.091 43.86C268.911 38.3067 278.714 35.53 290.501 35.53C299.001 35.53 305.914 36.2667 311.241 37.74C316.681 39.2133 320.931 41.14 323.991 43.52C327.051 45.9 329.147 48.5067 330.281 51.34C331.527 54.1733 332.151 57.0067 332.151 59.84C332.151 62.7867 331.357 65.62 329.771 68.34C328.297 71.06 325.917 73.2133 322.631 74.8C319.457 76.2733 316.171 76.9533 312.771 76.84C309.371 76.6133 306.311 76.5 303.591 76.5C297.697 76.5 293.051 77.5767 289.651 79.73C286.364 81.77 284.041 84.9433 282.681 89.25C284.494 89.1367 286.477 89.08 288.631 89.08C290.897 88.9667 293.221 88.91 295.601 88.91C300.247 88.91 304.667 89.0233 308.861 89.25C313.167 89.3633 316.171 89.59 317.871 89.93C321.837 90.7233 324.841 92.31 326.881 94.69C328.921 96.9567 329.941 99.5633 329.941 102.51C329.941 105.343 328.977 107.893 327.051 110.16C325.124 112.427 322.007 114.013 317.701 114.92C316.114 115.26 313.054 115.543 308.521 115.77C304.101 115.883 299.454 115.94 294.581 115.94C292.654 115.94 290.784 115.94 288.971 115.94C287.157 115.827 285.514 115.77 284.041 115.77C285.627 119.283 288.007 122.06 291.181 124.1C294.467 126.027 298.661 126.99 303.761 126.99C305.687 126.99 308.464 126.82 312.091 126.48C315.717 126.027 319.231 126.31 322.631 127.33C328.071 129.03 330.791 132.6 330.791 138.04C330.791 140.987 329.771 143.763 327.731 146.37C325.804 148.863 322.291 150.847 317.191 152.32C312.204 153.793 305.121 154.53 295.941 154.53Z" fill="white"/><path d="M377.49 154.02C373.524 154.02 369.5 153.963 365.42 153.85C361.34 153.623 357.6 153.057 354.2 152.15C350.8 151.243 348.024 149.713 345.87 147.56C343.83 145.407 342.81 142.403 342.81 138.55C342.81 133.563 344.51 130.05 347.91 128.01C351.31 125.857 355.447 124.44 360.32 123.76C359.98 119.793 359.754 115.487 359.64 110.84C359.527 106.08 359.47 100.98 359.47 95.54C359.47 90.5533 359.527 85.85 359.64 81.43C359.754 76.8967 359.924 72.76 360.15 69.02C354.37 68.34 349.384 66.8667 345.19 64.6C341.11 62.3333 339.07 58.31 339.07 52.53C339.07 48.2233 340.204 44.9367 342.47 42.67C344.737 40.29 347.74 38.6467 351.48 37.74C355.334 36.72 359.47 36.0967 363.89 35.87C368.424 35.6433 372.9 35.53 377.32 35.53C381.74 35.53 386.217 35.6433 390.75 35.87C395.284 36.0967 399.42 36.72 403.16 37.74C406.9 38.6467 409.904 40.29 412.17 42.67C414.55 44.9367 415.74 48.2233 415.74 52.53C415.74 56.3833 414.777 59.4433 412.85 61.71C410.924 63.9767 408.317 65.6767 405.03 66.81C401.744 67.83 398.174 68.5667 394.32 69.02C394.66 72.76 394.887 76.84 395 81.26C395.114 85.68 395.17 90.44 395.17 95.54C395.17 100.98 395.057 106.08 394.83 110.84C394.717 115.487 394.49 119.793 394.15 123.76C399.25 124.327 403.557 125.687 407.07 127.84C410.697 129.88 412.51 133.45 412.51 138.55C412.51 142.403 411.434 145.407 409.28 147.56C407.24 149.713 404.464 151.243 400.95 152.15C397.55 153.057 393.81 153.623 389.73 153.85C385.65 153.963 381.57 154.02 377.49 154.02Z" fill="white"/><path d="M441.44 154.7C436.34 154.7 432.09 153.057 428.69 149.77C425.403 146.37 422.796 141.893 420.87 136.34C418.943 130.673 417.583 124.497 416.79 117.81C416.11 111.123 415.77 104.493 415.77 97.92C415.77 90.2133 416.79 82.6767 418.83 75.31C420.983 67.9433 424.213 61.3133 428.52 55.42C432.94 49.4133 438.493 44.6533 445.18 41.14C451.866 37.6267 459.8 35.87 468.98 35.87C478.273 35.87 486.66 37.7967 494.14 41.65C501.733 45.5033 507.796 51 512.33 58.14C516.863 65.28 519.13 73.78 519.13 83.64C519.13 92.2533 517.826 99.7333 515.22 106.08C512.726 112.313 509.383 117.47 505.19 121.55C506.89 124.157 508.25 126.933 509.27 129.88C510.29 132.827 510.8 135.66 510.8 138.38C510.8 141.553 509.95 144.387 508.25 146.88C506.55 149.26 504.34 151.13 501.62 152.49C499.013 153.85 496.236 154.53 493.29 154.53C490.796 154.53 488.473 154.133 486.32 153.34C484.166 152.547 481.786 151.187 479.18 149.26C476.8 147.447 474.703 145.067 472.89 142.12C471.076 139.06 469.603 136.057 468.47 133.11C464.503 132.657 460.763 131.693 457.25 130.22C457.816 132.94 458.1 135.717 458.1 138.55C458.213 141.383 457.76 144.047 456.74 146.54C455.833 148.92 454.133 150.903 451.64 152.49C449.26 153.963 445.86 154.7 441.44 154.7ZM470.68 106.08C474.76 106.08 478.273 104.663 481.22 101.83C484.28 98.8833 485.81 95.4833 485.81 91.63C485.81 87.6633 484.28 84.2633 481.22 81.43C478.273 78.4833 474.76 77.01 470.68 77.01C466.6 77.01 463.03 78.4833 459.97 81.43C457.023 84.2633 455.55 87.6633 455.55 91.63C455.55 95.4833 457.023 98.8833 459.97 101.83C463.03 104.663 466.6 106.08 470.68 106.08Z" fill="white"/><path d="M550.864 154.87C543.044 154.87 536.867 151.073 532.334 143.48C527.914 135.887 525.307 125.913 524.514 113.56C523.607 98.26 525.25 84.7733 529.444 73.1C533.75 61.3133 540.21 52.1333 548.824 45.56C557.437 38.9867 567.694 35.7 579.594 35.7C591.607 35.7 601.864 38.9867 610.364 45.56C618.977 52.1333 625.38 61.2567 629.574 72.93C633.88 84.6033 635.524 98.1467 634.504 113.56C633.71 126.253 631.047 136.283 626.514 143.65C622.094 151.017 615.974 154.7 608.154 154.7C603.734 154.7 600.334 153.907 597.954 152.32C595.574 150.62 593.874 148.523 592.854 146.03C591.947 143.423 591.494 140.817 591.494 138.21C591.494 135.49 591.664 133.167 592.004 131.24C588.377 131.353 584.127 131.467 579.254 131.58C574.38 131.58 570.3 131.467 567.014 131.24C567.354 133.167 567.524 135.49 567.524 138.21C567.524 140.817 567.014 143.423 565.994 146.03C565.087 148.523 563.444 150.62 561.064 152.32C558.684 154.02 555.284 154.87 550.864 154.87ZM565.824 100.98C574.777 100.64 583.73 100.64 592.684 100.98C593.25 97.0133 593.194 93.2167 592.514 89.59C591.834 85.9633 590.417 83.0167 588.264 80.75C586.11 78.4833 583.05 77.35 579.084 77.35C575.117 77.35 572.057 78.4833 569.904 80.75C567.864 83.0167 566.504 85.9633 565.824 89.59C565.257 93.1033 565.257 96.9 565.824 100.98Z" fill="white"/><path d="M39.46 268.53C37.1867 268.53 35.17 267.613 33.41 265.78C31.7233 263.947 30.2933 261.527 29.12 258.52C28.02 255.513 27.1033 252.213 26.37 248.62C25.71 245.027 25.2333 241.433 24.94 237.84C24.6467 234.173 24.5 230.873 24.5 227.94C24.5 224.2 24.7933 220.24 25.38 216.06C25.9667 211.88 26.9933 207.957 28.46 204.29C29.9267 200.55 31.9433 197.507 34.51 195.16C37.0767 192.813 40.3767 191.64 44.41 191.64C47.1967 191.64 49.6167 192.557 51.67 194.39C53.7967 196.15 55.7033 198.643 57.39 201.87C59.0767 205.023 60.69 208.653 62.23 212.76C63.77 216.867 65.42 221.23 67.18 225.85C66.8867 219.543 67.07 213.823 67.73 208.69C68.4633 203.483 69.93 199.34 72.13 196.26C74.33 193.18 77.4467 191.64 81.48 191.64C84.9267 191.64 87.6767 192.813 89.73 195.16C91.8567 197.507 93.47 200.55 94.57 204.29C95.67 207.957 96.4033 211.88 96.77 216.06C97.21 220.24 97.43 224.2 97.43 227.94C97.43 230.947 97.21 234.247 96.77 237.84C96.33 241.433 95.5967 245.027 94.57 248.62C93.5433 252.213 92.15 255.513 90.39 258.52C88.63 261.527 86.4667 263.947 83.9 265.78C81.4067 267.613 78.4 268.53 74.88 268.53C71.7267 268.53 69.0133 267.54 66.74 265.56C64.54 263.507 62.56 260.83 60.8 257.53C59.1133 254.157 57.5367 250.453 56.07 246.42C54.6033 242.387 53.0633 238.353 51.45 234.32C51.5233 239.38 51.5233 244.037 51.45 248.29C51.3767 252.47 50.9733 256.063 50.24 259.07C49.58 262.077 48.4067 264.423 46.72 266.11C45.0333 267.723 42.6133 268.53 39.46 268.53Z" stroke="black" stroke-width="8" mask="url(#path-1-outside-1_107_830)"/><path d="M127.198 268.53C121.698 268.53 116.858 267.467 112.678 265.34C108.571 263.14 105.345 260.17 102.998 256.43C100.725 252.617 99.5879 248.253 99.5879 243.34C99.5879 238.573 100.725 234.173 102.998 230.14C105.345 226.107 108.535 222.88 112.568 220.46C116.675 218.04 121.368 216.83 126.648 216.83C131.561 216.83 135.778 217.82 139.298 219.8C142.818 221.78 145.495 224.31 147.328 227.39C149.235 230.397 150.188 233.587 150.188 236.96C150.188 240.333 149.418 243.12 147.878 245.32C146.338 247.447 144.321 249.097 141.828 250.27C139.408 251.37 136.805 252.103 134.018 252.47C131.231 252.837 128.555 252.91 125.988 252.69C123.421 252.397 121.258 251.957 119.498 251.37C120.818 253.497 122.468 254.963 124.448 255.77C126.501 256.503 128.628 256.833 130.828 256.76C133.101 256.613 135.155 256.357 136.988 255.99C139.261 255.477 141.131 255.587 142.598 256.32C144.065 257.053 144.835 258.227 144.908 259.84C144.981 261.16 144.505 262.48 143.478 263.8C142.525 265.12 140.765 266.257 138.198 267.21C135.631 268.09 131.965 268.53 127.198 268.53ZM119.828 237.95C120.561 239.123 121.625 239.967 123.018 240.48C124.411 240.92 125.805 241.067 127.198 240.92C128.665 240.773 129.875 240.37 130.828 239.71C131.855 239.05 132.368 238.133 132.368 236.96C132.368 235.713 131.855 234.613 130.828 233.66C129.875 232.633 128.335 232.12 126.208 232.12C124.155 232.12 122.578 232.78 121.478 234.1C120.378 235.347 119.828 236.63 119.828 237.95Z" stroke="black" stroke-width="8" mask="url(#path-1-outside-1_107_830)"/><path d="M164.128 215.18C160.534 215.18 157.491 213.897 154.998 211.33C152.504 208.69 151.258 205.5 151.258 201.76C151.258 199.267 151.808 197.03 152.908 195.05C154.081 193.07 155.621 191.493 157.528 190.32C159.508 189.073 161.708 188.45 164.128 188.45C166.474 188.45 168.601 189.073 170.508 190.32C172.488 191.493 174.064 193.07 175.238 195.05C176.411 197.03 176.998 199.267 176.998 201.76C176.998 204.253 176.411 206.527 175.238 208.58C174.064 210.56 172.488 212.173 170.508 213.42C168.601 214.593 166.474 215.18 164.128 215.18ZM164.128 268.53C161.194 268.53 158.994 267.687 157.528 266C156.134 264.313 155.181 261.747 154.668 258.3C154.228 254.78 153.971 250.27 153.898 244.77C153.898 239.27 154.118 234.76 154.558 231.24C155.071 227.72 156.061 225.153 157.528 223.54C158.994 221.853 161.194 221.01 164.128 221.01C167.061 221.01 169.224 221.853 170.618 223.54C172.084 225.153 173.074 227.72 173.588 231.24C174.101 234.76 174.358 239.27 174.358 244.77C174.431 250.27 174.211 254.78 173.698 258.3C173.184 261.747 172.194 264.313 170.728 266C169.261 267.687 167.061 268.53 164.128 268.53Z" stroke="black" stroke-width="8" mask="url(#path-1-outside-1_107_830)"/><path d="M194.288 268.53C191.794 268.53 189.741 267.723 188.128 266.11C186.588 264.423 185.414 262.187 184.608 259.4C183.801 256.613 183.251 253.423 182.958 249.83C182.664 246.237 182.518 242.533 182.518 238.72C182.518 236.153 182.554 233.55 182.628 230.91C182.774 228.197 183.141 225.703 183.728 223.43C184.388 221.157 185.451 219.323 186.918 217.93C188.458 216.463 190.621 215.73 193.408 215.73C195.388 215.73 197.184 216.207 198.798 217.16C200.411 218.04 201.438 219.397 201.878 221.23C203.564 219.69 205.691 218.59 208.258 217.93C210.898 217.197 213.611 216.83 216.398 216.83C218.744 216.83 221.128 217.417 223.548 218.59C225.968 219.69 228.021 221.23 229.708 223.21C231.394 225.19 232.238 227.427 232.238 229.92C232.238 232.047 231.431 234.063 229.818 235.97C228.278 237.877 226.078 238.83 223.218 238.83C221.971 238.83 220.944 238.683 220.138 238.39C219.331 238.023 218.561 237.693 217.828 237.4C217.094 237.107 216.214 236.96 215.188 236.96C212.474 236.96 209.981 238.06 207.708 240.26C205.508 242.387 204.408 245.283 204.408 248.95C204.408 250.857 204.334 252.947 204.188 255.22C204.114 257.42 203.784 259.547 203.198 261.6C202.684 263.653 201.731 265.34 200.338 266.66C198.944 267.907 196.928 268.53 194.288 268.53Z" stroke="black" stroke-width="8" mask="url(#path-1-outside-1_107_830)"/><path d="M259.754 268.64C254.327 268.713 249.561 267.613 245.454 265.34C241.421 262.993 238.231 259.84 235.884 255.88C233.611 251.847 232.401 247.41 232.254 242.57C232.181 237.583 233.317 233.183 235.664 229.37C238.011 225.483 241.274 222.403 245.454 220.13C249.634 217.857 254.401 216.72 259.754 216.72C265.034 216.647 269.691 217.747 273.724 220.02C277.831 222.293 281.094 225.373 283.514 229.26C285.934 233.147 287.217 237.583 287.364 242.57C287.437 247.337 286.301 251.7 283.954 255.66C281.607 259.547 278.344 262.663 274.164 265.01C269.984 267.283 265.181 268.493 259.754 268.64ZM260.084 252.58C262.064 252.58 263.787 251.81 265.254 250.27C266.721 248.73 267.454 246.933 267.454 244.88C267.454 242.827 266.721 241.067 265.254 239.6C263.787 238.06 262.064 237.29 260.084 237.29C258.104 237.29 256.381 238.06 254.914 239.6C253.447 241.067 252.714 242.827 252.714 244.88C252.714 246.933 253.447 248.73 254.914 250.27C256.381 251.81 258.104 252.58 260.084 252.58Z" stroke="black" stroke-width="8" mask="url(#path-1-outside-1_107_830)"/><path d="M322.76 205.39C322.76 208.323 322.247 211 321.22 213.42C320.193 215.84 318.873 217.893 317.26 219.58C315.72 221.267 314.106 222.587 312.42 223.54C310.806 224.42 309.377 224.86 308.13 224.86C306.59 224.86 305.343 224.42 304.39 223.54C303.51 222.66 303.07 221.56 303.07 220.24C303.07 218.92 303.436 217.82 304.17 216.94C304.976 216.06 305.82 215.18 306.7 214.3C307.58 213.42 308.167 212.357 308.46 211.11C305.967 210.377 304.097 209.203 302.85 207.59C301.677 205.903 301.09 204.033 301.09 201.98C301.09 199.413 302.007 197.03 303.84 194.83C305.747 192.63 308.24 191.53 311.32 191.53C314.62 191.53 317.333 192.63 319.46 194.83C321.66 197.03 322.76 200.55 322.76 205.39Z" stroke="black" stroke-width="8" mask="url(#path-1-outside-1_107_830)"/><path d="M357.681 268.53C351.227 268.53 346.094 267.467 342.281 265.34C338.467 263.213 336.561 260.463 336.561 257.09C336.561 254.743 337.331 253.02 338.871 251.92C340.484 250.747 342.391 250.16 344.591 250.16C346.351 250.16 347.634 250.453 348.441 251.04C349.321 251.627 350.091 252.213 350.751 252.8C351.411 253.387 352.217 253.68 353.171 253.68C354.711 253.68 355.481 253.13 355.481 252.03C355.481 250.563 354.601 249.5 352.841 248.84C351.154 248.18 349.027 247.263 346.461 246.09C342.941 244.403 340.411 242.46 338.871 240.26C337.331 237.987 336.561 235.677 336.561 233.33C336.561 230.543 337.551 227.903 339.531 225.41C341.511 222.917 344.297 220.863 347.891 219.25C351.557 217.637 355.921 216.83 360.981 216.83C365.234 216.83 369.047 217.417 372.421 218.59C375.794 219.763 378.471 221.377 380.451 223.43C382.431 225.41 383.421 227.61 383.421 230.03C383.421 232.303 382.687 234.027 381.221 235.2C379.754 236.373 377.847 236.96 375.501 236.96C374.181 236.96 373.117 236.777 372.311 236.41C371.577 235.97 370.881 235.567 370.221 235.2C369.634 234.833 368.791 234.65 367.691 234.65C367.104 234.65 366.591 234.87 366.151 235.31C365.711 235.677 365.491 236.153 365.491 236.74C365.491 237.18 365.674 237.62 366.041 238.06C366.407 238.5 367.031 238.867 367.911 239.16C370.184 239.893 372.384 240.847 374.511 242.02C376.711 243.12 378.507 244.587 379.901 246.42C381.367 248.18 382.101 250.453 382.101 253.24C382.101 258.007 379.864 261.747 375.391 264.46C370.917 267.173 365.014 268.53 357.681 268.53Z" stroke="black" stroke-width="8" mask="url(#path-1-outside-1_107_830)"/><path d="M450.784 268.53C444.917 268.53 439.784 266.917 435.384 263.69C431.057 260.463 427.72 255.917 425.374 250.05C423.027 244.11 421.854 237.07 421.854 228.93C421.854 225.63 422.257 222.037 423.064 218.15C423.944 214.19 425.227 210.45 426.914 206.93C428.6 203.337 430.654 200.403 433.074 198.13C435.494 195.857 438.28 194.72 441.434 194.72C444.734 194.72 447.41 195.893 449.464 198.24C451.59 200.587 452.654 203.483 452.654 206.93C452.654 208.69 452.177 210.963 451.224 213.75C450.27 216.463 449.317 219.397 448.364 222.55C447.41 225.63 446.934 228.637 446.934 231.57C446.934 235.017 447.447 237.437 448.474 238.83C449.5 240.15 450.637 240.81 451.884 240.81C453.717 240.81 455 239.893 455.734 238.06C456.54 236.227 456.944 232.743 456.944 227.61C456.944 224.897 456.907 222 456.834 218.92C456.834 215.84 457.09 212.943 457.604 210.23C458.19 207.443 459.29 205.17 460.904 203.41C462.59 201.65 465.084 200.77 468.384 200.77C471.684 200.77 474.177 201.613 475.864 203.3C477.624 204.987 478.797 207.187 479.384 209.9C479.97 212.54 480.264 215.363 480.264 218.37C480.337 221.377 480.374 224.237 480.374 226.95C480.374 232.45 480.85 236.3 481.804 238.5C482.757 240.627 484.224 241.69 486.204 241.69C487.67 241.69 488.807 240.883 489.614 239.27C490.42 237.583 490.75 235.017 490.604 231.57C490.457 228.637 489.907 225.74 488.954 222.88C488 219.947 487.047 217.123 486.094 214.41C485.214 211.697 484.774 209.203 484.774 206.93C484.774 203.337 485.91 200.44 488.184 198.24C490.457 196.04 493.06 194.94 495.994 194.94C499.44 194.94 502.41 196.077 504.904 198.35C507.397 200.623 509.45 203.52 511.064 207.04C512.677 210.56 513.85 214.263 514.584 218.15C515.39 222.037 515.794 225.63 515.794 228.93C515.794 237.07 514.62 244.11 512.274 250.05C509.927 255.917 506.59 260.463 502.264 263.69C497.937 266.843 492.804 268.42 486.864 268.42C483.71 268.42 480.594 267.723 477.514 266.33C474.434 264.863 471.537 262.627 468.824 259.62C466.11 262.627 463.177 264.863 460.024 266.33C456.944 267.797 453.864 268.53 450.784 268.53Z" stroke="black" stroke-width="8" mask="url(#path-1-outside-1_107_830)"/><path d="M534.196 215.18C530.603 215.18 527.559 213.897 525.066 211.33C522.573 208.69 521.326 205.5 521.326 201.76C521.326 199.267 521.876 197.03 522.976 195.05C524.149 193.07 525.689 191.493 527.596 190.32C529.576 189.073 531.776 188.45 534.196 188.45C536.543 188.45 538.67 189.073 540.576 190.32C542.556 191.493 544.133 193.07 545.306 195.05C546.479 197.03 547.066 199.267 547.066 201.76C547.066 204.253 546.479 206.527 545.306 208.58C544.133 210.56 542.556 212.173 540.576 213.42C538.67 214.593 536.543 215.18 534.196 215.18ZM534.196 268.53C531.263 268.53 529.063 267.687 527.596 266C526.203 264.313 525.25 261.747 524.736 258.3C524.296 254.78 524.04 250.27 523.966 244.77C523.966 239.27 524.186 234.76 524.626 231.24C525.139 227.72 526.129 225.153 527.596 223.54C529.063 221.853 531.263 221.01 534.196 221.01C537.13 221.01 539.293 221.853 540.686 223.54C542.153 225.153 543.143 227.72 543.656 231.24C544.17 234.76 544.426 239.27 544.426 244.77C544.499 250.27 544.28 254.78 543.766 258.3C543.253 261.747 542.263 264.313 540.796 266C539.329 267.687 537.13 268.53 534.196 268.53Z" stroke="black" stroke-width="8" mask="url(#path-1-outside-1_107_830)"/><path d="M574.472 268.31C571.685 268.31 569.448 267.32 567.762 265.34C566.075 263.36 564.792 260.647 563.912 257.2C563.105 253.68 562.555 249.61 562.262 244.99C557.788 244.623 554.305 243.743 551.812 242.35C549.392 240.957 548.182 238.537 548.182 235.09C548.182 231.643 549.392 229.223 551.812 227.83C554.305 226.363 557.788 225.41 562.262 224.97C562.628 218.443 563.618 212.65 565.232 207.59C566.918 202.53 569.632 198.607 573.372 195.82C577.112 192.96 582.355 191.53 589.102 191.53C592.842 191.53 596.105 192.41 598.892 194.17C601.752 195.93 603.182 198.68 603.182 202.42C603.182 206.307 601.935 209.167 599.442 211C597.022 212.76 594.088 213.97 590.642 214.63C587.928 215.143 586.022 216.353 584.922 218.26C583.822 220.093 583.125 222.257 582.832 224.75C589.432 224.897 594.455 225.593 597.902 226.84C601.422 228.087 603.182 230.837 603.182 235.09C603.182 237.877 602.375 240.003 600.762 241.47C599.148 242.863 596.802 243.817 593.722 244.33C590.715 244.843 587.158 245.137 583.052 245.21C583.052 248.143 583.088 250.82 583.162 253.24C583.235 255.587 583.272 257.75 583.272 259.73C583.272 262.077 582.795 263.873 581.842 265.12C580.888 266.367 579.715 267.21 578.322 267.65C577.002 268.09 575.718 268.31 574.472 268.31Z" stroke="black" stroke-width="8" mask="url(#path-1-outside-1_107_830)"/><path d="M632.403 268.53C626.903 268.53 622.063 267.467 617.883 265.34C613.776 263.14 610.55 260.17 608.203 256.43C605.93 252.617 604.793 248.253 604.793 243.34C604.793 238.573 605.93 234.173 608.203 230.14C610.55 226.107 613.74 222.88 617.773 220.46C621.88 218.04 626.573 216.83 631.853 216.83C636.766 216.83 640.983 217.82 644.503 219.8C648.023 221.78 650.7 224.31 652.533 227.39C654.44 230.397 655.393 233.587 655.393 236.96C655.393 240.333 654.623 243.12 653.083 245.32C651.543 247.447 649.526 249.097 647.033 250.27C644.613 251.37 642.01 252.103 639.223 252.47C636.436 252.837 633.76 252.91 631.193 252.69C628.626 252.397 626.463 251.957 624.703 251.37C626.023 253.497 627.673 254.963 629.653 255.77C631.706 256.503 633.833 256.833 636.033 256.76C638.306 256.613 640.36 256.357 642.193 255.99C644.466 255.477 646.336 255.587 647.803 256.32C649.27 257.053 650.04 258.227 650.113 259.84C650.186 261.16 649.71 262.48 648.683 263.8C647.73 265.12 645.97 266.257 643.403 267.21C640.836 268.09 637.17 268.53 632.403 268.53ZM625.033 237.95C625.766 239.123 626.83 239.967 628.223 240.48C629.616 240.92 631.01 241.067 632.403 240.92C633.87 240.773 635.08 240.37 636.033 239.71C637.06 239.05 637.573 238.133 637.573 236.96C637.573 235.713 637.06 234.613 636.033 233.66C635.08 232.633 633.54 232.12 631.413 232.12C629.36 232.12 627.783 232.78 626.683 234.1C625.583 235.347 625.033 236.63 625.033 237.95Z" stroke="black" stroke-width="8" mask="url(#path-1-outside-1_107_830)"/><path d="M106.08 124.1C106.08 132.713 102.963 139.627 96.73 144.84C90.61 150.053 81.8833 153.227 70.55 154.36C70.3233 159.007 69.9267 162.52 69.36 164.9C68.7933 167.28 68.0567 168.81 67.15 169.49C66.2433 170.283 65.11 170.68 63.75 170.68C62.39 170.68 61.2567 170.283 60.35 169.49C59.4433 168.81 58.7067 167.28 58.14 164.9C57.6867 162.633 57.29 159.177 56.95 154.53C50.15 154.077 43.69 152.83 37.57 150.79C31.5633 148.637 26.6333 145.803 22.78 142.29C18.9267 138.663 17 134.47 17 129.71C17 124.95 18.4167 121.267 21.25 118.66C24.1967 115.94 27.7667 114.58 31.96 114.58C34.9067 114.58 37.6267 115.487 40.12 117.3C42.7267 119 45.2767 120.983 47.77 123.25C50.3767 125.517 53.21 127.387 56.27 128.86C56.1567 126.48 56.1 123.93 56.1 121.21C56.1 118.49 56.1 115.6 56.1 112.54C54.74 112.087 53.2667 111.577 51.68 111.01C50.0933 110.443 48.45 109.877 46.75 109.31C37.4567 106.25 30.1467 102.057 24.82 96.73C19.6067 91.4033 17 83.6967 17 73.61C17 67.6033 18.7 61.9367 22.1 56.61C25.6133 51.2833 30.3733 46.8067 36.38 43.18C42.3867 39.5533 49.1867 37.23 56.78 36.21C57.0067 30.6567 57.4033 26.52 57.97 23.8C58.5367 20.9667 59.2733 19.1533 60.18 18.36C61.2 17.4533 62.39 17 63.75 17C65.11 17 66.2433 17.4533 67.15 18.36C68.17 19.1533 68.9633 20.91 69.53 23.63C70.0967 26.35 70.4933 30.4867 70.72 36.04C78.2 36.72 84.8867 38.5333 90.78 41.48C96.6733 44.4267 101.32 48.11 104.72 52.53C108.12 56.95 109.82 61.6533 109.82 66.64C109.82 71.1733 108.857 74.8 106.93 77.52C105.117 80.24 102.793 82.2233 99.96 83.47C97.24 84.7167 94.5767 85.34 91.97 85.34C87.21 85.34 83.2433 84.4333 80.07 82.62C77.01 80.6933 74.12 78.8233 71.4 77.01C71.4 79.1633 71.4 81.3733 71.4 83.64C71.4 85.9067 71.4 88.2867 71.4 90.78C72.76 91.2333 74.0633 91.63 75.31 91.97C85.7367 95.03 93.4433 99.1667 98.43 104.38C103.53 109.48 106.08 116.053 106.08 124.1ZM48.96 80.41C48.96 81.77 49.5267 82.96 50.66 83.98C51.9067 84.8867 53.72 85.7367 56.1 86.53C56.1 84.15 56.1 81.8833 56.1 79.73C56.1 77.5767 56.1 75.5367 56.1 73.61C53.72 74.0633 51.9067 74.97 50.66 76.33C49.5267 77.5767 48.96 78.9367 48.96 80.41ZM77.86 123.76C77.86 121.607 75.7067 119.623 71.4 117.81C71.4 122.57 71.3433 126.763 71.23 130.39C75.65 129.257 77.86 127.047 77.86 123.76Z" stroke="black" stroke-width="8" mask="url(#path-1-outside-1_107_830)"/><path d="M141.39 154.53C137.876 154.53 134.76 153.113 132.04 150.28C129.433 147.447 127.223 143.707 125.41 139.06C123.71 134.413 122.293 129.313 121.16 123.76C120.14 118.207 119.403 112.653 118.95 107.1C118.496 101.433 118.27 96.3333 118.27 91.8C118.27 86.02 118.723 79.9 119.63 73.44C120.536 66.98 122.123 60.9167 124.39 55.25C126.656 49.47 129.773 44.7667 133.74 41.14C137.706 37.5133 142.806 35.7 149.04 35.7C153.346 35.7 157.086 37.1167 160.26 39.95C163.546 42.67 166.493 46.5233 169.1 51.51C171.706 56.3833 174.2 61.9933 176.58 68.34C178.96 74.6867 181.51 81.43 184.23 88.57C183.776 78.8233 184.06 69.9833 185.08 62.05C186.213 54.0033 188.48 47.6 191.88 42.84C195.28 38.08 200.096 35.7 206.33 35.7C211.656 35.7 215.906 37.5133 219.08 41.14C222.366 44.7667 224.86 49.47 226.56 55.25C228.26 60.9167 229.393 66.98 229.96 73.44C230.64 79.9 230.98 86.02 230.98 91.8C230.98 96.4467 230.64 101.547 229.96 107.1C229.28 112.653 228.146 118.207 226.56 123.76C224.973 129.313 222.82 134.413 220.1 139.06C217.38 143.707 214.036 147.447 210.07 150.28C206.216 153.113 201.57 154.53 196.13 154.53C191.256 154.53 187.063 153 183.55 149.94C180.15 146.767 177.09 142.63 174.37 137.53C171.763 132.317 169.326 126.593 167.06 120.36C164.793 114.127 162.413 107.893 159.92 101.66C160.033 109.48 160.033 116.677 159.92 123.25C159.806 129.71 159.183 135.263 158.05 139.91C157.03 144.557 155.216 148.183 152.61 150.79C150.003 153.283 146.263 154.53 141.39 154.53Z" stroke="black" stroke-width="8" mask="url(#path-1-outside-1_107_830)"/><path d="M295.941 154.53C291.294 154.53 286.307 154.19 280.981 153.51C275.767 152.83 270.611 151.413 265.511 149.26C260.411 147.107 255.764 143.933 251.571 139.74C247.377 135.547 244.034 129.993 241.541 123.08C239.047 116.053 237.801 107.383 237.801 97.07C237.801 85.7367 239.727 75.4233 243.581 66.13C247.434 56.8367 253.271 49.4133 261.091 43.86C268.911 38.3067 278.714 35.53 290.501 35.53C299.001 35.53 305.914 36.2667 311.241 37.74C316.681 39.2133 320.931 41.14 323.991 43.52C327.051 45.9 329.147 48.5067 330.281 51.34C331.527 54.1733 332.151 57.0067 332.151 59.84C332.151 62.7867 331.357 65.62 329.771 68.34C328.297 71.06 325.917 73.2133 322.631 74.8C319.457 76.2733 316.171 76.9533 312.771 76.84C309.371 76.6133 306.311 76.5 303.591 76.5C297.697 76.5 293.051 77.5767 289.651 79.73C286.364 81.77 284.041 84.9433 282.681 89.25C284.494 89.1367 286.477 89.08 288.631 89.08C290.897 88.9667 293.221 88.91 295.601 88.91C300.247 88.91 304.667 89.0233 308.861 89.25C313.167 89.3633 316.171 89.59 317.871 89.93C321.837 90.7233 324.841 92.31 326.881 94.69C328.921 96.9567 329.941 99.5633 329.941 102.51C329.941 105.343 328.977 107.893 327.051 110.16C325.124 112.427 322.007 114.013 317.701 114.92C316.114 115.26 313.054 115.543 308.521 115.77C304.101 115.883 299.454 115.94 294.581 115.94C292.654 115.94 290.784 115.94 288.971 115.94C287.157 115.827 285.514 115.77 284.041 115.77C285.627 119.283 288.007 122.06 291.181 124.1C294.467 126.027 298.661 126.99 303.761 126.99C305.687 126.99 308.464 126.82 312.091 126.48C315.717 126.027 319.231 126.31 322.631 127.33C328.071 129.03 330.791 132.6 330.791 138.04C330.791 140.987 329.771 143.763 327.731 146.37C325.804 148.863 322.291 150.847 317.191 152.32C312.204 153.793 305.121 154.53 295.941 154.53Z" stroke="black" stroke-width="8" mask="url(#path-1-outside-1_107_830)"/><path d="M377.49 154.02C373.524 154.02 369.5 153.963 365.42 153.85C361.34 153.623 357.6 153.057 354.2 152.15C350.8 151.243 348.024 149.713 345.87 147.56C343.83 145.407 342.81 142.403 342.81 138.55C342.81 133.563 344.51 130.05 347.91 128.01C351.31 125.857 355.447 124.44 360.32 123.76C359.98 119.793 359.754 115.487 359.64 110.84C359.527 106.08 359.47 100.98 359.47 95.54C359.47 90.5533 359.527 85.85 359.64 81.43C359.754 76.8967 359.924 72.76 360.15 69.02C354.37 68.34 349.384 66.8667 345.19 64.6C341.11 62.3333 339.07 58.31 339.07 52.53C339.07 48.2233 340.204 44.9367 342.47 42.67C344.737 40.29 347.74 38.6467 351.48 37.74C355.334 36.72 359.47 36.0967 363.89 35.87C368.424 35.6433 372.9 35.53 377.32 35.53C381.74 35.53 386.217 35.6433 390.75 35.87C395.284 36.0967 399.42 36.72 403.16 37.74C406.9 38.6467 409.904 40.29 412.17 42.67C414.55 44.9367 415.74 48.2233 415.74 52.53C415.74 56.3833 414.777 59.4433 412.85 61.71C410.924 63.9767 408.317 65.6767 405.03 66.81C401.744 67.83 398.174 68.5667 394.32 69.02C394.66 72.76 394.887 76.84 395 81.26C395.114 85.68 395.17 90.44 395.17 95.54C395.17 100.98 395.057 106.08 394.83 110.84C394.717 115.487 394.49 119.793 394.15 123.76C399.25 124.327 403.557 125.687 407.07 127.84C410.697 129.88 412.51 133.45 412.51 138.55C412.51 142.403 411.434 145.407 409.28 147.56C407.24 149.713 404.464 151.243 400.95 152.15C397.55 153.057 393.81 153.623 389.73 153.85C385.65 153.963 381.57 154.02 377.49 154.02Z" stroke="black" stroke-width="8" mask="url(#path-1-outside-1_107_830)"/><path d="M441.44 154.7C436.34 154.7 432.09 153.057 428.69 149.77C425.403 146.37 422.796 141.893 420.87 136.34C418.943 130.673 417.583 124.497 416.79 117.81C416.11 111.123 415.77 104.493 415.77 97.92C415.77 90.2133 416.79 82.6767 418.83 75.31C420.983 67.9433 424.213 61.3133 428.52 55.42C432.94 49.4133 438.493 44.6533 445.18 41.14C451.866 37.6267 459.8 35.87 468.98 35.87C478.273 35.87 486.66 37.7967 494.14 41.65C501.733 45.5033 507.796 51 512.33 58.14C516.863 65.28 519.13 73.78 519.13 83.64C519.13 92.2533 517.826 99.7333 515.22 106.08C512.726 112.313 509.383 117.47 505.19 121.55C506.89 124.157 508.25 126.933 509.27 129.88C510.29 132.827 510.8 135.66 510.8 138.38C510.8 141.553 509.95 144.387 508.25 146.88C506.55 149.26 504.34 151.13 501.62 152.49C499.013 153.85 496.236 154.53 493.29 154.53C490.796 154.53 488.473 154.133 486.32 153.34C484.166 152.547 481.786 151.187 479.18 149.26C476.8 147.447 474.703 145.067 472.89 142.12C471.076 139.06 469.603 136.057 468.47 133.11C464.503 132.657 460.763 131.693 457.25 130.22C457.816 132.94 458.1 135.717 458.1 138.55C458.213 141.383 457.76 144.047 456.74 146.54C455.833 148.92 454.133 150.903 451.64 152.49C449.26 153.963 445.86 154.7 441.44 154.7ZM470.68 106.08C474.76 106.08 478.273 104.663 481.22 101.83C484.28 98.8833 485.81 95.4833 485.81 91.63C485.81 87.6633 484.28 84.2633 481.22 81.43C478.273 78.4833 474.76 77.01 470.68 77.01C466.6 77.01 463.03 78.4833 459.97 81.43C457.023 84.2633 455.55 87.6633 455.55 91.63C455.55 95.4833 457.023 98.8833 459.97 101.83C463.03 104.663 466.6 106.08 470.68 106.08Z" stroke="black" stroke-width="8" mask="url(#path-1-outside-1_107_830)"/><path d="M550.864 154.87C543.044 154.87 536.867 151.073 532.334 143.48C527.914 135.887 525.307 125.913 524.514 113.56C523.607 98.26 525.25 84.7733 529.444 73.1C533.75 61.3133 540.21 52.1333 548.824 45.56C557.437 38.9867 567.694 35.7 579.594 35.7C591.607 35.7 601.864 38.9867 610.364 45.56C618.977 52.1333 625.38 61.2567 629.574 72.93C633.88 84.6033 635.524 98.1467 634.504 113.56C633.71 126.253 631.047 136.283 626.514 143.65C622.094 151.017 615.974 154.7 608.154 154.7C603.734 154.7 600.334 153.907 597.954 152.32C595.574 150.62 593.874 148.523 592.854 146.03C591.947 143.423 591.494 140.817 591.494 138.21C591.494 135.49 591.664 133.167 592.004 131.24C588.377 131.353 584.127 131.467 579.254 131.58C574.38 131.58 570.3 131.467 567.014 131.24C567.354 133.167 567.524 135.49 567.524 138.21C567.524 140.817 567.014 143.423 565.994 146.03C565.087 148.523 563.444 150.62 561.064 152.32C558.684 154.02 555.284 154.87 550.864 154.87ZM565.824 100.98C574.777 100.64 583.73 100.64 592.684 100.98C593.25 97.0133 593.194 93.2167 592.514 89.59C591.834 85.9633 590.417 83.0167 588.264 80.75C586.11 78.4833 583.05 77.35 579.084 77.35C575.117 77.35 572.057 78.4833 569.904 80.75C567.864 83.0167 566.504 85.9633 565.824 89.59C565.257 93.1033 565.257 96.9 565.824 100.98Z" stroke="black" stroke-width="8" mask="url(#path-1-outside-1_107_830)"/></svg>