<svg xmlns="http://www.w3.org/2000/svg" width="526" height="411" viewBox="0 0 526 411" fill="none"><path d="M504.66 0C504.513 0.16 504.287 0.266667 503.98 0.32L502.65 0H504.66Z" fill="#CCA679"/><path d="M506.88 0C506.9 0.0866667 506.923 0.173333 506.95 0.26L505.74 0H506.88Z" fill="#CCA679"/><path d="M520.63 0C520.49 0.153333 520.28 0.26 520 0.32C519.653 0.246667 519.373 0.14 519.16 0H520.63Z" fill="#CCA679"/><path d="M525.51 0C524.81 0.24 523.947 0.353333 522.92 0.34L521.97 0H525.51Z" fill="#CCA679"/><path d="M370.27 354.23C369.63 352.596 368.723 351.066 367.55 349.64C365.89 347.62 364.863 346.21 364.47 345.41C361.803 339.983 361.463 334.533 363.45 329.06C364.643 325.773 366.823 322.76 369.99 320.02C375.16 315.56 379.89 311.5 384.96 309.62C386.053 309.22 387.193 308.78 388.38 308.3C389.647 307.793 390.003 307.14 389.45 306.34C407.103 299.72 422.187 289.416 434.7 275.43C435.293 274.77 435.403 274.203 435.03 273.73C437.057 271.85 439.05 269.916 441.01 267.93C442.117 266.81 443.057 265.653 443.83 264.46C444.83 262.92 445.583 261.62 446.09 260.56C453.283 245.333 454.937 229.393 451.05 212.74C449.443 205.84 446.053 199.643 440.88 194.15C439.253 192.423 436.653 190.076 433.08 187.11C430.033 184.59 427.927 182.52 426.76 180.9C424.78 178.153 423.197 174.963 422.01 171.33C420.51 166.73 419.447 163.803 418.82 162.55C413.58 152.01 402.54 138.64 390.91 136.26C384.163 134.886 377.583 136.443 371.17 140.93C369.603 142.023 368.61 142.776 368.19 143.19C362.443 148.756 358.327 152.87 355.84 155.53C354.96 156.47 354.55 156.296 354.61 155.01C354.9 148.5 353.21 143.85 350.68 137.13C347.55 128.83 341.95 120.75 332.05 120.6C322.56 120.47 316.32 123.22 309.5 129.46C305.46 133.16 302.95 134.85 297.74 133.84C294.947 133.3 291.33 132.876 286.89 132.57C300.837 120.156 316.603 110.813 334.19 104.54C334.369 104.476 334.525 104.358 334.638 104.203C334.75 104.048 334.814 103.862 334.82 103.67L334.83 103.19C334.834 103.098 334.816 103.007 334.776 102.924C334.735 102.841 334.675 102.769 334.6 102.715C334.525 102.66 334.437 102.625 334.345 102.612C334.252 102.599 334.158 102.609 334.07 102.64C327.79 104.853 321.967 107.27 316.6 109.89C316.14 110.116 315.977 109.983 316.11 109.49C317.023 106.063 317.933 101.773 318.84 96.6198C320.573 86.8331 321.087 77.4398 320.38 68.4398C320.033 64.0731 319.343 60.3998 318.31 57.4198C317.143 54.0531 315.49 50.6565 313.35 47.2298C312.717 46.2298 311.633 45.3065 310.1 44.4598C308.827 43.7598 307.607 43.6231 306.44 44.0498C303.62 45.0765 301.797 47.1131 300.97 50.1598C296.61 64.2131 293.53 76.8265 291.73 87.9998C289.883 99.4798 289.187 112.67 289.64 127.57L287.17 129.63C286.77 129.963 286.59 129.87 286.63 129.35C286.82 126.95 287.09 124.97 287.15 122.21C287.37 112.303 287.583 102.4 287.79 92.4998C287.883 88.1398 287.52 81.0598 286.7 71.2598C286.62 70.3531 286.917 68.8731 287.59 66.8198C289.51 60.9598 291.207 54.7531 292.68 48.1998C294.2 41.4598 297.093 35.1831 301.36 29.3698C303.51 26.4398 306.25 27.0298 309.44 28.9198C312.83 30.9298 316.15 33.7998 318.96 37.0798C324.46 43.5198 329.95 51.4698 333.42 59.5098C334.76 62.6298 335.993 65.2198 337.12 67.2798C338.72 70.1865 340.423 74.0265 342.23 78.7998C343.11 81.1331 344.64 85.1065 346.82 90.7198C347.1 91.4398 347.353 93.3165 347.58 96.3498C347.607 96.6831 347.787 96.8331 348.12 96.7998C352.553 96.2998 359.833 96.7531 369.96 98.1598C374.693 98.8198 377.6 99.2598 378.68 99.4798C381.48 100.046 384.273 100.963 387.06 102.23C399.3 107.783 410.357 115.28 420.23 124.72C420.336 124.823 420.479 124.88 420.627 124.878C420.775 124.876 420.916 124.816 421.02 124.71C423.63 122.04 426.4 119.14 429.13 116.91C432.33 114.316 437.17 110.393 443.65 105.14C450.637 99.4798 458.42 95.7031 467 93.8098C474.19 92.2198 480.11 91.5798 486.8 93.4498C490.69 94.5298 492.45 98.3298 493.41 102.34C494.95 108.753 495.053 115.646 493.72 123.02C492.2 131.413 490.52 138.57 488.68 144.49C483.58 160.923 478.853 177.25 474.5 193.47C473.653 196.643 472.16 201.446 470.02 207.88C467.82 214.52 465.87 220.95 465.1 227.46C464.907 229.086 464.953 230.78 465.24 232.54C466.56 240.813 467.58 249.716 468.3 259.25C469.32 272.763 468.613 285.433 466.18 297.26C465.187 302.086 463.243 308.61 460.35 316.83C459.83 318.303 458.987 319.553 457.82 320.58C455.307 322.786 453.633 324.19 452.8 324.79C441.52 332.89 430.973 339.1 421.16 343.42C405.187 350.453 388.223 354.056 370.27 354.23ZM452.34 190.12C454.873 189.866 457.157 188.14 459.19 184.94C464.23 176.986 468.117 169.556 470.85 162.65C474.823 152.603 478.307 142.393 481.3 132.02C481.72 130.58 481.597 129.293 480.93 128.16C484.183 121.84 484.043 115.87 480.51 110.25C478.06 106.34 471.42 103.53 466.83 105.6C465.07 106.393 463.41 107.903 461.85 110.13C458.33 115.163 455.553 120.68 453.52 126.68C448.9 140.286 446.447 147.47 446.16 148.23C444.727 152.036 442.777 156.09 440.31 160.39C440.282 160.437 440.242 160.476 440.194 160.503C440.146 160.53 440.092 160.544 440.037 160.543C439.982 160.542 439.928 160.526 439.881 160.497C439.835 160.469 439.796 160.428 439.77 160.38C437.41 156.193 434.79 152.32 431.91 148.76C431.838 148.672 431.748 148.603 431.645 148.556C431.543 148.509 431.432 148.486 431.32 148.49L430.84 148.5C430.71 148.504 430.583 148.545 430.475 148.616C430.366 148.688 430.279 148.788 430.223 148.905C430.167 149.023 430.145 149.154 430.159 149.283C430.172 149.413 430.221 149.536 430.3 149.64C439.573 162.026 446.167 175.13 450.08 188.95C450.3 189.73 451.053 190.12 452.34 190.12Z" fill="#EECE9F"/><path d="M282.68 147.25L272 140.81L267.42 133.69C270.827 121.963 273.107 111.813 274.26 103.24C276.033 90.0466 276.557 75.6133 275.83 59.94C275.83 59.8866 275.843 59.34 275.87 58.3C275.897 57.26 275.61 56.6133 275.01 56.36C275.71 55.1866 275.763 54.0966 275.17 53.09C270.92 45.93 265.87 48.38 261.59 53.36C258.223 57.2733 255.75 61.1266 254.17 64.92C251.583 71.1333 249.573 78.2333 248.14 86.22C247.393 90.3733 246.833 98.51 246.46 110.63C246.447 110.937 246.327 110.99 246.1 110.79C241.027 106.33 235.87 102.447 230.63 99.14C230.237 98.8866 229.983 98.99 229.87 99.45C229.81 99.6833 229.83 99.9033 229.93 100.11C230.087 100.44 230.253 100.732 230.417 100.966C230.581 101.201 230.738 101.372 230.88 101.47C241.8 108.883 251.43 117.473 259.77 127.24C262.943 130.96 265.91 134.977 268.67 139.29C264.223 138.897 259.877 138.41 255.63 137.83C254.73 137.703 253.96 137.44 253.32 137.04C252.32 136.413 251.69 135.903 251.43 135.51C247.53 129.543 243.58 125.08 239.58 122.12C234.433 118.313 229.013 116.57 223.32 116.89C218.4 117.17 214.247 119.167 210.86 122.88C208.12 125.887 205.07 130.047 201.71 135.36C199.81 138.36 198.98 141.7 198 145.3C197.78 146.107 197.463 146.143 197.05 145.41C194.083 140.123 191.027 135.23 187.88 130.73C184.04 125.237 179.91 121.593 175.49 119.8C166.48 116.15 157.75 118.42 149.72 123.45C143.953 127.063 139.183 130.87 135.41 134.87C132.2 138.28 129.67 142.75 126.99 147.24C126.237 148.5 124.133 150.503 120.68 153.25C118.973 154.617 116.72 155.93 113.92 157.19C109.98 158.97 102.83 162.29 99.27 165.77C87 177.79 81.59 196.53 82.13 213.26C82.21 215.68 82.7733 219.493 83.82 224.7C85.14 231.267 87.84 236.457 91.92 240.27C90.84 240.49 90.5567 241.12 91.07 242.16C94.93 249.987 99.73 257.19 105.47 263.77C112.077 271.33 119.477 277.903 127.67 283.49C127.69 283.977 127.78 284.443 127.94 284.89C128.073 285.283 128.353 285.64 128.78 285.96C133.6 289.567 137.737 293.8 141.19 298.66C144.91 303.89 147.05 307.73 147.03 313.79C147.017 320.75 144.27 326.163 138.79 330.03C136.25 331.823 134.48 333.197 133.48 334.15C128.787 333.023 123.97 331.463 119.03 329.47C100.597 322.05 84.3833 310.843 70.39 295.85C64.49 289.523 60.2533 284.52 57.68 280.84C56.8133 279.593 56.2767 278.143 56.07 276.49C53.6033 256.43 55.8333 236.617 62.76 217.05C66.0467 207.777 69.3567 199.073 72.69 190.94C73.3433 189.367 73.6367 186.387 73.57 182C73.4567 174.313 73.3666 169.973 73.3 168.98C72.8933 162.967 72.6567 158.637 72.59 155.99C72.0434 135.377 71.6567 123.38 71.43 120C71.1367 115.753 70.8067 106.53 70.44 92.33C70.32 87.65 70.6834 82.0666 71.53 75.58C72.4567 68.5 74.6634 62.3566 78.15 57.15C80.2567 53.99 83.29 52.6133 87.25 53.02C90.5033 53.36 92.9233 53.78 94.51 54.28C97.93 55.3666 101.88 57.1133 106.36 59.52C112.953 63.0733 118.587 67.9333 123.26 74.1C125.26 76.74 127.53 79.7833 130.07 83.23C130.167 83.3602 130.213 83.5213 130.2 83.6831C130.188 83.845 130.116 83.9967 130 84.11C129.067 85.0366 128.43 86.2433 128.09 87.73C128.042 87.9379 127.915 88.119 127.736 88.2347C127.557 88.3505 127.339 88.3918 127.13 88.35C121.797 87.2566 115.733 86.9766 108.94 87.51C108.56 87.5366 108.337 87.3633 108.27 86.99C107.657 83.5033 106.683 79.8666 105.35 76.08C102.83 68.94 98.0333 66.47 90.96 68.67C83.51 71 80.62 80.49 81.84 87.59C80.9134 90.9166 80.6266 94.6366 80.98 98.75C82.2266 113.257 83.05 121.797 83.45 124.37C84.3433 130.143 85.5233 135.86 86.99 141.52C87.85 144.873 89.1334 148.347 90.84 151.94C91.9267 154.227 93.2967 155.18 94.95 154.8C95.31 155.213 95.59 155.453 95.79 155.52C96.0175 155.603 96.267 155.602 96.4928 155.518C96.7186 155.433 96.9057 155.271 97.02 155.06C99.9933 149.7 103.477 144.623 107.47 139.83C107.524 139.765 107.59 139.712 107.665 139.673C107.74 139.635 107.821 139.612 107.905 139.605C107.989 139.599 108.073 139.609 108.153 139.635C108.233 139.662 108.307 139.704 108.37 139.76C110.71 141.83 113.51 143.12 116.2 140.43C118.587 138.057 120.61 135.5 122.27 132.76C123.43 130.86 128.397 123.323 137.17 110.15C137.943 108.99 138.617 108.027 139.19 107.26C139.39 106.993 139.65 106.907 139.97 107C146.33 108.78 150.637 106.607 152.89 100.48C153.003 100.167 153.227 99.99 153.56 99.95C154.76 99.8233 155.663 99.81 156.27 99.91C166.963 101.73 174.87 102.873 179.99 103.34C186.02 103.89 190.76 102.9 192.78 96.52C193.887 93.0133 194.49 89.5233 194.59 86.05C194.591 86.0123 194.6 85.9753 194.616 85.9411C194.632 85.9069 194.655 85.8763 194.683 85.8511C194.711 85.8259 194.743 85.8066 194.779 85.7944C194.815 85.7822 194.852 85.7772 194.89 85.78C204.103 86.5333 212.04 87.9833 218.7 90.13C219.04 90.2433 219.25 90.12 219.33 89.76C219.85 87.3866 221.12 84.7666 223.14 81.9C226.77 76.74 231.89 69.18 236.72 63.89C239.99 60.3 242.45 56.48 245.92 52.85C250.787 47.77 256.033 43.21 261.66 39.17C265.84 36.16 272.52 32.75 277.46 33.18C278.42 33.2666 279.207 33.9333 279.82 35.18C284.57 44.88 284.32 54.36 284.24 65.42C284.22 68.6466 284.383 72.3633 284.73 76.57C285.343 84.03 285.537 91.5066 285.31 99C284.83 114.707 284.49 125.707 284.29 132C284.217 134.4 283.68 139.483 282.68 147.25Z" fill="#EECE9F"/><path d="M289.64 127.57C289.187 112.67 289.883 99.4798 291.73 87.9998C293.53 76.8264 296.61 64.2131 300.97 50.1598C302.177 49.6731 303.723 48.5698 305.61 46.8498C307.197 45.4098 308.89 45.4798 310.69 47.0598C311.817 48.0398 313.057 49.9764 314.41 52.8698C317.077 58.5431 318.493 65.0298 318.66 72.3298C318.82 79.0431 318.627 84.3631 318.08 88.2898C316.913 96.6964 315.517 104.22 313.89 110.86C313.79 111.26 313.557 111.56 313.19 111.76C305.123 116.18 297.273 121.45 289.64 127.57Z" fill="#CCA679"/><path d="M275.01 56.3601C273.31 53.6201 272.103 51.9535 271.39 51.3601C268.9 49.2701 266.04 51.3701 264.13 53.3801C259.17 58.6268 255.58 65.0701 253.36 72.7101C251.833 77.9768 250.837 82.0568 250.37 84.9501C249.037 93.2635 248.37 102.393 248.37 112.34C248.37 112.667 248.493 112.94 248.74 113.16C255.133 118.893 261.36 125.737 267.42 133.69L272 140.81C270.56 141.89 269.45 141.383 268.67 139.29C265.91 134.977 262.943 130.96 259.77 127.24C251.43 117.473 241.8 108.883 230.88 101.47C230.738 101.373 230.581 101.201 230.417 100.967C230.253 100.732 230.087 100.44 229.93 100.11C229.83 99.9035 229.81 99.6835 229.87 99.4501C229.983 98.9901 230.237 98.8868 230.63 99.1401C235.87 102.447 241.027 106.33 246.1 110.79C246.327 110.99 246.447 110.937 246.46 110.63C246.833 98.5101 247.393 90.3735 248.14 86.2201C249.573 78.2335 251.583 71.1335 254.17 64.9201C255.75 61.1268 258.223 57.2735 261.59 53.3601C265.87 48.3801 270.92 45.9301 275.17 53.0901C275.763 54.0968 275.71 55.1868 275.01 56.3601Z" fill="#020101"/><path d="M275.01 56.3598C275.61 56.6131 275.897 57.2598 275.87 58.2998C275.843 59.3398 275.83 59.8865 275.83 59.9398C276.557 75.6131 276.033 90.0465 274.26 103.24C273.107 111.813 270.827 121.963 267.42 133.69C261.36 125.736 255.133 118.893 248.74 113.16C248.493 112.94 248.37 112.666 248.37 112.34C248.37 102.393 249.037 93.2631 250.37 84.9498C250.837 82.0564 251.833 77.9765 253.36 72.7098C255.58 65.0698 259.17 58.6265 264.13 53.3798C266.04 51.3698 268.9 49.2698 271.39 51.3598C272.103 51.9531 273.31 53.6198 275.01 56.3598Z" fill="#CCA679"/><path d="M153.38 96.9302C153.04 90.9102 150.09 87.4602 144.74 83.9202C144.447 83.7269 144.403 83.4869 144.61 83.2002C148.037 78.3735 151.433 74.5169 154.8 71.6302C163.3 64.3502 171.13 59.0102 181.37 56.3602C183.503 55.8069 185.38 55.6535 187 55.9002C190.29 56.4002 190.88 63.5602 191.29 66.2002C192.617 74.6802 192.773 82.7235 191.76 90.3302C191.34 93.4602 190.31 98.6402 187.29 100.31C186.263 100.877 184.5 101.084 182 100.93C174.987 100.51 169.977 99.9735 166.97 99.3202C162.37 98.3202 157.98 97.6669 153.8 97.3602C153.54 97.3402 153.4 97.1969 153.38 96.9302Z" fill="#FFB3E9"/><path d="M94.9501 154.8C93.2967 155.18 91.9267 154.227 90.8401 151.94C89.1334 148.347 87.85 144.874 86.99 141.52C85.5234 135.86 84.3434 130.144 83.4501 124.37C83.0501 121.797 82.2267 113.257 80.98 98.7502C80.6267 94.6369 80.9134 90.9169 81.8401 87.5902C82.3001 88.6302 82.8367 88.6636 83.4501 87.6902C83.6234 87.4102 83.6867 87.1036 83.6401 86.7702C82.6901 80.5402 85.4401 71.9802 92.2801 70.2602C97.7201 68.8936 101.403 70.8669 103.33 76.1802C104.69 79.9336 105.71 83.6836 106.39 87.4302C106.401 87.4891 106.4 87.5497 106.385 87.608C106.371 87.6664 106.344 87.721 106.306 87.7684C106.268 87.8158 106.22 87.8547 106.166 87.8826C106.111 87.9105 106.051 87.9268 105.99 87.9302C100.077 88.3236 94.5334 89.5369 89.36 91.5702C87.69 92.2302 86.68 93.1902 86.74 95.1802C86.84 98.9802 86.9967 101.34 87.2101 102.26C90.3101 115.794 96.5367 127.657 105.89 137.85C106.117 138.097 106.127 138.35 105.92 138.61C101.827 143.657 98.1701 149.054 94.9501 154.8Z" fill="#CCA679"/><path d="M139.12 103.77C134.28 100.06 130.36 94.9998 130.2 88.7998C130.173 87.7531 130.577 86.9831 131.41 86.4898C135.87 83.8631 140.43 84.0164 145.09 86.9498C148.477 89.0764 150.393 92.0264 150.84 95.7998C151.34 100.01 149.34 104.86 144.69 105.26C142.517 105.446 140.66 104.95 139.12 103.77Z" fill="#FFB3E9"/><path d="M136.78 105.07C137.227 105.464 137.283 105.907 136.95 106.4C136.09 107.66 134.78 109.09 133.92 110.44C126.28 122.414 120.603 131.054 116.89 136.36C116.037 137.58 114.78 138.64 113.12 139.54C113.001 139.603 112.87 139.638 112.737 139.643C112.603 139.648 112.471 139.623 112.35 139.57C111.763 139.304 111.15 138.91 110.51 138.39C107.303 135.737 104.667 133.007 102.6 130.2C95.3 120.27 89.3101 107.63 89.0301 95.4402C89.0246 95.1714 89.0923 94.9058 89.2261 94.6717C89.3599 94.4376 89.5547 94.2435 89.79 94.1102C91.5634 93.1169 93.7234 92.3369 96.2701 91.7702C101.763 90.5369 107.84 89.8202 114.5 89.6202C118.807 89.4869 123.047 89.9202 127.22 90.9202C127.392 90.9596 127.549 91.046 127.674 91.1696C127.8 91.2932 127.888 91.4492 127.93 91.6202C129.07 96.3935 132.02 100.877 136.78 105.07Z" fill="#FFB3E9"/><path d="M480.93 128.16C480.25 128.147 479.8 127.957 479.58 127.59C479.44 127.363 479.49 126.983 479.73 126.45C480.843 124.03 481.27 121.243 481.01 118.09C480.517 111.99 477.6 108.32 472.26 107.08C466.99 105.85 464.05 109.71 461.6 113.87C458.933 118.403 456.74 123.103 455.02 127.97C454.7 128.87 452.793 134.667 449.3 145.36C447.347 151.347 444.747 156.85 441.5 161.87C441.314 162.158 441.212 162.491 441.205 162.832C441.198 163.173 441.286 163.508 441.46 163.8C446.287 171.873 449.913 180.647 452.34 190.12C451.053 190.12 450.3 189.73 450.08 188.95C446.167 175.13 439.573 162.027 430.3 149.64C430.221 149.536 430.172 149.413 430.159 149.283C430.145 149.154 430.167 149.023 430.223 148.905C430.279 148.788 430.366 148.688 430.475 148.616C430.583 148.545 430.71 148.504 430.84 148.5L431.32 148.49C431.432 148.486 431.543 148.509 431.645 148.556C431.748 148.603 431.838 148.672 431.91 148.76C434.79 152.32 437.41 156.193 439.77 160.38C439.796 160.428 439.835 160.469 439.881 160.497C439.928 160.526 439.982 160.542 440.037 160.543C440.092 160.544 440.146 160.53 440.194 160.503C440.242 160.476 440.282 160.437 440.31 160.39C442.777 156.09 444.727 152.037 446.16 148.23C446.447 147.47 448.9 140.287 453.52 126.68C455.553 120.68 458.33 115.163 461.85 110.13C463.41 107.903 465.07 106.393 466.83 105.6C471.42 103.53 478.06 106.34 480.51 110.25C484.043 115.87 484.183 121.84 480.93 128.16Z" fill="#020101"/><path d="M480.93 128.16C481.597 129.293 481.72 130.58 481.3 132.02C478.307 142.393 474.823 152.603 470.85 162.65C468.117 169.557 464.23 176.987 459.19 184.94C457.157 188.14 454.873 189.867 452.34 190.12C449.913 180.647 446.287 171.873 441.46 163.8C441.286 163.508 441.198 163.173 441.205 162.832C441.212 162.491 441.314 162.158 441.5 161.87C444.747 156.85 447.347 151.347 449.3 145.36C452.793 134.667 454.7 128.87 455.02 127.97C456.74 123.103 458.933 118.403 461.6 113.87C464.05 109.71 466.99 105.85 472.26 107.08C477.6 108.32 480.517 111.99 481.01 118.09C481.27 121.243 480.843 124.03 479.73 126.45C479.49 126.983 479.44 127.363 479.58 127.59C479.8 127.957 480.25 128.147 480.93 128.16Z" fill="#CCA679"/><path d="M268.67 139.29C269.45 141.383 270.56 141.89 272 140.81L282.68 147.25C282.51 148.96 282.3 150.39 283.11 152.04C284.19 154.226 284.907 155.88 285.26 157C288.647 167.9 290.343 178.4 290.35 188.5C290.357 196.74 288.553 205.563 284.94 214.97C278.66 231.33 271.11 247.273 262.29 262.8C257.443 271.326 251.563 278.77 244.65 285.13C243.01 286.636 240.51 288.226 237.15 289.9C236.79 290.08 236.477 290.02 236.21 289.72L233.88 287.12C233.627 286.84 233.557 286.516 233.67 286.15C234.097 284.716 234.957 281.67 236.25 277.01C238.497 268.89 239.257 261.053 238.53 253.5C238.457 252.766 238.76 252.253 239.44 251.96C242.827 250.506 245.743 248.663 248.19 246.43C256.71 238.65 260.4 228.686 259.26 216.54C259.093 214.746 258.663 213.236 257.97 212.01C257.83 211.756 257.667 211.61 257.48 211.57C257.273 211.523 257.043 211.556 256.79 211.67C256.655 211.729 256.546 211.833 256.48 211.965C256.414 212.096 256.396 212.247 256.43 212.39C258.803 222.53 257.307 231.36 251.94 238.88L236.04 239.19C238.953 236.396 240.793 233.206 241.56 229.62C241.86 228.193 242.297 226.953 242.87 225.9C244.19 223.446 244.653 220.726 244.26 217.74C243.647 213.133 241.14 208.906 236.74 205.06C233.827 202.513 231.077 201.013 228.49 200.56C227.417 200.373 224.423 200.183 219.51 199.99C213.02 199.73 206.62 199.15 201.23 202.18C195.35 205.49 190.57 210.15 189.78 217.57C189.407 221.07 189.403 223.733 189.77 225.56C190.6 229.68 192.77 230.46 196.24 232.58C196.527 232.753 196.717 233 196.81 233.32C197.603 235.993 199.023 238.5 201.07 240.84C197.65 241.306 194.353 241.913 191.18 242.66C188.867 243.2 186.77 243.443 184.89 243.39C182.75 243.323 180.62 243.2 178.5 243.02C175.973 242.806 173.433 242.97 170.88 243.51C170.013 243.496 169.243 243.223 168.57 242.69C163.137 238.336 158.013 233.203 153.2 227.29C151.23 224.87 148.72 222.11 146.68 220.88C145.893 220.406 145.24 220.416 144.72 220.91C144.4 221.223 144.5 221.596 145.02 222.03L146.5 223.25C146.607 223.33 146.623 223.53 146.55 223.85C145.783 227.383 145.84 231.276 146.72 235.53C149.747 250.15 155.14 263.82 162.9 276.54C164.487 279.133 166.637 282.246 169.35 285.88C171.98 289.39 175.85 295.6 180.41 299.51C180.69 299.743 180.743 300.02 180.57 300.34C177.903 305.24 176.387 308.133 176.02 309.02C172.14 318.353 171.397 327.9 173.79 337.66C173.87 337.98 173.747 338.163 173.42 338.21C170.04 338.676 167.65 338.886 166.25 338.84C155.417 338.446 144.493 336.883 133.48 334.15C134.48 333.196 136.25 331.823 138.79 330.03C144.27 326.163 147.017 320.75 147.03 313.79C147.05 307.73 144.91 303.89 141.19 298.66C137.737 293.8 133.6 289.566 128.78 285.96C128.353 285.64 128.073 285.283 127.94 284.89C127.78 284.443 127.69 283.976 127.67 283.49C128.67 283.336 128.897 282.81 128.35 281.91C128.143 281.583 127.8 281.246 127.32 280.9C112.307 270.08 100.507 256.536 91.9199 240.27C87.8399 236.456 85.1399 231.266 83.8199 224.7C82.7733 219.493 82.2099 215.68 82.1299 213.26C81.5899 196.53 86.9999 177.79 99.2699 165.77C102.83 162.29 109.98 158.97 113.92 157.19C116.72 155.93 118.973 154.616 120.68 153.25C124.133 150.503 126.237 148.5 126.99 147.24C129.67 142.75 132.2 138.28 135.41 134.87C139.183 130.87 143.953 127.063 149.72 123.45C157.75 118.42 166.48 116.15 175.49 119.8C179.91 121.593 184.04 125.236 187.88 130.73C191.027 135.23 194.083 140.123 197.05 145.41C197.463 146.143 197.78 146.106 198 145.3C198.98 141.7 199.81 138.36 201.71 135.36C205.07 130.046 208.12 125.886 210.86 122.88C214.247 119.166 218.4 117.17 223.32 116.89C229.013 116.57 234.433 118.313 239.58 122.12C243.58 125.08 247.53 129.543 251.43 135.51C251.69 135.903 252.32 136.413 253.32 137.04C253.96 137.44 254.73 137.703 255.63 137.83C259.877 138.41 264.223 138.896 268.67 139.29ZM229.46 154C227.787 155.293 226.393 157.02 225.28 159.18C225.207 159.322 225.163 159.477 225.151 159.637C225.139 159.797 225.159 159.957 225.21 160.11C225.39 160.65 225.703 160.896 226.15 160.85C226.477 160.816 226.717 160.653 226.87 160.36C227.983 158.273 229.253 156.68 230.68 155.58C232.107 154.473 233.97 153.643 236.27 153.09C236.59 153.016 236.81 152.826 236.93 152.52C237.083 152.1 236.923 151.736 236.45 151.43C236.315 151.341 236.164 151.281 236.006 151.252C235.848 151.222 235.686 151.225 235.53 151.26C233.157 151.793 231.133 152.706 229.46 154ZM139.22 169.69C139.553 171.09 140.123 172.14 140.93 172.84C144.157 175.653 148.02 177.263 152.52 177.67C157.58 178.13 162.157 176.916 166.25 174.03C167.003 173.496 167.987 172.456 169.2 170.91C169.833 168.67 169.65 166.583 168.65 164.65C168.462 164.292 168.395 163.883 168.46 163.485C168.525 163.086 168.718 162.719 169.01 162.44C169.723 161.76 169.977 161.19 169.77 160.73C169.583 160.33 169.293 160.23 168.9 160.43C168.287 160.736 167.743 161.176 167.27 161.75C167.207 161.824 167.126 161.881 167.035 161.914C166.944 161.947 166.845 161.956 166.749 161.94C166.654 161.924 166.564 161.883 166.488 161.822C166.413 161.76 166.355 161.68 166.32 161.59C165.893 160.456 165.163 159.816 164.13 159.67C164.021 159.652 163.919 159.608 163.831 159.542C163.743 159.476 163.672 159.39 163.625 159.291C163.578 159.191 163.556 159.082 163.56 158.972C163.564 158.862 163.595 158.755 163.65 158.66L165.17 156.02C165.417 155.586 165.3 155.32 164.82 155.22L164.52 155.15C164.412 155.128 164.299 155.138 164.193 155.179C164.087 155.22 163.993 155.289 163.92 155.38L161.84 157.91C161.62 158.176 161.347 158.256 161.02 158.15L155.11 156.17C154.763 156.05 154.57 155.806 154.53 155.44L154.28 153.24C154.253 152.973 154.12 152.77 153.88 152.63L153.37 152.34C153.301 152.3 153.224 152.279 153.144 152.278C153.065 152.277 152.987 152.297 152.918 152.335C152.848 152.373 152.79 152.429 152.748 152.496C152.707 152.564 152.683 152.641 152.68 152.72L152.59 155.66C152.583 156.073 152.37 156.273 151.95 156.26C149.723 156.2 147.893 156.44 146.46 156.98C146.14 157.1 145.843 157.056 145.57 156.85C144.43 156.01 143.407 154.78 142.5 153.16C142.427 153.026 142.32 152.99 142.18 153.05C141.713 153.25 141.503 153.5 141.55 153.8C141.606 154.161 141.669 154.487 141.733 154.752C141.798 155.016 141.862 155.211 141.92 155.32L143.4 158.05C143.613 158.43 143.503 158.66 143.07 158.74C141.717 158.993 140.507 159.606 139.44 160.58C139.32 160.687 139.172 160.758 139.013 160.785C138.854 160.811 138.69 160.792 138.54 160.73C137.76 160.39 136.997 159.7 136.25 158.66C136.186 158.571 136.103 158.498 136.007 158.446C135.911 158.393 135.805 158.363 135.696 158.356C135.588 158.349 135.478 158.367 135.377 158.407C135.276 158.448 135.184 158.51 135.11 158.59L134.92 158.8C134.72 159.02 134.713 159.25 134.9 159.49L137.02 162.2C137.167 162.386 137.233 162.596 137.22 162.83C137.027 165.523 137.693 167.81 139.22 169.69ZM250.31 166.12C251.397 166.346 252.467 166.34 253.52 166.1C255.7 165.61 257.94 165.78 259.54 165.81C259.634 165.81 259.726 165.788 259.81 165.745C259.894 165.702 259.966 165.64 260.021 165.564C260.075 165.488 260.111 165.399 260.125 165.306C260.139 165.214 260.13 165.119 260.1 165.03C259.16 162.29 257.287 160.633 254.48 160.06C248.307 158.793 242.21 159.336 236.19 161.69C233.217 162.85 231.133 164.596 229.94 166.93C229.861 167.085 229.823 167.258 229.832 167.431C229.841 167.605 229.895 167.774 229.99 167.92C230.723 169.066 230.83 170.293 230.31 171.6C230.277 171.68 230.263 171.766 230.268 171.852C230.274 171.938 230.298 172.021 230.341 172.097C230.383 172.172 230.442 172.236 230.513 172.285C230.584 172.334 230.665 172.367 230.75 172.38L231.2 172.45C231.353 172.475 231.51 172.45 231.647 172.378C231.785 172.305 231.894 172.19 231.96 172.05C234.18 167.18 237.15 169.22 241.12 167.7C243.053 166.96 244.973 166.783 246.88 167.17C247.032 167.201 247.189 167.198 247.34 167.159C247.491 167.121 247.631 167.05 247.75 166.95C248.59 166.23 248.88 165.83 250.31 166.12ZM242.39 199.7C244.09 204.35 244.85 209.59 245.26 214.49C245.267 214.563 245.307 214.606 245.38 214.62L245.67 214.66C245.738 214.671 245.808 214.668 245.875 214.649C245.942 214.63 246.005 214.597 246.058 214.551C246.111 214.506 246.154 214.449 246.184 214.385C246.214 214.32 246.229 214.251 246.23 214.18C246.183 209.073 245.28 204.11 243.52 199.29C241.76 194.47 239.253 190.093 236 186.16C235.954 186.105 235.897 186.061 235.833 186.031C235.769 186.001 235.699 185.984 235.629 185.983C235.558 185.982 235.489 185.997 235.425 186.025C235.361 186.054 235.305 186.097 235.26 186.15L235.06 186.37C235.013 186.43 235.01 186.49 235.05 186.55C237.9 190.56 240.7 195.06 242.39 199.7Z" fill="#FFF2DF"/><path d="M435.03 273.73C434.35 273.457 433.783 273.573 433.33 274.08C421.01 287.793 406.273 297.89 389.12 304.37C388.959 304.431 388.813 304.525 388.692 304.647C388.571 304.769 388.477 304.915 388.417 305.076C388.357 305.238 388.333 305.41 388.346 305.581C388.358 305.753 388.407 305.919 388.49 306.07C388.583 306.243 388.903 306.333 389.45 306.34C390.003 307.14 389.647 307.793 388.38 308.3C387.193 308.78 386.053 309.22 384.96 309.62C379.89 311.5 375.16 315.56 369.99 320.02C366.823 322.76 364.643 325.773 363.45 329.06C361.463 334.533 361.803 339.983 364.47 345.41C364.863 346.21 365.89 347.62 367.55 349.64C368.723 351.067 369.63 352.597 370.27 354.23C361.277 354.043 352.523 353.277 344.01 351.93C339.71 351.257 335.493 350.09 331.36 348.43C331.047 348.303 330.967 348.087 331.12 347.78C335.507 339.267 337.2 330.423 336.2 321.25C335.82 317.72 334.25 313.13 333.66 309.7C333.637 309.563 333.659 309.422 333.724 309.299C333.789 309.176 333.893 309.078 334.02 309.02C336.487 307.927 338.423 306.773 339.83 305.56C343.783 302.147 346.763 299.623 348.77 297.99C362.48 286.83 373.39 273.02 381.51 257.04C383.703 252.713 385.01 248.453 385.43 244.26C385.463 243.92 385.623 243.66 385.91 243.48C386.757 242.947 387.263 242.593 387.43 242.42C387.877 241.947 387.88 241.51 387.44 241.11C387.352 241.027 387.243 240.968 387.124 240.939C387.005 240.909 386.88 240.91 386.76 240.94C384.887 241.44 383.017 242.337 381.15 243.63C377.15 246.403 373.567 248.833 370.4 250.92C359.92 257.813 348.213 261.357 335.28 261.55C327.1 261.68 315.3 262.01 312.85 251.96C312.833 251.891 312.832 251.819 312.848 251.75C312.863 251.681 312.894 251.616 312.939 251.561C312.983 251.506 313.04 251.462 313.104 251.432C313.169 251.402 313.239 251.388 313.31 251.39C320.077 251.583 326.033 249.427 331.18 244.92C332.5 243.77 333.1 242.62 334.29 240.75C334.371 240.618 334.481 240.505 334.61 240.419C334.739 240.333 334.886 240.275 335.04 240.25C339.56 239.51 342.54 237.73 343.83 233.06C344.51 230.587 344.943 227.86 345.13 224.88C345.54 218.33 340.23 211.54 335.35 207.72C335.11 207.533 333.437 206.813 330.33 205.56C328.677 204.9 326.943 204.42 325.13 204.12C322.003 203.607 319.15 203.013 316.57 202.34C313.33 201.493 310.733 201.26 308.78 201.64C305.613 202.253 302.513 203.54 299.48 205.5C293.98 209.05 289.6 216.11 291.55 222.93C291.777 223.73 291.87 224.68 291.83 225.78C291.683 229.673 292.513 233.127 294.32 236.14C298.1 242.433 302.803 246.843 308.43 249.37C310.73 250.41 310.753 251.49 308.5 252.61C307.187 253.263 306.397 253.657 306.13 253.79C305.014 254.318 303.783 254.557 302.552 254.485C301.32 254.413 300.126 254.033 299.08 253.38C293.847 250.12 290.453 247.857 288.9 246.59C285.04 243.443 282.13 239.63 280.17 235.15C279.81 234.323 279.837 233.453 280.25 232.54C288.38 214.66 294.66 197.97 292.53 180.5C291.777 174.287 290.7 168.187 289.3 162.2C288.367 158.193 286.997 154.353 285.19 150.68C285.043 150.38 284.987 150.063 285.02 149.73L286.89 132.57C291.33 132.877 294.947 133.3 297.74 133.84C302.95 134.85 305.46 133.16 309.5 129.46C316.32 123.22 322.56 120.47 332.05 120.6C341.95 120.75 347.55 128.83 350.68 137.13C353.21 143.85 354.9 148.5 354.61 155.01C354.55 156.297 354.96 156.47 355.84 155.53C358.327 152.87 362.443 148.757 368.19 143.19C368.61 142.777 369.603 142.023 371.17 140.93C377.583 136.443 384.163 134.887 390.91 136.26C402.54 138.64 413.58 152.01 418.82 162.55C419.447 163.803 420.51 166.73 422.01 171.33C423.197 174.963 424.78 178.153 426.76 180.9C427.927 182.52 430.033 184.59 433.08 187.11C436.653 190.077 439.253 192.423 440.88 194.15C446.053 199.643 449.443 205.84 451.05 212.74C454.937 229.393 453.283 245.333 446.09 260.56C445.583 261.62 444.83 262.92 443.83 264.46C443.057 265.653 442.117 266.81 441.01 267.93C439.05 269.917 437.057 271.85 435.03 273.73ZM295.95 163.15C296.235 164.398 296.71 165.609 297.36 166.75C298.435 168.626 299.971 170.28 301.85 171.588C303.73 172.895 305.904 173.823 308.21 174.3C311.546 174.989 315.001 174.704 318.043 173.488C321.086 172.272 323.547 170.193 325.05 167.57C326.205 165.556 326.752 163.3 326.64 161.01C326.525 158.604 325.69 156.241 324.22 154.16C322.75 152.079 320.698 150.354 318.27 149.16C316.333 148.207 314.205 147.617 312.027 147.429C309.848 147.241 307.669 147.46 305.63 148.07C303.581 148.68 301.72 149.672 300.172 150.98C298.624 152.289 297.423 153.884 296.65 155.66C295.617 158.019 295.375 160.615 295.95 163.15ZM376.85 183.82C376.506 184.926 376.442 186.081 376.66 187.24C377.094 189.582 378.65 191.847 381.09 193.69C383.511 195.515 386.672 196.827 390.1 197.43C393.115 197.959 396.202 197.912 398.999 197.293C401.796 196.675 404.187 195.512 405.89 193.94C407.111 192.819 407.948 191.515 408.35 190.11C408.629 189.129 408.689 188.111 408.53 187.09C408.306 185.587 407.614 184.094 406.5 182.71C405.336 181.271 403.741 179.988 401.825 178.951C399.91 177.914 397.722 177.149 395.415 176.71C393.108 176.27 390.738 176.167 388.472 176.407C386.206 176.647 384.1 177.225 382.3 178.1C379.492 179.459 377.568 181.478 376.85 183.82ZM293.33 207.83C294.67 205.09 295.76 202.58 296.6 200.3C297.533 197.753 299.507 194.913 302.52 191.78C303.593 190.667 305.66 188.963 308.72 186.67C308.8 186.603 308.807 186.533 308.74 186.46L308.5 186.19C308.347 186.023 308.173 185.997 307.98 186.11C303.44 188.843 299.777 192.47 296.99 196.99C295.003 200.223 293.41 203.733 292.21 207.52C292.083 207.913 292.227 208.103 292.64 208.09L292.94 208.08C293.12 208.073 293.25 207.99 293.33 207.83Z" fill="#FFF2DF"/><path d="M318.27 149.16C320.443 152.02 322.18 154.79 323.48 157.47C324.493 159.557 324.81 161.473 324.43 163.22C323.983 165.26 322.963 167.057 321.37 168.61C320.677 169.29 318.98 170.293 316.28 171.62C316.193 171.66 316.123 171.717 316.07 171.79C315.99 171.897 315.937 171.967 315.91 172C315.737 172.22 315.513 172.353 315.24 172.4C312.52 172.86 310.193 172.777 308.26 172.15C305.62 171.297 302.71 169.66 299.53 167.24C299.27 167.04 299.073 166.787 298.94 166.48C298.16 164.613 297.163 163.503 295.95 163.15C295.375 160.615 295.617 158.019 296.65 155.66C297.423 153.884 298.624 152.289 300.172 150.98C301.72 149.672 303.58 148.68 305.63 148.07C307.668 147.46 309.848 147.241 312.026 147.429C314.205 147.617 316.332 148.207 318.27 149.16ZM302.13 166.76C302.197 166.88 302.263 166.97 302.33 167.03C302.362 167.059 302.404 167.076 302.448 167.079C302.491 167.081 302.534 167.068 302.569 167.042C302.605 167.016 302.63 166.979 302.641 166.937C302.652 166.895 302.648 166.85 302.63 166.81C302.577 166.677 302.447 166.537 302.24 166.39C300.407 163.91 300.203 161.067 301.63 157.86C303.52 153.62 306.79 151.82 311.48 152.17C318.093 152.663 321.5 156.633 321.7 164.08C321.707 164.44 321.797 164.46 321.97 164.14C322.963 162.313 322.987 160.363 322.04 158.29C319.99 153.8 316.89 151 311.89 150.49C308.583 150.15 305.617 151.04 302.99 153.16C298.71 156.62 297.05 163.23 302.13 166.76ZM316.562 161.69C316.774 161.25 316.779 160.733 316.577 160.252C316.374 159.771 315.98 159.365 315.481 159.124C315.234 159.004 314.968 158.929 314.7 158.902C314.431 158.874 314.165 158.896 313.916 158.966C313.667 159.035 313.44 159.151 313.248 159.306C313.056 159.461 312.903 159.653 312.798 159.871C312.586 160.31 312.58 160.827 312.783 161.308C312.986 161.79 313.38 162.195 313.879 162.437C314.126 162.556 314.392 162.632 314.66 162.659C314.929 162.686 315.195 162.664 315.444 162.595C315.693 162.525 315.92 162.41 316.112 162.254C316.304 162.099 316.457 161.907 316.562 161.69Z" fill="#020101"/><path d="M318.27 149.16C320.697 150.354 322.75 152.079 324.22 154.16C325.69 156.241 326.525 158.604 326.64 161.01C326.752 163.3 326.205 165.556 325.05 167.57C323.547 170.193 321.085 172.272 318.043 173.488C315 174.704 311.546 174.989 308.21 174.3C305.904 173.823 303.729 172.896 301.85 171.588C299.97 170.28 298.435 168.626 297.36 166.75C296.71 165.609 296.235 164.398 295.95 163.15C297.163 163.503 298.16 164.613 298.94 166.48C299.073 166.787 299.27 167.04 299.53 167.24C302.71 169.66 305.62 171.297 308.26 172.15C310.193 172.777 312.52 172.86 315.24 172.4C315.513 172.353 315.737 172.22 315.91 172C315.937 171.967 315.99 171.897 316.07 171.79C316.123 171.717 316.193 171.66 316.28 171.62C318.98 170.293 320.677 169.29 321.37 168.61C322.963 167.057 323.983 165.26 324.43 163.22C324.81 161.473 324.493 159.557 323.48 157.47C322.18 154.79 320.443 152.02 318.27 149.16Z" fill="#6E4C1E"/><path d="M302.24 166.39C302.2 166.517 302.163 166.64 302.13 166.76C297.05 163.23 298.71 156.62 302.99 153.16C305.617 151.04 308.583 150.15 311.89 150.49C316.89 151 319.99 153.8 322.04 158.29C322.987 160.363 322.963 162.313 321.97 164.14C321.797 164.46 321.707 164.44 321.7 164.08C321.5 156.633 318.093 152.663 311.48 152.17C306.79 151.82 303.52 153.62 301.63 157.86C300.203 161.067 300.407 163.91 302.24 166.39Z" fill="#FDEEF9"/><path d="M230.68 155.58C229.253 156.68 227.983 158.273 226.87 160.36C226.717 160.653 226.477 160.817 226.15 160.85C225.703 160.897 225.39 160.65 225.21 160.11C225.159 159.958 225.139 159.797 225.151 159.637C225.163 159.478 225.207 159.322 225.28 159.18C226.393 157.02 227.787 155.293 229.46 154C231.133 152.707 233.157 151.793 235.53 151.26C235.686 151.226 235.848 151.223 236.006 151.252C236.164 151.281 236.315 151.342 236.45 151.43C236.923 151.737 237.083 152.1 236.93 152.52C236.81 152.827 236.59 153.017 236.27 153.09C233.97 153.643 232.107 154.473 230.68 155.58Z" fill="#020101"/><path d="M169.2 170.91L168.26 171.3C168 171.413 167.877 171.327 167.89 171.04C167.89 171 167.89 170.913 167.89 170.78C167.89 170.718 167.87 170.658 167.832 170.61C167.795 170.561 167.741 170.526 167.679 170.508C167.617 170.491 167.549 170.492 167.485 170.512C167.421 170.532 167.363 170.57 167.32 170.62L165.69 172.41C165.47 172.65 165.203 172.837 164.89 172.97C162.67 173.923 161.353 174.5 160.94 174.7C159.693 175.313 158.227 175.72 156.54 175.92C152.98 176.36 149.96 176.53 147.43 174.83C144.817 173.083 142.08 171.37 139.22 169.69C137.693 167.81 137.027 165.523 137.22 162.83C137.233 162.597 137.167 162.387 137.02 162.2L134.9 159.49C134.713 159.25 134.72 159.02 134.92 158.8L135.11 158.59C135.185 158.51 135.276 158.448 135.377 158.408C135.479 158.367 135.588 158.35 135.697 158.356C135.806 158.363 135.912 158.394 136.007 158.446C136.103 158.499 136.186 158.572 136.25 158.66C136.997 159.7 137.76 160.39 138.54 160.73C138.69 160.793 138.854 160.812 139.013 160.785C139.173 160.758 139.321 160.687 139.44 160.58C140.507 159.607 141.717 158.994 143.07 158.74C143.503 158.66 143.613 158.43 143.4 158.05L141.92 155.32C141.862 155.211 141.798 155.017 141.733 154.752C141.669 154.488 141.606 154.161 141.55 153.8C141.503 153.5 141.713 153.25 142.18 153.05C142.32 152.99 142.427 153.027 142.5 153.16C143.407 154.78 144.43 156.01 145.57 156.85C145.843 157.057 146.14 157.1 146.46 156.98C147.893 156.44 149.723 156.2 151.95 156.26C152.37 156.273 152.583 156.073 152.59 155.66L152.68 152.72C152.683 152.641 152.707 152.564 152.748 152.497C152.79 152.429 152.848 152.374 152.918 152.335C152.987 152.297 153.065 152.278 153.145 152.278C153.224 152.279 153.301 152.3 153.37 152.34L153.88 152.63C154.12 152.77 154.253 152.974 154.28 153.24L154.53 155.44C154.57 155.807 154.763 156.05 155.11 156.17L161.02 158.15C161.347 158.257 161.62 158.177 161.84 157.91L163.92 155.38C163.993 155.289 164.088 155.22 164.193 155.179C164.299 155.139 164.412 155.129 164.52 155.15L164.82 155.22C165.3 155.32 165.417 155.587 165.17 156.02L163.65 158.66C163.595 158.755 163.564 158.863 163.56 158.973C163.556 159.082 163.578 159.192 163.625 159.291C163.673 159.39 163.743 159.477 163.831 159.543C163.919 159.609 164.022 159.652 164.13 159.67C165.163 159.817 165.893 160.457 166.32 161.59C166.355 161.681 166.413 161.761 166.488 161.822C166.564 161.884 166.654 161.925 166.75 161.941C166.845 161.957 166.944 161.948 167.035 161.914C167.126 161.881 167.207 161.824 167.27 161.75C167.743 161.177 168.287 160.737 168.9 160.43C169.293 160.23 169.583 160.33 169.77 160.73C169.977 161.19 169.723 161.76 169.01 162.44C168.718 162.719 168.525 163.086 168.46 163.485C168.395 163.884 168.462 164.293 168.65 164.65C169.65 166.583 169.833 168.67 169.2 170.91ZM142.12 168.92C142.353 169.18 142.53 169.147 142.65 168.82C144.49 164.02 146.46 160.84 152.05 160.2C156.79 159.66 160.13 161.507 162.07 165.74C162.59 166.88 162.517 168.89 161.85 171.77C161.757 172.163 161.893 172.274 162.26 172.1C163.467 171.54 164.627 170.663 165.74 169.47C167.09 168.02 165.06 165 164 164.01C157.707 158.11 150.627 157.47 142.76 162.09C139.807 163.823 139.593 166.1 142.12 168.92ZM163.19 159.88C163.103 160.22 163.177 160.5 163.41 160.72C163.447 160.757 163.493 160.783 163.544 160.794C163.594 160.806 163.647 160.803 163.697 160.785C163.747 160.767 163.791 160.736 163.826 160.695C163.86 160.653 163.882 160.603 163.89 160.55C163.943 160.15 163.837 159.873 163.57 159.72C163.535 159.7 163.497 159.689 163.457 159.687C163.417 159.684 163.377 159.691 163.341 159.707C163.304 159.722 163.271 159.746 163.245 159.776C163.219 159.806 163.2 159.842 163.19 159.88ZM151.405 165.738C151.52 165.526 151.585 165.289 151.598 165.042C151.61 164.795 151.569 164.543 151.478 164.299C151.386 164.055 151.244 163.824 151.062 163.621C150.88 163.417 150.66 163.244 150.415 163.112C150.17 162.979 149.905 162.89 149.635 162.849C149.365 162.808 149.095 162.816 148.84 162.873C148.586 162.929 148.352 163.034 148.152 163.179C147.952 163.325 147.79 163.509 147.675 163.722C147.56 163.934 147.495 164.171 147.482 164.418C147.47 164.665 147.511 164.918 147.603 165.162C147.695 165.406 147.836 165.636 148.018 165.84C148.2 166.043 148.42 166.216 148.665 166.349C148.91 166.481 149.175 166.57 149.445 166.611C149.715 166.652 149.985 166.644 150.24 166.588C150.494 166.531 150.728 166.427 150.928 166.281C151.128 166.135 151.29 165.951 151.405 165.738Z" fill="#020101"/><path d="M142.12 168.92C139.593 166.1 139.807 163.823 142.76 162.09C150.627 157.47 157.707 158.11 164 164.01C165.06 165 167.09 168.02 165.74 169.47C164.627 170.663 163.467 171.54 162.26 172.1C161.893 172.273 161.757 172.163 161.85 171.77C162.517 168.89 162.59 166.88 162.07 165.74C160.13 161.506 156.79 159.66 152.05 160.2C146.46 160.84 144.49 164.02 142.65 168.82C142.53 169.146 142.353 169.18 142.12 168.92Z" fill="#FDEEF9"/><path d="M313.879 162.437C314.918 162.939 316.119 162.605 316.562 161.69C317.004 160.775 316.52 159.626 315.481 159.124C314.442 158.621 313.241 158.956 312.798 159.87C312.356 160.785 312.84 161.934 313.879 162.437Z" fill="#FDEEF9"/><path d="M250.31 166.12C248.88 165.83 248.59 166.23 247.75 166.95C247.631 167.05 247.491 167.121 247.34 167.16C247.189 167.198 247.032 167.201 246.88 167.17C244.973 166.783 243.053 166.96 241.12 167.7C237.15 169.22 234.18 167.18 231.96 172.05C231.894 172.19 231.784 172.306 231.647 172.378C231.51 172.45 231.353 172.475 231.2 172.45L230.75 172.38C230.665 172.367 230.584 172.334 230.513 172.285C230.442 172.236 230.383 172.172 230.341 172.097C230.298 172.022 230.274 171.938 230.268 171.852C230.263 171.766 230.277 171.68 230.31 171.6C230.83 170.293 230.723 169.067 229.99 167.92C229.895 167.774 229.841 167.605 229.832 167.432C229.823 167.258 229.861 167.085 229.94 166.93C231.133 164.597 233.217 162.85 236.19 161.69C242.21 159.337 248.307 158.793 254.48 160.06C257.287 160.633 259.16 162.29 260.1 165.03C260.13 165.119 260.139 165.214 260.125 165.307C260.111 165.399 260.075 165.488 260.021 165.564C259.966 165.64 259.894 165.702 259.81 165.745C259.726 165.788 259.634 165.81 259.54 165.81C257.94 165.78 255.7 165.61 253.52 166.1C252.467 166.34 251.397 166.347 250.31 166.12ZM248.921 164.724C248.988 164.586 248.971 164.413 248.873 164.243C248.775 164.074 248.603 163.921 248.396 163.819C248.294 163.769 248.185 163.733 248.078 163.712C247.97 163.692 247.865 163.688 247.769 163.7C247.673 163.713 247.587 163.742 247.517 163.786C247.446 163.83 247.393 163.887 247.359 163.956C247.291 164.094 247.309 164.267 247.407 164.436C247.505 164.606 247.677 164.758 247.884 164.86C247.986 164.911 248.094 164.947 248.202 164.968C248.31 164.988 248.415 164.992 248.511 164.979C248.607 164.967 248.693 164.938 248.763 164.894C248.833 164.85 248.887 164.792 248.921 164.724ZM243.34 165.651C243.339 165.566 243.228 165.485 243.03 165.427C242.833 165.369 242.566 165.337 242.287 165.34C242.149 165.341 242.013 165.351 241.885 165.368C241.758 165.385 241.643 165.409 241.545 165.44C241.448 165.471 241.371 165.507 241.319 165.546C241.266 165.585 241.24 165.627 241.24 165.669C241.241 165.754 241.352 165.834 241.549 165.893C241.747 165.951 242.014 165.982 242.293 165.98C242.431 165.979 242.567 165.969 242.694 165.952C242.822 165.935 242.937 165.91 243.034 165.88C243.132 165.849 243.209 165.813 243.261 165.774C243.314 165.735 243.34 165.693 243.34 165.651Z" fill="#020101"/><path d="M163.19 159.88C163.2 159.841 163.219 159.806 163.245 159.776C163.271 159.746 163.304 159.722 163.341 159.706C163.377 159.691 163.417 159.684 163.457 159.686C163.497 159.689 163.535 159.7 163.57 159.72C163.837 159.873 163.943 160.15 163.89 160.55C163.882 160.603 163.859 160.653 163.825 160.694C163.791 160.736 163.747 160.767 163.697 160.785C163.647 160.803 163.594 160.806 163.544 160.794C163.493 160.783 163.447 160.757 163.41 160.72C163.177 160.5 163.103 160.22 163.19 159.88Z" fill="#70973A"/><path d="M148.665 166.348C149.695 166.905 150.922 166.632 151.405 165.738C151.888 164.844 151.445 163.668 150.415 163.111C149.385 162.554 148.158 162.828 147.675 163.722C147.192 164.615 147.635 165.792 148.665 166.348Z" fill="#FDEEF9"/><path d="M247.884 164.86C248.315 165.073 248.779 165.012 248.921 164.724C249.062 164.437 248.827 164.032 248.396 163.82C247.965 163.608 247.501 163.669 247.359 163.956C247.218 164.243 247.453 164.648 247.884 164.86Z" fill="#C9C095"/><path d="M242.293 165.98C242.873 165.975 243.342 165.828 243.34 165.651C243.338 165.474 242.867 165.335 242.287 165.34C241.707 165.345 241.239 165.492 241.24 165.669C241.242 165.846 241.713 165.985 242.293 165.98Z" fill="#C9C095"/><path d="M302.13 166.76C302.163 166.64 302.2 166.517 302.24 166.39C302.447 166.537 302.577 166.677 302.63 166.81C302.648 166.85 302.652 166.895 302.641 166.937C302.63 166.979 302.605 167.016 302.569 167.042C302.534 167.068 302.491 167.081 302.448 167.079C302.404 167.076 302.362 167.059 302.33 167.03C302.263 166.97 302.197 166.88 302.13 166.76Z" fill="#6E4C1E"/><path d="M169.2 170.91C167.987 172.457 167.003 173.497 166.25 174.03C162.157 176.917 157.58 178.13 152.52 177.67C148.02 177.263 144.157 175.653 140.93 172.84C140.123 172.14 139.553 171.09 139.22 169.69C142.08 171.37 144.817 173.083 147.43 174.83C149.96 176.53 152.98 176.36 156.54 175.92C158.227 175.72 159.693 175.313 160.94 174.7C161.353 174.5 162.67 173.923 164.89 172.97C165.203 172.837 165.47 172.65 165.69 172.41L167.32 170.62C167.363 170.57 167.421 170.532 167.485 170.512C167.549 170.492 167.617 170.491 167.679 170.508C167.741 170.526 167.795 170.561 167.832 170.61C167.87 170.658 167.89 170.718 167.89 170.78C167.89 170.913 167.89 171 167.89 171.04C167.877 171.327 168 171.413 168.26 171.3L169.2 170.91Z" fill="#6E4C1E"/><path d="M405.89 193.94C403.81 193.353 401.813 193.78 399.9 195.22C398.77 196.07 396.91 196.57 395.5 196.59C393.693 196.623 391.893 196.903 390.1 197.43C386.672 196.827 383.511 195.515 381.09 193.69C381.97 193.283 382.723 193.367 383.35 193.94C384.463 194.953 385.453 195.6 386.32 195.88C386.358 195.888 386.397 195.885 386.433 195.869C386.468 195.853 386.497 195.827 386.517 195.793C386.536 195.759 386.543 195.72 386.539 195.682C386.534 195.644 386.517 195.608 386.49 195.58C384.903 194.167 383.59 193.18 382.55 192.62C381.423 192.02 380.587 191.337 380.04 190.57C379.28 189.51 378.623 188.497 378.07 187.53C378.037 187.477 377.99 187.457 377.93 187.47C377.823 187.497 377.75 187.537 377.71 187.59C377.63 187.69 377.567 187.7 377.52 187.62C376.987 186.693 376.763 185.427 376.85 183.82C377.568 181.477 379.492 179.459 382.3 178.1C384.099 177.225 386.206 176.647 388.472 176.407C390.738 176.167 393.108 176.27 395.415 176.71C397.722 177.149 399.91 177.914 401.825 178.951C403.74 179.987 405.336 181.271 406.5 182.71C407.614 184.094 408.306 185.586 408.53 187.09C408.689 188.111 408.628 189.128 408.35 190.11C407.948 191.515 407.111 192.819 405.89 193.94ZM399.84 183.66C401.513 185.713 402.31 188.11 402.23 190.85C402.21 191.63 402.537 191.823 403.21 191.43C404.437 190.717 405.283 189.9 405.75 188.98C405.897 188.68 405.9 188.377 405.76 188.07C404.193 184.663 401.477 182.183 397.61 180.63C390.863 177.93 385.137 179.293 380.43 184.72C378.99 186.37 381.57 189.51 382.77 190.37C383.077 190.59 383.25 190.513 383.29 190.14C383.31 189.867 383.29 189.003 383.23 187.55C383.17 186.01 383.81 184.547 385.15 183.16C388.4 179.8 392.54 179.29 396.54 181.55C398.487 182.637 399.587 183.34 399.84 183.66ZM398.999 185.997C399.01 185.512 398.8 185.042 398.414 184.69C398.028 184.338 397.498 184.133 396.942 184.12C396.666 184.114 396.392 184.155 396.135 184.241C395.878 184.328 395.644 184.457 395.445 184.623C395.246 184.788 395.087 184.986 394.976 185.206C394.866 185.425 394.806 185.662 394.801 185.902C394.79 186.387 395 186.858 395.386 187.21C395.772 187.562 396.302 187.767 396.859 187.779C397.134 187.786 397.408 187.744 397.665 187.658C397.922 187.572 398.156 187.443 398.355 187.277C398.554 187.112 398.713 186.914 398.824 186.694C398.934 186.474 398.994 186.238 398.999 185.997Z" fill="#020101"/><path d="M399.84 183.66C399.587 183.34 398.487 182.637 396.54 181.55C392.54 179.29 388.4 179.8 385.15 183.16C383.81 184.547 383.17 186.01 383.23 187.55C383.29 189.004 383.31 189.867 383.29 190.14C383.25 190.514 383.077 190.59 382.77 190.37C381.57 189.51 378.99 186.37 380.43 184.72C385.137 179.294 390.863 177.93 397.61 180.63C401.477 182.184 404.193 184.664 405.76 188.07C405.9 188.377 405.897 188.68 405.75 188.98C405.283 189.9 404.437 190.717 403.21 191.43C402.537 191.824 402.21 191.63 402.23 190.85C402.31 188.11 401.513 185.714 399.84 183.66Z" fill="#FDEEF9"/><path d="M376.85 183.82C376.763 185.426 376.987 186.693 377.52 187.62C377.567 187.7 377.63 187.69 377.71 187.59C377.75 187.536 377.823 187.496 377.93 187.47C377.99 187.456 378.037 187.476 378.07 187.53C378.623 188.496 379.28 189.51 380.04 190.57C380.587 191.336 381.423 192.02 382.55 192.62C383.59 193.18 384.903 194.166 386.49 195.58C386.517 195.608 386.534 195.644 386.539 195.682C386.543 195.72 386.536 195.759 386.517 195.793C386.497 195.827 386.468 195.853 386.433 195.869C386.397 195.885 386.358 195.888 386.32 195.88C385.453 195.6 384.463 194.953 383.35 193.94C382.723 193.366 381.97 193.283 381.09 193.69C378.65 191.847 377.094 189.582 376.66 187.24C376.442 186.081 376.506 184.926 376.85 183.82Z" fill="#6E4C1E"/><path d="M396.858 187.779C398.018 187.806 398.977 187.008 398.999 185.998C399.022 184.987 398.101 184.147 396.942 184.12C395.782 184.094 394.823 184.892 394.801 185.902C394.778 186.913 395.699 187.753 396.858 187.779Z" fill="#FDEEF9"/><path d="M243.52 199.29C245.28 204.11 246.183 209.073 246.23 214.18C246.229 214.251 246.214 214.321 246.184 214.385C246.154 214.449 246.111 214.506 246.058 214.551C246.005 214.597 245.942 214.63 245.875 214.649C245.808 214.668 245.738 214.671 245.67 214.66L245.38 214.62C245.307 214.607 245.267 214.563 245.26 214.49C244.85 209.59 244.09 204.35 242.39 199.7C240.7 195.06 237.9 190.56 235.05 186.55C235.01 186.49 235.013 186.43 235.06 186.37L235.26 186.15C235.305 186.097 235.361 186.054 235.425 186.026C235.489 185.997 235.558 185.982 235.629 185.983C235.699 185.984 235.769 186.001 235.833 186.031C235.897 186.062 235.954 186.106 236 186.16C239.253 190.093 241.76 194.47 243.52 199.29Z" fill="#C9C095"/><path d="M293.33 207.83C293.25 207.99 293.12 208.073 292.94 208.08L292.64 208.09C292.227 208.103 292.083 207.913 292.21 207.52C293.41 203.733 295.003 200.223 296.99 196.99C299.777 192.47 303.44 188.843 307.98 186.11C308.173 185.996 308.347 186.023 308.5 186.19L308.74 186.46C308.807 186.533 308.8 186.603 308.72 186.67C305.66 188.963 303.593 190.666 302.52 191.78C299.507 194.913 297.533 197.753 296.6 200.3C295.76 202.58 294.67 205.09 293.33 207.83Z" fill="#C9C095"/><path d="M405.89 193.94C404.187 195.512 401.796 196.675 398.999 197.293C396.202 197.911 393.115 197.959 390.1 197.43C391.893 196.903 393.693 196.623 395.5 196.59C396.91 196.57 398.77 196.07 399.9 195.22C401.813 193.78 403.81 193.353 405.89 193.94Z" fill="#6E4C1E"/><path d="M213.68 203.39C214.533 203.417 215.98 203.43 218.02 203.43C218.947 203.437 220.407 203.247 222.4 202.86C225.427 202.28 228.397 202.733 231.31 204.22C233.423 205.3 235.643 207.073 237.97 209.54C241.11 212.867 242.337 217.163 241.65 222.43C241.38 224.44 240.6 226.03 238.75 226.9C235.79 228.293 232.91 228.88 230.11 228.66C229.91 228.646 229.715 228.589 229.539 228.493C229.362 228.397 229.208 228.265 229.087 228.105C228.966 227.945 228.88 227.761 228.836 227.565C228.792 227.369 228.79 227.167 228.83 226.97C229.177 225.297 229.423 224.24 229.57 223.8C230.17 221.98 229.747 221.693 228.3 222.94C226.487 224.5 226.26 226.637 227.62 229.35C229.11 232.29 235.95 230.24 238.05 229.39C238.156 229.347 238.272 229.333 238.386 229.35C238.5 229.367 238.606 229.414 238.695 229.487C238.784 229.56 238.852 229.655 238.892 229.763C238.931 229.871 238.941 229.987 238.92 230.1C237.36 238.23 225.65 244.71 218.44 245.85C215.173 246.37 211.913 245.72 208.66 243.9C204.727 241.707 201.66 238.68 199.46 234.82C199.358 234.638 199.308 234.431 199.318 234.222C199.327 234.013 199.395 233.811 199.513 233.64C199.631 233.469 199.794 233.335 199.985 233.253C200.176 233.172 200.385 233.146 200.59 233.18C204.21 233.773 207.317 233.04 209.91 230.98C214.58 227.27 212.98 221.55 207.64 219.86C207.293 219.747 207.023 219.847 206.83 220.16C206.723 220.333 206.69 220.51 206.73 220.69C206.95 221.84 210.3 222.77 210.6 224.84C211.46 230.73 203.91 231.87 199.52 231.19C196.207 230.67 193.773 229.02 192.22 226.24C191.747 225.393 191.57 223.717 191.69 221.21C191.94 215.87 193.12 210.93 197.37 207.63C201.86 204.15 205.51 201.99 210.94 202.36C211.6 202.407 212.213 202.647 212.78 203.08C213.047 203.28 213.347 203.383 213.68 203.39ZM210.92 206.3L223.26 206.9C223.276 206.901 223.292 206.9 223.307 206.895C223.322 206.89 223.336 206.882 223.348 206.872C223.36 206.862 223.37 206.849 223.377 206.835C223.384 206.821 223.389 206.806 223.39 206.79V206.77C223.408 206.423 223.332 206.075 223.166 205.745C223.001 205.415 222.748 205.111 222.424 204.849C222.1 204.587 221.71 204.373 221.277 204.218C220.844 204.064 220.376 203.973 219.9 203.95L214.55 203.69C213.592 203.644 212.66 203.877 211.959 204.338C211.257 204.8 210.844 205.451 210.81 206.15V206.17C210.809 206.186 210.81 206.202 210.815 206.217C210.82 206.232 210.828 206.246 210.838 206.258C210.848 206.27 210.861 206.28 210.875 206.287C210.889 206.294 210.904 206.299 210.92 206.3Z" fill="#32312E"/><path d="M210.92 206.3C210.904 206.299 210.889 206.294 210.875 206.287C210.861 206.28 210.848 206.27 210.838 206.258C210.828 206.246 210.82 206.232 210.815 206.217C210.81 206.201 210.809 206.186 210.81 206.17V206.15C210.844 205.451 211.257 204.8 211.959 204.338C212.66 203.877 213.592 203.644 214.55 203.69L219.9 203.95C220.376 203.973 220.844 204.064 221.277 204.218C221.71 204.372 222.1 204.587 222.424 204.849C222.748 205.111 223.001 205.415 223.166 205.745C223.332 206.075 223.408 206.423 223.39 206.77V206.79C223.389 206.806 223.384 206.821 223.377 206.835C223.37 206.849 223.36 206.862 223.348 206.872C223.336 206.882 223.322 206.89 223.307 206.895C223.292 206.899 223.276 206.901 223.26 206.9L210.92 206.3Z" fill="#B2BBA8"/><path d="M305.55 222.69L305.08 222.74C304.627 222.793 304.48 223.033 304.64 223.46C305.067 224.573 305.237 225.557 305.15 226.41C305.097 226.935 304.859 227.425 304.478 227.793C304.098 228.161 303.599 228.383 303.07 228.42C300.03 228.64 297.84 226.65 295.28 224.66C293.68 223.42 293.2 220.97 293.42 218.99C294.027 213.623 296.83 209.48 301.83 206.56C305.443 204.46 309.18 203.623 313.04 204.05C314.91 204.26 317.62 205.36 319.41 206.11C320.29 206.477 321.153 206.693 322 206.76C324.767 206.987 327.023 207.14 328.77 207.22C329.577 207.253 331.31 208.1 333.97 209.76C337.15 211.74 338.48 214.03 341.13 217.95C342.217 219.557 342.777 221.157 342.81 222.75C342.863 225.65 342.523 228.83 341.79 232.29C341.31 234.56 340.4 236.01 338.16 236.96C333.307 239.02 328.74 238.433 324.46 235.2C323.18 234.23 322.01 231.25 322.6 229.78C323.173 228.367 324.54 227.517 326.7 227.23C326.97 227.191 327.217 227.067 327.393 226.88C327.568 226.693 327.66 226.458 327.65 226.22V226.18C327.623 225.52 327.283 225.23 326.63 225.31C323.05 225.73 319.58 228.11 320.69 232.22C322.01 237.14 326.73 239.91 331.34 240.07C331.474 240.074 331.604 240.115 331.715 240.191C331.826 240.266 331.912 240.371 331.965 240.495C332.018 240.618 332.034 240.754 332.012 240.886C331.99 241.018 331.93 241.141 331.84 241.24C327.173 246.38 321.67 248.98 315.33 249.04C313.07 249.06 310.827 248.403 308.6 247.07C303.993 244.323 300.15 240.88 297.07 236.74C296.41 235.853 295.857 234.803 295.41 233.59C294.69 231.637 294.28 230.51 294.18 230.21C293.86 229.243 293.83 228.33 294.09 227.47C294.127 227.347 294.191 227.234 294.278 227.14C294.365 227.046 294.472 226.973 294.592 226.927C294.711 226.882 294.839 226.865 294.965 226.877C295.091 226.89 295.213 226.932 295.32 227C298.16 228.78 302.88 232.47 305.97 228.81C307.137 227.437 307.287 225.573 306.42 223.22C306.355 223.049 306.234 222.904 306.077 222.808C305.92 222.712 305.734 222.671 305.55 222.69ZM327.57 210.13C327.632 209.807 327.015 209.366 325.854 208.903C324.692 208.44 323.082 207.994 321.377 207.663C319.671 207.331 318.011 207.142 316.761 207.136C315.511 207.129 314.773 207.307 314.71 207.63C314.648 207.953 315.265 208.394 316.426 208.857C317.588 209.32 319.198 209.766 320.903 210.097C322.609 210.429 324.269 210.618 325.519 210.624C326.769 210.631 327.507 210.453 327.57 210.13Z" fill="#32312E"/><path d="M320.903 210.097C324.454 210.788 327.439 210.802 327.57 210.13C327.7 209.458 324.928 208.353 321.377 207.663C317.826 206.973 314.841 206.958 314.71 207.63C314.58 208.303 317.352 209.407 320.903 210.097Z" fill="#B2BBA8"/><path d="M181.23 297.57C179.403 296.136 177.79 294.433 176.39 292.46C173.21 287.98 171.19 285.17 170.33 284.03C167.743 280.61 165.743 277.72 164.33 275.36C157.45 263.866 152.49 251.9 149.45 239.46C148.337 234.906 147.8 231.366 147.84 228.84C147.86 227.606 148.003 226.583 148.27 225.77C148.296 225.691 148.343 225.621 148.405 225.566C148.467 225.512 148.542 225.474 148.624 225.458C148.705 225.442 148.789 225.447 148.867 225.474C148.946 225.5 149.016 225.547 149.07 225.61C150.44 227.21 151.25 228.39 151.63 230.51C152.05 232.83 152.393 234.35 152.66 235.07C153.82 238.163 155.923 243.66 158.97 251.56C161.603 258.36 164.937 265.16 168.97 271.96C172.01 277.08 176.19 282.02 180.26 287.45C181.19 288.7 182.51 289.55 183.5 290.55C183.771 290.823 183.962 291.167 184.05 291.543C184.138 291.919 184.121 292.312 184 292.68L182.48 297.2C182.439 297.32 182.369 297.429 182.277 297.518C182.185 297.606 182.073 297.671 181.95 297.707C181.828 297.743 181.699 297.75 181.573 297.726C181.448 297.702 181.33 297.648 181.23 297.57Z" fill="#32312E"/><path d="M154.55 231.5L164.21 242.3C164.323 242.429 164.381 242.598 164.37 242.77L163.6 255.47C163.588 255.616 163.527 255.753 163.427 255.859C163.327 255.966 163.194 256.036 163.05 256.058C162.905 256.08 162.758 256.053 162.631 255.98C162.504 255.908 162.405 255.795 162.35 255.66L153.46 232.16C153.409 232.019 153.409 231.864 153.459 231.723C153.509 231.581 153.607 231.462 153.735 231.384C153.863 231.306 154.015 231.275 154.163 231.297C154.312 231.318 154.448 231.39 154.55 231.5Z" fill="#32312E"/><path d="M278.75 237.04C281.29 241.746 284.573 245.693 288.6 248.88C288.816 249.051 288.971 249.286 289.041 249.552C289.112 249.817 289.094 250.097 288.99 250.35C286.85 255.663 285.687 261.303 285.5 267.27C285.32 272.736 285.37 278 285.65 283.06C285.656 283.177 285.634 283.293 285.586 283.399C285.537 283.506 285.463 283.599 285.37 283.67L282.28 286.1C281.967 286.346 281.657 286.34 281.35 286.08C274.27 280.03 269.36 270.76 266.39 261.97C266.296 261.686 266.261 261.386 266.288 261.088C266.316 260.79 266.405 260.501 266.55 260.24C270.497 253.186 274.347 245.46 278.1 237.06C278.3 236.613 278.517 236.606 278.75 237.04Z" fill="#FFF2DF"/><path d="M251.94 238.88C250.88 240.713 249.597 242.37 248.09 243.85C245.77 246.137 243.653 247.773 241.74 248.76C238.533 250.413 234.013 252.093 228.18 253.8C225.527 254.58 223.087 254.147 220.86 252.5C220.507 252.233 219.96 251.827 219.22 251.28C216.907 249.547 217.16 248.357 219.98 247.71C225.6 246.437 230.953 243.597 236.04 239.19L251.94 238.88Z" fill="#C7048F"/><path d="M91.92 240.27C100.507 256.537 112.307 270.08 127.32 280.9C127.8 281.247 128.143 281.583 128.35 281.91C128.897 282.81 128.67 283.337 127.67 283.49C119.477 277.903 112.077 271.33 105.47 263.77C99.7299 257.19 94.93 249.987 91.07 242.16C90.5566 241.12 90.84 240.49 91.92 240.27Z" fill="#020101"/><path d="M170.88 243.51C173.433 242.97 175.973 242.807 178.5 243.02C180.62 243.2 182.75 243.323 184.89 243.39C186.77 243.443 188.867 243.2 191.18 242.66C194.353 241.913 197.65 241.307 201.07 240.84C204.69 244.36 208.327 246.633 211.98 247.66C215.233 248.58 215.517 250.067 212.83 252.12C212.823 252.127 212.49 252.377 211.83 252.87C209.117 254.91 206.07 255.753 202.69 255.4C192.09 254.287 182.21 250.993 173.05 245.52C172.38 245.11 171.52 244.14 170.88 243.51Z" fill="#C7048F"/><path d="M171.19 264.29L171.43 264.59C171.506 264.691 171.615 264.761 171.737 264.788C171.86 264.816 171.989 264.799 172.1 264.74C174.127 263.687 176.05 263.38 177.87 263.82C178.203 263.9 178.437 264.097 178.57 264.41C179.917 267.457 180.803 270.437 181.23 273.35C181.283 273.69 181.16 273.94 180.86 274.1C178.833 275.207 176.62 275.72 174.22 275.64C173.88 275.627 173.617 275.48 173.43 275.2C171.357 272.167 169.263 268.67 167.15 264.71C165.977 262.497 165.337 260.107 165.23 257.54C165.03 252.673 165.243 248.097 165.87 243.81C165.878 243.761 165.899 243.716 165.931 243.677C165.962 243.639 166.004 243.609 166.051 243.59C166.099 243.571 166.151 243.564 166.203 243.57C166.255 243.575 166.306 243.592 166.35 243.62L173.88 248.48C175.073 249.247 174.957 249.763 173.53 250.03C172.583 250.203 171.297 250.593 169.67 251.2C169.56 251.239 169.461 251.304 169.381 251.39C169.301 251.475 169.243 251.579 169.21 251.692C169.178 251.805 169.173 251.925 169.196 252.041C169.218 252.157 169.268 252.266 169.34 252.36L169.59 252.68C169.638 252.743 169.707 252.788 169.784 252.807C169.862 252.827 169.945 252.821 170.02 252.79C173.013 251.57 174.643 251.427 174.91 252.36C175.93 255.913 176.907 258.98 177.84 261.56C177.859 261.616 177.863 261.675 177.853 261.733C177.843 261.791 177.818 261.846 177.781 261.892C177.744 261.937 177.696 261.973 177.642 261.996C177.588 262.018 177.529 262.027 177.47 262.02C175.503 261.78 173.48 262.21 171.4 263.31C171.315 263.354 171.241 263.417 171.183 263.493C171.125 263.569 171.084 263.657 171.064 263.751C171.044 263.844 171.045 263.941 171.067 264.034C171.089 264.128 171.131 264.215 171.19 264.29Z" fill="#FDEEF9"/><path d="M383.16 245.57C382.83 247.83 382.03 251.35 380.79 253.96C373.51 269.307 363.777 282.347 351.59 293.08C351.577 293.093 346.937 297.04 337.67 304.92C336.923 305.553 335.527 306.27 333.48 307.07C333.12 307.21 332.897 307.09 332.81 306.71C332.35 304.743 332.233 302.78 332.46 300.82C332.5 300.48 332.667 300.217 332.96 300.03C339.907 295.603 346.87 289.97 353.85 283.13C355.243 281.77 356.89 279.907 358.79 277.54C360.68 275.19 363.15 272.62 365.1 269.87C371.007 261.51 374.31 256.863 375.01 255.93C376.87 253.45 377.94 251.05 379.48 247.97C380.16 246.61 381.28 245.49 382.63 245.11C383.043 244.997 383.22 245.15 383.16 245.57Z" fill="#32312E"/><path d="M360.9 270.85L363.62 257.28C363.638 257.197 363.674 257.118 363.723 257.05C363.773 256.981 363.837 256.923 363.91 256.88L375.75 249.72C375.871 249.648 376.013 249.62 376.152 249.639C376.292 249.659 376.42 249.726 376.517 249.828C376.613 249.93 376.672 250.062 376.684 250.203C376.695 250.343 376.659 250.483 376.58 250.6L362.01 271.33C361.927 271.443 361.808 271.525 361.672 271.562C361.537 271.599 361.392 271.589 361.263 271.533C361.134 271.477 361.028 271.379 360.962 271.255C360.896 271.131 360.874 270.988 360.9 270.85Z" fill="#32312E"/><path d="M211.06 342.39C211.067 342.397 211.167 342.45 211.36 342.55C211.437 342.59 211.523 342.611 211.61 342.612C211.697 342.612 211.783 342.591 211.861 342.551C211.939 342.511 212.007 342.453 212.059 342.381C212.111 342.31 212.145 342.227 212.16 342.14C213.667 332.767 214.1 324.057 213.46 316.01C212.613 305.45 211.103 294.823 208.93 284.13C207.87 278.897 207.227 274.527 207 271.02C206.727 266.833 206.58 262.397 206.56 257.71C206.557 257.55 206.612 257.394 206.715 257.27C206.817 257.145 206.961 257.061 207.12 257.03C211.087 256.277 214.033 254.32 215.96 251.16C216.187 250.787 216.423 250.777 216.67 251.13C219.11 254.61 222.42 256.253 226.6 256.06C227.013 256.047 227.213 256.243 227.2 256.65C226.927 265.837 227.083 273.873 227.67 280.76C227.672 280.812 227.659 280.864 227.632 280.908C227.605 280.952 227.565 280.988 227.518 281.009C227.47 281.031 227.418 281.038 227.366 281.029C227.315 281.02 227.267 280.996 227.23 280.96C227.023 280.747 226.667 280.557 226.16 280.39C225.787 280.27 225.463 280.347 225.19 280.62C224.93 280.88 224.847 281.27 224.94 281.79C224.973 281.963 225.223 282.26 225.69 282.68C231.23 287.633 235.08 291.543 237.24 294.41C241.213 299.69 244.213 305.967 246.24 313.24C249.96 326.58 250.06 341.4 244.16 353.88C241.9 358.65 236.7 361.96 231.66 364.43C228.24 366.117 223.89 366.273 218.61 364.9C217.57 364.63 216.48 364.72 215.3 365.09C213.32 365.717 211.733 365.993 210.54 365.92C200.933 365.333 193.43 362.167 188.03 356.42C183.503 351.6 180.05 346.38 177.67 340.76C173.13 330.03 174.46 316.52 179.97 306.48C181.69 303.36 183.257 300.35 184.67 297.45C186.21 294.283 186.76 290.55 186.32 286.25C185.773 280.903 185.153 277.07 184.46 274.75C182.673 268.777 180.193 260.85 177.02 250.97C176.992 250.881 176.99 250.786 177.015 250.696C177.04 250.607 177.091 250.526 177.161 250.465C177.231 250.403 177.317 250.363 177.409 250.35C177.501 250.337 177.595 250.351 177.68 250.39C186.293 254.357 195.197 256.747 204.39 257.56C204.45 257.565 204.506 257.592 204.547 257.637C204.588 257.681 204.61 257.74 204.61 257.8C204.543 262.527 204.663 267.03 204.97 271.31C205.19 274.35 205.887 278.79 207.06 284.63C208.927 293.897 210.37 304.033 211.39 315.04C212.143 323.2 211.8 331.857 210.36 341.01C210.333 341.178 210.331 341.348 210.352 341.51C210.374 341.672 210.419 341.823 210.485 341.952C210.55 342.082 210.635 342.188 210.734 342.263C210.833 342.338 210.944 342.382 211.06 342.39Z" fill="#FE9BAF"/><path d="M297.35 254.85C295.383 264.063 293.397 271.513 291.39 277.2C290.79 278.913 289.91 280.53 288.75 282.05C288.692 282.123 288.616 282.179 288.528 282.211C288.441 282.243 288.347 282.251 288.257 282.234C288.167 282.216 288.083 282.173 288.017 282.111C287.95 282.049 287.903 281.969 287.88 281.88C287.533 280.533 287.37 279.09 287.39 277.55C287.477 270.157 287.637 265.253 287.87 262.84C288.217 259.293 289.19 255.36 290.79 251.04C290.85 250.867 290.957 250.827 291.11 250.92L297.16 254.41C297.333 254.51 297.397 254.657 297.35 254.85Z" fill="#32312E"/><path d="M288.34 340.74C289.547 334.673 291.127 327.62 293.08 319.58C294.467 313.893 296.277 308.377 298.51 303.03C300.32 298.69 303.29 294.12 305.59 290.54C306.763 288.727 307.69 287.053 308.37 285.52C311.517 278.453 312.97 271.044 312.73 263.29C312.637 260.144 312.587 258.097 312.58 257.15C312.573 256.65 312.737 256.587 313.07 256.96C313.96 257.96 314.77 259.17 315.68 259.85C318.087 261.624 320.923 262.697 324.19 263.07C332.397 264.01 340.533 263.707 348.6 262.16C348.697 262.141 348.798 262.151 348.89 262.189C348.982 262.226 349.061 262.29 349.117 262.372C349.173 262.453 349.204 262.55 349.207 262.649C349.209 262.748 349.182 262.846 349.13 262.93C345.883 268.23 343.343 272.337 341.51 275.25C337.537 281.55 334.943 286.127 333.73 288.98C331.38 294.48 329.87 298.65 330.21 303.98C330.47 308.02 331.75 312.49 332.65 316.09C335.39 327.04 333.79 338.63 327.91 347.87C325.53 351.61 321.93 355.43 317.11 359.33C312.85 362.77 308.647 364.997 304.5 366.01C299.627 367.204 294.733 367.36 289.82 366.48C287.833 366.127 286.137 365.437 284.73 364.41C284.25 364.063 283.793 363.823 283.36 363.69C282.607 363.463 282.1 363.36 281.84 363.38C275.127 363.84 269.39 361.413 264.63 356.1C260.83 351.867 258.713 347.514 258.28 343.04C256.67 326.42 262.88 309.36 273.75 296.44C276.237 293.48 279.517 290.653 283.59 287.96C287.317 285.5 291.087 283.323 294.9 281.43C295.009 281.376 295.106 281.299 295.185 281.206C295.264 281.112 295.323 281.004 295.359 280.887C295.394 280.77 295.406 280.647 295.392 280.525C295.379 280.404 295.34 280.286 295.28 280.18C294.913 279.533 294.227 279.387 293.22 279.74C292.773 279.9 292.627 279.757 292.78 279.31C295.133 272.497 297.217 264.883 299.03 256.47C299.103 256.103 299.327 255.937 299.7 255.97C300.2 256.017 300.723 256.114 301.27 256.26C304.55 257.17 308.44 255.5 310.75 253.22C310.796 253.174 310.853 253.141 310.916 253.122C310.978 253.104 311.044 253.102 311.108 253.116C311.172 253.13 311.231 253.16 311.28 253.202C311.329 253.245 311.367 253.299 311.39 253.36L311.53 253.73C311.677 254.11 311.61 254.45 311.33 254.75C310.617 255.497 310.323 256.334 310.45 257.26C311.743 266.94 310.46 276.213 306.6 285.08C305.847 286.8 303.88 290.097 300.7 294.97C297.307 300.163 294.377 307.417 291.91 316.73C289.643 325.29 287.87 333.154 286.59 340.32C286.49 340.894 286.73 341.19 287.31 341.21L287.74 341.22C288.08 341.227 288.28 341.067 288.34 340.74Z" fill="#FE9BAF"/><path d="M229.11 255.86C229.117 255.707 229.193 255.6 229.34 255.54C231.607 254.573 233.947 253.87 236.36 253.43C236.467 253.41 236.527 253.453 236.54 253.56C237.027 258.227 237.03 262.043 236.55 265.01C235.617 270.85 234.217 277.05 232.35 283.61C232.304 283.767 232.219 283.909 232.102 284.024C231.985 284.138 231.841 284.22 231.683 284.262C231.526 284.305 231.359 284.305 231.201 284.265C231.043 284.224 230.898 284.143 230.78 284.03C230.347 283.61 230.083 283.027 229.99 282.28C228.87 273.347 228.577 264.54 229.11 255.86Z" fill="#32312E"/><path d="M19.07 319.46C18.9234 318.953 18.59 318.747 18.07 318.84L17.74 318.91C17.599 318.937 17.4664 318.998 17.3507 319.087C17.2349 319.177 17.1386 319.293 17.068 319.43C16.9974 319.566 16.954 319.72 16.9406 319.88C16.9271 320.04 16.944 320.204 16.99 320.36C21.3433 335.46 29.5 346.86 41.46 354.56C41.78 354.767 41.8067 355.003 41.54 355.27C39.64 357.203 37.8933 358.383 36.3 358.81C33.6933 359.51 30.7367 359.433 27.43 358.58C21.58 357.06 16.44 351.99 13.31 346.84C12.3033 345.173 10.86 342.227 8.98 338C5.14 329.367 2.52001 320.347 1.12001 310.94C-1.28999 294.77 2.29003 273.16 17.64 263.94C28.3134 257.533 39.6 254.33 51.5 254.33C51.6883 254.33 51.8689 254.405 52.0021 254.538C52.1352 254.671 52.21 254.852 52.21 255.04C52.1434 264.933 52.44 274.097 53.1 282.53C53.44 286.917 54.4734 291.947 56.2 297.62C59.7067 309.147 64.5733 320.363 70.8 331.27C72.5867 334.403 72.47 337.453 70.45 340.42C67.2034 345.207 63.25 348.587 58.59 350.56C57.3 351.11 56.42 350.87 55.42 349.91C48.7267 343.457 44.18 335.853 41.78 327.1C41.5934 326.427 41.16 326.157 40.48 326.29L40.22 326.35C39.7133 326.503 39.5167 326.803 39.63 327.25C40.7967 331.997 42.68 336.583 45.28 341.01C47.34 344.51 50.02 347.16 52.27 350.11C52.416 350.301 52.4828 350.54 52.4567 350.78C52.4307 351.02 52.3138 351.242 52.13 351.4C49 354.08 44.93 353.84 41.48 351.69C30.08 344.61 22.67 332.01 19.07 319.46Z" fill="#EECE9F"/><path d="M350.58 277.37C350.648 277.43 350.728 277.474 350.815 277.499C350.902 277.524 350.994 277.529 351.084 277.514C351.174 277.498 351.26 277.463 351.336 277.411C351.411 277.358 351.474 277.289 351.52 277.21L351.69 276.91C351.775 276.765 351.801 276.594 351.764 276.43C351.727 276.267 351.629 276.124 351.49 276.03C349.67 274.796 347.917 273.943 346.23 273.47C345.917 273.383 345.84 273.196 346 272.91L350.75 264.69C351.07 264.136 351.507 264.02 352.06 264.34L355.54 266.34C355.626 266.389 355.722 266.419 355.821 266.427C355.92 266.435 356.02 266.42 356.113 266.385C356.206 266.35 356.289 266.294 356.358 266.222C356.427 266.15 356.479 266.064 356.51 265.97L356.63 265.62C356.675 265.475 356.671 265.32 356.618 265.18C356.565 265.04 356.467 264.924 356.34 264.85L352.57 262.68C351.743 262.2 351.777 261.79 352.67 261.45L360.84 258.36C361.373 258.16 361.623 258.347 361.59 258.92C361.257 264.04 360.13 269.053 358.21 273.96C357.563 275.62 356.66 277.133 355.5 278.5C352.727 281.766 349.677 284.726 346.35 287.38C346.097 287.586 345.81 287.643 345.49 287.55C343.49 286.923 341.73 286.02 340.21 284.84C339.92 284.615 339.72 284.292 339.649 283.93C339.577 283.568 339.638 283.192 339.82 282.87L343.8 275.98C343.951 275.722 344.171 275.511 344.436 275.371C344.701 275.232 345 275.169 345.3 275.19C347.34 275.356 349.1 276.083 350.58 277.37Z" fill="#FDEEF9"/><path d="M435.03 273.73C435.403 274.203 435.293 274.77 434.7 275.43C422.187 289.417 407.103 299.72 389.45 306.34C388.903 306.333 388.583 306.243 388.49 306.07C388.407 305.919 388.358 305.753 388.346 305.581C388.333 305.41 388.357 305.238 388.417 305.076C388.477 304.915 388.571 304.769 388.692 304.647C388.813 304.525 388.959 304.431 389.12 304.37C406.273 297.89 421.01 287.793 433.33 274.08C433.783 273.573 434.35 273.457 435.03 273.73Z" fill="#020101"/><path d="M182.66 276.7L184.27 286.67C184.305 286.885 184.267 287.105 184.163 287.296C184.059 287.487 183.894 287.638 183.695 287.725C183.495 287.812 183.273 287.831 183.062 287.777C182.851 287.724 182.664 287.602 182.53 287.43L175.68 278.71C175.578 278.58 175.511 278.427 175.484 278.264C175.457 278.101 175.472 277.935 175.526 277.779C175.581 277.623 175.675 277.484 175.798 277.374C175.92 277.264 176.069 277.187 176.23 277.15L181.46 275.91C181.591 275.878 181.727 275.873 181.86 275.896C181.993 275.919 182.12 275.969 182.232 276.043C182.345 276.117 182.441 276.214 182.515 276.327C182.588 276.44 182.638 276.567 182.66 276.7Z" fill="#32312E"/><path d="M89.7199 316.27C88.6066 317.53 88.2666 319.137 88.6999 321.09C88.7962 321.523 89.0358 321.911 89.3803 322.192C89.7248 322.473 90.1543 322.631 90.5999 322.64C92.6466 322.673 94.5499 322.047 96.3099 320.76C100.097 322.96 104.07 325.127 108.23 327.26C115.81 331.147 123.72 334.137 131.96 336.23C142.933 339.017 154.03 340.737 165.25 341.39C165.703 342.517 166.23 343.617 166.83 344.69C167.323 345.563 167.913 346.12 168.6 346.36C169.767 346.767 170.65 346.397 171.25 345.25C172.043 343.75 172.893 342.267 173.8 340.8C174.013 340.7 174.227 340.667 174.44 340.7C174.602 340.724 174.754 340.789 174.884 340.889C175.013 340.989 175.115 341.12 175.18 341.27C177.44 346.457 180.36 351.203 183.94 355.51C184.041 355.627 184.094 355.777 184.088 355.931C184.082 356.085 184.019 356.231 183.91 356.34L180.48 359.77C179.5 358.49 178.627 357.617 177.86 357.15C176.647 356.417 175.567 356.297 174.62 356.79C173.92 357.15 173.427 357.933 173.14 359.14C172.88 360.233 172.653 361.383 172.46 362.59C168.54 363.717 164.727 363.343 161.02 361.47C158.307 360.103 155.267 358.307 151.9 356.08C148.553 353.873 145.077 353.687 141.47 355.52C138.363 354.14 136.31 355.15 135.31 358.55C130.637 360.637 126.453 360.12 122.76 357C120.793 355.327 118.033 352.323 114.48 347.99C113.5 346.8 111.58 346.76 110.18 347.06C103.43 348.51 95.2599 349.83 91.7399 343.22C90.6866 341.26 89.4233 338.403 87.9499 334.65C87.0899 332.463 85.4332 331.623 82.9799 332.13C82.7999 332.17 80.1332 332.647 74.9799 333.56C74.6399 333.62 74.3933 333.5 74.2399 333.2L67.3099 319.69C68.7899 319.103 69.6499 318.11 69.8899 316.71C70.1699 315.13 69.6266 314.043 68.2599 313.45C66.6599 312.75 65.4599 312.893 64.6599 313.88L60.4 302.87C64.0533 303.37 66.6899 302.707 68.3099 300.88C68.4053 300.77 68.4717 300.637 68.5031 300.494C68.5345 300.351 68.53 300.202 68.4899 300.06L67.7399 297.48C67.6333 297.12 67.3966 296.903 67.03 296.83C65.31 296.497 63.9999 296.673 63.0999 297.36C61.9932 298.207 60.78 299.01 59.46 299.77C57.16 294.237 55.8532 288.767 55.5399 283.36C55.4666 282.147 55.7733 282.043 56.46 283.05C59.7866 287.97 63.6466 292.69 68.0399 297.21C74.8199 304.19 82.0466 310.543 89.7199 316.27ZM81.6899 325.44C81.6899 325.067 81.6165 324.698 81.4737 324.353C81.331 324.009 81.1218 323.696 80.8581 323.432C80.5944 323.168 80.2813 322.959 79.9368 322.816C79.5922 322.673 79.2229 322.6 78.8499 322.6C78.0967 322.6 77.3743 322.899 76.8417 323.432C76.3091 323.964 76.0099 324.687 76.0099 325.44C76.0099 326.193 76.3091 326.916 76.8417 327.448C77.3743 327.981 78.0967 328.28 78.8499 328.28C79.2229 328.28 79.5922 328.206 79.9368 328.064C80.2813 327.921 80.5944 327.712 80.8581 327.448C81.1218 327.184 81.331 326.871 81.4737 326.527C81.6165 326.182 81.6899 325.813 81.6899 325.44ZM105.05 340.05C105.05 339.652 104.972 339.258 104.819 338.89C104.667 338.523 104.444 338.189 104.162 337.907C103.881 337.626 103.547 337.403 103.179 337.251C102.812 337.098 102.418 337.02 102.02 337.02C101.622 337.02 101.228 337.098 100.86 337.251C100.493 337.403 100.159 337.626 99.8774 337.907C99.596 338.189 99.3728 338.523 99.2206 338.89C99.0683 339.258 98.9899 339.652 98.9899 340.05C98.9899 340.854 99.3091 341.624 99.8774 342.192C100.446 342.761 101.216 343.08 102.02 343.08C102.824 343.08 103.594 342.761 104.162 342.192C104.731 341.624 105.05 340.854 105.05 340.05ZM125.847 345.901C126.196 346.052 126.573 346.13 126.957 346.13C127.34 346.13 127.722 346.052 128.081 345.901C128.44 345.749 128.769 345.528 129.048 345.248C129.328 344.969 129.553 344.637 129.711 344.272C130.031 343.534 130.056 342.706 129.783 341.968C129.509 341.231 128.959 340.645 128.253 340.339C127.904 340.188 127.527 340.11 127.143 340.11C126.76 340.11 126.378 340.188 126.019 340.339C125.66 340.491 125.331 340.712 125.052 340.992C124.772 341.271 124.546 341.603 124.388 341.968C124.069 342.706 124.044 343.534 124.317 344.272C124.591 345.009 125.141 345.595 125.847 345.901ZM156.785 350.101C156.885 349.418 156.639 348.714 156.1 348.141C155.561 347.569 154.773 347.175 153.91 347.048C153.047 346.92 152.179 347.069 151.497 347.461C150.815 347.854 150.376 348.457 150.275 349.139C150.175 349.822 150.421 350.526 150.96 351.099C151.499 351.671 152.287 352.065 153.15 352.192C154.013 352.32 154.881 352.171 155.563 351.779C156.244 351.386 156.684 350.783 156.785 350.101Z" fill="#FFB3E9"/><path d="M273.89 365.34C272.59 370.953 271.527 376.583 270.7 382.23C269.293 391.823 267.817 401.413 266.27 411H258.47C257.923 409.387 256.503 405.897 254.21 400.53C248.86 388.03 239.61 375.76 227.75 368.96C227.676 368.918 227.615 368.855 227.577 368.779C227.539 368.702 227.524 368.616 227.535 368.531C227.545 368.447 227.581 368.367 227.637 368.303C227.693 368.238 227.767 368.192 227.85 368.17C234.157 366.45 239.54 363.23 244 358.51C245.34 357.083 246.61 354.687 247.81 351.32C250.683 343.227 251.793 335.253 251.14 327.4C250.027 313.893 245.897 302.197 238.75 292.31C238.523 291.99 238.587 291.75 238.94 291.59C241.913 290.203 244.66 288.323 247.18 285.95C247.515 285.635 247.954 285.456 248.41 285.45C257.69 285.25 266.793 286.937 275.72 290.51C275.752 290.523 275.779 290.544 275.801 290.57C275.823 290.597 275.838 290.628 275.845 290.661C275.852 290.695 275.85 290.73 275.841 290.763C275.831 290.795 275.814 290.825 275.79 290.85C265.057 301.77 258.473 314.827 256.04 330.02C255.28 334.807 255.33 339.7 256.19 344.7C256.79 348.2 258.033 351.307 259.92 354.02C263.52 359.193 268.177 362.967 273.89 365.34Z" fill="#EECE9F"/><path d="M343.37 290.09L334.12 297.73C333.987 297.842 333.82 297.905 333.646 297.91C333.472 297.915 333.302 297.861 333.163 297.757C333.023 297.652 332.924 297.504 332.88 297.336C332.836 297.167 332.85 296.989 332.92 296.83L337.68 285.81C337.726 285.703 337.796 285.608 337.884 285.532C337.973 285.456 338.077 285.401 338.19 285.371C338.302 285.341 338.42 285.337 338.535 285.36C338.649 285.382 338.757 285.43 338.85 285.5L343.35 288.88C343.443 288.951 343.518 289.041 343.571 289.145C343.624 289.249 343.652 289.364 343.654 289.48C343.656 289.597 343.631 289.712 343.582 289.818C343.533 289.923 343.46 290.016 343.37 290.09Z" fill="#32312E"/><path d="M60.4 302.87L59.46 299.77C60.78 299.01 61.9932 298.207 63.0999 297.36C63.9999 296.673 65.31 296.497 67.03 296.83C67.3966 296.903 67.6333 297.12 67.7399 297.48L68.4899 300.06C68.53 300.202 68.5345 300.351 68.5031 300.494C68.4717 300.637 68.4053 300.77 68.3099 300.88C66.6899 302.707 64.0533 303.37 60.4 302.87Z" fill="#FDEEF9"/><path d="M67.3099 319.69L64.6599 313.88C65.4599 312.893 66.6599 312.75 68.2599 313.45C69.6266 314.043 70.17 315.13 69.89 316.71C69.65 318.11 68.7899 319.103 67.3099 319.69Z" fill="#FDEEF9"/><path d="M89.7199 316.27L96.3099 320.76C94.5499 322.047 92.6466 322.673 90.5999 322.64C90.1543 322.631 89.7248 322.473 89.3803 322.192C89.0358 321.911 88.7962 321.523 88.6999 321.09C88.2666 319.137 88.6066 317.53 89.7199 316.27Z" fill="#FDEEF9"/><path d="M445.77 348.52C445.357 347.206 444.703 346.36 443.81 345.98C441.857 345.146 440.633 345.733 440.14 347.74C439.873 348.813 440.24 349.853 441.24 350.86C439.68 351.806 438.057 352.646 436.37 353.38C428.283 356.9 419.98 359.793 411.46 362.06C410.567 362.293 409.55 362.46 408.41 362.56C407.35 362.646 406.317 362.766 405.31 362.92C403.96 358.82 398.89 359.99 399.34 364.3C386.313 366.386 373.283 367.136 360.25 366.55C359.56 363.53 355.75 362.26 354.75 366.25C352.35 366.503 349.933 366.47 347.5 366.15C342.487 365.49 337.5 364.666 332.54 363.68C332 363.573 331.637 363.48 331.45 363.4C330.417 358.773 328.283 358.163 325.05 361.57C323.563 361.883 321.933 361.573 320.16 360.64C319.807 360.446 319.783 360.22 320.09 359.96C323.203 357.246 326.047 354.303 328.62 351.13C328.781 350.93 329 350.784 329.246 350.71C329.493 350.637 329.755 350.64 330 350.72L342.03 354.56C342.11 358.44 346.65 359.35 347.92 355.4C355.373 355.313 361.907 355.79 367.52 356.83C369.033 357.11 370.377 357.143 371.55 356.93C373.25 356.616 374.117 356.456 374.15 356.45C377.61 356.17 381.003 356.073 384.33 356.16C385.09 358.3 387.36 359.89 389.39 358.15C390.257 357.416 390.663 356.483 390.61 355.35C394.903 354.136 399.313 352.983 403.84 351.89C407.95 350.89 411.77 349.48 415.71 348.13C418.057 347.33 420.437 346.376 422.85 345.27C425.31 344.143 427.65 343.096 429.87 342.13C433.523 345.41 435.503 344.3 435.81 338.8L452.64 328.12C453.22 328.746 454.003 329.01 454.99 328.91C455.843 328.823 456.483 328.443 456.91 327.77C457.477 326.87 457.54 325.84 457.1 324.68L459.65 322.22C459.731 322.141 459.828 322.079 459.934 322.038C460.04 321.998 460.154 321.979 460.268 321.984C460.382 321.989 460.494 322.016 460.597 322.066C460.701 322.115 460.794 322.184 460.87 322.27C463.63 325.39 464.75 330.17 465.51 334.31C465.73 335.503 465.597 336.51 465.11 337.33C464.517 338.33 462.91 339.65 460.29 341.29C455.623 344.216 450.783 346.626 445.77 348.52ZM455.79 337.02C455.79 336.338 455.519 335.684 455.037 335.203C454.555 334.721 453.902 334.45 453.22 334.45C452.538 334.45 451.885 334.721 451.403 335.203C450.921 335.684 450.65 336.338 450.65 337.02C450.65 337.701 450.921 338.355 451.403 338.837C451.885 339.319 452.538 339.59 453.22 339.59C453.902 339.59 454.555 339.319 455.037 338.837C455.519 338.355 455.79 337.701 455.79 337.02ZM420.89 353.63C420.89 352.919 420.608 352.237 420.105 351.735C419.602 351.232 418.921 350.95 418.21 350.95C417.499 350.95 416.817 351.232 416.315 351.735C415.812 352.237 415.53 352.919 415.53 353.63C415.53 354.341 415.812 355.022 416.315 355.525C416.817 356.027 417.499 356.31 418.21 356.31C418.921 356.31 419.602 356.027 420.105 355.525C420.608 355.022 420.89 354.341 420.89 353.63ZM371.55 360.04C371.55 359.308 371.259 358.606 370.742 358.088C370.224 357.571 369.522 357.28 368.79 357.28C368.058 357.28 367.356 357.571 366.838 358.088C366.321 358.606 366.03 359.308 366.03 360.04C366.03 360.772 366.321 361.474 366.838 361.991C367.356 362.509 368.058 362.8 368.79 362.8C369.522 362.8 370.224 362.509 370.742 361.991C371.259 361.474 371.55 360.772 371.55 360.04Z" fill="#CD0302"/><path d="M78.85 328.28C80.4185 328.28 81.69 327.009 81.69 325.44C81.69 323.872 80.4185 322.6 78.85 322.6C77.2815 322.6 76.01 323.872 76.01 325.44C76.01 327.009 77.2815 328.28 78.85 328.28Z" fill="#FDEEF9"/><path d="M457.1 324.68C457.54 325.84 457.477 326.87 456.91 327.77C456.483 328.444 455.843 328.824 454.99 328.91C454.003 329.01 453.22 328.747 452.64 328.12L457.1 324.68Z" fill="#FFF2DF"/><path d="M221.65 411H50.13L49.01 410.7C48.7433 410.633 48.65 410.467 48.73 410.2L67.53 347.95C70.5433 344.863 72.92 340.99 74.66 336.33C74.8066 335.937 75.0866 335.717 75.5 335.67L84.3 334.68C84.6248 334.642 84.9531 334.716 85.2323 334.888C85.5116 335.06 85.7256 335.321 85.84 335.63C86.6067 337.723 87.4367 339.827 88.33 341.94C92.7 352.22 101.52 351.51 110.92 349.36C111.334 349.265 111.766 349.292 112.163 349.438C112.561 349.584 112.907 349.841 113.16 350.18C115.693 353.547 118.44 356.457 121.4 358.91C128.35 364.67 135.69 361.57 142.76 357.71C145.327 356.303 148.083 356.54 151.03 358.42C153.417 359.933 155.62 361.29 157.64 362.49C165.39 367.07 173.96 366.35 181.85 361.82C182.91 361.213 184.097 360.027 185.41 358.26C185.617 357.987 185.867 357.94 186.16 358.12C186.89 358.58 188 359.92 188.71 360.49C193.997 364.697 200.283 367.263 207.57 368.19C211.35 368.67 214.193 368.313 216.1 367.12C216.393 366.933 216.71 366.887 217.05 366.98C219.65 367.693 221.773 368.103 223.42 368.21C223.811 368.236 224.177 368.409 224.445 368.695C224.712 368.981 224.861 369.358 224.86 369.75C224.86 375.817 224.4 382.753 223.48 390.56C222.68 397.38 222.07 404.193 221.65 411Z" fill="#FFF2DF"/><path d="M453.22 339.59C454.639 339.59 455.79 338.44 455.79 337.02C455.79 335.601 454.639 334.45 453.22 334.45C451.801 334.45 450.65 335.601 450.65 337.02C450.65 338.44 451.801 339.59 453.22 339.59Z" fill="#FDEEF9"/><path d="M102.02 343.08C103.693 343.08 105.05 341.723 105.05 340.05C105.05 338.377 103.693 337.02 102.02 337.02C100.347 337.02 98.99 338.377 98.99 340.05C98.99 341.723 100.347 343.08 102.02 343.08Z" fill="#FDEEF9"/><path d="M435.81 338.8C435.503 344.3 433.523 345.41 429.87 342.13L435.81 338.8Z" fill="#FDEEF9"/><path d="M124.388 341.968C123.724 343.504 124.377 345.265 125.847 345.901C127.316 346.537 129.047 345.807 129.711 344.272C130.376 342.736 129.723 340.975 128.253 340.339C126.783 339.703 125.053 340.432 124.388 341.968Z" fill="#FDEEF9"/><path d="M173.8 340.8C172.893 342.266 172.043 343.75 171.25 345.25C170.65 346.396 169.767 346.766 168.6 346.36C167.913 346.12 167.323 345.563 166.83 344.69C166.23 343.616 165.703 342.516 165.25 341.39L173.8 340.8Z" fill="#FDEEF9"/><path d="M426.83 371.52L417.78 374.16L410.3 364.49C415.2 362.88 420.75 361.46 425.06 359.93C438.513 355.13 451.4 348.873 463.72 341.16C464.007 340.98 464.187 341.057 464.26 341.39C464.853 344.117 465.64 346.687 466.62 349.1C466.74 349.407 466.707 349.693 466.52 349.96C465.807 350.98 464.723 351.987 463.27 352.98C451.603 360.96 439.457 367.14 426.83 371.52Z" fill="#EECE9F"/><path d="M445.77 348.52C444.41 349.753 442.9 350.533 441.24 350.86C440.24 349.853 439.873 348.813 440.14 347.74C440.633 345.733 441.857 345.147 443.81 345.98C444.703 346.36 445.357 347.207 445.77 348.52Z" fill="#FDEEF9"/><path d="M153.15 352.192C154.948 352.458 156.575 351.521 156.785 350.101C156.994 348.68 155.707 347.313 153.91 347.048C152.112 346.783 150.485 347.719 150.275 349.139C150.065 350.56 151.353 351.927 153.15 352.192Z" fill="#FDEEF9"/><path d="M67.5301 347.95L48.73 410.2C48.65 410.467 48.7434 410.634 49.0101 410.7L50.1301 411H2.80005C6.54005 392.407 11.5434 374.35 17.8101 356.83C17.9434 356.45 18.1767 356.37 18.5101 356.59C24.2767 360.484 29.6134 362.11 34.5201 361.47C38.2001 360.997 41.2467 359.19 43.66 356.05C43.8734 355.777 44.1501 355.64 44.4901 355.64C48.3601 355.58 50.75 355.84 53.79 352.68C54.03 352.434 54.3067 352.38 54.6201 352.52C56.3534 353.32 58.1734 353.254 60.0801 352.32C62.5201 351.127 65.0034 349.67 67.5301 347.95Z" fill="#EECE9F"/><path d="M464.67 372.63C456.85 387.59 446.063 400.38 432.31 411H417.73L428.06 407.33C428.367 407.217 428.527 406.997 428.54 406.67L428.94 393.43C428.945 393.252 428.909 393.076 428.833 392.915C428.757 392.754 428.645 392.614 428.504 392.505C428.364 392.395 428.2 392.321 428.025 392.287C427.851 392.253 427.671 392.261 427.5 392.31L400.04 400.3C399.767 400.381 399.529 400.549 399.361 400.778C399.193 401.008 399.105 401.286 399.11 401.57L399.26 411H368.07C368.923 408.993 369.13 406.93 368.69 404.81C368.653 404.632 368.555 404.473 368.415 404.36C368.274 404.247 368.099 404.187 367.92 404.19C359.08 404.263 350.193 403.88 341.26 403.04C341.024 403.018 340.788 403.08 340.594 403.216C340.4 403.351 340.261 403.551 340.2 403.78C339.573 406.147 339.48 408.553 339.92 411H314.57L315.31 398.72C315.325 398.481 315.256 398.245 315.115 398.052C314.975 397.858 314.771 397.72 314.54 397.66C310.88 396.74 307.373 395.777 304.02 394.77C302.687 394.37 301.483 394.183 300.41 394.21C300.033 394.217 299.66 394.12 299.334 393.929C299.008 393.739 298.742 393.462 298.566 393.132C298.39 392.802 298.311 392.431 298.338 392.061C298.365 391.691 298.498 391.337 298.72 391.04C299.113 390.513 299.4 389.653 299.58 388.46C300.287 383.733 301.37 379.033 302.83 374.36C306.303 375.427 310.02 375.923 313.98 375.85C326.627 379.71 338.467 381.9 349.5 382.42C371.573 383.46 394.333 380.707 417.78 374.16L426.83 371.52L428.34 372.94L430.28 388.35C430.291 388.443 430.323 388.533 430.374 388.612C430.424 388.691 430.491 388.758 430.571 388.808C430.65 388.858 430.74 388.889 430.834 388.9C430.927 388.911 431.021 388.9 431.11 388.87C437.483 386.717 443.593 383.987 449.44 380.68C449.797 380.477 450.086 380.175 450.273 379.811C450.459 379.446 450.535 379.036 450.49 378.63L449.01 365.49C448.957 365.01 448.693 364.8 448.22 364.86L447.71 364.92C448.07 364.053 448.563 363.44 449.19 363.08C455.75 359.32 462.54 355.72 468 350.23C468.142 350.088 468.32 349.988 468.515 349.94C468.71 349.892 468.914 349.898 469.105 349.958C469.297 350.017 469.469 350.128 469.602 350.279C469.735 350.429 469.824 350.613 469.86 350.81C470.253 353.01 470.267 355.103 469.9 357.09C469.707 358.137 468.987 360.063 467.74 362.87C466.34 366.023 465.317 369.277 464.67 372.63ZM459.15 378.19C459.222 378.084 459.255 377.955 459.243 377.827C459.23 377.699 459.173 377.58 459.082 377.489C458.99 377.399 458.87 377.344 458.741 377.333C458.613 377.322 458.485 377.356 458.38 377.43L453.3 380.75C453.208 380.808 453.135 380.891 453.09 380.99L451.92 383.76C451.867 383.887 451.863 384.03 451.91 384.16L452.76 386.58C452.795 386.676 452.856 386.761 452.937 386.825C453.017 386.888 453.114 386.928 453.216 386.939C453.318 386.951 453.421 386.934 453.514 386.889C453.606 386.845 453.685 386.776 453.74 386.69L459.15 378.19ZM342.192 384.483C342.206 384.413 342.192 384.34 342.152 384.281C342.112 384.221 342.05 384.18 341.98 384.166L321.223 380.056C321.153 380.042 321.08 380.057 321.02 380.096C320.961 380.136 320.919 380.198 320.906 380.268L317.728 396.317C317.714 396.387 317.728 396.46 317.768 396.519C317.808 396.579 317.87 396.62 317.94 396.634L338.697 400.744C338.767 400.758 338.84 400.743 338.9 400.704C338.959 400.664 339.001 400.602 339.015 400.532L342.192 384.483ZM396.43 381.44L370.82 384.31C370.44 384.357 370.297 384.567 370.39 384.94C370.73 386.28 370.91 387.217 370.93 387.75C371.07 392.337 371.083 396.893 370.97 401.42C370.968 401.493 370.982 401.566 371.01 401.633C371.038 401.701 371.079 401.762 371.132 401.812C371.185 401.863 371.247 401.902 371.316 401.928C371.384 401.953 371.457 401.964 371.53 401.96C379.737 401.58 387.92 400.643 396.08 399.15C396.773 399.023 397.133 398.607 397.16 397.9L397.62 382.54C397.625 382.386 397.597 382.233 397.538 382.091C397.479 381.949 397.39 381.822 397.277 381.717C397.164 381.613 397.03 381.534 396.884 381.486C396.738 381.438 396.583 381.423 396.43 381.44Z" fill="#350E08"/><path d="M418.21 356.31C419.69 356.31 420.89 355.11 420.89 353.63C420.89 352.15 419.69 350.95 418.21 350.95C416.73 350.95 415.53 352.15 415.53 353.63C415.53 355.11 416.73 356.31 418.21 356.31Z" fill="#FDEEF9"/><path d="M347.92 355.4C346.65 359.35 342.11 358.44 342.03 354.56C344.023 354.407 345.987 354.687 347.92 355.4Z" fill="#FDEEF9"/><path d="M141.47 355.52L135.31 358.55C136.31 355.15 138.363 354.14 141.47 355.52Z" fill="#FDEEF9"/><path d="M390.61 355.35C390.663 356.483 390.257 357.417 389.39 358.15C387.36 359.89 385.09 358.3 384.33 356.16L390.61 355.35Z" fill="#FDEEF9"/><path d="M180.48 359.77C178.12 361.236 175.447 362.176 172.46 362.59C172.653 361.383 172.88 360.233 173.14 359.14C173.427 357.933 173.92 357.15 174.62 356.79C175.567 356.296 176.647 356.416 177.86 357.15C178.627 357.616 179.5 358.49 180.48 359.77Z" fill="#FDEEF9"/><path d="M368.79 362.8C370.314 362.8 371.55 361.564 371.55 360.04C371.55 358.515 370.314 357.28 368.79 357.28C367.266 357.28 366.03 358.515 366.03 360.04C366.03 361.564 367.266 362.8 368.79 362.8Z" fill="#FDEEF9"/><path d="M331.45 363.4C329.203 363.533 327.07 362.923 325.05 361.57C328.283 358.163 330.417 358.773 331.45 363.4Z" fill="#FFF2DF"/><path d="M405.31 362.92C403.397 363.733 401.407 364.193 399.34 364.3C398.89 359.99 403.96 358.82 405.31 362.92Z" fill="#FFF2DF"/><path d="M410.3 364.49L417.78 374.16C394.333 380.707 371.573 383.46 349.5 382.42C338.467 381.9 326.627 379.71 313.98 375.85L298.16 370.29C296.693 369.777 296.737 369.48 298.29 369.4C304.99 369.04 311.327 366.787 317.3 362.64C317.431 362.55 317.581 362.489 317.738 362.463C317.896 362.437 318.057 362.446 318.21 362.49C329.77 365.877 341.533 367.867 353.5 368.46C372.68 369.407 391.613 368.083 410.3 364.49Z" fill="#FFF2DF"/><path d="M478.38 411H432.31C446.063 400.38 456.85 387.59 464.67 372.63L470 363.05C470.287 362.537 470.52 362.56 470.7 363.12C473.72 372.473 475.707 382.08 476.66 391.94C477.267 398.293 477.84 404.647 478.38 411Z" fill="#EECE9F"/><path d="M360.25 366.55L354.75 366.25C355.75 362.26 359.56 363.53 360.25 366.55Z" fill="#FFF2DF"/><path d="M428.34 372.94C435.073 370.713 441.53 368.04 447.71 364.92L448.22 364.86C448.693 364.8 448.957 365.01 449.01 365.49L450.49 378.63C450.535 379.036 450.459 379.447 450.273 379.811C450.086 380.175 449.797 380.477 449.44 380.68C443.593 383.987 437.483 386.717 431.11 388.87C431.021 388.901 430.927 388.911 430.833 388.9C430.74 388.889 430.65 388.858 430.571 388.808C430.491 388.758 430.424 388.691 430.374 388.612C430.323 388.533 430.291 388.443 430.28 388.35L428.34 372.94Z" fill="#CD0302"/><path d="M309.52 411H266.27C267.817 401.413 269.293 391.823 270.7 382.23C271.527 376.583 272.59 370.953 273.89 365.34L281.83 365.6C282.412 365.62 282.969 365.848 283.399 366.244C283.83 366.64 284.107 367.177 284.18 367.76C284.6 371.18 285.59 374.58 287.15 377.96C292.83 390.273 300.287 401.287 309.52 411Z" fill="#FFF2DF"/><path d="M302.83 374.36C301.37 379.033 300.287 383.733 299.58 388.46C299.4 389.653 299.113 390.513 298.72 391.04C298.498 391.337 298.366 391.691 298.338 392.061C298.311 392.431 298.39 392.802 298.566 393.132C298.742 393.462 299.008 393.738 299.334 393.929C299.66 394.12 300.033 394.217 300.41 394.21C301.483 394.183 302.687 394.37 304.02 394.77C307.373 395.777 310.88 396.74 314.54 397.66C314.771 397.72 314.975 397.858 315.115 398.052C315.256 398.245 315.325 398.481 315.31 398.72L314.57 411H311.2C306.68 405.46 303.497 401.41 301.65 398.85C300.757 397.61 299.8 396.04 298.78 394.14C298.02 392.72 296.987 391.183 295.68 389.53C294.193 387.637 292.29 384.467 289.97 380.02C287.89 376.033 286.63 372.333 286.19 368.92C286.15 368.593 286.297 368.45 286.63 368.49C290.597 369.03 292.92 369.483 293.6 369.85C296.373 371.337 299.45 372.84 302.83 374.36Z" fill="#CD0302"/><path d="M459.15 378.19L453.74 386.69C453.685 386.776 453.606 386.845 453.514 386.889C453.421 386.933 453.318 386.951 453.216 386.939C453.114 386.928 453.017 386.888 452.937 386.825C452.856 386.761 452.795 386.676 452.76 386.58L451.91 384.16C451.863 384.03 451.867 383.887 451.92 383.76L453.09 380.99C453.135 380.891 453.208 380.807 453.3 380.75L458.38 377.43C458.485 377.356 458.613 377.322 458.741 377.333C458.87 377.343 458.99 377.399 459.082 377.489C459.173 377.579 459.23 377.699 459.243 377.827C459.255 377.955 459.222 378.083 459.15 378.19Z" fill="#CD0302"/><path d="M341.98 384.166L321.223 380.056C321.077 380.027 320.935 380.122 320.906 380.268L317.728 396.317C317.699 396.463 317.794 396.605 317.94 396.634L338.697 400.744C338.844 400.773 338.986 400.678 339.015 400.532L342.192 384.483C342.221 384.337 342.126 384.195 341.98 384.166Z" fill="#CD0302"/><path d="M370.82 384.31L396.43 381.44C396.583 381.423 396.738 381.438 396.884 381.486C397.03 381.534 397.164 381.613 397.277 381.717C397.39 381.822 397.479 381.949 397.538 382.091C397.597 382.233 397.625 382.386 397.62 382.54L397.16 397.9C397.133 398.607 396.773 399.023 396.08 399.15C387.92 400.643 379.737 401.58 371.53 401.96C371.457 401.964 371.384 401.953 371.316 401.928C371.247 401.902 371.185 401.863 371.132 401.812C371.079 401.762 371.038 401.701 371.01 401.633C370.982 401.566 370.968 401.493 370.97 401.42C371.083 396.893 371.07 392.337 370.93 387.75C370.91 387.217 370.73 386.28 370.39 384.94C370.297 384.567 370.44 384.357 370.82 384.31Z" fill="#CD0302"/><path d="M417.73 411H399.26L399.11 401.57C399.105 401.286 399.193 401.008 399.361 400.778C399.529 400.549 399.767 400.381 400.04 400.3L427.5 392.31C427.671 392.261 427.851 392.253 428.025 392.287C428.2 392.321 428.364 392.396 428.504 392.505C428.645 392.614 428.757 392.754 428.833 392.915C428.909 393.076 428.945 393.252 428.94 393.43L428.54 406.67C428.527 406.997 428.367 407.217 428.06 407.33L417.73 411Z" fill="#CD0302"/><path d="M368.07 411H339.92C339.48 408.553 339.573 406.147 340.2 403.78C340.26 403.551 340.4 403.351 340.594 403.216C340.788 403.08 341.024 403.018 341.26 403.04C350.193 403.88 359.08 404.263 367.92 404.19C368.099 404.187 368.274 404.247 368.415 404.36C368.555 404.473 368.653 404.632 368.69 404.81C369.13 406.93 368.923 408.993 368.07 411Z" fill="#CD0302"/><path d="M229.84 411H224.08C224.053 410.914 224.027 410.827 224 410.74L229.84 411Z" fill="#CCA679"/></svg>