<?xml version="1.0" encoding="UTF-8"?> <svg xmlns="http://www.w3.org/2000/svg" width="1995" height="113" viewBox="0 0 1995 113" fill="none"><mask id="path-1-inside-1_83_15561" fill="white"><path d="M1966.9 54.7435C1954.59 51.6144 1934.17 48.7603 1907.64 47.2932C1875.2 45.5051 1838.27 45.1268 1803.25 45.8489C1780.47 46.3187 1759.8 47.5528 1740.92 49.1134C1736.79 49.4547 1732.73 47.154 1729.25 44.9068C1726.41 43.0699 1722.43 41.2852 1717.28 39.5906C1703.15 34.96 1680.16 30.7992 1644.66 28.1515C1596.57 24.5524 1538.46 25.0453 1489.12 27.9796C1473.51 28.9068 1459.18 30.1054 1446.52 31.5128C1444.38 31.7508 1442.22 31.2992 1440.36 30.2174C1440.26 30.1629 1440.17 30.1085 1440.08 30.0542C1431.49 25.2516 1419.37 20.3458 1397.42 16.1507C1377.29 12.2995 1350.57 9.09009 1319.75 6.47673C1203.43 -3.40357 1024.42 -1.87911 923.749 10.3624C894.26 13.9482 873.657 18.0522 858.824 22.4675C857.337 22.9101 855.775 23.0239 854.243 22.7796C851.167 22.2892 848.031 21.8047 844.835 21.3201C800.082 14.6033 727.657 11.7722 659.049 10.6031C579.276 9.23909 500.362 11.543 431.849 16.5634C400.551 18.8558 369.73 21.5608 346.351 24.9765C321.923 28.5298 303.698 32.4498 289.098 36.7022C274.022 41.0922 264.766 45.677 260.09 50.3879V50.3879C257.747 52.7455 254.757 57.0561 251.437 56.8746C216.182 54.9471 173.224 54.5741 136.233 55.2364C103.98 55.8209 70.1052 57.8497 48.0628 60.7611C24.4936 63.8673 11.0391 68.0739 3.97792 72.1429C-11.8621 81.2897 20.7722 90.0238 81.0787 95.6516C142.721 101.406 218.963 103.366 295.587 102.162C325.253 101.697 353.796 100.838 381.773 99.7199C382.331 99.6976 382.871 99.7199 383.426 99.7896C447.384 107.835 568.252 106.431 645.976 102.196C653.514 101.784 661.052 101.314 668.4 100.787C715.538 103.962 777.085 104.007 828.804 103.102C871.589 102.353 909.045 100.302 942.838 97.4147C943.534 97.3552 944.228 97.3682 944.922 97.4533C970.498 100.594 1001.82 103.188 1031.48 105.28C1087.97 109.257 1151.23 111.252 1215.74 112.283C1333.87 114.163 1457.06 112.593 1558.88 104.615C1598.5 101.513 1633.32 97.6018 1661.06 93.0328C1661.96 92.8847 1662.87 92.8592 1663.77 92.9557C1666.19 93.2126 1668.63 93.4602 1671.28 93.6916C1687.41 95.1244 1707.73 95.9153 1727.2 96.4196C1762.41 97.348 1798.67 97.5085 1833.79 96.454C1896 94.5857 1948.77 88.9578 1974.15 81.9315C2005.45 73.2662 2000.3 63.2254 1966.8 54.732L1966.9 54.7435Z"></path></mask><path d="M1966.9 54.7435C1954.59 51.6144 1934.17 48.7603 1907.64 47.2932C1875.2 45.5051 1838.27 45.1268 1803.25 45.8489C1780.47 46.3187 1759.8 47.5528 1740.92 49.1134C1736.79 49.4547 1732.73 47.154 1729.25 44.9068C1726.41 43.0699 1722.43 41.2852 1717.28 39.5906C1703.15 34.96 1680.16 30.7992 1644.66 28.1515C1596.57 24.5524 1538.46 25.0453 1489.12 27.9796C1473.51 28.9068 1459.18 30.1054 1446.52 31.5128C1444.38 31.7508 1442.22 31.2992 1440.36 30.2174C1440.26 30.1629 1440.17 30.1085 1440.08 30.0542C1431.49 25.2516 1419.37 20.3458 1397.42 16.1507C1377.29 12.2995 1350.57 9.09009 1319.75 6.47673C1203.43 -3.40357 1024.42 -1.87911 923.749 10.3624C894.26 13.9482 873.657 18.0522 858.824 22.4675C857.337 22.9101 855.775 23.0239 854.243 22.7796C851.167 22.2892 848.031 21.8047 844.835 21.3201C800.082 14.6033 727.657 11.7722 659.049 10.6031C579.276 9.23909 500.362 11.543 431.849 16.5634C400.551 18.8558 369.73 21.5608 346.351 24.9765C321.923 28.5298 303.698 32.4498 289.098 36.7022C274.022 41.0922 264.766 45.677 260.09 50.3879V50.3879C257.747 52.7455 254.757 57.0561 251.437 56.8746C216.182 54.9471 173.224 54.5741 136.233 55.2364C103.98 55.8209 70.1052 57.8497 48.0628 60.7611C24.4936 63.8673 11.0391 68.0739 3.97792 72.1429C-11.8621 81.2897 20.7722 90.0238 81.0787 95.6516C142.721 101.406 218.963 103.366 295.587 102.162C325.253 101.697 353.796 100.838 381.773 99.7199C382.331 99.6976 382.871 99.7199 383.426 99.7896C447.384 107.835 568.252 106.431 645.976 102.196C653.514 101.784 661.052 101.314 668.4 100.787C715.538 103.962 777.085 104.007 828.804 103.102C871.589 102.353 909.045 100.302 942.838 97.4147C943.534 97.3552 944.228 97.3682 944.922 97.4533C970.498 100.594 1001.82 103.188 1031.48 105.28C1087.97 109.257 1151.23 111.252 1215.74 112.283C1333.87 114.163 1457.06 112.593 1558.88 104.615C1598.5 101.513 1633.32 97.6018 1661.06 93.0328C1661.96 92.8847 1662.87 92.8592 1663.77 92.9557C1666.19 93.2126 1668.63 93.4602 1671.28 93.6916C1687.41 95.1244 1707.73 95.9153 1727.2 96.4196C1762.41 97.348 1798.67 97.5085 1833.79 96.454C1896 94.5857 1948.77 88.9578 1974.15 81.9315C2005.45 73.2662 2000.3 63.2254 1966.8 54.732L1966.9 54.7435Z" fill="#64821C"></path><path d="M1966.9 54.7435L1966.54 57.7221L1967.64 51.836L1966.9 54.7435ZM1907.64 47.2932L1907.81 44.2977L1907.81 44.2977L1907.64 47.2932ZM1803.25 45.8489L1803.31 48.8483L1803.31 48.8483L1803.25 45.8489ZM1717.28 39.5906L1718.21 36.741L1718.21 36.74L1717.28 39.5906ZM1644.66 28.1515L1644.44 31.1431L1644.44 31.1432L1644.66 28.1515ZM1489.12 27.9796L1489.3 30.9743L1489.3 30.9743L1489.12 27.9796ZM1440.08 30.0542L1441.58 27.4577L1441.56 27.4466L1441.54 27.4358L1440.08 30.0542ZM1397.42 16.1507L1396.86 19.0973L1396.86 19.0974L1397.42 16.1507ZM1319.75 6.47673L1319.5 9.46597L1319.5 9.46601L1319.75 6.47673ZM923.749 10.3624L924.111 13.3404L924.111 13.3404L923.749 10.3624ZM844.835 21.3201L845.284 18.354L845.28 18.3533L844.835 21.3201ZM659.049 10.6031L658.997 13.6026L658.997 13.6026L659.049 10.6031ZM431.849 16.5634L432.068 19.5553L432.069 19.5553L431.849 16.5634ZM346.351 24.9765L346.783 27.9453L346.785 27.945L346.351 24.9765ZM289.098 36.7022L289.937 39.5826L289.937 39.5825L289.098 36.7022ZM136.233 55.2364L136.179 52.2369L136.178 52.2369L136.233 55.2364ZM48.0628 60.7611L48.4548 63.7354L48.4556 63.7353L48.0628 60.7611ZM3.97792 72.1429L2.48006 69.5436L2.47773 69.545L3.97792 72.1429ZM81.0787 95.6516L81.3576 92.6646L81.3575 92.6646L81.0787 95.6516ZM295.587 102.162L295.54 99.1625L295.54 99.1625L295.587 102.162ZM645.976 102.196L646.139 105.192L646.14 105.192L645.976 102.196ZM668.4 100.787L668.602 97.7934L668.393 97.7794L668.185 97.7943L668.4 100.787ZM828.804 103.102L828.751 100.102L828.751 100.102L828.804 103.102ZM1031.48 105.28L1031.27 108.272L1031.27 108.272L1031.48 105.28ZM1215.74 112.283L1215.69 115.283L1215.69 115.283L1215.74 112.283ZM1558.88 104.615L1558.64 101.624L1558.64 101.624L1558.88 104.615ZM1671.28 93.6916L1671.55 90.7034L1671.54 90.703L1671.28 93.6916ZM1727.2 96.4196L1727.28 93.4206L1727.28 93.4206L1727.2 96.4196ZM1833.79 96.454L1833.7 93.4553L1833.79 96.454ZM1974.15 81.9315L1974.95 84.8228L1974.95 84.8228L1974.15 81.9315ZM1966.8 54.732L1967.16 51.7535L1966.07 57.64L1966.8 54.732ZM1661.06 93.0328L1660.57 90.0727L1661.06 93.0328ZM1663.77 92.9557L1664.09 89.9725L1663.77 92.9557ZM1740.92 49.1134L1740.68 46.1236L1740.92 49.1134ZM1729.25 44.9068L1730.88 42.3865L1729.25 44.9068ZM381.773 99.7199L381.653 96.7223L381.773 99.7199ZM383.426 99.7896L383.051 102.766L383.426 99.7896ZM251.437 56.8746L251.601 53.8791L251.437 56.8746ZM858.824 22.4675L857.968 19.5922L858.824 22.4675ZM854.243 22.7796L854.715 19.817L854.715 19.817L854.243 22.7796ZM942.838 97.4147L942.583 94.4256L942.838 97.4147ZM944.922 97.4533L945.287 94.4757L944.922 97.4533ZM1446.52 31.5128L1446.19 28.5311L1446.52 31.5128ZM1440.36 30.2174L1438.85 32.8119L1440.36 30.2174ZM1967.64 51.836C1955.06 48.6386 1934.42 45.7697 1907.81 44.2977L1907.48 50.2886C1933.92 51.7509 1954.12 54.5901 1966.16 57.651L1967.64 51.836ZM1907.81 44.2977C1875.27 42.5046 1838.27 42.1263 1803.19 42.8496L1803.31 48.8483C1838.28 48.1274 1875.13 48.5056 1907.48 50.2886L1907.81 44.2977ZM1803.19 42.8496C1780.33 43.3208 1759.61 44.5588 1740.68 46.1236L1741.17 52.1032C1760 50.5468 1780.6 49.3166 1803.31 48.8483L1803.19 42.8496ZM1730.88 42.3865C1727.74 40.3581 1723.49 38.478 1718.21 36.741L1716.34 42.4403C1721.36 44.0925 1725.08 45.7817 1727.62 47.4271L1730.88 42.3865ZM1718.21 36.74C1703.75 31.997 1680.47 27.814 1644.88 25.1598L1644.44 31.1432C1679.85 33.7845 1702.56 37.9229 1716.34 42.4413L1718.21 36.74ZM1644.88 25.1599C1596.62 21.5482 1538.37 22.0449 1488.94 24.9849L1489.3 30.9743C1538.54 28.0456 1596.51 27.5566 1644.44 31.1431L1644.88 25.1599ZM1488.95 24.9848C1473.29 25.9147 1458.91 27.1172 1446.19 28.5311L1446.85 34.4944C1459.46 33.0935 1473.73 31.899 1489.3 30.9743L1488.95 24.9848ZM1441.86 27.623C1441.77 27.5679 1441.67 27.5128 1441.58 27.4577L1438.57 32.6507C1438.67 32.7043 1438.76 32.758 1438.85 32.8119L1441.86 27.623ZM1441.54 27.4358C1432.61 22.4415 1420.17 17.4446 1397.99 13.2041L1396.86 19.0974C1418.57 23.247 1430.37 28.0617 1438.61 32.6726L1441.54 27.4358ZM1397.99 13.2041C1377.7 9.32414 1350.86 6.10426 1320 3.48746L1319.5 9.46601C1350.28 12.0759 1376.88 15.2748 1396.86 19.0973L1397.99 13.2041ZM1320 3.4875C1203.52 -6.40714 1024.29 -4.88609 923.387 7.38431L924.111 13.3404C1024.54 1.12786 1203.34 -0.399998 1319.5 9.46597L1320 3.4875ZM923.387 7.38431C893.809 10.9809 873.024 15.1106 857.968 19.5922L859.68 25.3428C874.29 20.9939 894.71 16.9155 924.111 13.3404L923.387 7.38431ZM854.715 19.817C851.63 19.3251 848.486 18.8394 845.284 18.354L844.385 24.2862C847.576 24.77 850.704 25.2533 853.77 25.7421L854.715 19.817ZM845.28 18.3533C800.304 11.603 727.689 8.77232 659.1 7.60351L658.997 13.6026C727.625 14.7721 799.86 17.6037 844.39 24.2869L845.28 18.3533ZM659.1 7.60352C579.241 6.23806 500.237 8.54409 431.63 13.5714L432.069 19.5553C500.487 14.5418 579.311 12.2401 658.997 13.6026L659.1 7.60352ZM431.63 13.5714C400.326 15.8642 369.411 18.5755 345.918 22.008L346.785 27.945C370.048 24.5462 400.776 21.8473 432.068 19.5553L431.63 13.5714ZM345.92 22.0078C321.394 25.5751 303.027 29.5206 288.259 33.8219L289.937 39.5825C304.369 35.3789 322.452 31.4844 346.783 27.9453L345.92 22.0078ZM288.26 33.8218C273.117 38.2309 263.212 42.9836 257.961 48.2746L262.219 52.5013C266.319 48.3704 274.926 43.9535 289.937 39.5826L288.26 33.8218ZM251.601 53.8791C216.252 51.9465 173.218 51.5738 136.179 52.2369L136.286 58.2359C173.229 57.5745 216.111 57.9477 251.274 59.8702L251.601 53.8791ZM136.178 52.2369C103.87 52.8224 69.8701 54.8547 47.6699 57.7869L48.4556 63.7353C70.3404 60.8447 104.09 58.8194 136.287 58.2359L136.178 52.2369ZM47.6708 57.7868C24.0034 60.906 10.0673 65.1715 2.48006 69.5436L5.47577 74.7422C12.011 70.9763 24.9837 66.8287 48.4548 63.7354L47.6708 57.7868ZM2.47773 69.545C0.332599 70.7837 -1.56742 72.3178 -2.46673 74.3183C-2.94821 75.3894 -3.12524 76.5619 -2.90895 77.7598C-2.69824 78.9268 -2.14877 79.9321 -1.47048 80.7704C-0.165231 82.3838 1.87493 83.6973 4.21093 84.8205C6.60869 85.9735 9.61062 87.0618 13.1276 88.0952C27.141 92.2127 50.6222 95.8224 80.8 98.6387L81.3575 92.6646C51.2287 89.853 28.2394 86.2818 14.8191 82.3385C11.4776 81.3567 8.81093 80.3749 6.81108 79.4132C4.74948 78.4219 3.66308 77.5763 3.19408 76.9966C2.98524 76.7385 2.98566 76.6388 2.99557 76.6936C3.01104 76.7793 2.98142 76.8325 3.00575 76.7784C3.11806 76.5285 3.66323 75.7889 5.4781 74.7409L2.47773 69.545ZM80.7999 98.6386C142.586 104.406 218.943 106.366 295.634 105.162L295.54 99.1625C218.983 100.365 142.857 98.4052 81.3576 92.6646L80.7999 98.6386ZM295.634 105.162C325.328 104.696 353.896 103.837 381.893 102.717L381.653 96.7223C353.697 97.8398 325.178 98.6976 295.54 99.1625L295.634 105.162ZM383.051 102.766C447.294 110.848 568.391 109.428 646.139 105.192L645.813 99.2009C568.113 103.434 447.473 104.823 383.8 96.813L383.051 102.766ZM646.14 105.192C653.693 104.779 661.248 104.308 668.615 103.779L668.185 97.7943C660.857 98.3202 653.335 98.7891 645.812 99.201L646.14 105.192ZM668.198 103.78C715.469 106.964 777.12 107.007 828.856 106.102L828.751 100.102C777.051 101.008 715.608 100.96 668.602 97.7934L668.198 103.78ZM828.856 106.102C871.708 105.352 909.231 103.297 943.093 100.404L942.583 94.4256C908.858 97.3069 871.47 99.3548 828.751 100.102L828.856 106.102ZM944.556 100.431C970.211 103.581 1001.6 106.179 1031.27 108.272L1031.69 102.287C1002.05 100.196 970.785 97.6063 945.287 94.4757L944.556 100.431ZM1031.27 108.272C1087.84 112.255 1151.16 114.251 1215.69 115.283L1215.79 109.283C1151.31 108.252 1088.1 106.259 1031.69 102.287L1031.27 108.272ZM1215.69 115.283C1333.87 117.163 1457.16 115.594 1559.11 107.606L1558.64 101.624C1456.96 109.591 1333.88 111.163 1215.79 109.283L1215.69 115.283ZM1559.11 107.606C1598.78 104.5 1633.69 100.58 1661.55 95.993L1660.57 90.0727C1632.94 94.6231 1598.22 98.5265 1558.64 101.624L1559.11 107.606ZM1663.46 95.9388C1665.88 96.1969 1668.35 96.4466 1671.02 96.6802L1671.54 90.703C1668.92 90.4739 1666.5 90.2284 1664.09 89.9725L1663.46 95.9388ZM1671.02 96.6798C1687.24 98.1214 1707.65 98.914 1727.12 99.4186L1727.28 93.4206C1707.82 92.9165 1687.58 92.1273 1671.55 90.7034L1671.02 96.6798ZM1727.12 99.4185C1762.37 100.348 1798.69 100.509 1833.88 99.4526L1833.7 93.4553C1798.65 94.5078 1762.45 94.3479 1727.28 93.4206L1727.12 99.4185ZM1833.88 99.4526C1896.11 97.5837 1949.19 91.9532 1974.95 84.8228L1973.35 79.0403C1948.35 85.9623 1895.89 91.5876 1833.7 93.4553L1833.88 99.4526ZM1974.95 84.8228C1982.86 82.6322 1988.79 80.2768 1992.6 77.7065C1994.5 76.4191 1996.09 74.9402 1997.04 73.2012C1998.06 71.3569 1998.29 69.3244 1997.62 67.3127C1996.99 65.4246 1995.64 63.8298 1994.02 62.4806C1992.38 61.115 1990.27 59.8433 1987.79 58.6449C1982.82 56.2482 1976 53.9695 1967.54 51.8241L1966.07 57.64C1974.35 59.7413 1980.74 61.9027 1985.18 64.0482C1987.4 65.1209 1989.05 66.1458 1990.18 67.0909C1991.33 68.0525 1991.78 68.7825 1991.93 69.222C1992.04 69.5377 1992.05 69.8355 1991.78 70.3126C1991.46 70.8951 1990.73 71.7289 1989.24 72.7341C1986.26 74.749 1981.09 76.8982 1973.35 79.0403L1974.95 84.8228ZM1966.45 57.7106L1966.54 57.7221L1967.26 51.765L1967.16 51.7535L1966.45 57.7106ZM1661.55 95.993C1662.18 95.8888 1662.82 95.8707 1663.46 95.9388L1664.09 89.9725C1662.92 89.8476 1661.74 89.8806 1660.57 90.0727L1661.55 95.993ZM1740.68 46.1236C1737.69 46.3705 1734.44 44.6824 1730.88 42.3865L1727.62 47.4271C1731.03 49.6256 1735.9 52.5389 1741.17 52.1032L1740.68 46.1236ZM381.893 102.717C382.289 102.702 382.663 102.717 383.051 102.766L383.8 96.813C383.079 96.7224 382.374 96.6935 381.653 96.7223L381.893 102.717ZM257.962 48.273C257.31 48.9293 256.609 49.7252 255.99 50.411C255.335 51.1365 254.713 51.8058 254.09 52.3837C252.709 53.6642 251.941 53.8977 251.601 53.8791L251.274 59.8702C254.253 60.0331 256.64 58.2019 258.17 56.7831C259.002 56.0113 259.774 55.1723 260.443 54.4321C261.147 53.6523 261.698 53.0253 262.218 52.5029L257.962 48.273ZM857.968 19.5922C856.898 19.9109 855.789 19.9882 854.715 19.817L853.77 25.7421C855.76 26.0595 857.777 25.9094 859.68 25.3428L857.968 19.5922ZM943.093 100.404C943.582 100.362 944.068 100.371 944.556 100.431L945.287 94.4757C944.388 94.3653 943.486 94.3484 942.583 94.4256L943.093 100.404ZM1446.19 28.5311C1444.68 28.6985 1443.17 28.3808 1441.86 27.623L1438.85 32.8119C1441.27 34.2176 1444.08 34.803 1446.85 34.4944L1446.19 28.5311Z" fill="black" mask="url(#path-1-inside-1_83_15561)"></path></svg> 