<svg xmlns="http://www.w3.org/2000/svg" width="230" height="185" viewBox="0 0 230 185" fill="none"><path d="M159.574 0.999984H17.8294C7.9825 0.999984 0 10.9393 0 23.2V89.8C0 102.061 7.98252 112 17.8295 112H159.574V0.999984Z" fill="black"/><path d="M225.543 66.1129C231.486 61.8405 231.486 51.1595 225.543 46.8871L164.031 2.66784C158.5 -3.5 150.659 3.73594 150.659 12.2807V100.719C150.659 109.264 158 117.5 164.031 110.332L225.543 66.1129Z" fill="black"/><rect x="3" y="-3" width="28.2305" height="106" rx="13" transform="matrix(-1 0 0 1 54.7363 79)" fill="#FFEC01" stroke="black" stroke-width="6"/><path d="M157.323 6.99999H21.3752C11.9309 6.99999 4.27484 15.9543 4.27484 27V87C4.27484 98.0457 11.9309 107 21.3752 107H157.323V6.99999Z" fill="#FFEC01"/><path d="M220.595 65.6602C226.295 61.8112 226.295 52.1887 220.595 48.3397L161.598 8.50256C155.5 3 148.773 9.46482 148.773 17.1628V96.8372C148.773 104.535 156 112 161.598 105.497L220.595 65.6602Z" fill="#FFEC01"/><mask id="path-4-outside-1_80_10996" maskUnits="userSpaceOnUse" x="24" y="39" width="139" height="50" fill="black"><rect fill="white" x="24" y="39" width="139" height="50"/><path d="M48.6959 84.94C44.4159 84.9 40.7959 84.2 37.8359 82.84C34.8759 81.48 32.6359 79.3 31.1159 76.3C29.5959 73.26 28.8359 69.24 28.8359 64.24C28.8359 59.88 29.5359 56.12 30.9359 52.96C32.3759 49.8 34.4559 47.36 37.1759 45.64C39.8959 43.88 43.2359 43 47.1959 43C50.6759 43 53.7159 43.5 56.3159 44.5C58.9159 45.5 60.9559 46.94 62.4359 48.82C63.9559 50.66 64.7959 52.86 64.9559 55.42C65.1159 57.86 64.6959 59.98 63.6959 61.78C62.7359 63.58 61.2959 65.18 59.3759 66.58C60.7759 66.82 62.0359 67.6 63.1559 68.92C64.3159 70.24 64.8959 71.84 64.8959 73.72C64.8959 75 64.6359 76.3 64.1159 77.62C63.5959 78.94 62.7159 80.16 61.4759 81.28C60.2759 82.4 58.6159 83.3 56.4959 83.98C54.4159 84.62 51.8159 84.94 48.6959 84.94ZM44.5559 62.56C45.3959 62.92 46.3959 63.1 47.5559 63.1C48.7159 63.06 49.7359 62.74 50.6159 62.14C51.5359 61.54 51.9959 60.62 51.9959 59.38C51.9959 58.46 51.7159 57.72 51.1559 57.16C50.6359 56.6 49.9759 56.22 49.1759 56.02C48.3759 55.78 47.5559 55.68 46.7159 55.72C45.8759 55.76 45.1559 55.94 44.5559 56.26C43.7959 56.62 43.2759 57.24 42.9959 58.12C42.7559 59 42.7559 59.88 42.9959 60.76C43.2759 61.6 43.7959 62.2 44.5559 62.56ZM44.5559 76.6C45.3959 76.92 46.3959 77.08 47.5559 77.08C48.7159 77.04 49.7359 76.76 50.6159 76.24C51.5359 75.72 51.9959 74.92 51.9959 73.84C51.9959 73.04 51.7159 72.4 51.1559 71.92C50.6359 71.4 49.9759 71.04 49.1759 70.84C48.3759 70.64 47.5559 70.58 46.7159 70.66C45.8759 70.7 45.1559 70.84 44.5559 71.08C43.7959 71.4 43.2759 71.94 42.9959 72.7C42.7559 73.46 42.7559 74.22 42.9959 74.98C43.2759 75.74 43.7959 76.28 44.5559 76.6ZM91.5706 85C88.0506 85 84.9706 84.4 82.3306 83.2C79.6906 82 77.4706 80.36 75.6706 78.28C73.9106 76.2 72.5906 73.84 71.7106 71.2C70.8306 68.52 70.3906 65.72 70.3906 62.8C70.3906 61.16 70.4506 59.44 70.5706 57.64C70.6906 55.8 70.9306 54.02 71.2906 52.3C71.6506 50.58 72.1706 49.02 72.8506 47.62C73.5706 46.22 74.4906 45.1 75.6106 44.26C76.7306 43.42 78.1306 43 79.8106 43C81.9706 43 83.6306 43.46 84.7906 44.38C85.9906 45.26 86.8306 46.38 87.3106 47.74C87.7906 49.1 88.0306 50.5 88.0306 51.94C88.0306 53.58 87.9506 54.96 87.7906 56.08C87.6306 57.2 87.4706 58.3 87.3106 59.38C87.1506 60.42 87.0706 61.72 87.0706 63.28C87.0706 64.32 87.1906 65.4 87.4306 66.52C87.7106 67.64 88.1706 68.58 88.8106 69.34C89.4506 70.06 90.3706 70.42 91.5706 70.42C92.8106 70.42 93.7506 70.06 94.3906 69.34C95.0306 68.58 95.4706 67.64 95.7106 66.52C95.9506 65.4 96.0706 64.32 96.0706 63.28C96.0706 61.72 95.9906 60.42 95.8306 59.38C95.6706 58.3 95.5106 57.2 95.3506 56.08C95.1906 54.96 95.1106 53.58 95.1106 51.94C95.1106 50.5 95.3506 49.1 95.8306 47.74C96.3106 46.38 97.1506 45.26 98.3506 44.38C99.5506 43.46 101.211 43 103.331 43C105.011 43 106.411 43.42 107.531 44.26C108.651 45.1 109.551 46.22 110.231 47.62C110.951 49.02 111.491 50.58 111.851 52.3C112.211 54.02 112.451 55.8 112.571 57.64C112.691 59.44 112.751 61.16 112.751 62.8C112.751 65.72 112.311 68.52 111.431 71.2C110.551 73.84 109.211 76.2 107.411 78.28C105.651 80.36 103.451 82 100.811 83.2C98.1706 84.4 95.0906 85 91.5706 85ZM138.136 85C136.936 85 135.776 84.74 134.656 84.22C133.576 83.66 132.676 82.86 131.956 81.82C131.276 80.78 130.936 79.5 130.936 77.98C130.936 76.98 130.956 76.08 130.996 75.28C127.196 74.28 124.096 72.4 121.696 69.64C119.336 66.84 118.156 63.1 118.156 58.42C118.156 53.78 118.936 50.08 120.496 47.32C122.056 44.52 124.436 43.12 127.636 43.12C129.836 43.12 131.596 43.78 132.916 45.1C134.276 46.42 134.956 48.28 134.956 50.68C134.956 52 134.856 53.32 134.656 54.64C134.496 55.96 134.416 57.02 134.416 57.82C134.416 59.42 134.696 60.68 135.256 61.6C135.816 62.52 136.776 62.98 138.136 62.98C139.536 62.98 140.496 62.52 141.016 61.6C141.576 60.68 141.856 59.42 141.856 57.82C141.856 57.02 141.756 55.94 141.556 54.58C141.396 53.18 141.316 51.86 141.316 50.62C141.316 48.26 141.996 46.42 143.356 45.1C144.716 43.78 146.496 43.12 148.696 43.12C150.856 43.12 152.636 43.74 154.036 44.98C155.436 46.22 156.476 47.94 157.156 50.14C157.836 52.34 158.176 54.86 158.176 57.7C158.176 62.86 156.916 66.88 154.396 69.76C151.916 72.6 148.676 74.48 144.676 75.4C144.716 76.16 144.736 77.02 144.736 77.98C144.736 79.54 144.416 80.84 143.776 81.88C143.136 82.92 142.316 83.7 141.316 84.22C140.316 84.74 139.256 85 138.136 85Z"/></mask><path d="M48.6959 84.94C44.4159 84.9 40.7959 84.2 37.8359 82.84C34.8759 81.48 32.6359 79.3 31.1159 76.3C29.5959 73.26 28.8359 69.24 28.8359 64.24C28.8359 59.88 29.5359 56.12 30.9359 52.96C32.3759 49.8 34.4559 47.36 37.1759 45.64C39.8959 43.88 43.2359 43 47.1959 43C50.6759 43 53.7159 43.5 56.3159 44.5C58.9159 45.5 60.9559 46.94 62.4359 48.82C63.9559 50.66 64.7959 52.86 64.9559 55.42C65.1159 57.86 64.6959 59.98 63.6959 61.78C62.7359 63.58 61.2959 65.18 59.3759 66.58C60.7759 66.82 62.0359 67.6 63.1559 68.92C64.3159 70.24 64.8959 71.84 64.8959 73.72C64.8959 75 64.6359 76.3 64.1159 77.62C63.5959 78.94 62.7159 80.16 61.4759 81.28C60.2759 82.4 58.6159 83.3 56.4959 83.98C54.4159 84.62 51.8159 84.94 48.6959 84.94ZM44.5559 62.56C45.3959 62.92 46.3959 63.1 47.5559 63.1C48.7159 63.06 49.7359 62.74 50.6159 62.14C51.5359 61.54 51.9959 60.62 51.9959 59.38C51.9959 58.46 51.7159 57.72 51.1559 57.16C50.6359 56.6 49.9759 56.22 49.1759 56.02C48.3759 55.78 47.5559 55.68 46.7159 55.72C45.8759 55.76 45.1559 55.94 44.5559 56.26C43.7959 56.62 43.2759 57.24 42.9959 58.12C42.7559 59 42.7559 59.88 42.9959 60.76C43.2759 61.6 43.7959 62.2 44.5559 62.56ZM44.5559 76.6C45.3959 76.92 46.3959 77.08 47.5559 77.08C48.7159 77.04 49.7359 76.76 50.6159 76.24C51.5359 75.72 51.9959 74.92 51.9959 73.84C51.9959 73.04 51.7159 72.4 51.1559 71.92C50.6359 71.4 49.9759 71.04 49.1759 70.84C48.3759 70.64 47.5559 70.58 46.7159 70.66C45.8759 70.7 45.1559 70.84 44.5559 71.08C43.7959 71.4 43.2759 71.94 42.9959 72.7C42.7559 73.46 42.7559 74.22 42.9959 74.98C43.2759 75.74 43.7959 76.28 44.5559 76.6ZM91.5706 85C88.0506 85 84.9706 84.4 82.3306 83.2C79.6906 82 77.4706 80.36 75.6706 78.28C73.9106 76.2 72.5906 73.84 71.7106 71.2C70.8306 68.52 70.3906 65.72 70.3906 62.8C70.3906 61.16 70.4506 59.44 70.5706 57.64C70.6906 55.8 70.9306 54.02 71.2906 52.3C71.6506 50.58 72.1706 49.02 72.8506 47.62C73.5706 46.22 74.4906 45.1 75.6106 44.26C76.7306 43.42 78.1306 43 79.8106 43C81.9706 43 83.6306 43.46 84.7906 44.38C85.9906 45.26 86.8306 46.38 87.3106 47.74C87.7906 49.1 88.0306 50.5 88.0306 51.94C88.0306 53.58 87.9506 54.96 87.7906 56.08C87.6306 57.2 87.4706 58.3 87.3106 59.38C87.1506 60.42 87.0706 61.72 87.0706 63.28C87.0706 64.32 87.1906 65.4 87.4306 66.52C87.7106 67.64 88.1706 68.58 88.8106 69.34C89.4506 70.06 90.3706 70.42 91.5706 70.42C92.8106 70.42 93.7506 70.06 94.3906 69.34C95.0306 68.58 95.4706 67.64 95.7106 66.52C95.9506 65.4 96.0706 64.32 96.0706 63.28C96.0706 61.72 95.9906 60.42 95.8306 59.38C95.6706 58.3 95.5106 57.2 95.3506 56.08C95.1906 54.96 95.1106 53.58 95.1106 51.94C95.1106 50.5 95.3506 49.1 95.8306 47.74C96.3106 46.38 97.1506 45.26 98.3506 44.38C99.5506 43.46 101.211 43 103.331 43C105.011 43 106.411 43.42 107.531 44.26C108.651 45.1 109.551 46.22 110.231 47.62C110.951 49.02 111.491 50.58 111.851 52.3C112.211 54.02 112.451 55.8 112.571 57.64C112.691 59.44 112.751 61.16 112.751 62.8C112.751 65.72 112.311 68.52 111.431 71.2C110.551 73.84 109.211 76.2 107.411 78.28C105.651 80.36 103.451 82 100.811 83.2C98.1706 84.4 95.0906 85 91.5706 85ZM138.136 85C136.936 85 135.776 84.74 134.656 84.22C133.576 83.66 132.676 82.86 131.956 81.82C131.276 80.78 130.936 79.5 130.936 77.98C130.936 76.98 130.956 76.08 130.996 75.28C127.196 74.28 124.096 72.4 121.696 69.64C119.336 66.84 118.156 63.1 118.156 58.42C118.156 53.78 118.936 50.08 120.496 47.32C122.056 44.52 124.436 43.12 127.636 43.12C129.836 43.12 131.596 43.78 132.916 45.1C134.276 46.42 134.956 48.28 134.956 50.68C134.956 52 134.856 53.32 134.656 54.64C134.496 55.96 134.416 57.02 134.416 57.82C134.416 59.42 134.696 60.68 135.256 61.6C135.816 62.52 136.776 62.98 138.136 62.98C139.536 62.98 140.496 62.52 141.016 61.6C141.576 60.68 141.856 59.42 141.856 57.82C141.856 57.02 141.756 55.94 141.556 54.58C141.396 53.18 141.316 51.86 141.316 50.62C141.316 48.26 141.996 46.42 143.356 45.1C144.716 43.78 146.496 43.12 148.696 43.12C150.856 43.12 152.636 43.74 154.036 44.98C155.436 46.22 156.476 47.94 157.156 50.14C157.836 52.34 158.176 54.86 158.176 57.7C158.176 62.86 156.916 66.88 154.396 69.76C151.916 72.6 148.676 74.48 144.676 75.4C144.716 76.16 144.736 77.02 144.736 77.98C144.736 79.54 144.416 80.84 143.776 81.88C143.136 82.92 142.316 83.7 141.316 84.22C140.316 84.74 139.256 85 138.136 85Z" fill="#FFB4E2"/><path d="M48.6959 84.94L48.6586 88.9398L48.6772 88.94H48.6959V84.94ZM37.8359 82.84L39.5059 79.2053L39.5059 79.2053L37.8359 82.84ZM31.1159 76.3L27.5382 78.0889L27.543 78.0984L27.5478 78.1079L31.1159 76.3ZM30.9359 52.96L27.2961 51.3013L27.2873 51.3205L27.2788 51.3397L30.9359 52.96ZM37.1759 45.64L39.3138 49.0208L39.3314 49.0096L39.3489 48.9983L37.1759 45.64ZM56.3159 44.5L54.88 48.2334L54.88 48.2334L56.3159 44.5ZM62.4359 48.82L59.293 51.2942L59.3221 51.3312L59.3521 51.3675L62.4359 48.82ZM64.9559 55.42L60.9637 55.6695L60.9645 55.6817L64.9559 55.42ZM63.6959 61.78L60.1993 59.8374L60.1827 59.8674L60.1665 59.8976L63.6959 61.78ZM59.3759 66.58L57.0193 63.348L49.3728 68.9235L58.7001 70.5225L59.3759 66.58ZM63.1559 68.92L60.1059 71.5079L60.1284 71.5344L60.1513 71.5605L63.1559 68.92ZM61.4759 81.28L58.7948 78.3116L58.7705 78.3335L58.7467 78.3558L61.4759 81.28ZM56.4959 83.98L57.6723 87.8031L57.695 87.7961L57.7176 87.7889L56.4959 83.98ZM44.5559 62.56L42.8436 66.175L42.9113 66.207L42.9803 66.2366L44.5559 62.56ZM47.5559 63.1V67.1H47.6249L47.6938 67.0976L47.5559 63.1ZM50.6159 62.14L48.4309 58.7896L48.3965 58.812L48.3626 58.8351L50.6159 62.14ZM51.1559 57.16L48.2248 59.8818L48.2752 59.9361L48.3275 59.9884L51.1559 57.16ZM49.1759 56.02L48.0265 59.8513L48.1156 59.878L48.2058 59.9006L49.1759 56.02ZM46.7159 55.72L46.5257 51.7245L46.5257 51.7245L46.7159 55.72ZM44.5559 56.26L46.2683 59.8749L46.3543 59.8342L46.4383 59.7894L44.5559 56.26ZM42.9959 58.12L39.1842 56.9072L39.1589 56.9869L39.1369 57.0675L42.9959 58.12ZM42.9959 60.76L39.1369 61.8125L39.1661 61.9196L39.2012 62.0249L42.9959 60.76ZM44.5559 76.6L43.0037 80.2865L43.0674 80.3134L43.132 80.338L44.5559 76.6ZM47.5559 77.08V81.08H47.6249L47.6938 81.0776L47.5559 77.08ZM50.6159 76.24L48.6477 72.7577L48.6142 72.7767L48.581 72.7963L50.6159 76.24ZM51.1559 71.92L48.3275 74.7484L48.4361 74.8571L48.5528 74.957L51.1559 71.92ZM49.1759 70.84L50.1461 66.9594L50.1461 66.9594L49.1759 70.84ZM46.7159 70.66L46.9062 74.6555L47.0008 74.651L47.0952 74.642L46.7159 70.66ZM44.5559 71.08L43.0704 67.3661L43.0369 67.3795L43.0037 67.3935L44.5559 71.08ZM42.9959 72.7L39.2426 71.3172L39.21 71.4056L39.1816 71.4955L42.9959 72.7ZM42.9959 74.98L39.1816 76.1845L39.21 76.2744L39.2426 76.3628L42.9959 74.98ZM48.7333 80.9402C44.8483 80.9039 41.8196 80.2683 39.5059 79.2053L36.1659 86.4747C39.7723 88.1317 43.9836 88.8961 48.6586 88.9398L48.7333 80.9402ZM39.5059 79.2053C37.3951 78.2355 35.8101 76.7146 34.6841 74.4921L27.5478 78.1079C29.4618 81.8854 32.3568 84.7245 36.1659 86.4747L39.5059 79.2053ZM34.6936 74.5111C33.551 72.2259 32.8359 68.8889 32.8359 64.24H24.8359C24.8359 69.5911 25.6408 74.2941 27.5382 78.0889L34.6936 74.5111ZM32.8359 64.24C32.8359 60.297 33.47 57.1151 34.5931 54.5803L27.2788 51.3397C25.6018 55.1249 24.8359 59.463 24.8359 64.24H32.8359ZM34.5758 54.6187C35.7199 52.1081 37.3036 50.2919 39.3138 49.0208L35.0381 42.2592C31.6083 44.4281 29.032 47.4919 27.2961 51.3013L34.5758 54.6187ZM39.3489 48.9983C41.2906 47.7419 43.8346 47 47.1959 47V39C42.6373 39 38.5013 40.0181 35.0029 42.2817L39.3489 48.9983ZM47.1959 47C50.3028 47 52.8366 47.4475 54.88 48.2334L57.7519 40.7666C54.5953 39.5525 51.0491 39 47.1959 39V47ZM54.88 48.2334C56.9199 49.0179 58.327 50.0672 59.293 51.2942L65.5789 46.3458C63.5849 43.8128 60.912 41.9821 57.7519 40.7666L54.88 48.2334ZM59.3521 51.3675C60.2933 52.5069 60.8522 53.8855 60.9637 55.6695L68.9481 55.1705C68.7396 51.8345 67.6185 48.8131 65.5198 46.2725L59.3521 51.3675ZM60.9645 55.6817C61.0838 57.5006 60.7608 58.8267 60.1993 59.8374L67.1926 63.7226C68.6311 61.1333 69.1481 58.2194 68.9474 55.1583L60.9645 55.6817ZM60.1665 59.8976C59.5338 61.084 58.5316 62.2452 57.0193 63.348L61.7326 69.812C64.0603 68.1148 65.9381 66.076 67.2254 63.6624L60.1665 59.8976ZM58.7001 70.5225C58.9837 70.5711 59.4557 70.7416 60.1059 71.5079L66.206 66.3321C64.6162 64.4584 62.5682 63.0689 60.0518 62.6375L58.7001 70.5225ZM60.1513 71.5605C60.6227 72.0969 60.8959 72.7381 60.8959 73.72H68.8959C68.8959 70.9419 68.0092 68.3831 66.1606 66.2795L60.1513 71.5605ZM60.8959 73.72C60.8959 74.4465 60.7503 75.2502 60.3943 76.1539L67.8376 79.0861C68.5216 77.3498 68.8959 75.5535 68.8959 73.72H60.8959ZM60.3943 76.1539C60.1374 76.8059 59.6577 77.5322 58.7948 78.3116L64.1571 84.2484C65.7742 82.7878 67.0544 81.0741 67.8376 79.0861L60.3943 76.1539ZM58.7467 78.3558C58.1028 78.9567 57.0221 79.6105 55.2742 80.1711L57.7176 87.7889C60.2098 86.9895 62.4491 85.8433 64.2052 84.2042L58.7467 78.3558ZM55.3196 80.1569C53.7465 80.6409 51.5745 80.94 48.6959 80.94V88.94C52.0573 88.94 55.0854 88.5991 57.6723 87.8031L55.3196 80.1569ZM42.9803 66.2366C44.4328 66.8591 45.9947 67.1 47.5559 67.1V59.1C46.7972 59.1 46.3591 58.9809 46.1316 58.8834L42.9803 66.2366ZM47.6938 67.0976C49.5398 67.034 51.308 66.5094 52.8693 65.4449L48.3626 58.8351C48.1639 58.9706 47.8921 59.086 47.4181 59.1024L47.6938 67.0976ZM52.801 65.4904C55.0148 64.0467 55.9959 61.7668 55.9959 59.38H47.9959C47.9959 59.5052 47.9741 59.4093 48.0732 59.2111C48.1212 59.1151 48.1846 59.0222 48.2582 58.9412C48.3306 58.8614 48.3948 58.8131 48.4309 58.7896L52.801 65.4904ZM55.9959 59.38C55.9959 57.5846 55.4162 55.7634 53.9844 54.3316L48.3275 59.9884C48.207 59.8679 48.1057 59.7114 48.0448 59.5506C47.9882 59.4011 47.9959 59.3262 47.9959 59.38H55.9959ZM54.0871 54.4382C52.9976 53.2649 51.6361 52.5119 50.1461 52.1394L48.2058 59.9006C48.242 59.9096 48.2634 59.9174 48.2729 59.9212C48.2822 59.9248 48.282 59.9255 48.2751 59.9215C48.268 59.9174 48.2582 59.911 48.2474 59.9024C48.2366 59.8938 48.2289 59.8863 48.2248 59.8818L54.0871 54.4382ZM50.3253 52.1887C49.0883 51.8176 47.8151 51.6631 46.5257 51.7245L46.9062 59.7155C47.2967 59.6969 47.6636 59.7424 48.0265 59.8513L50.3253 52.1887ZM46.5257 51.7245C45.2309 51.7862 43.9048 52.0739 42.6736 52.7306L46.4383 59.7894C46.407 59.8061 46.521 59.7338 46.9062 59.7155L46.5257 51.7245ZM42.8436 52.645C40.9766 53.5294 39.7639 55.0853 39.1842 56.9072L46.8076 59.3328C46.8117 59.32 46.7798 59.4235 46.6607 59.5654C46.5358 59.7144 46.3881 59.8182 46.2683 59.8749L42.8436 52.645ZM39.1369 57.0675C38.709 58.6366 38.709 60.2434 39.1369 61.8125L46.855 59.7075C46.8029 59.5166 46.8029 59.3634 46.855 59.1725L39.1369 57.0675ZM39.2012 62.0249C39.8056 63.8381 41.0413 65.3212 42.8436 66.175L46.2683 58.945C46.3592 58.9881 46.4943 59.0768 46.6187 59.2203C46.7399 59.3601 46.7838 59.4746 46.7907 59.4951L39.2012 62.0249ZM43.132 80.338C44.5375 80.8734 46.0438 81.08 47.5559 81.08V73.08C46.748 73.08 46.2544 72.9666 45.9799 72.862L43.132 80.338ZM47.6938 81.0776C49.4307 81.0177 51.1206 80.588 52.6509 79.6837L48.581 72.7963C48.3513 72.932 48.0012 73.0623 47.4181 73.0824L47.6938 81.0776ZM52.5842 79.7223C54.7935 78.4735 55.9959 76.3228 55.9959 73.84H47.9959C47.9959 73.8004 48.0091 73.5591 48.1833 73.2561C48.36 72.9488 48.5758 72.7984 48.6477 72.7577L52.5842 79.7223ZM55.9959 73.84C55.9959 71.9841 55.2872 70.1928 53.7591 68.883L48.5528 74.957C48.4017 74.8275 48.2361 74.6257 48.1213 74.3633C48.0103 74.1094 47.9959 73.9121 47.9959 73.84H55.9959ZM53.9844 69.0916C52.8915 67.9987 51.5619 67.3134 50.1461 66.9594L48.2058 74.7206C48.3078 74.7461 48.3509 74.7691 48.3555 74.7716C48.3585 74.7732 48.3553 74.7717 48.3484 74.7665C48.3414 74.7613 48.334 74.7549 48.3275 74.7484L53.9844 69.0916ZM50.1461 66.9594C48.895 66.6467 47.6183 66.556 46.3367 66.678L47.0952 74.642C47.4936 74.604 47.8569 74.6333 48.2058 74.7206L50.1461 66.9594ZM46.5257 66.6645C45.3678 66.7197 44.1867 66.9196 43.0704 67.3661L46.0415 74.7939C46.1252 74.7604 46.384 74.6803 46.9062 74.6555L46.5257 66.6645ZM43.0037 67.3935C41.2436 68.1346 39.9134 69.4964 39.2426 71.3172L46.7493 74.0828C46.7136 74.1798 46.6311 74.3398 46.4772 74.4996C46.3246 74.6581 46.1782 74.7371 46.1082 74.7665L43.0037 67.3935ZM39.1816 71.4955C38.694 73.0394 38.694 74.6406 39.1816 76.1845L46.8103 73.7755C46.8081 73.7686 46.8098 73.7726 46.812 73.7862C46.8142 73.7999 46.8159 73.8185 46.8159 73.84C46.8159 73.8615 46.8142 73.8801 46.812 73.8938C46.8098 73.9074 46.8081 73.9114 46.8103 73.9045L39.1816 71.4955ZM39.2426 76.3628C39.9134 78.1836 41.2436 79.5454 43.0037 80.2865L46.1082 72.9135C46.1782 72.9429 46.3246 73.0219 46.4772 73.1804C46.6311 73.3402 46.7136 73.5002 46.7493 73.5972L39.2426 76.3628ZM82.3306 83.2L80.6754 86.8415L80.6754 86.8415L82.3306 83.2ZM75.6706 78.28L72.6171 80.8638L72.6314 80.8807L72.646 80.8975L75.6706 78.28ZM71.7106 71.2L67.9103 72.4479L67.9131 72.4564L67.9159 72.4649L71.7106 71.2ZM70.5706 57.64L74.5618 57.9061L74.5621 57.9003L70.5706 57.64ZM71.2906 52.3L75.2058 53.1195L75.2058 53.1195L71.2906 52.3ZM72.8506 47.62L69.2935 45.7906L69.2726 45.8313L69.2526 45.8724L72.8506 47.62ZM75.6106 44.26L78.0106 47.46L78.0106 47.46L75.6106 44.26ZM84.7906 44.38L82.305 47.514L82.3642 47.5609L82.4252 47.6056L84.7906 44.38ZM87.3106 47.74L91.0826 46.4087L91.0826 46.4087L87.3106 47.74ZM87.7906 56.08L91.7504 56.6457L91.7504 56.6457L87.7906 56.08ZM87.3106 59.38L91.2641 59.9882L91.2658 59.9772L91.2674 59.9662L87.3106 59.38ZM87.4306 66.52L83.5194 67.3581L83.5336 67.4244L83.5501 67.4901L87.4306 66.52ZM88.8106 69.34L85.751 71.9165L85.7854 71.9575L85.821 71.9975L88.8106 69.34ZM94.3906 69.34L97.3803 71.9975L97.4158 71.9575L97.4503 71.9165L94.3906 69.34ZM95.7106 66.52L99.6218 67.3581L99.6218 67.3581L95.7106 66.52ZM95.8306 59.38L91.8738 59.9662L91.8754 59.9772L91.8771 59.9882L95.8306 59.38ZM95.3506 56.08L91.3908 56.6457L91.3908 56.6457L95.3506 56.08ZM95.8306 47.74L99.6026 49.0713L99.6026 49.0713L95.8306 47.74ZM98.3506 44.38L100.716 47.6056L100.75 47.5804L100.784 47.5544L98.3506 44.38ZM107.531 44.26L105.131 47.46L105.131 47.46L107.531 44.26ZM110.231 47.62L106.633 49.3676L106.653 49.4087L106.673 49.4494L110.231 47.62ZM111.851 52.3L107.935 53.1195L111.851 52.3ZM112.571 57.64L108.579 57.9003L108.579 57.9061L112.571 57.64ZM111.431 71.2L115.225 72.4649L115.228 72.4564L115.231 72.4479L111.431 71.2ZM107.411 78.28L104.386 75.6625L104.371 75.6793L104.357 75.6962L107.411 78.28ZM100.811 83.2L99.1554 79.5585L99.1554 79.5585L100.811 83.2ZM91.5706 81C88.502 81 86.0071 80.4773 83.9858 79.5585L80.6754 86.8415C83.9341 88.3227 87.5993 89 91.5706 89V81ZM83.9858 79.5585C81.8417 78.5839 80.0976 77.2829 78.6953 75.6625L72.646 80.8975C74.8437 83.4371 77.5396 85.4161 80.6754 86.8415L83.9858 79.5585ZM78.7242 75.6962C77.3 74.0131 76.2279 72.1028 75.5054 69.9351L67.9159 72.4649C68.9533 75.5772 70.5213 78.3869 72.6171 80.8638L78.7242 75.6962ZM75.511 69.9521C74.7679 67.6889 74.3906 65.3112 74.3906 62.8H66.3906C66.3906 66.1288 66.8934 69.3511 67.9103 72.4479L75.511 69.9521ZM74.3906 62.8C74.3906 61.257 74.4471 59.6261 74.5618 57.9061L66.5795 57.3739C66.4542 59.2538 66.3906 61.063 66.3906 62.8H74.3906ZM74.5621 57.9003C74.6705 56.2391 74.8862 54.6463 75.2058 53.1195L67.3755 51.4805C66.975 53.3937 66.7108 55.3609 66.5791 57.3797L74.5621 57.9003ZM75.2058 53.1195C75.507 51.6801 75.9291 50.4373 76.4487 49.3676L69.2526 45.8724C68.4122 47.6027 67.7942 49.4799 67.3755 51.4805L75.2058 53.1195ZM76.4078 49.4494C76.8855 48.5204 77.4324 47.8937 78.0106 47.46L73.2106 41.06C71.5488 42.3063 70.2557 43.9196 69.2935 45.7906L76.4078 49.4494ZM78.0106 47.46C78.3082 47.2368 78.8181 47 79.8106 47V39C77.4432 39 75.153 39.6032 73.2106 41.06L78.0106 47.46ZM79.8106 47C81.4688 47 82.1125 47.3613 82.305 47.514L87.2762 41.246C85.1487 39.5587 82.4725 39 79.8106 39V47ZM82.4252 47.6056C82.9984 48.026 83.3353 48.495 83.5387 49.0713L91.0826 46.4087C90.326 44.265 88.9828 42.494 87.1561 41.1544L82.4252 47.6056ZM83.5387 49.0713C83.868 50.0043 84.0306 50.9542 84.0306 51.94H92.0306C92.0306 50.0458 91.7133 48.1957 91.0826 46.4087L83.5387 49.0713ZM84.0306 51.94C84.0306 53.4669 83.9551 54.6444 83.8308 55.5143L91.7504 56.6457C91.9461 55.2756 92.0306 53.6931 92.0306 51.94H84.0306ZM83.8308 55.5143C83.6718 56.6277 83.5128 57.7209 83.3538 58.7938L91.2674 59.9662C91.4285 58.8791 91.5895 57.7723 91.7504 56.6457L83.8308 55.5143ZM83.3571 58.7718C83.1553 60.084 83.0706 61.6036 83.0706 63.28H91.0706C91.0706 61.8364 91.146 60.756 91.2641 59.9882L83.3571 58.7718ZM83.0706 63.28C83.0706 64.6285 83.2263 65.9901 83.5194 67.3581L91.3418 65.6819C91.155 64.8099 91.0706 64.0115 91.0706 63.28H83.0706ZM83.5501 67.4901C83.9539 69.1056 84.6598 70.6207 85.751 71.9165L91.8703 66.7635C91.6815 66.5393 91.4673 66.1744 91.3112 65.5499L83.5501 67.4901ZM85.821 71.9975C87.4002 73.7741 89.5306 74.42 91.5706 74.42V66.42C91.3653 66.42 91.3458 66.3889 91.4382 66.425C91.4853 66.4435 91.5494 66.4749 91.62 66.5237C91.6909 66.5728 91.7519 66.6282 91.8003 66.6825L85.821 71.9975ZM91.5706 74.42C93.6034 74.42 95.7762 73.802 97.3803 71.9975L91.401 66.6825C91.4564 66.6202 91.5233 66.5607 91.5971 66.5102C91.6703 66.4602 91.7336 66.4304 91.775 66.4146C91.854 66.3843 91.8112 66.42 91.5706 66.42V74.42ZM97.4503 71.9165C98.5726 70.5837 99.2657 69.0201 99.6218 67.3581L91.7994 65.6819C91.6755 66.2599 91.4886 66.5763 91.331 66.7635L97.4503 71.9165ZM99.6218 67.3581C99.915 65.9901 100.071 64.6285 100.071 63.28H92.0706C92.0706 64.0115 91.9863 64.8099 91.7994 65.6819L99.6218 67.3581ZM100.071 63.28C100.071 61.6036 99.986 60.084 99.7841 58.7718L91.8771 59.9882C91.9953 60.756 92.0706 61.8364 92.0706 63.28H100.071ZM99.7874 58.7938C99.6285 57.7209 99.4695 56.6277 99.3104 55.5143L91.3908 56.6457C91.5518 57.7723 91.7128 58.8791 91.8738 59.9662L99.7874 58.7938ZM99.3104 55.5143C99.1861 54.6444 99.1106 53.4669 99.1106 51.94H91.1106C91.1106 53.6931 91.1951 55.2756 91.3908 56.6457L99.3104 55.5143ZM99.1106 51.94C99.1106 50.9542 99.2733 50.0043 99.6026 49.0713L92.0587 46.4087C91.428 48.1957 91.1106 50.0458 91.1106 51.94H99.1106ZM99.6026 49.0713C99.806 48.495 100.143 48.026 100.716 47.6056L95.9852 41.1544C94.1584 42.494 92.8153 44.265 92.0587 46.4087L99.6026 49.0713ZM100.784 47.5544C101.054 47.3478 101.745 47 103.331 47V39C100.677 39 98.0474 39.5722 95.9169 41.2056L100.784 47.5544ZM103.331 47C104.323 47 104.833 47.2368 105.131 47.46L109.931 41.06C107.988 39.6032 105.698 39 103.331 39V47ZM105.131 47.46C105.687 47.877 106.199 48.4753 106.633 49.3676L113.829 45.8724C112.902 43.9647 111.615 42.323 109.931 41.06L105.131 47.46ZM106.673 49.4494C107.212 50.4958 107.641 51.7105 107.935 53.1195L115.766 51.4805C115.341 49.4495 114.69 47.5442 113.788 45.7906L106.673 49.4494ZM107.935 53.1195C108.255 54.6463 108.471 56.2391 108.579 57.9003L116.562 57.3797C116.43 55.3609 116.166 53.3937 115.766 51.4805L107.935 53.1195ZM108.579 57.9061C108.694 59.6261 108.751 61.257 108.751 62.8H116.751C116.751 61.063 116.687 59.2539 116.562 57.3739L108.579 57.9061ZM108.751 62.8C108.751 65.3112 108.373 67.6889 107.63 69.9521L115.231 72.4479C116.248 69.3511 116.751 66.1288 116.751 62.8H108.751ZM107.636 69.9351C106.92 72.0841 105.839 73.9833 104.386 75.6625L110.435 80.8975C112.582 78.4167 114.182 75.5959 115.225 72.4649L107.636 69.9351ZM104.357 75.6962C103.004 77.2958 101.292 78.5873 99.1554 79.5585L102.466 86.8415C105.609 85.4127 108.298 83.4242 110.464 80.8638L104.357 75.6962ZM99.1554 79.5585C97.1341 80.4773 94.6393 81 91.5706 81V89C95.542 89 99.2071 88.3227 102.466 86.8415L99.1554 79.5585ZM134.656 84.22L132.815 87.771L132.893 87.8112L132.972 87.848L134.656 84.22ZM131.956 81.82L128.608 84.009L128.637 84.0533L128.667 84.0968L131.956 81.82ZM130.996 75.28L134.991 75.4798L135.153 72.2378L132.014 71.4117L130.996 75.28ZM121.696 69.64L118.638 72.2179L118.658 72.2415L118.678 72.2647L121.696 69.64ZM120.496 47.32L123.979 49.2882L123.985 49.2775L123.991 49.2668L120.496 47.32ZM132.916 45.1L130.088 47.9284L130.109 47.9495L130.13 47.9703L132.916 45.1ZM134.656 54.64L130.701 54.0408L130.692 54.0996L130.685 54.1587L134.656 54.64ZM141.016 61.6L137.599 59.5202L137.566 59.5755L137.534 59.6318L141.016 61.6ZM141.556 54.58L137.582 55.0342L137.589 55.0982L137.599 55.162L141.556 54.58ZM154.036 44.98L156.688 41.9856L156.688 41.9856L154.036 44.98ZM157.156 50.14L153.335 51.3212L153.335 51.3212L157.156 50.14ZM154.396 69.76L151.386 67.126L151.383 67.129L154.396 69.76ZM144.676 75.4L143.78 71.5018L140.505 72.2549L140.682 75.6102L144.676 75.4ZM141.316 84.22L139.471 80.6711L141.316 84.22ZM138.136 81C137.535 81 136.949 80.8743 136.341 80.592L132.972 87.848C134.604 88.6057 136.337 89 138.136 89V81ZM136.498 80.669C136.02 80.4214 135.609 80.0688 135.245 79.5432L128.667 84.0968C129.744 85.6512 131.132 86.8986 132.815 87.771L136.498 80.669ZM135.304 79.631C135.136 79.3741 134.936 78.8972 134.936 77.98H126.936C126.936 80.1028 127.416 82.1859 128.608 84.009L135.304 79.631ZM134.936 77.98C134.936 77.0311 134.955 76.1993 134.991 75.4798L127.001 75.0802C126.957 75.9607 126.936 76.9289 126.936 77.98H134.936ZM132.014 71.4117C128.93 70.6001 126.548 69.1237 124.715 67.0153L118.678 72.2647C121.644 75.6763 125.462 77.9599 129.978 79.1483L132.014 71.4117ZM124.755 67.0621C123.156 65.165 122.156 62.4248 122.156 58.42H114.156C114.156 63.7752 115.517 68.515 118.638 72.2179L124.755 67.0621ZM122.156 58.42C122.156 54.1715 122.879 51.2327 123.979 49.2882L117.014 45.3518C114.993 48.9273 114.156 53.3885 114.156 58.42H122.156ZM123.991 49.2668C124.48 48.3874 124.996 47.9022 125.479 47.6177C125.963 47.3334 126.635 47.12 127.636 47.12V39.12C125.438 39.12 123.32 39.6066 121.423 40.7223C119.527 41.8377 118.072 43.4526 117.002 45.3732L123.991 49.2668ZM127.636 47.12C128.979 47.12 129.651 47.4914 130.088 47.9284L135.745 42.2716C133.542 40.0686 130.693 39.12 127.636 39.12V47.12ZM130.13 47.9703C130.52 48.3486 130.956 49.0572 130.956 50.68H138.956C138.956 47.5028 138.032 44.4914 135.702 42.2297L130.13 47.9703ZM130.956 50.68C130.956 51.7971 130.872 52.9168 130.701 54.0408L138.611 55.2392C138.841 53.7232 138.956 52.2029 138.956 50.68H130.956ZM130.685 54.1587C130.517 55.5488 130.416 56.7889 130.416 57.82H138.416C138.416 57.2511 138.476 56.3712 138.627 55.1213L130.685 54.1587ZM130.416 57.82C130.416 59.8211 130.756 61.8996 131.839 63.6798L138.673 59.5202C138.637 59.4604 138.416 59.0189 138.416 57.82H130.416ZM131.839 63.6798C133.32 66.1128 135.802 66.98 138.136 66.98V58.98C137.894 58.98 137.937 58.9378 138.125 59.0277C138.221 59.0741 138.332 59.1445 138.44 59.2422C138.547 59.3397 138.624 59.4391 138.673 59.5202L131.839 63.6798ZM138.136 66.98C140.442 66.98 143.039 66.15 144.499 63.5682L137.534 59.6318C137.596 59.5219 137.689 59.3966 137.816 59.2782C137.943 59.16 138.071 59.0788 138.178 59.0277C138.379 58.9311 138.419 58.98 138.136 58.98V66.98ZM144.433 63.6798C145.517 61.8996 145.856 59.8211 145.856 57.82H137.856C137.856 59.0189 137.636 59.4604 137.599 59.5202L144.433 63.6798ZM145.856 57.82C145.856 56.7356 145.725 55.435 145.514 53.998L137.599 55.162C137.787 56.445 137.856 57.3044 137.856 57.82H145.856ZM145.53 54.1258C145.385 52.8567 145.316 51.6894 145.316 50.62H137.316C137.316 52.0306 137.407 53.5033 137.582 55.0342L145.53 54.1258ZM145.316 50.62C145.316 49.0597 145.74 48.3611 146.142 47.9703L140.57 42.2297C138.253 44.4789 137.316 47.4602 137.316 50.62H145.316ZM146.142 47.9703C146.636 47.4912 147.356 47.12 148.696 47.12V39.12C145.636 39.12 142.797 40.0688 140.57 42.2297L146.142 47.9703ZM148.696 47.12C150.04 47.12 150.828 47.4817 151.384 47.9744L156.688 41.9856C154.445 39.9983 151.672 39.12 148.696 39.12V47.12ZM151.384 47.9743C152.121 48.6275 152.821 49.6598 153.335 51.3212L160.978 48.9588C160.131 46.2202 158.751 43.8125 156.688 41.9856L151.384 47.9743ZM153.335 51.3212C153.873 53.0616 154.176 55.1709 154.176 57.7H162.176C162.176 54.5491 161.8 51.6184 160.978 48.9588L153.335 51.3212ZM154.176 57.7C154.176 62.2317 153.075 65.1961 151.386 67.126L157.407 72.394C160.758 68.5639 162.176 63.4883 162.176 57.7H154.176ZM151.383 67.129C149.507 69.2774 147.035 70.753 143.78 71.5018L145.573 79.2982C150.317 78.207 154.325 75.9226 157.409 72.391L151.383 67.129ZM140.682 75.6102C140.717 76.285 140.736 77.073 140.736 77.98H148.736C148.736 76.967 148.715 76.035 148.671 75.1898L140.682 75.6102ZM140.736 77.98C140.736 79.0024 140.528 79.5268 140.37 79.7836L147.183 83.9764C148.305 82.1532 148.736 80.0776 148.736 77.98H140.736ZM140.37 79.7836C140.076 80.2603 139.775 80.5128 139.471 80.6711L143.162 87.7689C144.857 86.8872 146.196 85.5797 147.183 83.9764L140.37 79.7836ZM139.471 80.6711C139.037 80.8967 138.61 81 138.136 81V89C139.903 89 141.595 88.5833 143.162 87.7689L139.471 80.6711Z" fill="black" mask="url(#path-4-outside-1_80_10996)"/></svg>