<svg xmlns="http://www.w3.org/2000/svg" width="324" height="508" viewBox="0 0 324 508" fill="none"><path d="M236.673 0.37381C238.44 0.369491 239.878 0.818694 240.988 1.72142C242.362 2.83578 243.658 4.35832 244.876 6.28902C249.191 12.7679 252.149 19.8342 253.752 27.4879C253.847 27.9544 254.667 31.7575 256.214 38.8972C257.814 46.2766 260.522 54.3299 262.472 61.5279C263.746 66.2359 264.921 71.3974 265.997 77.0124L263.017 76.9735C261.246 68.4085 259.086 59.9363 256.538 51.5569C255.134 46.9483 254.19 43.5598 253.706 41.3916C252.249 34.8673 250.946 26.9696 248.828 20.7628C247.122 15.7568 244.556 10.8912 241.131 6.16592C240.237 4.93062 239.446 4.14236 238.76 3.80113C237.585 3.21372 236.356 3.16405 235.073 3.65212C230.914 5.24593 227.08 7.68198 223.573 10.9603C219.146 15.1025 215.144 19.6852 211.568 24.7085C210.294 26.5009 207.916 30.0514 204.435 35.3597L202.024 33.74C203.521 31.2521 205.711 28.1423 206.799 26.4707C210.963 20.048 215.829 14.2062 221.396 8.94536C224.968 5.57203 229.076 2.92865 233.719 1.01522C234.194 0.825175 235.179 0.611369 236.673 0.37381Z" fill="#64554C"/><path d="M263.017 76.9735C265.362 89.7563 267.98 102.468 270.241 115.257C271.554 122.691 272.567 130.558 273.279 138.86C268.286 135.521 263.354 133.532 258.482 132.893L251.51 125.798C252.024 122.071 252.227 118.395 252.119 114.771C251.981 110.007 251.912 107.601 251.912 107.554C251.906 99.0276 252.132 93.7343 251.562 87.3332C251.083 81.9557 250.694 78.2433 250.396 76.196C250.059 73.8852 248.807 66.4453 246.638 53.8763C246.586 53.5523 245.962 51.194 244.766 46.8014C244.07 44.2444 243.505 41.8796 243.068 39.707C242.455 36.6144 241.831 33.8717 241.196 31.4788C241.136 31.2542 240.991 31.1203 240.762 31.0771L240.25 30.98C240.591 29.9736 240.572 29.1723 240.192 28.5763C239.397 27.328 238.123 26.1467 236.369 25.0324C233.635 23.2895 230.83 23.3025 228.323 25.2915C227.109 26.2547 226.288 27.0451 225.861 27.6628C221.273 34.2712 218.393 41.5902 217.218 49.6197C215.965 58.1804 215.628 66.7649 216.207 75.3732C216.453 79.0575 217.265 85.4846 218.643 94.6543C215.222 92.4515 211.7 90.4927 208.076 88.778C200.107 85.0116 191.672 83.2105 182.77 83.3746C183.232 81.0595 183.726 79.2907 184.253 78.0684C187.056 71.5507 189.793 65.0048 192.462 58.4309C193.002 57.1049 194.362 54.535 196.544 50.7211C197.753 48.609 199.064 46.0498 200.476 43.0436C201.703 40.4262 203.022 37.8648 204.435 35.3597C207.916 30.0513 210.294 26.5009 211.568 24.7084C215.144 19.6851 219.146 15.1024 223.573 10.9602C227.081 7.68193 230.914 5.24587 235.073 3.65207C236.356 3.16399 237.585 3.21366 238.76 3.80108C239.447 4.1423 240.237 4.93057 241.131 6.16587C244.556 10.8911 247.122 15.7568 248.828 20.7628C250.947 26.9695 252.249 34.8673 253.707 41.3915C254.19 43.5598 255.134 46.9482 256.538 51.5569C259.086 59.9362 261.246 68.4084 263.017 76.9735Z" fill="#F4BAB8"/><path d="M240.25 30.9801C239.926 31.3386 239.531 31.2392 239.064 30.682C238.352 29.8268 237.6 29.0083 236.81 28.2265C232.365 23.8404 228.977 26.7818 226.418 31.0125C223.282 36.1912 221.25 41.0655 220.321 45.6353C218.464 54.7532 217.896 64.519 218.617 74.9328C219.235 83.7958 220.686 93.3414 222.971 103.569C223.087 104.081 222.958 104.418 222.763 104.846C222.651 105.083 222.707 105.265 222.932 105.39C233.004 111.152 242.531 117.955 251.51 125.798L258.482 132.893C257.92 133.925 257.352 134.279 256.778 133.955C255.862 133.433 255.13 132.841 254.581 132.18C249.394 126.98 243.289 121.889 236.265 116.909C224.375 108.483 212.367 101.919 200.243 97.2201C198.861 96.6888 198.057 96.1014 197.833 95.4578C197.608 94.8272 197.641 94.4298 197.93 94.2657C198.058 94.1928 198.2 94.1486 198.346 94.1363C198.493 94.124 198.641 94.1438 198.779 94.1944C206.273 96.8897 213.434 100.138 220.263 103.939C220.294 103.955 220.329 103.962 220.364 103.96C220.4 103.957 220.433 103.944 220.462 103.924C220.49 103.903 220.512 103.874 220.525 103.841C220.538 103.808 220.541 103.773 220.535 103.738L218.643 94.6544C217.265 85.4847 216.453 79.0576 216.207 75.3733C215.628 66.765 215.965 58.1805 217.218 49.6198C218.392 41.5903 221.273 34.2713 225.86 27.6629C226.288 27.0452 227.109 26.2548 228.322 25.2916C230.83 23.3026 233.635 23.2896 236.369 25.0325C238.123 26.1468 239.397 27.3281 240.192 28.5764C240.572 29.1725 240.591 29.9737 240.25 30.9801Z" fill="#321B2D"/><path d="M240.25 30.98L240.762 31.0771C240.991 31.1203 241.136 31.2542 241.196 31.4788C241.831 33.8717 242.455 36.6144 243.068 39.707C243.505 41.8796 244.07 44.2444 244.766 46.8014C245.962 51.194 246.586 53.5524 246.638 53.8763C248.806 66.4453 250.059 73.8852 250.396 76.196C250.694 78.2433 251.083 81.9557 251.562 87.3332C252.132 93.7343 251.906 99.0276 251.912 107.554C251.912 107.601 251.981 110.007 252.119 114.771C252.227 118.395 252.024 122.071 251.51 125.798C242.531 117.955 233.005 111.152 222.932 105.39C222.707 105.265 222.651 105.083 222.764 104.846C222.958 104.418 223.088 104.081 222.971 103.569C220.686 93.3413 219.235 83.7957 218.617 74.9326C217.896 64.5189 218.464 54.7531 220.321 45.6352C221.25 41.0654 223.282 36.1911 226.418 31.0124C228.977 26.7816 232.365 23.8402 236.81 28.2264C237.6 29.0082 238.352 29.8267 239.064 30.6819C239.531 31.2391 239.926 31.3385 240.25 30.98Z" fill="#DA9F9A"/><path d="M204.435 35.3597C203.023 37.8649 201.703 40.4262 200.476 43.0437C199.064 46.0499 197.753 48.609 196.544 50.7211C194.363 54.535 193.002 57.105 192.462 58.431C189.793 65.0049 187.057 71.5507 184.253 78.0684C183.726 79.2908 183.232 81.0595 182.77 83.3746L183.042 85.5775C183.056 85.678 183.046 85.7802 183.013 85.8759C182.981 85.9715 182.926 86.058 182.854 86.1282C182.418 86.5601 181.832 86.7264 181.098 86.627C177.574 86.1649 173.533 86.0159 168.976 86.18C163.357 86.3873 157.958 86.8128 152.779 87.4563C152.719 87.4643 152.661 87.4842 152.609 87.5149C152.556 87.5456 152.511 87.5865 152.475 87.635C152.439 87.6835 152.414 87.7386 152.401 87.797C152.387 87.8554 152.386 87.9158 152.397 87.9746C153.04 91.6244 153.308 95.1964 153.2 98.6907C153.058 103.09 152.105 107.657 147.978 109.957C146.345 110.865 144.715 111.463 143.087 111.752C139.182 112.443 135.437 112.972 131.852 113.339C130.245 113.504 126.47 113.732 120.527 114.026C115.007 114.303 110.573 114.657 107.226 115.089C106.811 115.145 106.602 115.38 106.598 115.795C106.537 118.745 105.559 121.304 103.663 123.472C100.682 126.88 96.9224 128.088 92.3829 127.094C92.1497 127.042 92.0028 127.133 91.9423 127.366C91.1908 130.385 89.5257 133.385 88.379 136.592C87.135 140.048 84.4312 147.31 80.2674 158.381C78.3022 163.607 76.5097 167.816 74.8899 171.008C74.1038 172.563 73.1752 173.841 72.104 174.843C69.4801 177.286 66.3573 175.867 63.6297 174.422C63.5749 174.393 63.5149 174.375 63.4532 174.37C63.3914 174.364 63.3292 174.371 63.27 174.389C63.2109 174.408 63.1561 174.438 63.1089 174.479C63.0616 174.519 63.0228 174.568 62.9947 174.623C59.5005 181.698 56.5418 188.952 54.1187 196.386C53.5529 196.766 52.8013 196.725 51.864 196.263C54.1014 188.367 57.1141 180.78 60.9021 173.502C61.0144 173.282 60.969 173.105 60.766 172.971C54.529 168.812 48.9053 163.864 43.895 158.128L45.6832 155.834C52.0584 162.981 58.5567 168.935 67.2708 172.854C68.0029 173.178 69.0784 173.386 69.7133 172.939C70.616 172.308 71.4281 171.291 72.1494 169.887C73.4365 167.382 74.9526 163.868 76.6975 159.346C79.7944 151.303 82.9129 142.98 86.053 134.376C86.5368 133.05 87.636 130.457 89.3508 126.595C89.3873 126.515 89.3915 126.424 89.3624 126.341C89.3333 126.259 89.2733 126.192 89.1953 126.155C84.1763 123.615 79.9608 120.099 76.5485 115.607L79.3668 114.402C83.3319 119.475 93.5167 128.377 100.339 122.578C104.816 118.769 104.414 112.484 101.382 107.949C99.4168 105.021 96.5531 102.973 92.7911 101.807L93.6074 98.9628C100.224 101.122 104.488 105.44 106.397 111.914C106.457 112.121 106.595 112.212 106.811 112.186C110.988 111.672 115.173 111.314 119.367 111.111C124.706 110.847 128.06 110.653 129.429 110.528C132.297 110.264 135.638 109.873 139.452 109.355C144.162 108.714 148.943 107.683 149.773 102.351C150.425 98.1702 150.414 93.9784 149.74 89.7758C149.071 85.6077 148.222 81.4828 147.194 77.4011L149.974 76.3386L151.762 84.1262C151.796 84.2701 151.882 84.3963 152.003 84.4801C152.124 84.5639 152.271 84.5994 152.416 84.5797C161.387 83.3574 170.436 82.96 179.563 83.3876C179.774 83.4006 179.897 83.3012 179.932 83.0896C180.351 80.416 180.971 78.1332 181.791 76.2414C184.18 70.7516 186.381 65.5167 188.393 60.5366C189.344 58.1869 190.765 55.2974 192.656 51.8679C195.628 46.4775 198.425 40.9488 201.047 35.282C201.405 34.9062 201.731 34.3922 202.025 33.74L204.435 35.3597Z" fill="#321B2D"/><path d="M149.973 76.3386L147.194 77.4012C145.695 72.0151 143.896 66.737 141.797 61.5668C141.046 59.7095 140.128 57.9775 139.044 56.3708C137.692 54.3623 135.901 53.6367 133.673 54.1939C131.794 54.6647 129.913 55.427 128.03 56.4809C122.933 59.3273 118.436 62.5084 114.541 66.0243C112.532 67.8384 110.148 70.3975 107.388 73.7017C105.228 76.2847 103.034 79.0187 100.805 81.904C98.9696 84.2709 97.7278 86.1649 97.08 87.586C95.4991 91.0284 93.7887 94.4881 91.9487 97.9651C91.9201 98.0211 91.904 98.0826 91.9015 98.1453C91.899 98.208 91.9103 98.2704 91.9344 98.3279C91.9585 98.3855 91.995 98.4368 92.0411 98.4782C92.0872 98.5196 92.142 98.5502 92.2014 98.5677L93.6073 98.9629L92.7909 101.807C89.6336 100.654 86.5151 100.496 83.4355 101.334C81.874 101.762 80.6236 102.909 79.3279 103.686C79.1421 103.798 78.9413 103.861 78.7253 103.874C77.8744 103.917 77.3021 104.295 77.0084 105.008C76.8788 105.319 76.7493 105.982 76.6197 106.997C76.3087 109.498 77.8377 112.219 79.3667 114.402L76.5484 115.607L74.5529 112.063C74.4391 111.861 74.2729 111.692 74.0714 111.575C73.8699 111.458 73.6403 111.396 73.4062 111.396C67.748 111.374 62.1394 112.115 56.5805 113.618C48.0198 115.933 40.4136 118.799 33.7619 122.216C33.235 122.483 31.8507 123.47 29.609 125.176C29.4362 125.31 29.3347 125.485 29.3045 125.701C29.231 126.232 29.2829 126.844 29.46 127.535C30.3022 130.813 31.2913 133.653 32.4273 136.054C35.8654 143.341 40.284 149.934 45.6831 155.834L43.8949 158.128C36.8632 150.599 31.5224 141.98 27.8726 132.271C26.944 129.809 26.4386 127.915 26.3566 126.589C26.2875 125.444 26.4408 124.598 26.8166 124.049C27.512 123.038 28.5983 122.073 30.0755 121.153C35.1851 117.974 40.9945 115.363 47.5036 113.32C47.564 113.301 47.6197 113.27 47.6674 113.229C47.7151 113.187 47.7536 113.137 47.7804 113.08C47.8072 113.023 47.8218 112.962 47.8233 112.899C47.8247 112.837 47.8129 112.775 47.7887 112.718C45.6723 107.668 43.2621 103.191 40.5583 99.2868C38.3101 96.0409 35.6278 93.9482 31.5462 94.4924C28.4622 94.9028 25.9722 95.9416 24.076 97.6088C19.4955 101.632 18.2969 109.802 19.8842 115.484C20.2038 116.633 20.5386 117.801 20.8884 118.989C20.9256 119.113 20.9272 119.246 20.8929 119.371C20.8587 119.496 20.7901 119.609 20.6947 119.698C20.5992 119.787 20.4808 119.847 20.3526 119.873C20.2243 119.899 20.0913 119.889 19.9684 119.844C19.2946 119.598 18.6813 118.916 18.1284 117.797C16.5692 113.115 16.4547 108.506 17.785 103.971C19.9231 96.6758 24.7628 92.5034 32.3042 92.1989C36.0317 92.0434 39.0681 93.4969 41.4135 96.5592C44.7436 100.904 47.6224 106.038 50.0498 111.959C50.1017 112.091 50.2025 112.197 50.3315 112.256C50.4605 112.315 50.6078 112.322 50.7431 112.277C58.1463 109.772 65.6315 108.489 73.1988 108.429C73.4148 108.424 73.525 108.314 73.5293 108.098C73.607 105.887 74.1707 103.893 75.2202 102.118C75.235 102.09 75.2405 102.059 75.2358 102.028C75.2311 101.998 75.2165 101.97 75.1943 101.95C70.1365 97.3971 65.7395 93.6243 62.0033 90.631C56.9066 86.5537 51.4946 83.4632 45.7673 81.3598C39.2841 78.9799 33.1659 77.4012 27.4126 76.6237C22.5017 75.9585 17.6771 76.3041 12.9388 77.6603C10.1659 78.4551 8.14447 80.267 6.87461 83.0961C4.50335 88.3613 3.24644 93.8381 3.10391 99.5265C2.85123 109.672 4.39321 119.183 6.69321 129.465C8.24814 136.406 10.1119 143.501 12.2845 150.749C13.4593 154.666 15.8932 164.117 19.5862 179.1C21.7976 187.704 23.9335 196.342 25.9938 205.016C27.2312 210.199 28.4428 213.872 30.0949 219.016C31.7405 224.122 32.4791 228.787 33.8008 233.905C34.6431 237.157 34.7597 240.053 35.0383 244.038C35.1549 245.742 34.4552 247.199 34.1636 249.001C32.112 261.807 30.5938 272.918 29.609 282.334C28.473 293.128 28.4536 304.052 29.5507 315.105C30.2633 322.296 31.0646 327.743 31.9543 331.444C33.168 336.502 35.2931 343.806 38.3295 353.356C38.3943 353.559 38.5088 353.729 38.6729 353.868C40.7418 355.595 42.9619 357.582 45.3332 359.828C47.4712 361.845 51.4795 364.793 57.358 368.672C56.3905 369.195 55.6368 369.849 55.0969 370.635C49.9397 367.387 44.7415 363.351 39.5022 358.526C38.9666 358.034 38.4894 358.081 38.0704 358.668L30.0949 361.117C27.0822 362.012 22.5146 363.806 22.1842 367.408C22.0632 368.704 22.2015 369.901 22.5988 370.998C23.0351 372.203 24.0436 373.024 25.6245 373.46C27.2917 373.922 29.1231 374.337 31.1186 374.704C32.924 375.036 33.8786 375.971 33.9822 377.509C34.1593 380.127 34.5416 382.178 35.129 383.664L37.714 390.357C38.2712 391.879 39.7095 395.222 41.3876 395.715C43.0721 396.207 44.9531 396.334 47.0307 396.097C50.7625 395.669 54.9349 395.021 55.978 398.922C57.1895 403.483 58.5048 408.744 60.9862 412.968C62.3986 415.365 64.3768 416.43 66.9208 416.162C69.007 415.937 70.8621 415.531 72.4862 414.944C75.6263 413.808 79.2566 412.307 83.3771 410.441C84.6945 409.845 86.0335 409.586 87.3941 409.664C88.9144 409.75 90.1562 410.558 91.1194 412.087C93.1883 415.374 94.9743 417.976 96.4774 419.894C101.725 426.593 108.988 425.906 115.959 422.757C118.305 421.699 120 420.978 121.045 420.594C123.702 419.622 125.302 420.257 127.511 422.11C131.161 425.172 134.543 427.522 137.657 429.159C143.035 431.988 148.3 431.597 153.453 427.986L159.737 422.984C161.417 421.498 163.27 420.524 165.296 420.062C166.566 419.773 168.104 419.784 169.909 420.095C171.559 420.375 173.053 420.773 174.392 421.287C177.83 422.595 180.785 423.615 183.255 424.345C189.173 426.09 194.838 425.414 200.25 422.317C202.388 421.453 204.34 420.267 206.106 418.76C207.242 417.978 208.119 417.091 208.737 416.097C209.575 414.75 210.212 413.307 210.648 411.769L212.929 409.806C216.298 412.454 220.373 414.51 225.154 415.974C229.491 417.3 233.272 417.905 236.499 417.788C240.386 417.639 243.677 417.607 247.351 416.363C247.658 416.259 248.47 415.724 249.787 414.756C250.688 414.095 252.502 413.545 253.784 413.622C259.006 413.953 263.904 413.557 268.213 410.454C271.435 408.139 274.314 405.53 276.849 402.628C278.577 400.649 279.853 398.529 280.678 396.265C281.905 392.905 282.618 389.169 282.816 385.057C283.343 374.06 281.562 363.703 277.471 353.984L279.454 350.887C282.901 358.835 284.972 366.614 285.667 374.224C286.259 380.656 285.943 386.968 284.721 393.162C283.948 397.084 282.302 400.602 279.784 403.716C275.811 408.627 271.01 412.562 265.382 415.521C265.187 415.62 265.127 415.771 265.2 415.974C266.198 418.829 266.883 421.771 267.254 424.798L272.249 465.207L269.301 465.214L266.535 440.425C265.779 434.05 264.824 427.712 263.671 421.41C263.393 419.894 262.81 418.125 262.291 416.661C262.256 416.564 262.189 416.481 262.1 416.428C262.012 416.375 261.908 416.354 261.805 416.369C258.652 416.814 255.575 416.803 252.573 416.337C252.353 416.302 252.167 416.367 252.016 416.531C250.448 418.246 248.67 419.311 246.684 419.725C236.698 421.807 227.171 420.743 218.105 416.531C217.457 416.229 216.641 415.778 215.656 415.177C214.188 414.287 213.382 413.819 213.24 413.771C213.006 413.698 212.862 413.782 212.806 414.024C211.283 420.347 204.292 424.131 198.377 426.489C192.857 428.696 187.188 428.835 181.37 426.904C178.321 425.893 175.403 424.876 172.617 423.852C168.989 422.524 165.568 422.194 162.335 424.785C161.156 425.731 159.461 427.107 157.249 428.912C151.528 433.584 144.434 435.566 137.437 432.275C133.511 430.431 129.494 427.748 125.386 424.228C124.466 423.438 123.384 422.777 122.315 423.263C114.67 426.723 105.386 431.031 97.6372 425.129C93.8081 422.22 91.1 417.697 88.2234 413.201C88.048 412.927 87.7832 412.722 87.4739 412.62C87.1646 412.519 86.8297 412.527 86.5259 412.644L72.065 418.209C66.869 419.68 61.9126 419.848 58.7639 414.892C55.9067 410.402 54.5203 405.012 53.1079 399.809C53.0192 399.481 52.8208 399.193 52.546 398.993C52.2711 398.794 51.9365 398.696 51.5983 398.714C48.212 398.9 46.1344 399.002 45.3656 399.019C42.5926 399.084 39.5605 398.753 37.8825 396.738C37.0748 395.762 36.3103 394.469 35.589 392.858C34.2543 389.86 33.0169 386.748 31.8766 383.521C31.4555 382.316 31.2676 380.82 31.0991 379.887C31.0214 379.455 30.9264 379.453 30.814 379.88L27.5033 392.333C26.4408 392.086 25.5683 391.544 24.8859 390.707L28.2873 377.71C28.3064 377.635 28.3098 377.558 28.2971 377.482C28.2845 377.407 28.2561 377.334 28.2139 377.271C28.1716 377.207 28.1165 377.153 28.0521 377.113C27.9877 377.072 27.9155 377.046 27.8402 377.036C25.0349 376.654 21.1411 375.293 20.085 372.345C18.5301 368.024 19.1132 363.716 23.1949 361.066C26.7712 358.74 31.4295 357.418 35.8287 356.317C36.036 356.265 36.1051 356.137 36.036 355.934C33.5395 348.432 31.2848 340.726 29.2721 332.818C28.6717 330.468 28.216 328.283 27.905 326.261C26.0218 314.046 25.415 301.734 26.0845 289.325C26.2788 285.706 26.6762 281.404 27.2766 276.419C28.0886 269.69 29.2181 261.526 30.665 251.929C30.9847 249.826 31.2633 248.21 31.5008 247.083C31.8593 245.368 31.9889 243.744 31.8895 242.211C31.6822 239.027 31.5634 237.378 31.5332 237.261C30.6132 233.477 29.8876 230.367 29.3563 227.931C28.527 224.148 27.7128 221.128 26.9138 218.874C25.8253 215.79 24.3093 210.847 23.3569 206.823C19.4911 190.432 15.2799 173.632 10.7231 156.424C10.1832 154.381 8.92841 149.867 6.95883 142.883C4.13404 132.863 2.04569 122.624 0.693764 112.167C0.210008 108.392 0.0609923 103.908 0.24672 98.7167C0.467002 92.5186 1.87724 86.7135 4.47742 81.3015C5.42766 79.3232 6.8271 77.6927 8.67574 76.4099C10.0449 75.4554 11.9908 74.7448 14.5132 74.2784C19.1132 73.4275 23.1863 73.1986 26.7324 73.5916C30.015 73.9587 34.1701 74.788 39.1977 76.0795C45.128 77.7942 49.8987 79.5846 53.5095 81.4505C54.5073 81.9688 56.6216 83.3034 59.8524 85.4544C61.9213 86.8323 63.906 88.3202 65.8064 89.9184C70.1818 93.6113 74.2765 97.1315 78.0904 100.479C78.1774 100.554 78.2872 100.598 78.4015 100.603C78.5158 100.607 78.6277 100.573 78.7188 100.505C81.7833 98.2437 84.3814 97.991 88.2622 97.8032C88.3715 97.7974 88.4775 97.7641 88.5704 97.7063C88.6633 97.6485 88.74 97.5682 88.7935 97.4727C90.7026 93.9871 92.2986 90.8124 93.5814 87.9488C94.605 85.6725 95.795 83.6252 97.1512 81.8068C102.706 74.3561 107.643 68.5554 111.962 64.4046C116.519 60.0205 122.38 56.0425 129.546 52.4705C130.85 51.8183 132.396 51.3907 134.184 51.1877C138.817 50.6629 141.408 53.9153 143.197 57.6989C146.039 63.6984 148.298 69.9116 149.973 76.3386Z" fill="#572F4F"/><path d="M147.194 77.401C148.222 81.4827 149.071 85.6076 149.74 89.7757C150.414 93.9783 150.425 98.1701 149.773 102.351C148.944 107.683 144.162 108.713 139.452 109.355C135.638 109.873 132.297 110.264 129.429 110.528C128.06 110.653 124.706 110.847 119.367 111.111C115.174 111.314 110.988 111.672 106.811 112.186C106.595 112.212 106.457 112.121 106.397 111.914C104.488 105.439 100.225 101.122 93.6075 98.9627L92.2016 98.5675C92.1422 98.55 92.0874 98.5195 92.0413 98.4781C91.9951 98.4366 91.9587 98.3853 91.9346 98.3278C91.9105 98.2702 91.8992 98.2079 91.9017 98.1452C91.9042 98.0825 91.9203 98.0209 91.9489 97.965C93.7889 94.488 95.4993 91.0283 97.0802 87.5858C97.728 86.1648 98.9698 84.2708 100.806 81.9039C103.034 79.0186 105.228 76.2845 107.388 73.7016C110.148 70.3974 112.532 67.8382 114.541 66.0241C118.437 62.5083 122.933 59.3271 128.03 56.4808C129.913 55.4269 131.794 54.6645 133.673 54.1937C135.902 53.6365 137.692 54.3622 139.044 56.3706C140.128 57.9774 141.046 59.7094 141.797 61.5667C143.897 66.7368 145.695 72.0149 147.194 77.401Z" fill="#FFA5ED"/><path d="M18.1282 117.797C17.8518 120.186 18.0786 122.779 18.8085 125.578C20.2814 131.228 21.372 135.212 22.0803 137.532C23.8685 143.384 25.7063 149.222 27.5939 155.044C22.4043 159.508 21.0178 165.773 20.344 172.245C20.1108 174.496 19.8581 176.781 19.586 179.1C15.893 164.117 13.4591 154.666 12.2843 150.749C10.1117 143.501 8.24795 136.406 6.69302 129.465C4.39302 119.183 2.85104 109.672 3.10371 99.5265C3.24625 93.8381 4.50316 88.3613 6.87442 83.0961C8.14428 80.267 10.1657 78.4551 12.9386 77.6604C17.6769 76.3041 22.5015 75.9586 27.4124 76.6237C33.1657 77.4012 39.2839 78.9799 45.7671 81.3598C51.4944 83.4633 56.9064 86.5537 62.0031 90.6311C65.7393 93.6243 70.1363 97.3972 75.1941 101.95C75.2163 101.97 75.2309 101.998 75.2356 102.028C75.2403 102.059 75.2348 102.09 75.22 102.118C74.1705 103.893 73.6068 105.887 73.5291 108.098C73.5248 108.314 73.4146 108.424 73.1986 108.429C65.6313 108.489 58.1461 109.772 50.7429 112.277C50.6076 112.322 50.4603 112.315 50.3313 112.256C50.2023 112.197 50.1015 112.091 50.0496 111.96C47.6222 106.038 44.7434 100.904 41.4133 96.5592C39.0679 93.4969 36.0315 92.0435 32.304 92.1989C24.7626 92.5035 19.9229 96.6758 17.7848 103.971C16.4545 108.506 16.569 113.115 18.1282 117.797Z" fill="#F4BAB8"/><path d="M265.997 77.0125L266.6 80.5953C268.621 90.9745 270.651 101.354 272.69 111.733C273.835 117.551 275.068 126.824 276.39 139.553C276.467 140.283 276.681 140.87 277.031 141.315C277.571 142.006 277.979 142.497 278.256 142.786C279.53 144.134 281.525 147.373 284.242 152.504C285.771 155.39 287.484 159.145 289.38 163.771C293.332 173.412 296.643 182.884 297.265 192.46C297.722 199.53 297.744 205.584 297.329 210.62C296.854 216.39 296.025 222.504 294.841 228.962C292.438 242.036 289.639 254.307 286.425 266.792C284.084 275.879 281.19 284.727 277.744 293.336C274.906 300.419 271.273 306.991 266.846 313.051C264.427 316.364 261.747 319.128 258.806 321.344C258.76 321.378 258.723 321.423 258.698 321.474C258.672 321.525 258.659 321.581 258.659 321.639C258.659 321.696 258.672 321.752 258.698 321.803C258.723 321.854 258.76 321.899 258.806 321.933C260.84 323.445 262.728 325.171 264.468 327.11C270.826 334.202 275.822 342.128 279.454 350.887L277.472 353.984C273.649 344.059 268.064 335.217 260.717 327.46C259.326 325.991 255.832 323.346 250.234 319.523L253.04 317.852L255.767 319.763C255.949 319.888 256.117 319.873 256.273 319.718C257.581 318.376 259.311 317.327 260.478 316.057C267.403 308.483 272.295 299.238 276.15 289.312C278.357 283.637 280.409 277.333 282.305 270.4C286.469 255.162 289.833 240.263 292.399 225.703C293.34 220.373 294.047 214.702 294.517 208.689C295.191 200.089 294.695 191.848 293.027 183.966C291.459 176.528 288.35 168.941 285.285 161.659C283.372 157.124 281.074 152.621 278.392 148.151C276.986 145.812 275.301 143.952 273.83 141.885C273.703 141.711 273.623 141.506 273.597 141.289L273.28 138.86C272.567 130.558 271.554 122.691 270.241 115.257C267.98 102.468 265.363 89.7564 263.017 76.9736L265.997 77.0125Z" fill="#321B2D"/><path d="M218.643 94.6542L220.535 103.738C220.541 103.772 220.538 103.808 220.525 103.841C220.512 103.874 220.49 103.902 220.462 103.923C220.433 103.944 220.4 103.957 220.365 103.96C220.329 103.962 220.294 103.955 220.263 103.938C213.434 100.138 206.273 96.8895 198.779 94.1943C198.641 94.1436 198.493 94.1238 198.347 94.1361C198.2 94.1484 198.058 94.1926 197.93 94.2655C197.641 94.4297 197.608 94.827 197.833 95.4576C198.058 96.1012 198.861 96.6886 200.243 97.2199C212.367 101.919 224.375 108.482 236.266 116.909C243.289 121.889 249.394 126.98 254.581 132.18C249.99 132.543 245.63 132.979 241.501 133.489C239.691 133.713 237.829 133.73 235.916 133.54C232.307 132.413 230.448 130.469 227.616 127.437C224.645 124.254 220.49 121.479 215.151 119.112C210.085 116.87 204.837 115.886 199.407 116.158C191.549 116.553 185.264 121.282 181.267 127.865C179.763 130.34 178.096 133.75 176.265 138.095C174.753 141.689 173.658 144.794 172.98 147.412C172.138 150.664 172.183 154.804 172.112 158.704C172.103 159.128 171.952 159.184 171.658 158.873C171.179 158.363 167.559 154.523 160.8 147.353C158.493 144.909 155.917 142.535 153.07 140.233C150.95 138.518 148.27 136.868 145.03 135.283C140.646 133.141 136.23 132.26 131.781 132.64C124.529 133.266 118.018 136.102 112.247 141.147C108.433 144.485 104.935 148.051 101.751 151.843C98.4514 155.782 95.6504 159.922 93.3482 164.263C92.5664 165.745 91.6616 168.051 90.6336 171.183C89.8561 173.545 89.0203 175.882 88.1263 178.193C86.2128 182.629 83.4399 186.456 79.8074 189.673C77.4318 191.773 75.1016 193.721 72.8167 195.517C70.1431 197.625 68.2124 199.241 67.0246 200.364C63.5648 203.635 61.7249 205.482 59.6387 208.52L54.1187 196.386C56.5418 188.952 59.5004 181.698 62.9947 174.623C63.0228 174.568 63.0616 174.519 63.1088 174.478C63.1561 174.438 63.2109 174.408 63.27 174.389C63.3291 174.371 63.3914 174.364 63.4531 174.37C63.5149 174.375 63.5749 174.393 63.6296 174.422C66.3572 175.867 69.4801 177.286 72.104 174.843C73.1752 173.841 74.1038 172.563 74.8899 171.008C76.5096 167.816 78.3021 163.607 80.2674 158.38C84.4311 147.31 87.135 140.047 88.3789 136.592C89.5257 133.385 91.1908 130.385 91.9423 127.366C92.0028 127.133 92.1496 127.042 92.3829 127.094C96.9224 128.087 100.682 126.88 103.663 123.472C105.559 121.304 106.537 118.745 106.598 115.795C106.602 115.38 106.811 115.145 107.226 115.089C110.573 114.657 115.007 114.303 120.527 114.026C126.47 113.732 130.245 113.503 131.852 113.339C135.437 112.972 139.182 112.443 143.087 111.752C144.715 111.463 146.345 110.864 147.978 109.957C152.105 107.657 153.058 103.09 153.2 98.6906C153.308 95.1963 153.04 91.6243 152.397 87.9745C152.386 87.9157 152.387 87.8553 152.401 87.7969C152.414 87.7385 152.439 87.6833 152.475 87.6349C152.511 87.5864 152.556 87.5455 152.609 87.5148C152.661 87.4841 152.719 87.4642 152.779 87.4562C157.958 86.8127 163.357 86.3872 168.976 86.1799C173.533 86.0158 177.574 86.1648 181.098 86.6269C181.832 86.7263 182.418 86.56 182.854 86.1281C182.926 86.0579 182.981 85.9714 183.013 85.8758C183.046 85.7801 183.056 85.6779 183.042 85.5774L182.77 83.3745C191.672 83.2104 200.107 85.0115 208.076 88.7779C211.7 90.4927 215.222 92.4514 218.643 94.6542Z" fill="#F0C6AA"/><path d="M43.895 158.128C48.9054 163.864 54.529 168.812 60.766 172.971C60.969 173.105 61.0144 173.282 60.9021 173.502C57.1141 180.78 54.1014 188.367 51.864 196.263C50.9052 196.984 49.6914 196.872 48.2229 195.926C47.5448 195.485 46.9185 194.872 46.344 194.086C43.8561 190.691 41.744 187.354 40.0077 184.076C37.0792 178.543 34.2998 172.712 31.6694 166.583C31.0345 165.11 30.3391 163.192 29.5832 160.83C28.9569 158.886 28.2939 156.957 27.5942 155.044C25.7067 149.222 23.8688 143.384 22.0807 137.532C21.3723 135.212 20.2817 131.228 18.8088 125.578C18.0789 122.779 17.8521 120.185 18.1285 117.797C18.6814 118.916 19.2947 119.598 19.9685 119.844C20.0914 119.889 20.2244 119.899 20.3527 119.873C20.4809 119.847 20.5994 119.787 20.6948 119.698C20.7902 119.609 20.8589 119.496 20.8931 119.371C20.9273 119.246 20.9257 119.113 20.8885 118.989C20.5387 117.801 20.2039 116.633 19.8843 115.484C18.297 109.802 19.4956 101.632 24.0761 97.6088C25.9723 95.9416 28.4623 94.9028 31.5463 94.4924C35.628 93.9482 38.3102 96.0409 40.5584 99.2868C43.2622 103.191 45.6724 107.668 47.7888 112.718C47.813 112.775 47.8248 112.837 47.8234 112.899C47.822 112.962 47.8074 113.023 47.7805 113.08C47.7537 113.137 47.7152 113.187 47.6675 113.229C47.6199 113.27 47.5641 113.301 47.5037 113.32C40.9946 115.363 35.1853 117.974 30.0756 121.153C28.5984 122.073 27.5121 123.038 26.8167 124.049C26.4409 124.598 26.2876 125.444 26.3567 126.589C26.4388 127.915 26.9441 129.809 27.8728 132.271C31.5225 141.98 36.8633 150.599 43.895 158.128Z" fill="#DA9F9A"/><path d="M92.791 101.807C96.553 102.973 99.4167 105.021 101.382 107.949C104.414 112.484 104.816 118.769 100.339 122.578C93.5166 128.377 83.3318 119.475 79.3667 114.402C77.8377 112.219 76.3087 109.497 76.6197 106.997C76.7493 105.982 76.8789 105.319 77.0084 105.008C77.3022 104.295 77.8745 103.917 78.7253 103.874C78.9413 103.861 79.1421 103.798 79.3279 103.686C80.6236 102.908 81.8741 101.762 83.4355 101.334C86.5151 100.496 89.6336 100.654 92.791 101.807Z" fill="#FFA5ED"/><path d="M76.5487 115.607C79.9609 120.099 84.1765 123.615 89.1955 126.155C89.2735 126.192 89.3335 126.259 89.3626 126.341C89.3916 126.424 89.3875 126.515 89.3509 126.595C87.6362 130.457 86.537 133.05 86.0532 134.376C82.9131 142.98 79.7946 151.303 76.6977 159.346C74.9527 163.868 73.4367 167.382 72.1495 169.887C71.4282 171.291 70.6162 172.308 69.7135 172.939C69.0785 173.386 68.0031 173.178 67.2709 172.854C58.5569 168.935 52.0585 162.981 45.6833 155.834C40.2843 149.934 35.8657 143.341 32.4276 136.054C31.2916 133.653 30.3025 130.813 29.4602 127.535C29.2832 126.844 29.2313 126.232 29.3047 125.701C29.335 125.485 29.4365 125.31 29.6093 125.176C31.8509 123.47 33.2353 122.483 33.7622 122.215C40.4139 118.799 48.0201 115.933 56.5808 113.618C62.1397 112.115 67.7482 111.374 73.4064 111.396C73.6406 111.396 73.8702 111.458 74.0717 111.575C74.2732 111.692 74.4393 111.861 74.5532 112.063L76.5487 115.607Z" fill="#FFA5ED"/><path d="M235.916 133.541C238.36 137.16 240.913 140.682 243.574 144.108C247.059 148.604 249.413 151.869 250.636 153.904C256.497 163.674 260.209 174.165 261.773 185.378C263.436 197.316 263.235 209.339 261.17 221.446C260.626 221.256 260.056 221.215 259.46 221.323C259.329 221.346 259.206 221.401 259.101 221.483C258.997 221.566 258.915 221.673 258.862 221.796C258.809 221.918 258.788 222.052 258.8 222.186C258.811 222.319 258.855 222.448 258.929 222.56C260.172 224.439 261.11 226.569 261.74 228.948C262.984 233.618 263.539 238.302 263.405 243.001C263.289 247.217 262.406 251.24 260.756 255.071C258.864 255.158 257.654 255.311 257.127 255.531C252.294 257.566 247.219 258.803 241.902 259.244C243.82 256.25 245.096 252.838 245.731 249.007C246.007 247.335 245.928 245.815 245.491 244.446C245.427 244.239 245.452 244.044 245.569 243.863C246.498 242.39 247.025 240.673 247.15 238.712C248.817 234.591 248.832 229.795 247.195 224.322C245.126 217.407 242.515 211.648 239.362 207.043C237.362 204.124 233.67 200.372 228.283 195.79C227.458 195.09 226.832 195.172 226.405 196.036C226.392 196.062 226.37 196.109 226.34 196.178C225.973 197.094 226.176 197.876 226.949 198.524C231.311 202.165 234.92 206.056 237.775 210.199C238.436 211.157 239.218 212.537 240.12 214.339C241.204 216.485 241.921 217.96 242.271 218.764C243.792 222.254 244.85 226.238 245.446 230.717C243.39 226.108 240.446 222.66 236.615 220.37C231.439 217.28 226.599 214.837 220.308 215.634C219.25 215.768 217.446 216.125 214.898 216.703C213.356 217.053 211.542 217.36 209.456 217.623C203.646 218.349 198.448 219.83 193.861 222.068C193.222 222.379 192.609 222.8 192.021 223.331C189.24 225.845 186.873 228.441 184.92 231.119C182.407 234.561 181.113 238.205 181.039 242.049C180.988 244.835 181.288 247.774 181.94 250.866C182.549 253.743 183.264 255.79 184.085 257.008C185.506 259.116 187.667 260.546 190.57 261.297C191.918 261.647 192.827 261.9 193.298 262.055C193.483 262.116 193.617 262.237 193.699 262.418C195.172 265.77 197.556 268.476 200.852 270.536C198.99 271.227 197.17 271.908 195.39 272.577C193.632 273.242 192.073 273.964 190.712 274.741C188.799 275.834 187.242 276.577 186.041 276.97C184.378 277.514 183.268 277.814 182.711 277.87C176.435 278.523 170.278 279.786 164.24 281.661C163.95 281.781 163.665 281.775 163.385 281.641C156.742 278.54 150.243 274.607 143.89 269.843C138.946 266.131 135.428 262.904 130.18 260.902C130.022 260.842 129.854 260.815 129.685 260.822C129.516 260.829 129.351 260.871 129.199 260.945C129.047 261.018 128.912 261.122 128.802 261.249C128.693 261.377 128.61 261.526 128.561 261.686L128.489 261.913C128.412 262.159 128.436 262.425 128.555 262.653C128.674 262.882 128.879 263.053 129.124 263.131L131.34 263.824C131.448 263.858 131.539 263.931 131.598 264.029C131.656 264.126 131.677 264.243 131.658 264.355C130.912 268.463 132.513 273.277 134.094 277.061C138.758 288.191 144.851 298.698 152.37 308.58C155.066 312.118 158.672 316.422 163.19 321.493C165.51 324.097 168.613 327.064 172.5 330.395C174.466 332.075 178.349 335.563 184.149 340.858C185.972 342.521 188.451 344.188 191.587 345.86C191.781 345.963 191.889 346.123 191.911 346.339C191.937 346.646 191.866 346.968 191.697 347.304L189.721 354.477C175.435 354.995 162.4 355.954 148.619 359.051C146.689 357.081 144.678 355.155 142.587 353.271C139.549 350.531 135.992 347.842 131.658 345.801C131.545 345.75 129.081 344.523 124.265 342.121C123.133 341.556 122.52 340.769 122.425 339.763L124.077 340.45C124.211 340.504 124.354 340.532 124.498 340.531C124.642 340.53 124.785 340.5 124.917 340.443C125.05 340.387 125.17 340.304 125.27 340.201C125.371 340.097 125.45 339.975 125.503 339.841C125.77 339.167 125.546 338.664 124.829 338.331C118.838 335.541 113.763 332.993 109.603 330.686C103.289 327.188 97.3087 323.188 91.6634 318.687C93.1017 315.042 93.9354 311.671 94.1643 308.574C94.5141 303.896 94.4537 298.393 93.9829 292.066C93.0629 279.71 91.7736 267.439 91.3719 254.948C91.0177 243.986 90.5879 233.024 90.0826 222.061C89.8148 216.33 89.7802 207.061 89.9789 194.254C90.0567 189.019 89.439 183.665 88.126 178.193C89.0201 175.882 89.8558 173.545 90.6333 171.183C91.6613 168.051 92.5662 165.745 93.3479 164.263C95.6501 159.923 98.4511 155.782 101.751 151.843C104.934 148.051 108.433 144.485 112.247 141.147C118.017 136.102 124.529 133.266 131.781 132.64C136.229 132.26 140.646 133.141 145.03 135.283C148.269 136.869 150.949 138.518 153.07 140.233C155.917 142.535 158.493 144.909 160.799 147.353C167.559 154.523 171.179 158.363 171.658 158.873C171.952 159.184 172.103 159.128 172.112 158.704C172.183 154.804 172.138 150.664 172.98 147.412C173.658 144.794 174.753 141.689 176.265 138.095C178.096 133.75 179.763 130.34 181.266 127.865C185.264 121.282 191.548 116.553 199.407 116.158C204.836 115.886 210.084 116.87 215.151 119.112C220.489 121.479 224.644 124.254 227.616 127.437C230.447 130.47 232.307 132.413 235.916 133.541ZM228.109 149.096C224.942 148.928 221.884 149.289 218.934 150.178L217.282 146.466C217.226 146.349 217.107 146.261 216.926 146.2L216.77 146.148C216.632 146.101 216.484 146.096 216.343 146.134C216.202 146.172 216.073 146.252 215.97 146.365C215.867 146.478 215.795 146.619 215.76 146.774C215.725 146.929 215.729 147.091 215.773 147.243L216.796 150.897C213.57 152.349 210.467 154.221 208.73 157.376L206.65 156.1C206.309 155.893 205.985 155.919 205.679 156.178C205.579 156.26 205.51 156.363 205.471 156.489C205.312 156.998 205.463 157.387 205.925 157.655C206.698 158.108 207.24 158.633 207.551 159.229C206.497 161.376 206.029 163.626 206.145 165.98L203.463 165.669C203.031 165.622 202.791 165.812 202.744 166.239L202.705 166.57C202.657 166.954 202.817 167.209 203.184 167.334L206.016 168.306C206.283 171.153 206.955 173.25 208.03 174.597C209.564 176.524 211.045 178.07 212.475 179.236C215.909 182.028 220.742 183.376 225.303 182.845C233.356 181.905 243.392 176.159 244.027 167.133C244.273 163.708 243.34 160.523 241.228 157.577C240.554 156.636 239.814 155.672 239.006 154.688L241.565 151.247C241.846 150.872 241.898 150.461 241.721 150.016C241.695 149.956 241.658 149.904 241.61 149.861C241.209 149.52 240.909 149.461 240.71 149.686L237.594 153.256C235.382 151.303 232.851 149.995 230 149.33L230.298 145.753C230.308 145.657 230.294 145.561 230.257 145.472C230.221 145.382 230.164 145.303 230.09 145.24C230.017 145.177 229.929 145.133 229.834 145.111C229.74 145.088 229.641 145.089 229.547 145.112C229.003 145.25 228.653 145.65 228.497 146.31C228.286 147.196 228.156 148.124 228.109 149.096ZM120.896 181.465C117.734 182.38 114.815 183.605 112.137 185.138C110.694 184.43 109.508 183.419 108.58 182.106C108.403 181.864 108.221 181.72 108.036 181.672C107.763 181.607 107.522 181.659 107.31 181.828C107.133 181.966 107.057 182.147 107.083 182.372C107.191 183.275 107.584 184.033 108.262 184.646C108.919 185.233 109.621 185.832 110.368 186.441C108.243 187.957 106.5 189.771 105.139 191.883C104.163 191.498 103.116 190.79 101.997 189.758C101.905 189.674 101.8 189.606 101.687 189.559C101.574 189.513 101.458 189.488 101.345 189.488C101.232 189.487 101.126 189.51 101.034 189.556C100.942 189.601 100.866 189.668 100.812 189.751C100.751 189.838 100.714 189.924 100.701 190.01C100.602 190.593 100.656 190.965 100.863 191.125L104.058 193.535C103.712 195.107 103.738 196.321 104.135 197.176C105.548 200.23 107.91 202.972 111.223 205.404C112.549 206.376 113.97 207.054 115.486 207.439C126.155 210.129 135.048 207.659 142.166 200.027C143.313 198.802 144.687 196.463 144.991 194.902C145.168 193.991 145.006 192.956 144.505 191.799C143.689 189.911 142.689 188.326 141.505 187.043L142.516 184.315C142.533 184.264 142.542 184.211 142.542 184.16C142.559 183.676 142.419 183.361 142.121 183.214C141.624 182.972 141.251 183.1 141 183.596C140.529 184.538 140.063 185.222 139.601 185.65C138.231 184.164 136.512 183.238 134.443 182.871L135.668 179.197C135.689 179.133 135.7 179.065 135.7 178.996C135.7 178.392 135.556 178.063 135.266 178.012C134.718 177.908 134.357 178.046 134.184 178.426L132.493 182.171L123.261 181.497L121.68 178.161C121.636 178.067 121.569 177.986 121.486 177.925C121.402 177.864 121.304 177.824 121.201 177.811C120.972 177.78 120.736 177.809 120.494 177.895C120.398 177.927 120.315 177.989 120.255 178.072C120.196 178.154 120.164 178.253 120.164 178.355C120.173 179.171 120.417 180.208 120.896 181.465Z" fill="#FFEEDF"/><path d="M254.582 132.18C255.13 132.841 255.862 133.433 256.778 133.955C257.352 134.279 257.92 133.925 258.482 132.893C263.354 133.532 268.287 135.521 273.28 138.86L273.597 141.289C273.623 141.506 273.703 141.711 273.83 141.885C275.301 143.952 276.986 145.811 278.392 148.15C281.074 152.621 283.372 157.124 285.285 161.659C288.35 168.941 291.459 176.528 293.027 183.966C294.695 191.848 295.191 200.089 294.517 208.689C294.047 214.701 293.34 220.373 292.399 225.702C289.833 240.263 286.468 255.162 282.305 270.4C280.409 277.333 278.357 283.637 276.15 289.312C272.295 299.238 267.403 308.483 260.477 316.057C259.311 317.327 257.581 318.376 256.273 319.717C256.117 319.873 255.949 319.888 255.767 319.763L253.04 317.851L251.407 316.601C251.326 316.539 251.261 316.458 251.221 316.365C251.18 316.272 251.164 316.17 251.174 316.07C252.042 307.509 252.217 299.41 251.699 291.774C251.435 287.826 251.04 284.876 250.513 282.924C249.688 279.862 248.982 277.188 248.394 274.903C248.356 274.759 248.364 274.606 248.416 274.466C248.468 274.326 248.562 274.205 248.686 274.119C255.394 269.411 260.199 263.325 263.101 255.862C264.704 251.737 265.617 247.536 265.842 243.26C266.231 235.74 264.674 228.469 261.171 221.446C263.235 209.339 263.436 197.316 261.773 185.378C260.21 174.165 256.497 163.674 250.636 153.904C249.414 151.869 247.06 148.604 243.574 144.108C240.913 140.682 238.361 137.16 235.916 133.54C237.829 133.731 239.691 133.713 241.501 133.489C245.63 132.979 249.99 132.543 254.582 132.18Z" fill="#FFE4E1"/><path d="M230.001 149.33C229.854 150.111 229.878 150.952 230.072 151.85C230.12 152.075 230.249 152.226 230.461 152.303C232.465 153.059 234.322 154.066 236.033 155.323C236.201 155.448 236.355 155.428 236.493 155.264C237.076 154.569 237.443 153.899 237.594 153.256L240.711 149.686C240.909 149.461 241.209 149.52 241.611 149.861C241.659 149.904 241.695 149.956 241.721 150.016C241.898 150.461 241.846 150.872 241.566 151.247L239.007 154.688C238.441 155.262 238.028 156.001 237.769 156.903C237.704 157.119 237.741 157.314 237.879 157.487C240.251 160.519 241.728 163.868 241.196 167.678C240.374 173.58 233.584 177.986 228.29 179.638C221.941 181.62 215.715 178.698 211.471 174.066C210.612 173.129 209.893 171.701 209.314 169.783C209.242 169.549 209.096 169.346 208.899 169.207C208.053 168.606 207.092 168.306 206.016 168.306L203.185 167.334C202.818 167.209 202.658 166.954 202.705 166.57L202.744 166.239C202.792 165.812 203.032 165.622 203.463 165.669L206.146 165.98C206.798 166.313 207.526 166.531 208.329 166.635C208.562 166.661 208.683 166.559 208.692 166.33C208.778 164.585 209.117 162.879 209.709 161.212C209.787 160.992 209.731 160.812 209.541 160.674L207.552 159.229C207.241 158.633 206.699 158.109 205.925 157.655C205.463 157.387 205.312 156.998 205.472 156.489C205.511 156.364 205.58 156.26 205.679 156.178C205.986 155.919 206.31 155.893 206.651 156.1L208.731 157.376L210.616 158.912C210.681 158.965 210.757 159.005 210.837 159.028C210.918 159.052 211.003 159.059 211.087 159.048C211.17 159.038 211.251 159.011 211.324 158.969C211.397 158.926 211.46 158.869 211.51 158.802C212.815 157.035 214.266 155.502 215.864 154.202C216.404 153.761 216.739 153.28 216.868 152.757C217.024 152.135 217 151.515 216.797 150.898L215.773 147.243C215.73 147.091 215.726 146.929 215.76 146.774C215.795 146.619 215.868 146.478 215.971 146.365C216.073 146.252 216.202 146.172 216.343 146.134C216.484 146.096 216.632 146.101 216.771 146.148L216.927 146.2C217.108 146.261 217.227 146.349 217.283 146.466L218.935 150.178C218.84 150.878 218.888 151.543 219.078 152.174C219.142 152.403 219.287 152.474 219.512 152.388C222.09 151.377 224.757 151.124 227.513 151.63C227.746 151.673 227.874 151.576 227.895 151.338L228.109 149.096C228.157 148.125 228.286 147.196 228.498 146.31C228.653 145.65 229.003 145.25 229.547 145.112C229.642 145.089 229.74 145.088 229.835 145.111C229.93 145.133 230.017 145.177 230.091 145.24C230.165 145.303 230.222 145.382 230.258 145.472C230.294 145.561 230.308 145.657 230.299 145.753L230.001 149.33ZM234.769 174.17C238.223 171.649 240.685 167.607 239.045 163.279C236.424 156.342 231.413 153.027 224.014 153.334C220.486 153.476 217.473 154.873 214.976 157.525C212.804 159.832 211.553 161.508 211.225 162.553C210.34 165.365 210.5 168.095 211.705 170.742C211.795 170.937 211.843 170.926 211.847 170.71C211.86 169.345 211.882 168.252 211.912 167.432C211.951 166.33 212.134 165.274 212.463 164.263C214.445 158.152 218.713 155.135 225.265 155.212C233.124 155.303 238.171 161.575 237.18 169.168C237.085 169.915 236.739 170.751 236.143 171.675C235.283 173.01 234.784 173.805 234.646 174.059C234.521 174.284 234.562 174.321 234.769 174.17ZM222.537 164.427C222.394 164.177 222.195 163.963 221.952 163.796C221.708 163.629 221.425 163.513 221.118 163.455C220.812 163.396 220.487 163.396 220.164 163.454C219.84 163.513 219.524 163.628 219.233 163.795C218.646 164.131 218.197 164.654 217.986 165.249C217.774 165.843 217.818 166.46 218.106 166.964C218.249 167.213 218.448 167.428 218.691 167.595C218.935 167.761 219.218 167.877 219.525 167.936C219.831 167.995 220.156 167.995 220.479 167.936C220.803 167.878 221.119 167.762 221.41 167.596C221.997 167.259 222.446 166.736 222.657 166.142C222.869 165.548 222.825 164.931 222.537 164.427Z" fill="#0C0508"/><path d="M228.108 149.096L227.895 151.338C227.873 151.576 227.746 151.673 227.512 151.63C224.757 151.124 222.089 151.377 219.511 152.388C219.286 152.474 219.142 152.403 219.077 152.174C218.887 151.543 218.839 150.878 218.934 150.178C221.884 149.289 224.942 148.928 228.108 149.096Z" fill="#64554C"/><path d="M237.594 153.256C237.443 153.899 237.076 154.569 236.493 155.264C236.355 155.428 236.201 155.448 236.033 155.323C234.322 154.066 232.465 153.059 230.461 152.303C230.249 152.226 230.12 152.074 230.072 151.85C229.878 150.951 229.854 150.111 230.001 149.33C232.852 149.995 235.383 151.303 237.594 153.256Z" fill="#64554C"/><path d="M216.797 150.897C217 151.515 217.023 152.135 216.868 152.757C216.738 153.28 216.404 153.761 215.864 154.202C214.266 155.502 212.814 157.035 211.51 158.802C211.46 158.869 211.396 158.926 211.324 158.968C211.251 159.011 211.17 159.038 211.086 159.048C211.003 159.059 210.918 159.052 210.837 159.028C210.756 159.005 210.681 158.965 210.616 158.912L208.73 157.376C210.467 154.221 213.57 152.349 216.797 150.897Z" fill="#64554C"/><path d="M27.5938 155.044C28.2935 156.957 28.9565 158.886 29.5828 160.83C30.3387 163.192 31.0341 165.11 31.669 166.583C34.2995 172.712 37.0789 178.543 40.0073 184.076C41.7437 187.354 43.8558 190.691 46.3437 194.086C46.9181 194.872 47.5444 195.485 48.2226 195.926C49.6911 196.872 50.9048 196.984 51.8637 196.263C52.801 196.725 53.5525 196.766 54.1183 196.386L59.6383 208.521C58.0143 210.875 56.6235 213.38 55.4659 216.036C52.7189 222.338 50.948 228.905 50.1533 235.738C49.2376 243.556 49.1987 251.383 50.0366 259.218C50.65 264.954 52.125 270.754 54.4617 276.62C53.6756 282.961 53.0817 289.262 52.68 295.525C52.1034 304.512 52.9845 313.426 55.6214 322.108C58.7054 332.261 63.5904 342.724 69.6093 352.248C73.0086 357.625 77.1961 362.443 82.1719 366.702C84.4481 368.655 88.5211 371.65 94.391 375.688C102.701 381.407 110.411 386.389 117.521 390.635C120.57 392.458 123.693 394.81 126.889 397.691C107.5 394.525 89.4757 388.128 72.8164 378.5C68.1213 375.788 62.9685 372.512 57.3578 368.672C51.4793 364.793 47.471 361.845 45.333 359.828C42.9617 357.582 40.7416 355.595 38.6727 353.868C38.5086 353.729 38.3941 353.559 38.3293 353.356C35.2929 343.806 33.1678 336.502 31.9541 331.444C31.0643 327.743 30.2631 322.296 29.5504 315.105C28.4534 304.052 28.4728 293.128 29.6088 282.334C30.5935 272.918 32.1118 261.807 34.1634 249.001C34.455 247.199 35.1547 245.742 35.0381 244.038C34.7595 240.053 34.6428 237.157 33.8006 233.905C32.4789 228.786 31.7403 224.122 30.0947 219.016C28.4426 213.872 27.231 210.199 25.9935 205.015C23.9333 196.342 21.7974 187.704 19.5859 179.1C19.8581 176.781 20.1107 174.496 20.344 172.245C21.0178 165.773 22.4042 159.508 27.5938 155.044Z" fill="#F3BEB4"/><path d="M234.646 174.059C234.784 173.805 235.283 173.01 236.142 171.675C236.738 170.751 237.084 169.915 237.179 169.168C238.17 161.575 233.123 155.303 225.264 155.212C218.712 155.135 214.445 158.152 212.462 164.263C212.134 165.274 211.95 166.33 211.911 167.431C211.881 168.252 211.86 169.345 211.847 170.71C211.842 170.926 211.795 170.937 211.704 170.742C210.499 168.094 210.339 165.365 211.225 162.553C211.553 161.508 212.803 159.832 214.976 157.525C217.472 154.873 220.485 153.476 224.014 153.333C231.413 153.027 236.423 156.342 239.045 163.279C240.684 167.606 238.222 171.649 234.769 174.169C234.562 174.321 234.521 174.284 234.646 174.059Z" fill="white"/><path d="M239.006 154.688C239.814 155.672 240.555 156.635 241.228 157.577C243.34 160.523 244.273 163.708 244.027 167.133C243.392 176.158 233.356 181.905 225.303 182.845C220.742 183.376 215.909 182.028 212.475 179.236C211.045 178.07 209.564 176.523 208.031 174.597C206.955 173.249 206.283 171.152 206.016 168.306C207.091 168.306 208.052 168.606 208.899 169.207C209.096 169.345 209.242 169.548 209.313 169.783C209.892 171.701 210.611 173.129 211.471 174.066C215.715 178.698 221.941 181.62 228.29 179.638C233.583 177.986 240.373 173.58 241.196 167.678C241.727 163.868 240.25 160.518 237.879 157.486C237.741 157.314 237.704 157.119 237.769 156.903C238.028 156.001 238.44 155.262 239.006 154.688Z" fill="#64554C"/><path d="M206.145 165.98C206.029 163.626 206.497 161.376 207.551 159.229L209.54 160.674C209.73 160.812 209.786 160.992 209.709 161.212C209.117 162.879 208.778 164.585 208.692 166.33C208.683 166.559 208.562 166.661 208.329 166.635C207.525 166.531 206.798 166.313 206.145 165.98Z" fill="#64554C"/><path d="M221.409 167.595C222.633 166.895 223.137 165.476 222.536 164.427C221.935 163.377 220.456 163.094 219.233 163.795C218.009 164.495 217.505 165.914 218.106 166.964C218.707 168.013 220.186 168.296 221.409 167.595Z" fill="white"/><path d="M91.6639 318.687C84.5846 313.206 77.9697 306.751 71.8191 299.322C71.1971 298.57 70.4477 298.588 69.5709 299.374C68.3529 297.668 66.9837 296.035 65.4633 294.476C63.2087 292.169 61.7768 290.601 61.1678 289.772C59.5611 287.595 58.2286 285.349 57.1704 283.034C56.7643 282.144 55.8616 280.006 54.4622 276.62C52.1255 270.754 50.6504 264.954 50.0371 259.218C49.1992 251.383 49.238 243.556 50.1537 235.738C50.9485 228.905 52.7194 222.338 55.4664 216.036C56.624 213.38 58.0148 210.874 59.6388 208.52C61.725 205.482 63.565 203.635 67.0247 200.364C68.2125 199.241 70.1432 197.625 72.8168 195.517C75.1017 193.721 77.432 191.773 79.8075 189.673C83.44 186.456 86.213 182.629 88.1264 178.193C89.4395 183.665 90.0571 189.019 89.9794 194.254C89.7807 207.061 89.8152 216.33 90.083 222.061C90.5884 233.024 91.0181 243.986 91.3723 254.948C91.774 267.439 93.0633 279.71 93.9833 292.066C94.4541 298.393 94.5146 303.896 94.1647 308.574C93.9358 311.671 93.1022 315.042 91.6639 318.687Z" fill="#FFE4E1"/><path d="M123.261 181.497C123.214 182.205 123.412 182.778 123.857 183.214C124.203 183.551 124.721 183.726 125.412 183.739C127.243 183.778 129.025 183.989 130.757 184.374C130.921 184.41 131.092 184.396 131.248 184.334C131.404 184.271 131.538 184.163 131.632 184.024C132.02 183.454 132.308 182.836 132.493 182.171L134.184 178.426C134.357 178.046 134.718 177.908 135.266 178.011C135.556 178.063 135.7 178.392 135.7 178.996C135.7 179.065 135.69 179.133 135.668 179.197L134.444 182.871C134.063 183.518 133.856 184.164 133.822 184.808C133.809 185.037 133.91 185.194 134.126 185.281C135.534 185.847 136.852 186.555 138.078 187.406C138.264 187.531 138.417 187.499 138.538 187.309L139.601 185.65C140.063 185.222 140.529 184.538 141 183.596C141.251 183.1 141.624 182.972 142.121 183.214C142.419 183.361 142.559 183.676 142.542 184.16C142.542 184.211 142.533 184.264 142.516 184.315L141.506 187.043C140.75 187.471 140.311 188.067 140.19 188.831C140.156 189.047 140.199 189.244 140.32 189.421C141 190.438 141.94 191.701 142.056 192.861C142.233 194.571 141.747 196.124 140.598 197.519C137.055 201.847 131.282 205.877 125.574 206.279C123.311 206.434 120.95 206.156 118.493 205.443C114.191 204.19 110.673 202.093 107.938 199.152C106.815 197.951 106.556 196.569 107.161 195.006C107.18 194.955 107.189 194.9 107.187 194.846C107.184 194.791 107.171 194.738 107.147 194.689C107.124 194.64 107.09 194.596 107.049 194.56C107.008 194.524 106.96 194.497 106.908 194.481L104.058 193.535L100.864 191.125C100.656 190.965 100.602 190.593 100.702 190.01C100.715 189.924 100.751 189.838 100.812 189.751C100.866 189.668 100.942 189.601 101.034 189.556C101.126 189.51 101.232 189.487 101.345 189.488C101.458 189.488 101.574 189.513 101.687 189.559C101.8 189.606 101.906 189.674 101.997 189.758C103.116 190.79 104.163 191.498 105.14 191.883C105.835 192.436 106.615 192.706 107.478 192.693C107.582 192.692 107.685 192.667 107.777 192.618C107.87 192.57 107.95 192.5 108.01 192.414C109.146 190.816 110.515 189.466 112.117 188.365C112.307 188.231 112.327 188.077 112.176 187.905C111.61 187.27 111.007 186.782 110.368 186.44C109.621 185.831 108.919 185.233 108.262 184.646C107.584 184.032 107.191 183.274 107.083 182.372C107.057 182.147 107.133 181.966 107.31 181.827C107.522 181.659 107.764 181.607 108.036 181.672C108.221 181.72 108.403 181.864 108.58 182.106C109.509 183.419 110.694 184.43 112.137 185.138L113.614 186.512C114.15 187.008 114.733 187.073 115.363 186.706C117.255 185.609 119.216 184.724 121.246 184.05C121.462 183.976 121.54 183.829 121.479 183.609L120.896 181.465C120.417 180.208 120.173 179.171 120.164 178.355C120.164 178.253 120.196 178.154 120.255 178.072C120.315 177.989 120.398 177.927 120.495 177.895C120.736 177.808 120.972 177.78 121.201 177.811C121.304 177.824 121.402 177.864 121.486 177.925C121.57 177.986 121.636 178.067 121.68 178.16L123.261 181.497ZM112.649 200.26C112.389 194.926 114.448 191.01 118.823 188.514C123.172 186.039 127.256 185.903 131.075 188.106C135.109 190.438 136.651 194.254 135.7 199.554C135.653 199.809 135.729 199.854 135.927 199.69C137.664 198.269 138.907 196.874 139.659 195.504C140.575 193.846 140.275 192.233 138.758 190.665C135.24 187.03 129.98 185.611 124.835 185.52C123.112 185.49 121.507 185.801 120.022 186.453C117.935 187.378 115.91 188.378 113.944 189.453C111.262 190.917 109.524 192.855 108.729 195.265C108.409 196.237 108.463 197.018 108.891 197.61C109.582 198.565 110.664 199.523 112.137 200.487C112.331 200.612 112.469 200.634 112.551 200.551C112.584 200.517 112.61 200.473 112.626 200.423C112.643 200.373 112.651 200.317 112.649 200.26ZM121.838 194.214C122.016 193.638 121.93 193.005 121.597 192.456C121.265 191.907 120.714 191.485 120.066 191.285C119.417 191.084 118.725 191.12 118.14 191.386C117.555 191.651 117.127 192.124 116.948 192.7C116.77 193.276 116.857 193.909 117.189 194.458C117.521 195.007 118.072 195.429 118.721 195.629C119.369 195.83 120.062 195.794 120.646 195.528C121.231 195.263 121.659 194.79 121.838 194.214Z" fill="#0C0508"/><path d="M112.137 185.138C114.815 183.605 117.734 182.381 120.896 181.465L121.479 183.609C121.54 183.83 121.462 183.976 121.246 184.05C119.216 184.724 117.255 185.609 115.363 186.706C114.733 187.073 114.149 187.009 113.614 186.512L112.137 185.138Z" fill="#64554C"/><path d="M132.494 182.171C132.308 182.836 132.021 183.454 131.632 184.024C131.538 184.163 131.405 184.271 131.249 184.334C131.093 184.396 130.921 184.41 130.757 184.374C129.025 183.989 127.244 183.778 125.412 183.739C124.721 183.726 124.203 183.551 123.857 183.214C123.412 182.778 123.214 182.205 123.261 181.497L132.494 182.171Z" fill="#64554C"/><path d="M139.601 185.65L138.538 187.309C138.417 187.499 138.264 187.531 138.078 187.406C136.851 186.555 135.534 185.847 134.126 185.281C133.91 185.194 133.808 185.037 133.821 184.808C133.856 184.164 134.063 183.518 134.443 182.871C136.512 183.238 138.231 184.164 139.601 185.65Z" fill="#64554C"/><path d="M112.649 200.26C112.651 200.318 112.643 200.373 112.626 200.423C112.61 200.473 112.584 200.517 112.552 200.552C112.469 200.634 112.331 200.612 112.137 200.487C110.664 199.524 109.582 198.565 108.891 197.61C108.463 197.018 108.409 196.237 108.729 195.265C109.524 192.855 111.262 190.917 113.944 189.453C115.91 188.378 117.935 187.378 120.022 186.454C121.507 185.801 123.112 185.49 124.835 185.521C129.98 185.611 135.241 187.03 138.759 190.665C140.275 192.233 140.575 193.846 139.659 195.505C138.908 196.874 137.664 198.269 135.927 199.69C135.729 199.854 135.653 199.809 135.701 199.554C136.651 194.254 135.109 190.438 131.075 188.106C127.256 185.903 123.173 186.039 118.823 188.514C114.448 191.01 112.39 194.926 112.649 200.26Z" fill="white"/><path d="M105.14 191.883C106.5 189.771 108.243 187.956 110.368 186.44C111.007 186.782 111.61 187.27 112.176 187.905C112.327 188.077 112.307 188.231 112.117 188.365C110.515 189.466 109.146 190.816 108.01 192.414C107.95 192.5 107.87 192.57 107.778 192.618C107.685 192.667 107.583 192.692 107.479 192.693C106.615 192.705 105.835 192.436 105.14 191.883Z" fill="#64554C"/><path d="M104.057 193.535L106.908 194.481C106.96 194.497 107.008 194.524 107.049 194.56C107.09 194.596 107.124 194.64 107.147 194.689C107.171 194.738 107.184 194.791 107.187 194.846C107.189 194.9 107.18 194.955 107.161 195.006C106.556 196.569 106.815 197.951 107.938 199.152C110.672 202.093 114.19 204.19 118.492 205.443C120.95 206.156 123.311 206.434 125.574 206.279C131.282 205.877 137.054 201.847 140.598 197.519C141.747 196.124 142.233 194.571 142.056 192.861C141.939 191.701 141 190.438 140.32 189.421C140.199 189.244 140.156 189.047 140.19 188.831C140.311 188.067 140.749 187.471 141.505 187.043C142.689 188.326 143.689 189.911 144.505 191.798C145.006 192.956 145.168 193.99 144.991 194.902C144.686 196.463 143.313 198.802 142.166 200.027C135.048 207.659 126.155 210.129 115.486 207.438C113.97 207.054 112.549 206.376 111.223 205.404C107.91 202.972 105.548 200.23 104.135 197.176C103.738 196.321 103.712 195.107 104.057 193.535Z" fill="#64554C"/><path d="M118.721 195.63C120.071 196.048 121.467 195.414 121.838 194.214C122.209 193.014 121.416 191.703 120.066 191.285C118.716 190.867 117.32 191.501 116.949 192.7C116.577 193.9 117.371 195.212 118.721 195.63Z" fill="white"/><path d="M247.151 238.712L245.447 230.717C244.851 226.238 243.792 222.254 242.272 218.764C241.922 217.96 241.205 216.485 240.121 214.339C239.218 212.537 238.436 211.157 237.776 210.199C234.921 206.056 231.312 202.165 226.949 198.524C226.176 197.876 225.973 197.094 226.34 196.178C226.371 196.109 226.392 196.062 226.405 196.036C226.833 195.172 227.459 195.09 228.284 195.79C233.67 200.372 237.363 204.124 239.363 207.043C242.516 211.648 245.127 217.407 247.196 224.322C248.833 229.795 248.818 234.591 247.151 238.712Z" fill="#F3BEB4"/><path d="M245.446 230.717L247.15 238.712C247.025 240.673 246.498 242.39 245.569 243.863C245.453 244.044 245.427 244.239 245.491 244.446C245.928 245.815 246.008 247.336 245.731 249.007C245.096 252.838 243.82 256.25 241.902 259.244C236.974 266.474 230.502 271.759 222.485 275.098C222.43 275.12 222.382 275.155 222.345 275.201C222.308 275.247 222.283 275.301 222.272 275.36C222.261 275.418 222.265 275.479 222.283 275.536C222.301 275.593 222.332 275.645 222.375 275.687C223.195 276.499 224.068 277.266 224.992 277.987C229.651 281.635 234.406 280.281 239.019 277.443C242.423 275.352 244.969 273.746 246.658 272.623C253.214 268.269 257.914 262.418 260.756 255.071C262.406 251.24 263.289 247.217 263.406 243.001C263.539 238.302 262.984 233.618 261.74 228.949C261.11 226.569 260.173 224.439 258.929 222.56C258.856 222.448 258.811 222.319 258.8 222.186C258.788 222.053 258.81 221.919 258.862 221.796C258.915 221.673 258.997 221.566 259.101 221.483C259.206 221.401 259.329 221.346 259.46 221.323C260.056 221.215 260.626 221.256 261.17 221.446C264.673 228.469 266.23 235.741 265.842 243.26C265.617 247.536 264.703 251.737 263.101 255.862C260.198 263.325 255.393 269.411 248.686 274.119C248.562 274.205 248.468 274.326 248.416 274.466C248.364 274.607 248.356 274.759 248.394 274.903C248.981 277.188 249.688 279.862 250.513 282.924C251.04 284.876 251.435 287.826 251.698 291.774C252.217 299.411 252.042 307.509 251.173 316.07C251.163 316.171 251.179 316.272 251.22 316.365C251.261 316.458 251.325 316.54 251.407 316.601L253.039 317.852L250.234 319.523L240.257 313.427C239.995 313.269 239.806 313.015 239.732 312.72C239.572 312.072 239.784 311.513 240.367 311.042C240.656 310.809 241.01 310.759 241.429 310.893C241.809 311.014 242.297 311.241 242.893 311.574C242.931 311.594 242.974 311.602 243.016 311.597C243.059 311.593 243.098 311.575 243.13 311.546C243.162 311.518 243.184 311.481 243.194 311.439C243.204 311.398 243.201 311.354 243.185 311.314C241.898 308.027 240.926 305.021 240.269 302.296C238.33 294.245 236.814 287.561 235.721 282.244C235.71 282.191 235.688 282.142 235.657 282.098C235.625 282.055 235.585 282.018 235.539 281.991C235.492 281.964 235.441 281.948 235.387 281.942C235.334 281.936 235.28 281.942 235.229 281.959C231.061 283.298 227.275 282.699 223.871 280.164C223.612 279.974 222.889 279.389 221.701 278.408C221.511 278.253 221.379 278.294 221.306 278.531C220.118 282.337 217.708 285.276 214.075 287.349C213.592 287.626 212.896 288.027 211.989 288.554C211.854 288.634 211.746 288.753 211.682 288.896C211.618 289.039 211.601 289.198 211.633 289.351C212.579 293.735 213.682 298.108 214.944 302.471C216.278 307.097 217.207 310.107 217.729 311.502C218.537 313.645 219.777 316.498 221.448 320.061C223.323 324.052 224.904 327.825 226.191 331.38C227.893 336.066 230.314 342.772 233.454 351.496C237.656 363.171 239.92 375.462 240.244 388.368C240.246 388.485 240.219 388.601 240.166 388.706C240.113 388.811 240.035 388.901 239.94 388.968C239.844 389.036 239.733 389.079 239.616 389.094C239.5 389.109 239.382 389.096 239.272 389.054L239.019 388.964C238.393 388.618 238.067 388.182 238.041 387.655C237.432 374.542 234.983 362.228 230.694 350.712C225.727 337.379 223.185 330.559 223.068 330.252C222.45 328.632 221.822 327.015 221.183 325.399C220.626 323.996 219.919 322.434 219.064 320.715C217.198 316.966 215.762 313.522 214.756 310.381C212.795 304.27 210.963 297.404 209.262 289.785C209.243 289.698 209.191 289.621 209.118 289.571C209.045 289.52 208.955 289.499 208.866 289.513C197.982 291.219 186.73 290.675 175.111 287.88C175.039 287.863 174.962 287.867 174.892 287.891C174.821 287.915 174.758 287.959 174.712 288.017C174.665 288.076 174.635 288.146 174.627 288.221C174.619 288.295 174.632 288.37 174.664 288.438C176.887 292.914 179.731 297.696 184.59 305.911C187.017 310.019 189.138 313.949 190.952 317.703C192.239 320.372 193.617 323.961 195.086 328.471C196.537 332.928 196.844 337.308 196.006 341.61C195.552 343.933 195.027 346.236 194.431 348.516L191.697 347.305C191.866 346.968 191.937 346.646 191.911 346.339C191.89 346.123 191.782 345.963 191.587 345.86C188.451 344.188 185.972 342.521 184.149 340.858C178.349 335.563 174.466 332.075 172.5 330.395C168.613 327.065 165.51 324.097 163.19 321.493C158.672 316.422 155.066 312.118 152.371 308.58C144.851 298.698 138.758 288.191 134.094 277.061C132.513 273.277 130.913 268.463 131.658 264.356C131.678 264.243 131.656 264.127 131.598 264.029C131.54 263.931 131.448 263.858 131.34 263.824L129.124 263.131C128.879 263.054 128.674 262.882 128.555 262.653C128.436 262.425 128.412 262.159 128.489 261.913L128.561 261.686C128.611 261.526 128.693 261.377 128.803 261.249C128.912 261.122 129.047 261.018 129.199 260.945C129.351 260.871 129.516 260.83 129.685 260.822C129.854 260.815 130.022 260.842 130.18 260.902C135.428 262.904 138.946 266.131 143.89 269.843C150.243 274.607 156.742 278.54 163.385 281.641C163.665 281.775 163.951 281.782 164.24 281.661C164.452 281.993 164.73 282.224 165.076 282.354C175.666 286.315 186.89 288.219 198.746 288.068C202.634 288.016 205.828 287.692 208.329 287.096C211.616 286.315 214.427 284.632 216.764 282.049C218.235 280.417 218.792 278.829 219.148 276.724C219.161 276.647 219.156 276.569 219.136 276.495C219.115 276.421 219.078 276.352 219.028 276.294C218.978 276.236 218.915 276.189 218.846 276.159C218.776 276.128 218.7 276.113 218.624 276.115C212.045 276.266 206.121 274.406 200.852 270.536C197.556 268.476 195.172 265.77 193.699 262.418C193.617 262.237 193.483 262.116 193.298 262.056C192.827 261.9 191.918 261.647 190.57 261.298C187.668 260.546 185.506 259.116 184.085 257.009C183.264 255.79 182.549 253.743 181.94 250.867C181.288 247.774 180.988 244.835 181.04 242.049C181.113 238.205 182.407 234.561 184.92 231.119C186.873 228.441 189.24 225.845 192.021 223.331C192.609 222.8 193.222 222.379 193.861 222.068C198.448 219.831 203.647 218.349 209.456 217.623C211.542 217.36 213.356 217.053 214.898 216.703C217.447 216.125 219.25 215.768 220.308 215.634C226.599 214.838 231.439 217.28 236.615 220.37C240.447 222.66 243.39 226.109 245.446 230.717ZM229.515 241.427C230.301 241.427 230.594 241.807 230.396 242.567C229.687 245.228 229.856 246.979 230.901 247.821C233.337 249.785 239.317 245.787 241.384 244.2C242.589 243.275 243.427 242.144 243.898 240.805C244.243 239.824 244.297 238.485 244.06 236.788C243.438 232.365 241.667 228.657 238.747 225.664C236.577 223.441 233.713 221.899 230.784 220.39C228.223 219.073 225.934 218.397 223.917 218.362C221.653 218.327 219.308 218.587 216.881 219.139C214.047 219.787 212 220.193 210.739 220.358C207.841 220.738 205.787 221.057 204.577 221.316C201.532 221.977 198.528 223.014 195.565 224.426C195.06 224.668 194.511 225.044 193.92 225.554C191.449 227.674 189.225 230.082 187.246 232.778C184.961 235.9 183.854 239.256 183.923 242.846C183.944 244.133 184.245 246.727 184.823 250.627C185.575 255.68 188.443 258.471 193.427 258.998C198.435 259.529 203.197 258.829 206.644 254.799C208.601 252.512 208.938 249.376 206.21 247.446C205.7 247.087 204.534 246.627 202.711 246.066C202.607 246.033 202.511 245.979 202.43 245.908C202.348 245.837 202.283 245.749 202.238 245.651C201.91 244.943 202.055 244.362 202.673 243.908C202.902 243.737 203.186 243.659 203.469 243.688C205.465 243.887 207.147 244.597 208.517 245.819C211.361 248.359 211.659 251.968 209.728 255.143C208.078 257.851 205.726 259.756 202.673 260.857C201.053 261.44 199.217 261.799 197.166 261.932C197.11 261.937 197.057 261.954 197.01 261.984C196.963 262.013 196.924 262.053 196.897 262.1C196.869 262.148 196.854 262.201 196.852 262.255C196.851 262.31 196.862 262.363 196.887 262.412C197.414 263.474 198.025 264.36 198.72 265.068C201.627 268.027 204.908 270.178 208.562 271.521C211.309 272.528 213.706 273.089 215.753 273.206C218.168 273.348 220.632 272.821 223.146 271.625C225.958 270.286 228.119 269.044 229.631 267.9C232.378 265.822 235 263.317 237.497 260.384C240.846 256.451 242.699 251.968 243.204 246.863C243.261 246.288 243.064 246.184 242.615 246.552C239.324 249.273 231.828 253.503 228.465 249.02C227.126 247.236 226.899 245.02 227.785 242.373C227.996 241.742 228.435 241.427 229.1 241.427H229.515ZM134.223 265.496C134.196 265.476 134.164 265.463 134.13 265.458C134.097 265.453 134.062 265.456 134.03 265.468C133.998 265.479 133.97 265.499 133.947 265.524C133.924 265.549 133.908 265.579 133.899 265.612C133.727 266.273 133.705 266.997 133.835 267.783C134.301 270.698 135.221 273.795 136.361 276.406C139.881 284.47 144.093 292.267 148.995 299.795C150.852 302.641 153.431 306.103 156.731 310.181C160.661 315.035 163.609 318.521 165.575 320.638C169.093 324.434 170.978 325.963 176.245 330.524C176.275 330.555 178.394 332.505 182.601 336.375C185.59 339.122 188.741 341.538 192.054 343.625C192.127 343.671 192.211 343.7 192.298 343.708C192.384 343.716 192.472 343.704 192.553 343.671C192.634 343.639 192.706 343.588 192.763 343.522C192.821 343.457 192.862 343.379 192.883 343.294C193.527 340.668 193.784 337.936 193.654 335.098C193.646 334.918 193.581 334.744 193.468 334.603C193.355 334.462 193.2 334.361 193.026 334.314C191.963 334.029 190.952 333.615 190.026 332.909C182.683 327.276 176.297 321.696 170.868 316.167C164.441 309.623 158.398 302.106 152.74 293.614C146.429 284.138 143.013 279.017 142.49 278.253C141.86 277.333 140.627 274.955 138.791 271.12C138.696 270.925 138.653 270.72 138.661 270.504C138.7 269.325 138.674 268.761 137.54 267.925C136.495 267.152 135.389 266.342 134.223 265.496ZM159.659 299.49C159.845 299.754 160.007 299.983 160.145 300.177C160.223 300.285 160.301 300.285 160.378 300.177C160.512 300.004 160.543 299.793 160.469 299.542C158.78 293.642 157.888 287.762 157.793 281.9C157.789 281.689 157.694 281.529 157.508 281.421C152.006 278.337 146.935 275.056 142.296 271.579C141.402 270.91 141.21 271.072 141.719 272.065C143.296 275.119 145.138 278.166 147.246 281.207C149.259 284.11 150.63 286.131 151.36 287.271C153.317 290.336 155.176 293.517 157.359 296.426C158.793 298.331 159.56 299.352 159.659 299.49ZM248.375 314.871C248.539 314.949 248.66 314.969 248.737 314.93C248.807 314.894 248.867 314.842 248.911 314.778C248.955 314.715 248.982 314.642 248.99 314.567C249.552 308.321 249.755 302.181 249.599 296.147C249.465 291.055 249.042 287.062 248.329 284.168C247.409 280.436 246.761 277.795 246.386 276.244C246.374 276.197 246.352 276.153 246.32 276.116C246.289 276.079 246.249 276.05 246.204 276.031C246.16 276.013 246.111 276.004 246.063 276.008C246.014 276.011 245.967 276.025 245.926 276.05L238.423 280.378C237.969 280.641 237.799 281.03 237.911 281.544C238.918 286.045 240.429 292.655 242.446 301.376C243.017 303.834 244.191 307.455 245.971 312.241C246.489 313.64 247.163 314.288 248.375 314.871ZM171.056 305.704C171.12 305.393 171.265 305.162 171.49 305.01C171.71 304.864 171.835 304.779 171.866 304.758C173.999 303.013 176.258 302.153 178.642 302.179C178.677 302.179 178.711 302.169 178.74 302.151C178.77 302.133 178.794 302.108 178.811 302.078C178.827 302.047 178.835 302.013 178.834 301.979C178.833 301.944 178.823 301.91 178.804 301.881C176.688 298.4 174.606 294.765 172.559 290.977C172.451 290.783 172.289 290.668 172.073 290.634C170.889 290.44 169.231 291.176 167.097 292.843C166.972 292.942 166.603 292.906 165.989 292.733C165.92 292.716 165.86 292.679 165.808 292.623C165.54 292.342 165.542 292.059 165.814 291.774C167.421 290.098 169.166 289.094 171.049 288.761C171.274 288.718 171.382 288.584 171.373 288.36C171.352 287.876 171.235 287.438 171.023 287.045C170.919 286.858 170.747 286.721 170.544 286.662C166.704 285.621 163.234 284.313 160.132 282.736C159.757 282.546 159.577 282.661 159.595 283.079C159.789 289.079 160.934 295.152 163.028 301.298C163.888 303.834 164.588 305.436 165.127 306.105C168.859 310.775 172.956 315.124 177.418 319.154C177.578 319.301 177.761 319.342 177.969 319.277C180.78 318.389 187.227 316.601 185.018 312.649C182.94 308.939 181.446 306.319 180.534 304.79C180.45 304.647 180.338 304.524 180.204 304.427C180.07 304.33 179.918 304.261 179.757 304.227C176.705 303.579 174.956 305.03 172.462 306.449C172.038 306.695 171.652 306.673 171.302 306.384C171.202 306.304 171.126 306.199 171.083 306.079C171.04 305.958 171.03 305.829 171.056 305.704ZM185.84 317.405C184.26 318.908 182.214 319.959 179.705 320.56C179.641 320.574 179.582 320.606 179.535 320.652C179.488 320.698 179.455 320.756 179.439 320.82C179.423 320.884 179.424 320.95 179.444 321.013C179.464 321.076 179.5 321.132 179.549 321.175C184.866 325.901 189.093 329.447 192.229 331.814C192.894 332.315 193.116 332.163 192.896 331.36C191.6 326.613 189.676 321.778 187.123 316.854C187.097 316.804 187.06 316.761 187.014 316.727C186.969 316.694 186.917 316.671 186.861 316.66C186.806 316.65 186.749 316.652 186.695 316.666C186.64 316.681 186.59 316.707 186.547 316.744C186.443 316.83 186.208 317.05 185.84 317.405Z" fill="#0C0508"/><path d="M229.515 241.427H229.1C228.435 241.427 227.997 241.742 227.785 242.373C226.899 245.02 227.126 247.236 228.465 249.02C231.828 253.503 239.324 249.273 242.615 246.551C243.064 246.184 243.261 246.288 243.205 246.862C242.699 251.968 240.846 256.451 237.497 260.384C235 263.317 232.378 265.822 229.631 267.899C228.12 269.044 225.958 270.286 223.146 271.625C220.632 272.821 218.168 273.348 215.754 273.206C213.706 273.089 211.309 272.527 208.562 271.521C204.908 270.178 201.628 268.027 198.721 265.068C198.025 264.36 197.414 263.474 196.887 262.412C196.863 262.363 196.851 262.31 196.852 262.255C196.854 262.201 196.87 262.148 196.897 262.1C196.925 262.053 196.964 262.013 197.01 261.983C197.057 261.954 197.111 261.937 197.166 261.932C199.217 261.798 201.053 261.44 202.673 260.857C205.727 259.755 208.078 257.851 209.728 255.142C211.659 251.968 211.361 248.359 208.517 245.819C207.148 244.597 205.465 243.887 203.47 243.688C203.186 243.659 202.902 243.737 202.673 243.908C202.055 244.362 201.91 244.943 202.239 245.651C202.283 245.749 202.349 245.836 202.43 245.908C202.512 245.979 202.608 246.033 202.712 246.066C204.534 246.627 205.701 247.087 206.21 247.446C208.938 249.376 208.601 252.512 206.644 254.799C203.198 258.829 198.436 259.529 193.427 258.997C188.443 258.47 185.575 255.68 184.824 250.627C184.245 246.726 183.945 244.133 183.923 242.846C183.854 239.256 184.962 235.9 187.247 232.777C189.225 230.082 191.449 227.674 193.92 225.553C194.512 225.044 195.06 224.668 195.566 224.426C198.529 223.014 201.533 221.977 204.578 221.316C205.787 221.057 207.841 220.738 210.739 220.357C212 220.193 214.048 219.787 216.881 219.139C219.308 218.587 221.654 218.327 223.917 218.362C225.934 218.396 228.223 219.072 230.785 220.39C233.713 221.899 236.577 223.441 238.747 225.664C241.667 228.657 243.438 232.365 244.06 236.788C244.297 238.485 244.243 239.824 243.898 240.805C243.427 242.144 242.589 243.275 241.384 244.2C239.317 245.787 233.337 249.784 230.901 247.821C229.856 246.979 229.688 245.228 230.396 242.567C230.595 241.807 230.301 241.427 229.515 241.427ZM205.951 223.798C204.716 224.165 203.921 224.446 203.567 224.64C203.23 224.821 203.031 225.046 202.971 225.314C202.889 225.659 202.882 225.975 202.951 226.26C203.003 226.497 203.15 226.622 203.392 226.635C204.597 226.709 205.588 226.668 206.366 226.512C209.355 225.899 213.002 225.318 217.309 224.77C217.623 224.73 217.913 224.578 218.129 224.342C218.344 224.105 218.471 223.797 218.488 223.474C218.488 223.461 218.483 223.444 218.475 223.422C218.147 222.485 217.587 222.031 216.797 222.061C212.944 222.213 209.329 222.791 205.951 223.798Z" fill="#373231"/><path d="M205.951 223.798C209.329 222.791 212.944 222.213 216.797 222.061C217.587 222.031 218.147 222.485 218.475 223.422C218.484 223.444 218.488 223.461 218.488 223.474C218.472 223.798 218.344 224.105 218.129 224.342C217.913 224.579 217.623 224.73 217.309 224.77C213.003 225.318 209.355 225.899 206.366 226.512C205.589 226.668 204.597 226.709 203.392 226.636C203.15 226.623 203.004 226.497 202.952 226.26C202.883 225.975 202.889 225.659 202.971 225.314C203.032 225.046 203.23 224.821 203.567 224.64C203.921 224.446 204.716 224.165 205.951 223.798Z" fill="#DA9F9A"/><path d="M323.945 235L323.05 239.937C323.029 240.056 322.978 240.167 322.903 240.262C322.829 240.357 322.732 240.432 322.621 240.481C322.51 240.529 322.389 240.55 322.269 240.541C322.148 240.532 322.032 240.494 321.93 240.429L320.517 239.522C320.411 239.455 320.324 239.362 320.264 239.252C320.204 239.142 320.173 239.019 320.174 238.894L320.187 237.669C320.189 237.501 320.248 237.339 320.355 237.209L322.649 234.404C322.753 234.279 322.895 234.192 323.053 234.156C323.212 234.12 323.377 234.137 323.525 234.205C323.673 234.273 323.794 234.388 323.869 234.531C323.945 234.675 323.972 234.84 323.945 235Z" fill="#FF7CB3"/><path d="M260.755 255.071C257.913 262.418 253.214 268.269 246.657 272.623C244.969 273.746 242.422 275.352 239.019 277.443C234.406 280.281 229.65 281.635 224.992 277.987C224.068 277.266 223.195 276.499 222.375 275.687C222.332 275.645 222.3 275.593 222.282 275.536C222.265 275.479 222.261 275.418 222.272 275.36C222.283 275.301 222.308 275.247 222.345 275.201C222.382 275.155 222.43 275.12 222.485 275.097C230.501 271.759 236.974 266.474 241.902 259.244C247.219 258.803 252.294 257.566 257.127 255.531C257.654 255.311 258.864 255.158 260.755 255.071Z" fill="#CA0092"/><path d="M134.223 265.496C135.39 266.342 136.495 267.152 137.541 267.925C138.674 268.761 138.7 269.325 138.662 270.504C138.653 270.72 138.696 270.925 138.791 271.12C140.627 274.955 141.86 277.333 142.491 278.253C143.013 279.017 146.43 284.138 152.74 293.614C158.398 302.106 164.441 309.623 170.868 316.167C176.297 321.696 182.683 327.276 190.026 332.909C190.953 333.615 191.963 334.029 193.026 334.314C193.2 334.361 193.355 334.462 193.468 334.603C193.581 334.744 193.647 334.918 193.654 335.098C193.784 337.936 193.527 340.668 192.883 343.294C192.862 343.379 192.821 343.457 192.764 343.522C192.706 343.588 192.634 343.639 192.553 343.671C192.472 343.704 192.385 343.716 192.298 343.708C192.211 343.7 192.127 343.671 192.054 343.625C188.741 341.538 185.59 339.122 182.601 336.375C178.394 332.505 176.276 330.555 176.245 330.524C170.978 325.963 169.093 324.434 165.575 320.638C163.61 318.521 160.662 315.035 156.731 310.181C153.431 306.103 150.853 302.641 148.995 299.795C144.093 292.267 139.882 284.47 136.362 276.406C135.221 273.795 134.301 270.698 133.835 267.783C133.705 266.997 133.727 266.273 133.9 265.612C133.908 265.579 133.924 265.549 133.947 265.524C133.97 265.499 133.998 265.479 134.03 265.468C134.062 265.456 134.097 265.453 134.13 265.458C134.164 265.463 134.196 265.476 134.223 265.496Z" fill="#484245"/><path d="M164.24 281.661C170.279 279.786 176.436 278.523 182.712 277.87C183.269 277.814 184.379 277.514 186.042 276.97C187.242 276.577 188.799 275.834 190.713 274.741C192.073 273.964 193.633 273.242 195.391 272.577C197.17 271.908 198.991 271.227 200.852 270.536C206.122 274.406 212.046 276.266 218.624 276.115C218.7 276.113 218.776 276.127 218.846 276.158C218.916 276.189 218.978 276.236 219.028 276.294C219.078 276.352 219.115 276.421 219.136 276.495C219.157 276.569 219.161 276.647 219.149 276.724C218.792 278.829 218.235 280.417 216.764 282.049C214.428 284.632 211.616 286.315 208.329 287.096C205.828 287.692 202.634 288.016 198.747 288.068C186.89 288.219 175.667 286.315 165.076 282.354C164.73 282.224 164.452 281.993 164.24 281.661Z" fill="#CA0092"/><path d="M159.659 299.49C159.56 299.352 158.793 298.331 157.359 296.426C155.176 293.517 153.317 290.336 151.36 287.271C150.63 286.131 149.259 284.109 147.246 281.207C145.138 278.166 143.296 275.119 141.719 272.065C141.21 271.072 141.402 270.91 142.296 271.579C146.935 275.056 152.006 278.337 157.508 281.421C157.694 281.529 157.789 281.689 157.794 281.9C157.889 287.761 158.781 293.642 160.469 299.542C160.543 299.793 160.513 300.004 160.379 300.177C160.301 300.285 160.223 300.285 160.145 300.177C160.007 299.983 159.845 299.754 159.659 299.49Z" fill="#373231"/><path d="M248.375 314.871C247.163 314.288 246.489 313.64 245.971 312.241C244.192 307.455 243.017 303.833 242.447 301.376C240.429 292.655 238.918 286.045 237.911 281.544C237.799 281.03 237.97 280.641 238.423 280.378L245.926 276.05C245.968 276.025 246.015 276.011 246.063 276.008C246.111 276.004 246.16 276.012 246.205 276.031C246.249 276.05 246.289 276.079 246.32 276.116C246.352 276.153 246.374 276.197 246.386 276.244C246.762 277.795 247.409 280.436 248.329 284.168C249.042 287.062 249.465 291.055 249.599 296.147C249.755 302.181 249.552 308.321 248.99 314.567C248.983 314.642 248.955 314.715 248.911 314.778C248.867 314.842 248.807 314.894 248.738 314.93C248.66 314.968 248.539 314.949 248.375 314.871Z" fill="#484245"/><path d="M69.571 299.374C71.3635 302.574 73.9226 305.825 77.2484 309.125C90.6338 322.402 105.693 332.615 122.426 339.763C122.521 340.77 123.134 341.556 124.266 342.122C129.082 344.523 131.546 345.75 131.658 345.802C135.992 347.842 139.549 350.531 142.588 353.272C144.678 355.155 146.689 357.081 148.62 359.051C151.423 361.491 153.38 364.24 154.49 367.298C155.833 370.987 156.399 374.902 156.187 379.045C155.962 383.459 154.401 387.685 151.503 391.724C150.343 393.35 148.697 394.73 147.207 396.103C146.287 396.946 145.646 398.222 144.985 399.343C138.891 399.179 132.859 398.628 126.89 397.691C123.693 394.81 120.571 392.458 117.521 390.635C110.412 386.389 102.702 381.407 94.3915 375.689C88.5217 371.65 84.4486 368.655 82.1724 366.702C77.1966 362.444 73.0091 357.625 69.6098 352.248C63.591 342.724 58.7059 332.261 55.6219 322.108C52.985 313.427 52.1039 304.512 52.6805 295.525C53.0822 289.263 53.6761 282.961 54.4622 276.62C55.8617 280.006 56.7644 282.144 57.1704 283.034C58.2286 285.349 59.5611 287.595 61.1679 289.772C61.7769 290.602 63.2087 292.169 65.4634 294.476C66.9837 296.035 68.3529 297.668 69.571 299.374Z" fill="#F0C6AA"/><path d="M250.234 319.523C255.832 323.346 259.326 325.991 260.717 327.46C268.064 335.217 273.649 344.059 277.472 353.984C281.562 363.703 283.344 374.06 282.817 385.057C282.618 389.169 281.905 392.905 280.679 396.265C279.854 398.529 278.577 400.649 276.85 402.628C274.314 405.53 271.435 408.139 268.213 410.454C263.905 413.557 259.007 413.953 253.785 413.622C252.502 413.545 250.688 414.095 249.787 414.756C248.47 415.724 247.658 416.259 247.351 416.363C243.678 417.607 240.386 417.639 236.499 417.788C233.273 417.905 229.491 417.3 225.155 415.974C220.373 414.51 216.298 412.454 212.929 409.806C204.552 403.386 196.602 394.607 193.395 384.487C190.719 376.051 189.968 365.834 192.242 357.003C192.976 354.17 193.706 351.341 194.432 348.516C195.028 346.236 195.553 343.933 196.006 341.61C196.844 337.308 196.537 332.928 195.086 328.47C193.618 323.961 192.24 320.372 190.953 317.703C189.139 313.949 187.018 310.019 184.59 305.911C179.731 297.696 176.887 292.914 174.665 288.437C174.632 288.37 174.619 288.295 174.627 288.221C174.636 288.146 174.665 288.076 174.712 288.017C174.759 287.959 174.821 287.915 174.892 287.891C174.963 287.867 175.039 287.863 175.112 287.88C186.731 290.675 197.982 291.219 208.867 289.513C208.955 289.499 209.045 289.52 209.118 289.571C209.192 289.621 209.243 289.698 209.262 289.785C210.964 297.404 212.795 304.27 214.756 310.381C215.762 313.522 217.199 316.966 219.064 320.715C219.92 322.434 220.626 323.996 221.183 325.399C221.822 327.015 222.451 328.632 223.068 330.252C223.185 330.559 225.727 337.379 230.694 350.712C234.983 362.228 237.432 374.542 238.041 387.655C238.067 388.182 238.393 388.618 239.019 388.964L239.272 389.054C239.382 389.096 239.5 389.109 239.617 389.094C239.733 389.079 239.844 389.036 239.94 388.968C240.036 388.901 240.114 388.811 240.167 388.706C240.22 388.601 240.246 388.485 240.244 388.368C239.92 375.462 237.657 363.171 233.454 351.496C230.314 342.771 227.893 336.066 226.191 331.379C224.904 327.825 223.323 324.052 221.449 320.061C219.777 316.497 218.538 313.645 217.73 311.502C217.207 310.107 216.279 307.097 214.944 302.471C213.683 298.108 212.579 293.735 211.633 289.351C211.601 289.198 211.619 289.039 211.683 288.896C211.747 288.753 211.854 288.634 211.99 288.554C212.897 288.027 213.592 287.625 214.076 287.349C217.708 285.276 220.118 282.337 221.306 278.531C221.38 278.294 221.511 278.253 221.701 278.408C222.889 279.389 223.613 279.974 223.872 280.164C227.275 282.699 231.061 283.298 235.229 281.959C235.28 281.942 235.334 281.936 235.388 281.942C235.441 281.948 235.493 281.964 235.539 281.991C235.585 282.018 235.626 282.055 235.657 282.098C235.689 282.142 235.711 282.191 235.722 282.244C236.814 287.561 238.33 294.245 240.27 302.296C240.926 305.021 241.898 308.027 243.185 311.314C243.201 311.354 243.204 311.397 243.195 311.439C243.185 311.481 243.162 311.518 243.131 311.546C243.099 311.575 243.059 311.593 243.016 311.597C242.974 311.602 242.931 311.594 242.894 311.574C242.298 311.241 241.81 311.014 241.43 310.893C241.011 310.759 240.656 310.809 240.367 311.042C239.784 311.513 239.572 312.072 239.732 312.72C239.807 313.015 239.995 313.269 240.257 313.426L250.234 319.523Z" fill="#FF99B7"/><path d="M171.056 305.704C171.03 305.829 171.04 305.958 171.083 306.078C171.127 306.198 171.203 306.304 171.302 306.384C171.652 306.673 172.039 306.695 172.462 306.449C174.956 305.03 176.706 303.578 179.757 304.226C179.918 304.261 180.071 304.329 180.205 304.426C180.338 304.523 180.451 304.647 180.535 304.79C181.446 306.319 182.94 308.939 185.018 312.649C187.227 316.601 180.781 318.389 177.969 319.277C177.762 319.342 177.578 319.301 177.418 319.154C172.956 315.124 168.86 310.774 165.128 306.105C164.588 305.436 163.888 303.833 163.029 301.298C160.934 295.152 159.789 289.079 159.595 283.079C159.578 282.66 159.757 282.546 160.133 282.736C163.234 284.312 166.704 285.621 170.544 286.662C170.747 286.72 170.92 286.858 171.024 287.044C171.235 287.437 171.352 287.876 171.373 288.36C171.382 288.584 171.274 288.718 171.05 288.761C169.166 289.094 167.421 290.098 165.815 291.774C165.542 292.059 165.54 292.342 165.808 292.623C165.86 292.679 165.92 292.716 165.99 292.733C166.603 292.906 166.972 292.942 167.097 292.843C169.231 291.176 170.89 290.439 172.073 290.634C172.289 290.668 172.451 290.783 172.559 290.977C174.606 294.765 176.688 298.4 178.805 301.881C178.823 301.91 178.833 301.944 178.835 301.978C178.836 302.013 178.828 302.047 178.811 302.077C178.795 302.108 178.77 302.133 178.741 302.151C178.711 302.169 178.677 302.179 178.643 302.179C176.259 302.153 174 303.013 171.866 304.758C171.836 304.779 171.71 304.863 171.49 305.01C171.265 305.161 171.121 305.393 171.056 305.704Z" fill="white"/><path d="M91.6638 318.687C97.309 323.188 103.289 327.188 109.604 330.686C113.763 332.993 118.838 335.541 124.829 338.331C125.546 338.664 125.771 339.167 125.503 339.841C125.45 339.975 125.371 340.097 125.271 340.201C125.17 340.304 125.05 340.387 124.918 340.443C124.785 340.5 124.642 340.53 124.498 340.531C124.354 340.532 124.211 340.505 124.078 340.45L122.425 339.763C105.693 332.615 90.6336 322.402 77.2483 309.125C73.9224 305.825 71.3633 302.574 69.5708 299.374C70.4476 298.588 71.197 298.57 71.819 299.322C77.9696 306.751 84.5845 313.206 91.6638 318.687Z" fill="#321B2D"/><path d="M185.84 317.404C186.207 317.05 186.443 316.83 186.547 316.744C186.589 316.707 186.64 316.68 186.694 316.666C186.749 316.651 186.806 316.649 186.861 316.66C186.917 316.671 186.969 316.693 187.014 316.727C187.06 316.761 187.097 316.804 187.123 316.854C189.676 321.778 191.6 326.613 192.896 331.36C193.116 332.163 192.894 332.314 192.228 331.813C189.093 329.446 184.866 325.9 179.549 321.175C179.5 321.132 179.463 321.076 179.444 321.013C179.424 320.95 179.423 320.883 179.439 320.82C179.455 320.756 179.488 320.698 179.535 320.652C179.582 320.606 179.641 320.574 179.705 320.56C182.214 319.959 184.259 318.908 185.84 317.404Z" fill="#373231"/><path d="M191.697 347.304L194.431 348.516C193.706 351.341 192.976 354.17 192.241 357.003C189.967 365.834 190.719 376.051 193.395 384.487C196.602 394.607 204.551 403.386 212.929 409.806L210.648 411.769C204.795 407.187 199.843 402.01 195.792 396.239C195.701 396.11 195.585 396.075 195.442 396.136L192.423 397.367L185.393 399.492C167.87 402.407 151.157 403.165 135.253 401.766C122.334 400.63 108.953 397.464 95.1102 392.268L88.4175 389.709C76.721 384.465 65.6141 378.107 55.0967 370.635C55.6366 369.849 56.3903 369.194 57.3578 368.672C62.9685 372.512 68.1214 375.788 72.8164 378.5C89.4757 388.128 107.5 394.525 126.889 397.691C132.858 398.628 138.89 399.179 144.985 399.343C155.882 399.563 166.732 399.023 177.534 397.723C183.162 397.045 188.609 395.665 193.874 393.583C193.901 393.573 193.926 393.557 193.946 393.537C193.967 393.516 193.982 393.491 193.992 393.463C194.002 393.436 194.006 393.406 194.003 393.376C194.001 393.347 193.992 393.318 193.978 393.292C190.09 386.359 188.296 378.461 187.907 370.641C187.635 365.178 188.24 359.789 189.721 354.477L191.697 347.304Z" fill="#321B2D"/><path d="M189.721 354.477C188.24 359.789 187.635 365.178 187.907 370.641C188.296 378.461 190.091 386.359 193.978 393.292C193.992 393.318 194.001 393.347 194.004 393.376C194.006 393.406 194.002 393.436 193.992 393.463C193.983 393.491 193.967 393.516 193.947 393.537C193.926 393.557 193.902 393.573 193.874 393.583C188.609 395.665 183.163 397.045 177.535 397.723C166.732 399.023 155.882 399.563 144.985 399.343C145.646 398.222 146.287 396.946 147.207 396.103C148.697 394.73 150.343 393.35 151.503 391.724C154.401 387.685 155.962 383.459 156.187 379.044C156.398 374.902 155.833 370.987 154.489 367.298C153.379 364.24 151.423 361.491 148.62 359.051C162.4 355.954 175.436 354.995 189.721 354.477Z" fill="#FFE4E1"/><path d="M55.0971 370.635C65.6145 378.107 76.7214 384.465 88.4179 389.709C87.6059 391.579 87.2474 392.834 87.3424 393.473C87.6966 395.857 88.8779 397.06 90.8864 397.082C92.1476 397.09 93.1432 396.622 93.8732 395.676C94.5642 394.777 94.9767 393.641 95.1106 392.268C108.954 397.464 122.335 400.63 135.254 401.766C151.157 403.165 167.871 402.407 185.394 399.492C185.765 400.978 186.262 402.114 186.884 402.9C188.037 404.351 190.337 404.636 191.847 403.438C193.855 401.844 193.415 399.764 192.423 397.367L195.442 396.136C195.585 396.075 195.702 396.11 195.792 396.24C199.844 402.01 204.796 407.187 210.648 411.769C210.212 413.307 209.575 414.75 208.737 416.097C208.119 417.091 207.243 417.978 206.107 418.76C205.718 417.382 205.213 416.356 204.591 415.683C203.342 414.331 201.88 414.171 200.204 415.203C198.511 416.244 197.98 417.739 198.611 419.687C198.796 420.257 199.343 421.134 200.25 422.317C194.838 425.414 189.173 426.09 183.256 424.345C180.785 423.615 177.831 422.596 174.393 421.287C173.054 420.773 171.559 420.375 169.909 420.095C168.104 419.784 166.566 419.773 165.296 420.062C163.271 420.525 161.418 421.499 159.737 422.984C157.526 421.887 155.744 422.103 154.392 423.632C153.446 424.695 153.133 426.146 153.453 427.986C148.3 431.597 143.035 431.988 137.657 429.159C134.543 427.522 131.161 425.172 127.511 422.11C125.302 420.257 123.702 419.622 121.046 420.594C120 420.978 118.305 421.699 115.96 422.758C108.988 425.906 101.726 426.593 96.4777 419.894C94.9746 417.976 93.1886 415.374 91.1196 412.087C90.1564 410.558 88.9147 409.75 87.3943 409.664C86.0337 409.586 84.6947 409.845 83.3774 410.441C79.2568 412.307 75.6265 413.808 72.4864 414.944C70.8624 415.531 69.0072 415.937 66.921 416.162C64.377 416.43 62.3988 415.365 60.9864 412.968C58.505 408.744 57.1898 403.483 55.9782 398.922C54.9351 395.022 50.7627 395.669 47.0309 396.097C44.9533 396.335 43.0723 396.207 41.3878 395.715C39.7098 395.222 38.2715 391.879 37.7143 390.357C39.1915 389.985 40.1698 389.238 40.6492 388.115C41.621 385.841 39.9106 383.159 37.2543 383.476C36.5891 383.554 35.8808 383.617 35.1292 383.664C34.5418 382.178 34.1595 380.127 33.9825 377.509C33.8788 375.971 32.9242 375.036 31.1188 374.704C29.1233 374.337 27.2919 373.922 25.6247 373.46C24.0439 373.024 23.0353 372.203 22.5991 370.998C22.2017 369.901 22.0635 368.704 22.1844 367.409C22.5148 363.806 27.0825 362.012 30.0951 361.118C31.1879 363.459 33.0193 364.318 35.5892 363.696C37.0448 363.342 37.8935 362.424 38.1354 360.943C38.2909 359.992 38.2693 359.234 38.0706 358.669C38.4896 358.081 38.9669 358.034 39.5025 358.526C44.7417 363.351 49.9399 367.387 55.0971 370.635ZM58.0489 377.555C58.1305 377.067 58.1102 376.567 57.989 376.084C57.8678 375.601 57.6483 375.143 57.3428 374.738C57.0374 374.332 56.652 373.987 56.2088 373.721C55.7655 373.455 55.273 373.273 54.7595 373.187C53.7223 373.014 52.6622 373.239 51.8122 373.812C50.9623 374.386 50.3923 375.261 50.2275 376.246C50.1459 376.733 50.1663 377.233 50.2875 377.716C50.4086 378.2 50.6282 378.657 50.9336 379.063C51.2391 379.468 51.6244 379.814 52.0677 380.08C52.5109 380.346 53.0034 380.527 53.517 380.613C54.5541 380.786 55.6143 380.562 56.4642 379.988C57.3141 379.415 57.8842 378.539 58.0489 377.555ZM64.8737 395.125C64.8737 394.147 64.4853 393.21 63.794 392.518C63.1026 391.827 62.165 391.439 61.1872 391.439C60.2095 391.439 59.2719 391.827 58.5805 392.518C57.8892 393.21 57.5008 394.147 57.5008 395.125C57.5008 396.103 57.8892 397.041 58.5805 397.732C59.2719 398.423 60.2095 398.812 61.1872 398.812C62.165 398.812 63.1026 398.423 63.794 397.732C64.4853 397.041 64.8737 396.103 64.8737 395.125ZM81.1422 403.541C81.1422 402.594 80.7661 401.686 80.0966 401.017C79.4271 400.347 78.5191 399.971 77.5723 399.971C76.6255 399.971 75.7175 400.347 75.048 401.017C74.3786 401.686 74.0024 402.594 74.0024 403.541C74.0024 404.488 74.3786 405.396 75.048 406.065C75.7175 406.735 76.6255 407.111 77.5723 407.111C78.5191 407.111 79.4271 406.735 80.0966 406.065C80.7661 405.396 81.1422 404.488 81.1422 403.541ZM143.171 411.633C143.171 411.154 143.077 410.68 142.893 410.237C142.71 409.795 142.441 409.393 142.103 409.054C141.764 408.715 141.362 408.447 140.919 408.263C140.477 408.08 140.002 407.986 139.523 407.986C138.556 407.986 137.628 408.37 136.944 409.054C136.26 409.738 135.876 410.666 135.876 411.633C135.876 412.601 136.26 413.529 136.944 414.213C137.628 414.897 138.556 415.281 139.523 415.281C140.002 415.281 140.477 415.187 140.919 415.003C141.362 414.82 141.764 414.551 142.103 414.213C142.441 413.874 142.71 413.472 142.893 413.029C143.077 412.587 143.171 412.112 143.171 411.633ZM176.317 412.404C176.317 411.924 176.222 411.448 176.038 411.003C175.854 410.559 175.585 410.156 175.245 409.816C174.905 409.476 174.501 409.206 174.057 409.022C173.613 408.838 173.137 408.744 172.656 408.744C172.176 408.744 171.7 408.838 171.255 409.022C170.811 409.206 170.408 409.476 170.068 409.816C169.728 410.156 169.458 410.559 169.274 411.003C169.09 411.448 168.996 411.924 168.996 412.404C168.996 413.375 169.381 414.306 170.068 414.993C170.754 415.679 171.685 416.065 172.656 416.065C173.627 416.065 174.558 415.679 175.245 414.993C175.931 414.306 176.317 413.375 176.317 412.404ZM112.707 414.698C112.707 413.729 112.322 412.799 111.637 412.114C110.952 411.429 110.022 411.044 109.053 411.044C108.084 411.044 107.155 411.429 106.469 412.114C105.784 412.799 105.399 413.729 105.399 414.698C105.399 415.667 105.784 416.596 106.469 417.282C107.155 417.967 108.084 418.352 109.053 418.352C110.022 418.352 110.952 417.967 111.637 417.282C112.322 416.596 112.707 415.667 112.707 414.698Z" fill="#FFA5ED"/><path d="M38.0702 358.668C38.2689 359.234 38.2905 359.992 38.135 360.943C37.8931 362.424 37.0444 363.342 35.5888 363.696C33.0189 364.318 31.1875 363.458 30.0947 361.117L38.0702 358.668Z" fill="#FFCCE6"/><path d="M53.5168 380.613C55.6766 380.974 57.7056 379.605 58.0487 377.554C58.3919 375.504 56.9191 373.549 54.7593 373.187C52.5995 372.826 50.5705 374.195 50.2274 376.246C49.8842 378.296 51.357 380.251 53.5168 380.613Z" fill="#FFCCE6"/><path d="M72.065 418.209L70.7238 431.66L66.5968 473.947L64.543 508H9.52441C10.1464 483.069 12.4097 458.301 16.3143 433.694C16.9362 429.768 17.5517 426.397 18.1608 423.58C19.0505 419.447 19.9273 416.134 20.7912 413.642C23.2272 406.601 25.4646 399.498 27.5033 392.333L30.814 379.88C30.9263 379.453 31.0213 379.455 31.0991 379.887C31.2675 380.82 31.4554 382.316 31.8765 383.521C33.0168 386.748 34.2543 389.86 35.5889 392.858C36.3102 394.469 37.0747 395.762 37.8824 396.738C39.5605 398.753 42.5926 399.084 45.3655 399.019C46.1344 399.002 48.2119 398.9 51.5982 398.714C51.9365 398.696 52.2711 398.794 52.5459 398.993C52.8207 399.193 53.0191 399.481 53.1078 399.809C54.5202 405.012 55.9067 410.402 58.7638 414.892C61.9126 419.849 66.8689 419.68 72.065 418.209Z" fill="#F8ABCC"/><path d="M37.714 390.356L35.1289 383.664C35.8805 383.616 36.5888 383.554 37.254 383.476C39.9103 383.158 41.6207 385.841 40.6489 388.115C40.1695 389.238 39.1912 389.985 37.714 390.356Z" fill="#FFCCE6"/><path d="M88.4176 389.709L95.1103 392.268C94.9764 393.641 94.5639 394.777 93.8728 395.676C93.1428 396.622 92.1472 397.09 90.886 397.082C88.8776 397.06 87.6963 395.857 87.3421 393.473C87.2471 392.834 87.6056 391.579 88.4176 389.709Z" fill="#FFE4E1"/><path d="M24.8858 390.707C25.5682 391.544 26.4407 392.087 27.5032 392.333C25.4645 399.498 23.2272 406.601 20.7911 413.642C19.9273 416.134 19.0505 419.447 18.1607 423.58C17.5517 426.396 16.9362 429.768 16.3142 433.694C12.4096 458.301 10.1463 483.069 9.52435 508H6.63477C7.23082 482.102 9.5805 456.361 13.6838 430.778C14.1071 428.157 14.7442 425.021 15.595 421.371C16.2386 418.555 16.8152 416.382 17.3249 414.853C19.9769 406.854 22.4972 398.805 24.8858 390.707Z" fill="#94538A"/><path d="M61.187 398.811C63.223 398.811 64.8734 397.161 64.8734 395.125C64.8734 393.089 63.223 391.438 61.187 391.438C59.151 391.438 57.5005 393.089 57.5005 395.125C57.5005 397.161 59.151 398.811 61.187 398.811Z" fill="#FFCCE6"/><path d="M192.423 397.367C193.414 399.764 193.855 401.844 191.847 403.437C190.337 404.636 188.037 404.351 186.884 402.9C186.262 402.114 185.765 400.978 185.394 399.492L192.423 397.367Z" fill="white"/><path d="M77.5723 407.111C79.5439 407.111 81.1422 405.513 81.1422 403.541C81.1422 401.569 79.5439 399.971 77.5723 399.971C75.6007 399.971 74.0024 401.569 74.0024 403.541C74.0024 405.513 75.6007 407.111 77.5723 407.111Z" fill="#FFCCE6"/><path d="M139.523 415.281C141.538 415.281 143.171 413.648 143.171 411.633C143.171 409.619 141.538 407.986 139.523 407.986C137.509 407.986 135.875 409.619 135.875 411.633C135.875 413.648 137.509 415.281 139.523 415.281Z" fill="#FFE4E1"/><path d="M172.656 416.065C174.678 416.065 176.317 414.426 176.317 412.404C176.317 410.383 174.678 408.744 172.656 408.744C170.635 408.744 168.996 410.383 168.996 412.404C168.996 414.426 170.635 416.065 172.656 416.065Z" fill="#FFE4E1"/><path d="M293.779 409.294L293.876 412.346C293.879 412.433 293.861 412.519 293.825 412.598C293.788 412.677 293.734 412.746 293.666 412.801C293.598 412.855 293.518 412.892 293.433 412.91C293.348 412.928 293.26 412.925 293.176 412.903L291.705 412.501C291.573 412.466 291.458 412.383 291.382 412.269C291.307 412.154 291.277 412.015 291.297 411.88L291.537 410.37C291.556 410.255 291.61 410.148 291.693 410.065L292.826 408.925C292.903 408.848 293 408.795 293.106 408.772C293.212 408.75 293.322 408.759 293.423 408.798C293.525 408.837 293.612 408.905 293.675 408.993C293.738 409.081 293.774 409.186 293.779 409.294Z" fill="#FF7CB3"/><path d="M109.053 418.352C111.071 418.352 112.707 416.716 112.707 414.698C112.707 412.68 111.071 411.044 109.053 411.044C107.035 411.044 105.399 412.68 105.399 414.698C105.399 416.716 107.035 418.352 109.053 418.352Z" fill="#FFE4E1"/><path d="M266.535 440.425C247.949 446.727 228.301 450.062 207.59 450.429C187.437 450.783 171.222 450.917 158.947 450.83C138.659 450.684 118.437 447.69 98.2788 441.851C91.5494 439.898 82.3645 436.501 70.7241 431.659L72.0653 418.209L86.5261 412.644C86.8299 412.527 87.1648 412.518 87.4741 412.62C87.7834 412.722 88.0482 412.927 88.2236 413.201C91.1002 417.697 93.8084 422.22 97.6374 425.129C105.386 431.031 114.67 426.722 122.315 423.263C123.384 422.777 124.466 423.438 125.386 424.228C129.494 427.748 133.511 430.431 137.437 432.275C144.434 435.566 151.529 433.584 157.249 428.912C159.461 427.107 161.156 425.731 162.335 424.785C165.568 422.194 168.989 422.524 172.617 423.852C175.403 424.876 178.321 425.893 181.37 426.904C187.188 428.835 192.857 428.696 198.377 426.489C204.293 424.131 211.283 420.347 212.806 414.024C212.862 413.782 213.007 413.698 213.24 413.771C213.382 413.819 214.188 414.287 215.657 415.177C216.641 415.777 217.458 416.229 218.106 416.531C227.172 420.742 236.698 421.807 246.684 419.725C248.671 419.311 250.448 418.246 252.016 416.531C252.167 416.367 252.353 416.302 252.573 416.337C255.575 416.803 258.652 416.814 261.806 416.369C261.908 416.354 262.012 416.375 262.101 416.428C262.189 416.481 262.257 416.564 262.291 416.661C262.81 418.125 263.393 419.894 263.671 421.41C264.825 427.712 265.779 434.05 266.535 440.425Z" fill="#FFCCE6"/><path d="M206.106 418.76C204.34 420.267 202.387 421.453 200.249 422.317C199.342 421.133 198.796 420.257 198.61 419.687C197.98 417.739 198.511 416.244 200.204 415.203C201.88 414.171 203.342 414.331 204.59 415.683C205.212 416.356 205.718 417.382 206.106 418.76Z" fill="#FFE4E1"/><path d="M159.737 422.984L153.453 427.986C153.133 426.146 153.446 424.695 154.392 423.632C155.744 422.103 157.526 421.887 159.737 422.984Z" fill="#FFCCE6"/><path d="M266.535 440.425L269.301 465.214L271.161 481.832C256.354 485.447 241.371 487.214 226.21 487.132C198.36 486.98 170.511 486.959 142.665 487.067C131.465 487.114 120.758 486.218 110.543 484.378C99.0148 482.3 86.9598 479.435 74.3778 475.781C73.2591 475.457 70.6654 474.845 66.5967 473.947L70.7237 431.659C82.3641 436.501 91.549 439.898 98.2784 441.851C118.436 447.69 138.659 450.684 158.947 450.83C171.222 450.917 187.436 450.783 207.59 450.429C228.301 450.062 247.949 446.727 266.535 440.425Z" fill="#FFC1E7"/><path d="M272.25 465.207L273.364 473.772C274.755 485.097 275.31 496.506 275.029 508H272.23C272.308 499.297 271.952 490.574 271.161 481.832L269.302 465.214L272.25 465.207Z" fill="#94538A"/><path d="M271.161 481.832C271.951 490.574 272.307 499.297 272.23 508H64.543L66.5968 473.947C70.6655 474.845 73.2592 475.457 74.3779 475.781C86.9599 479.435 99.0149 482.3 110.543 484.378C120.758 486.218 131.465 487.114 142.665 487.067C170.511 486.959 198.36 486.98 226.21 487.132C241.371 487.214 256.354 485.447 271.161 481.832Z" fill="#FFB7E9"/></svg>