<svg xmlns="http://www.w3.org/2000/svg" width="42" height="34" viewBox="0 0 42 34" fill="none"><path d="M33.733 11.7013C37.4017 12.4989 40.8099 14.8331 41.1236 18.8314C41.2938 21.0078 40.7497 22.7341 39.4913 24.0102C36.8807 26.6474 33.6001 26.2699 30.0377 25.7382C29.8482 25.7095 29.6545 25.7453 29.4877 25.8397C29.321 25.9342 29.1907 26.0819 29.1179 26.2592C27.4324 30.3055 25.6406 34.4048 20.2864 33.4106C17.5109 32.8948 15.5277 29.2952 14.98 26.8281C14.8843 26.4063 14.7354 25.5822 14.5334 24.3558C14.5203 24.2768 14.4895 24.2019 14.4434 24.1366C14.3973 24.0713 14.3371 24.0173 14.2674 23.9789C14.1977 23.9405 14.1203 23.9185 14.0411 23.9147C13.9619 23.9109 13.8829 23.9254 13.8103 23.957C11.5701 24.9318 9.13844 25.5733 6.5154 25.8817C5.40947 26.0093 4.33898 25.9296 3.30394 25.6425C-0.375413 24.6057 -1.01344 20.4159 1.54934 17.8265C2.9353 16.4299 4.62433 15.4285 6.61642 14.8224C6.67716 14.8044 6.73249 14.7717 6.77745 14.7271C6.82242 14.6825 6.85562 14.6274 6.87406 14.5668C6.8925 14.5062 6.89562 14.4419 6.88313 14.3798C6.87064 14.3177 6.84294 14.2597 6.8025 14.211C5.16487 12.2437 3.75057 8.995 6.66427 7.43181C9.48227 5.92711 14.459 6.90011 17.2397 8.07516C17.2927 8.09785 17.3517 8.10233 17.4075 8.0879C17.4634 8.07347 17.5128 8.04094 17.5481 7.99541C19.4516 5.5177 21.5412 3.47065 23.8168 1.85429C25.9082 0.372622 28.0492 -0.221094 30.2398 0.0731121C32.5119 0.377952 34.1903 1.34918 35.2749 2.98681C37.1253 5.78886 35.3547 9.01627 33.5895 11.3185C33.5646 11.3503 33.5483 11.388 33.5423 11.428C33.5363 11.4679 33.5406 11.5089 33.555 11.5471C33.5693 11.5854 33.5931 11.6195 33.6243 11.6465C33.6554 11.6734 33.6928 11.6923 33.733 11.7013ZM17.6598 9.73938C17.1954 9.60823 16.7718 9.33884 16.389 8.9312C16.2664 8.80502 16.1196 8.70711 15.9583 8.64408C13.9166 7.86071 11.6658 7.55232 9.20579 7.71892C6.63237 7.88906 5.02663 9.54796 6.5526 12.1586C6.822 12.6194 7.25269 13.2202 7.84464 13.9611C7.93591 14.0759 7.99955 14.2102 8.03066 14.3536C8.06177 14.4969 8.05951 14.6455 8.02406 14.7878C7.9886 14.9302 7.9209 15.0625 7.82618 15.1745C7.73146 15.2865 7.61225 15.3752 7.47777 15.4339C4.84587 16.577 0.773046 18.204 0.985726 21.7239C1.10802 23.739 3.26672 24.9991 5.05323 24.9832C7.53449 24.9619 10.1788 24.354 12.9862 23.1594C14.3686 22.5692 15.5436 23.2286 15.65 24.7226C15.7776 26.5552 16.3305 28.262 17.3089 29.8429C18.771 32.2089 20.7649 33.1235 23.5031 32.2515C26.1297 31.4114 27.3792 27.7905 28.2884 25.6212C28.4208 25.3036 28.6561 25.0395 28.9567 24.8709C29.2573 24.7023 29.606 24.6389 29.9473 24.6907C30.993 24.8538 31.9979 24.9902 32.9621 25.1001C37.3432 25.6106 40.8099 23.0106 40.0655 18.3476C39.4966 14.7692 35.8864 13.0838 32.6165 12.5202C32.4941 12.4993 32.3795 12.446 32.2846 12.3659C32.1897 12.2859 32.1179 12.1819 32.0767 12.0648C32.0355 11.9476 32.0263 11.8216 32.0502 11.6998C32.074 11.5779 32.13 11.4646 32.2124 11.3717C33.6107 9.79787 35.9821 6.21953 34.8283 4.15123C32.643 0.25388 27.8365 0.29111 24.3964 2.6997C23.177 3.55396 21.6741 4.92574 19.8876 6.81504C19.0475 7.70475 18.429 8.62103 18.032 9.56391C18.0027 9.63309 17.9488 9.68909 17.8802 9.7214C17.8117 9.75371 17.7333 9.7601 17.6598 9.73938Z" fill="#020201"/><path d="M17.6601 9.7396C17.7336 9.76032 17.812 9.75393 17.8805 9.72162C17.9491 9.68931 18.003 9.63331 18.0323 9.56413C18.4293 8.62125 19.0478 7.70497 19.8879 6.81526C21.6744 4.92596 23.1774 3.55418 24.3967 2.69992C27.8368 0.29133 32.6433 0.254101 34.8286 4.15145C35.9824 6.21975 33.611 9.79809 32.2127 11.3719C32.1303 11.4649 32.0743 11.5781 32.0505 11.7C32.0266 11.8218 32.0358 11.9479 32.077 12.065C32.1182 12.1821 32.19 12.2861 32.2849 12.3662C32.3798 12.4462 32.4944 12.4995 32.6168 12.5204C35.8867 13.084 39.4969 14.7695 40.0658 18.3478C40.8102 23.0108 37.3436 25.6108 32.9624 25.1003C31.9982 24.9905 30.9933 24.854 29.9476 24.6909C29.6063 24.6391 29.2576 24.7025 28.957 24.8711C28.6564 25.0397 28.4212 25.3038 28.2887 25.6214C27.3795 27.7907 26.13 31.4116 23.5034 32.2517C20.7652 33.1237 18.7713 32.2092 17.3092 29.8431C16.3308 28.2622 15.7779 26.5554 15.6503 24.7228C15.5439 23.2288 14.3689 22.5695 12.9865 23.1597C10.1791 24.3542 7.53479 24.9621 5.05354 24.9834C3.26703 24.9993 1.10832 23.7392 0.986033 21.7241C0.773354 18.2042 4.84617 16.5772 7.47808 15.4341C7.61256 15.3755 7.73176 15.2867 7.82649 15.1747C7.92121 15.0627 7.98891 14.9304 8.02436 14.7881C8.05982 14.6457 8.06208 14.4971 8.03097 14.3538C7.99986 14.2104 7.93622 14.0761 7.84495 13.9613C7.25299 13.2205 6.82231 12.6196 6.55291 12.1588C5.02694 9.54818 6.63268 7.88928 9.2061 7.71914C11.6661 7.55254 13.9169 7.86093 15.9587 8.6443C16.1199 8.70733 16.2667 8.80524 16.3893 8.93142C16.7721 9.33906 17.1957 9.60845 17.6601 9.7396ZM24.9922 12.1588C22.0466 11.9408 16.6233 13.1637 14.4859 14.5568C12.7206 15.7106 11.1787 17.8746 13.0662 19.6983C16.3096 22.8406 21.5681 22.5057 25.1198 20.2832C26.1868 19.6168 26.94 18.8706 27.3795 18.0447C28.645 15.668 28.0548 12.3821 24.9922 12.1588Z" fill="#EEEEEE"/><path d="M14.4855 14.5568C16.6229 13.1637 22.0462 11.9408 24.9918 12.1588C28.0544 12.3821 28.6446 15.668 27.3792 18.0447C26.9396 18.8706 26.1864 19.6168 25.1194 20.2832C21.5677 22.5057 16.3092 22.8407 13.0658 19.6983C11.1783 17.8746 12.7202 15.7106 14.4855 14.5568ZM20.8021 13.5625C18.2127 14.0517 14.5014 14.9343 13.4699 17.1355C13.1616 17.7948 13.1935 18.3194 13.5656 18.7094C16.5857 21.8783 21.7166 21.5327 25.0822 19.0443C26.1527 18.2539 26.773 17.3092 26.9432 16.2104C27.5599 12.2492 23.0458 13.1372 20.8021 13.5625Z" fill="#020201"/><path d="M20.8025 13.5625C23.0462 13.1371 27.5603 12.2492 26.9436 16.2103C26.7734 17.3092 26.1531 18.2539 25.0826 19.0443C21.717 21.5327 16.5861 21.8783 13.5661 18.7093C13.1939 18.3194 13.162 17.7948 13.4703 17.1355C14.5018 14.9343 18.2131 14.0517 20.8025 13.5625Z" fill="#FFC100"/></svg>