<svg xmlns="http://www.w3.org/2000/svg" width="48" height="35" viewBox="0 0 48 35" fill="none"><path d="M8.42325 14.0768C8.46974 14.0688 8.51235 14.0458 8.54457 14.0113C8.5768 13.9769 8.59689 13.9328 8.6018 13.8859C8.6067 13.839 8.59614 13.7917 8.57173 13.7513C8.54733 13.711 8.5104 13.6797 8.46658 13.6622C6.87823 12.965 5.69419 12.0635 4.91445 10.9579C2.25963 7.18914 4.16565 4.40437 8.07671 3.22239C12.9903 1.7413 17.4397 2.44679 21.4251 5.33882C21.4578 5.36224 21.4954 5.37775 21.5352 5.38413C21.5749 5.39051 21.6155 5.38759 21.6539 5.37559C21.6923 5.3636 21.7274 5.34285 21.7564 5.31499C21.7854 5.28713 21.8076 5.25292 21.8211 5.21505C23.3971 1.00282 26.4789 -0.657719 31.0666 0.233408C33.3686 0.678972 34.5733 2.06103 34.6806 4.37961C34.6821 4.42823 34.6953 4.47577 34.7191 4.5182C34.7429 4.56062 34.7765 4.59671 34.8172 4.62341C34.8578 4.6501 34.9043 4.66662 34.9527 4.67158C35.0011 4.67654 35.05 4.6698 35.0952 4.6519C37.0198 3.87836 39.687 3.36473 41.5744 3.92787C44.6377 4.83757 47.7566 7.4305 47.7195 10.8279C47.6885 13.6251 45.4422 15.494 43.4928 17.1524C43.4586 17.1825 43.4317 17.22 43.4143 17.2621C43.3969 17.3042 43.3893 17.3498 43.3923 17.3952C43.3953 17.4407 43.4087 17.4849 43.4315 17.5243C43.4543 17.5638 43.4859 17.5975 43.5238 17.6228C46.2157 19.4174 47.7071 22.2764 46.1229 25.3644C44.4582 28.5948 39.458 29.3312 36.0853 29.0156C33.8699 28.8093 31.7432 28.2977 29.7051 27.4809C29.5649 27.4245 29.4092 27.4204 29.267 27.4693C29.1248 27.5183 29.0056 27.6169 28.9316 27.747C26.5305 31.9055 23.5786 34.3623 18.6279 34.0715C16.891 33.9683 15.5193 33.4898 14.5126 32.6358C13.2131 31.526 12.8046 29.9377 13.2873 27.8707C13.2972 27.8236 13.2948 27.7746 13.2801 27.7287C13.2654 27.6828 13.2391 27.6417 13.2039 27.6096C13.1686 27.5775 13.1257 27.5556 13.0795 27.546C13.0332 27.5364 12.9854 27.5396 12.9408 27.5551C11.01 28.1781 9.137 28.5411 7.32174 28.6443C3.28692 28.8794 -0.48181 26.6021 0.0503911 22.0784C0.403129 19.077 1.96259 15.9395 4.87732 15.0484C6.43679 14.5698 7.61876 14.246 8.42325 14.0768ZM21.6911 6.99111C17.6027 3.48436 12.9078 2.69639 7.60638 4.62716C5.76843 5.29551 4.28323 6.65077 4.90826 8.4949C6.01598 11.7252 8.84407 12.4183 11.3256 14.0645C11.536 14.2047 11.6598 14.3842 11.6969 14.6028C11.7053 14.6531 11.7025 14.7046 11.6887 14.7536C11.6749 14.8026 11.6504 14.8478 11.6172 14.8858C11.5839 14.9238 11.5427 14.9537 11.4965 14.9733C11.4503 14.9929 11.4004 15.0016 11.3504 14.9989C10.2282 14.9618 9.06066 15.0876 7.84774 15.3764C4.62359 16.1437 2.7609 16.8306 1.62842 20.1291C-0.00531197 24.9065 2.77946 27.8522 7.50739 27.4623C9.8631 27.2643 11.9403 26.8125 13.7391 26.107C14.9231 25.645 15.2758 25.9936 14.7973 27.1529C14.1475 28.7185 13.8072 30.3275 14.9706 31.5528C15.5317 32.1469 16.431 32.5553 17.6687 32.7781C20.4989 33.2938 22.9804 32.6585 25.1133 30.8721C26.3139 29.8634 26.9575 28.6505 28.1518 26.8125C28.3339 26.5316 28.6086 26.3237 28.9277 26.2252C29.2469 26.1267 29.5901 26.1441 29.897 26.2741C33.6038 27.8336 37.6386 28.4462 41.4197 27.4004C43.0122 26.9631 44.1612 26.2164 44.8667 25.1602C46.2343 23.1119 45.5783 20.4694 43.5238 19.0152C42.9998 18.648 42.4346 18.3076 41.8282 17.9941C41.7359 17.9469 41.6569 17.8773 41.5986 17.7918C41.5403 17.7062 41.5045 17.6075 41.4946 17.5049C41.4847 17.4023 41.501 17.2991 41.5421 17.205C41.5831 17.1109 41.6474 17.0289 41.7291 16.9668C44.6934 14.6523 48.7158 11.7995 45.2503 7.60378C43.7321 5.76789 41.7787 4.84994 39.3899 4.84994C37.7624 4.84994 35.9245 5.59874 34.0927 6.24852C34.0327 6.26983 33.9685 6.27681 33.9052 6.26888C33.842 6.26095 33.7815 6.23833 33.7286 6.20285C33.6757 6.16737 33.6318 6.12 33.6005 6.06454C33.5691 6.00907 33.5512 5.94704 33.5481 5.88341C33.4986 4.65398 33.4614 3.94643 33.4367 3.76078C33.3212 2.86552 32.9664 2.28176 32.3723 2.00947C28.9728 0.45825 26.1715 0.973949 23.9685 3.55657C23.2382 4.41056 22.836 6.08761 22.1243 6.95398C22.0715 7.01589 21.9964 7.05451 21.9154 7.06146C21.8343 7.06841 21.7537 7.04313 21.6911 6.99111Z" fill="#020201"/><path d="M22.1247 6.9541C22.8363 6.08773 23.2386 4.41068 23.9688 3.55668C26.1719 0.974064 28.9731 0.458365 32.3726 2.00959C32.9667 2.28188 33.3215 2.86564 33.437 3.76089C33.4618 3.94654 33.4989 4.6541 33.5484 5.88352C33.5515 5.94716 33.5694 6.00918 33.6008 6.06465C33.6321 6.12012 33.676 6.16749 33.7289 6.20297C33.7819 6.23845 33.8423 6.26106 33.9056 6.26899C33.9688 6.27692 34.033 6.26994 34.093 6.24863C35.9248 5.59885 37.7627 4.85005 39.3903 4.85005C41.779 4.85005 43.7324 5.768 45.2507 7.60389C48.7161 11.7996 44.6937 14.6525 41.7295 16.9669C41.6478 17.029 41.5834 17.111 41.5424 17.2051C41.5014 17.2992 41.485 17.4024 41.4949 17.505C41.5048 17.6076 41.5406 17.7063 41.5989 17.7919C41.6573 17.8774 41.7363 17.947 41.8285 17.9942C42.435 18.3077 43.0002 18.6481 43.5241 19.0153C45.5786 20.4695 46.2346 23.112 44.867 25.1603C44.1615 26.2165 43.0125 26.9632 41.42 27.4005C37.6389 28.4464 33.6041 27.8337 29.8973 26.2742C29.5904 26.1442 29.2472 26.1269 28.9281 26.2253C28.6089 26.3238 28.3342 26.5317 28.1521 26.8126C26.9578 28.6506 26.3142 29.8635 25.1137 30.8722C22.9807 32.6586 20.4992 33.2939 17.669 32.7782C16.4313 32.5554 15.532 32.147 14.9709 31.5529C13.8075 30.3276 14.1478 28.7187 14.7976 27.153C15.2762 25.9937 14.9235 25.6451 13.7394 26.1072C11.9407 26.8126 9.86342 27.2644 7.50771 27.4624C2.77978 27.8523 -0.00499049 24.9066 1.62874 20.1292C2.76122 16.8308 4.62391 16.1439 7.84806 15.3765C9.06098 15.0877 10.2285 14.9619 11.3507 14.999C11.4007 15.0017 11.4506 14.993 11.4968 14.9734C11.543 14.9538 11.5842 14.9239 11.6175 14.8859C11.6508 14.8479 11.6752 14.8027 11.689 14.7537C11.7028 14.7048 11.7056 14.6532 11.6973 14.603C11.6601 14.3843 11.5363 14.2048 11.3259 14.0646C8.84439 12.4185 6.0163 11.7254 4.90858 8.49502C4.28355 6.65088 5.76876 5.29562 7.60671 4.62728C12.9081 2.6965 17.603 3.48448 21.6915 6.99123C21.7541 7.04325 21.8346 7.06853 21.9157 7.06158C21.9968 7.05463 22.0719 7.01601 22.1247 6.9541ZM22.6569 10.4444C20.0247 11.0384 18.063 12.7031 16.7717 15.4384C15.7382 17.6353 16.0786 19.7888 18.3064 20.878C22.6754 23.0026 27.0527 23.0356 31.4382 20.977C35.3616 19.1328 37.051 14.6648 33.2638 11.5706C31.7002 10.2958 29.9344 9.70587 27.9665 9.80076C25.8707 9.9039 24.1008 10.1184 22.6569 10.4444Z" fill="#FFB4E2"/><path d="M27.966 9.80068C29.9339 9.70579 31.6996 10.2958 33.2632 11.5706C37.0505 14.6648 35.3611 19.1328 31.4376 20.9769C27.0521 23.0356 22.6749 23.0026 18.3059 20.8779C16.0781 19.7887 15.7377 17.6352 16.7712 15.4383C18.0625 12.703 20.0242 11.0384 22.6563 10.4443C24.1003 10.1184 25.8702 9.90382 27.966 9.80068ZM17.421 17.0658C17.0435 19.009 19.0176 20.1972 20.6699 20.6551C24.0982 21.6164 27.3265 21.474 30.3547 20.2281C32.3597 19.3989 34.538 17.4866 34.1605 15.1536C33.979 14.0026 33.4117 13.0578 32.4587 12.3194C31.1757 11.3292 29.4223 10.9063 27.1986 11.0507C23.2999 11.3045 20.4842 11.453 18.4296 14.8566C17.8603 15.7931 17.5241 16.5295 17.421 17.0658Z" fill="#020201"/><path d="M20.6703 20.6553C19.018 20.1974 17.044 19.0092 17.4214 17.066C17.5246 16.5297 17.8608 15.7933 18.4301 14.8568C20.4847 11.4532 23.3004 11.3047 27.1991 11.0509C29.4228 10.9065 31.1762 11.3294 32.4592 12.3195C33.4122 13.058 33.9795 14.0028 34.161 15.1538C34.5385 17.4868 32.3602 19.399 30.3551 20.2283C27.327 21.4742 24.0987 21.6166 20.6703 20.6553Z" fill="#FFC100"/></svg>