<svg xmlns="http://www.w3.org/2000/svg" width="18" height="23" viewBox="0 0 18 23" fill="none"><path d="M1.4011 0C1.46734 0 1.53086 0.0263002 1.5777 0.0731404C1.62454 0.119981 1.65086 0.183502 1.65086 0.249744L1.66172 0.401792C1.71783 3.3244 1.75252 6.21865 1.76378 8.91852C1.77505 11.6184 1.76266 14.0708 1.72735 16.135C1.69204 18.1992 1.63449 19.8346 1.55801 20.9475C1.48152 22.0604 1.3876 22.6288 1.28164 22.6201H1.2382C1.02522 22.605 0.77647 20.2615 0.546461 16.103C0.316452 11.9445 0.123935 6.31015 0.0110938 0.434368L0.000236293 0.282321C-0.00123041 0.248619 0.00414233 0.214965 0.0160359 0.183398C0.0279294 0.15183 0.0460965 0.123014 0.0694371 0.0986583C0.0927777 0.0743029 0.120811 0.0549158 0.151844 0.0416903C0.182877 0.0284649 0.216268 0.0216749 0.250001 0.0217068L1.4011 0Z" fill="#CCC093"/><path d="M17.4512 17.3315C17.4591 17.3693 17.4595 17.4083 17.4523 17.4463C17.4451 17.4842 17.4305 17.5204 17.4094 17.5527C17.3882 17.585 17.3608 17.6128 17.3288 17.6344C17.2969 17.6561 17.2609 17.6713 17.2231 17.6791L17.0385 17.7116C16.8012 17.7595 16.5553 17.7517 16.3147 17.6885C16.0741 17.6253 15.8438 17.5081 15.6368 17.3436C15.4299 17.1791 15.2506 16.9705 15.1091 16.7299C14.9675 16.4892 14.8667 16.2213 14.8123 15.9415L14.5734 14.6927C14.4625 14.131 14.5454 13.5547 14.804 13.0905C15.0626 12.6262 15.4757 12.312 15.9526 12.2168L16.148 12.1733C16.1866 12.1655 16.2263 12.1655 16.2649 12.1734C16.3035 12.1812 16.34 12.1968 16.3725 12.2191C16.4049 12.2414 16.4325 12.27 16.4536 12.3032C16.4748 12.3363 16.489 12.3734 16.4955 12.4123L17.4512 17.3315Z" fill="#DAC488"/></svg>