<svg xmlns="http://www.w3.org/2000/svg" width="72" height="58" viewBox="0 0 72 58" fill="none"><ellipse cx="36.5635" cy="28.576" rx="30.249" ry="25.2877" fill="#63AAE6"/><path d="M3.66337 18.4726C7.64612 10.3935 16.4243 3.00024 24.8139 0.660329C26.6384 0.151069 29.3637 -0.0682187 32.7774 0.0184638C37.4427 0.137136 38.3101 0.319786 41.3636 1.8228C47.1801 4.68642 48.2806 8.39313 42.5121 5.69152C39.7914 4.41709 38.8874 4.26282 34.2953 4.28552C28.2466 4.31596 24.8175 5.48617 19.356 9.38327C11.213 15.1936 6.23134 25.8793 7.77408 34.2251C8.70747 39.2759 10.8487 42.5646 15.1034 45.4829C26.8995 53.5728 50.0932 50.8449 60.8341 40.104C65.0826 35.855 66.9416 30.264 65.5289 25.983C64.0496 21.5018 58.9101 16.8963 50.0323 12.0988C44.8133 9.27802 43.4615 8.33638 43.9429 7.85549C44.3598 7.43808 48.1439 8.26982 53.6844 9.99573C62.9816 12.8924 70.7629 20.6123 71.8882 28.0546C72.35 31.1091 71.349 35.776 69.475 39.3053C65.1239 47.5009 55.9933 53.7456 43.9821 56.7408C37.404 58.3816 26.6306 58.3868 20.9839 56.7522C9.94218 53.5568 3.00654 46.9452 0.778079 37.4916C0.34931 35.6734 -0.000515398 33.2571 0 32.122C0.00258041 28.3982 1.47515 22.9109 3.66337 18.4726Z" fill="black"/><path d="M46.1907 15.0269C46.1595 15.0269 46.1283 15.0276 46.097 15.0291C45.6487 15.0501 45.207 15.1524 44.7945 15.3319L19.7152 24.7168L19.694 24.7249C19.1385 24.9399 18.5973 25.2222 18.1513 25.6025C17.7237 25.9671 17.2007 26.5846 17.1053 27.4695C17.0003 28.4442 17.4642 29.2115 17.9814 29.6781C18.4544 30.105 19.0256 30.3487 19.534 30.4948L22.8402 31.5092C22.6975 31.6192 22.5608 31.7375 22.4308 31.8636L22.4307 31.8637C21.2765 32.9839 20.3779 34.166 19.7718 35.0567C19.4666 35.5052 19.23 35.8881 19.0671 36.1637C18.9855 36.3017 18.9221 36.4133 18.8774 36.4935C18.8551 36.5337 18.8374 36.566 18.8245 36.5898L18.8087 36.6192L18.8035 36.629L18.8016 36.6327L18.8008 36.6342L18.8004 36.6349C18.8003 36.6352 18.8001 36.6355 20.2497 37.3993L18.8001 36.6355C18.4286 37.3406 18.5112 38.1989 19.0102 38.8202C19.0715 38.8965 19.1377 38.9675 19.208 39.0328C18.8927 39.7455 19.0181 40.5907 19.5547 41.1835C20.1664 41.8592 21.1576 42.0359 21.9651 41.6132L22.3349 41.4196C22.4994 41.6465 22.7124 41.8399 22.9644 41.9834C23.5974 42.3438 24.3763 42.3316 24.9977 41.9515L24.1053 40.4927C24.9977 41.9515 24.9979 41.9513 24.9982 41.9511L24.9988 41.9508L25.0002 41.95L25.0033 41.948L25.0114 41.943L25.035 41.9283C25.0438 41.9228 25.0539 41.9165 25.0654 41.9092C25.0787 41.9008 25.0938 41.8912 25.1106 41.8804C25.1734 41.8401 25.2606 41.7832 25.3696 41.7097C25.5876 41.5628 25.8935 41.3491 26.2675 41.0685C27.0146 40.5079 28.0375 39.6769 29.1745 38.5738L29.1746 38.5737C29.6229 38.1387 29.9818 37.619 30.2278 37.0426C30.4739 36.4661 30.6014 35.8459 30.6013 35.2182C30.6013 35.1479 30.5997 35.0776 30.5965 35.0075L39.5641 41.4328C39.6323 41.4817 39.7035 41.5262 39.7773 41.5661C40.6103 42.0168 41.8235 42.4009 43.049 41.8643C44.2989 41.317 44.8339 40.1361 45.0462 39.1521C45.0464 39.1508 45.0467 39.1496 45.047 39.1483L47.1857 29.3689L49.3194 19.6124C49.5745 18.582 49.5384 17.449 48.9255 16.4928C48.2813 15.4876 47.2189 15.0269 46.1907 15.0269ZM31.6614 30.85C31.6677 30.8544 31.674 30.8588 31.6803 30.8633L31.6614 30.85Z" stroke="black" stroke-width="4" stroke-linecap="round" stroke-linejoin="round"/></svg>