<svg xmlns="http://www.w3.org/2000/svg" width="433" height="203" viewBox="0 0 433 203" fill="none"><mask id="path-1-outside-1_83_15563" maskUnits="userSpaceOnUse" x="-2" y="60" width="437" height="109" fill="black"><rect fill="white" x="-2" y="60" width="437" height="109"/><path d="M22.8877 163C19.9943 163 17.4277 161.833 15.1877 159.5C13.041 157.167 11.221 154.087 9.72766 150.26C8.32766 146.433 7.16099 142.233 6.22766 137.66C5.38766 133.087 4.78099 128.513 4.40766 123.94C4.03432 119.273 3.84766 115.073 3.84766 111.34C3.84766 106.58 4.22099 101.54 4.96766 96.22C5.71432 90.9 7.02099 85.9067 8.88766 81.24C10.7543 76.48 13.321 72.6067 16.5877 69.62C19.8543 66.6333 24.0543 65.14 29.1877 65.14C32.7343 65.14 35.8143 66.3067 38.4277 68.64C41.1343 70.88 43.561 74.0533 45.7077 78.16C47.8543 82.1733 49.9077 86.7933 51.8677 92.02C53.8277 97.2467 55.9277 102.8 58.1677 108.68C57.7943 100.653 58.0277 93.3733 58.8677 86.84C59.801 80.2133 61.6677 74.94 64.4677 71.02C67.2677 67.1 71.2343 65.14 76.3677 65.14C80.7543 65.14 84.2543 66.6333 86.8677 69.62C89.5743 72.6067 91.6277 76.48 93.0277 81.24C94.4277 85.9067 95.361 90.9 95.8277 96.22C96.3877 101.54 96.6677 106.58 96.6677 111.34C96.6677 115.167 96.3877 119.367 95.8277 123.94C95.2677 128.513 94.3343 133.087 93.0277 137.66C91.721 142.233 89.9477 146.433 87.7077 150.26C85.4677 154.087 82.7143 157.167 79.4477 159.5C76.2743 161.833 72.4477 163 67.9677 163C63.9543 163 60.501 161.74 57.6077 159.22C54.8077 156.607 52.2877 153.2 50.0477 149C47.901 144.707 45.8943 139.993 44.0277 134.86C42.161 129.727 40.201 124.593 38.1477 119.46C38.241 125.9 38.241 131.827 38.1477 137.24C38.0543 142.56 37.541 147.133 36.6077 150.96C35.7677 154.787 34.2743 157.773 32.1277 159.92C29.981 161.973 26.901 163 22.8877 163ZM150.165 163C146.338 163 142.232 162.72 137.845 162.16C133.552 161.6 129.305 160.433 125.105 158.66C120.905 156.887 117.078 154.273 113.625 150.82C110.172 147.367 107.418 142.793 105.365 137.1C103.312 131.313 102.285 124.173 102.285 115.68C102.285 106.347 103.872 97.8533 107.045 90.2C110.218 82.5467 115.025 76.4333 121.465 71.86C127.905 67.2867 135.978 65 145.685 65C152.685 65 158.378 65.6067 162.765 66.82C167.245 68.0333 170.745 69.62 173.265 71.58C175.785 73.54 177.512 75.6867 178.445 78.02C179.472 80.3533 179.985 82.6867 179.985 85.02C179.985 87.4467 179.332 89.78 178.025 92.02C176.812 94.26 174.852 96.0333 172.145 97.34C169.532 98.5533 166.825 99.1133 164.025 99.02C161.225 98.8333 158.705 98.74 156.465 98.74C151.612 98.74 147.785 99.6267 144.985 101.4C142.278 103.08 140.365 105.693 139.245 109.24C140.738 109.147 142.372 109.1 144.145 109.1C146.012 109.007 147.925 108.96 149.885 108.96C153.712 108.96 157.352 109.053 160.805 109.24C164.352 109.333 166.825 109.52 168.225 109.8C171.492 110.453 173.965 111.76 175.645 113.72C177.325 115.587 178.165 117.733 178.165 120.16C178.165 122.493 177.372 124.593 175.785 126.46C174.198 128.327 171.632 129.633 168.085 130.38C166.778 130.66 164.258 130.893 160.525 131.08C156.885 131.173 153.058 131.22 149.045 131.22C147.458 131.22 145.918 131.22 144.425 131.22C142.932 131.127 141.578 131.08 140.365 131.08C141.672 133.973 143.632 136.26 146.245 137.94C148.952 139.527 152.405 140.32 156.605 140.32C158.192 140.32 160.478 140.18 163.465 139.9C166.452 139.527 169.345 139.76 172.145 140.6C176.625 142 178.865 144.94 178.865 149.42C178.865 151.847 178.025 154.133 176.345 156.28C174.758 158.333 171.865 159.967 167.665 161.18C163.558 162.393 157.725 163 150.165 163ZM217.324 162.58C214.057 162.58 210.744 162.533 207.384 162.44C204.024 162.253 200.944 161.787 198.144 161.04C195.344 160.293 193.057 159.033 191.284 157.26C189.604 155.487 188.764 153.013 188.764 149.84C188.764 145.733 190.164 142.84 192.964 141.16C195.764 139.387 199.17 138.22 203.184 137.66C202.904 134.393 202.717 130.847 202.624 127.02C202.53 123.1 202.484 118.9 202.484 114.42C202.484 110.313 202.53 106.44 202.624 102.8C202.717 99.0667 202.857 95.66 203.044 92.58C198.284 92.02 194.177 90.8067 190.724 88.94C187.364 87.0733 185.684 83.76 185.684 79C185.684 75.4533 186.617 72.7467 188.484 70.88C190.35 68.92 192.824 67.5667 195.904 66.82C199.077 65.98 202.484 65.4667 206.124 65.28C209.857 65.0933 213.544 65 217.184 65C220.824 65 224.51 65.0933 228.244 65.28C231.977 65.4667 235.384 65.98 238.464 66.82C241.544 67.5667 244.017 68.92 245.884 70.88C247.844 72.7467 248.824 75.4533 248.824 79C248.824 82.1733 248.03 84.6933 246.444 86.56C244.857 88.4267 242.71 89.8267 240.004 90.76C237.297 91.6 234.357 92.2067 231.184 92.58C231.464 95.66 231.65 99.02 231.744 102.66C231.837 106.3 231.884 110.22 231.884 114.42C231.884 118.9 231.79 123.1 231.604 127.02C231.51 130.847 231.324 134.393 231.044 137.66C235.244 138.127 238.79 139.247 241.684 141.02C244.67 142.7 246.164 145.64 246.164 149.84C246.164 153.013 245.277 155.487 243.504 157.26C241.824 159.033 239.537 160.293 236.644 161.04C233.844 161.787 230.764 162.253 227.404 162.44C224.044 162.533 220.684 162.58 217.324 162.58ZM269.988 163.14C265.788 163.14 262.288 161.787 259.488 159.08C256.781 156.28 254.634 152.593 253.048 148.02C251.461 143.353 250.341 138.267 249.688 132.76C249.128 127.253 248.848 121.793 248.848 116.38C248.848 110.033 249.688 103.827 251.368 97.76C253.141 91.6933 255.801 86.2333 259.348 81.38C262.988 76.4333 267.561 72.5133 273.068 69.62C278.574 66.7267 285.108 65.28 292.668 65.28C300.321 65.28 307.228 66.8667 313.388 70.04C319.641 73.2133 324.634 77.74 328.368 83.62C332.101 89.5 333.968 96.5 333.968 104.62C333.968 111.713 332.894 117.873 330.748 123.1C328.694 128.233 325.941 132.48 322.488 135.84C323.888 137.987 325.008 140.273 325.848 142.7C326.688 145.127 327.108 147.46 327.108 149.7C327.108 152.313 326.408 154.647 325.008 156.7C323.608 158.66 321.788 160.2 319.548 161.32C317.401 162.44 315.114 163 312.688 163C310.634 163 308.721 162.673 306.948 162.02C305.174 161.367 303.214 160.247 301.068 158.66C299.108 157.167 297.381 155.207 295.888 152.78C294.394 150.26 293.181 147.787 292.248 145.36C288.981 144.987 285.901 144.193 283.008 142.98C283.474 145.22 283.708 147.507 283.708 149.84C283.801 152.173 283.428 154.367 282.588 156.42C281.841 158.38 280.441 160.013 278.388 161.32C276.428 162.533 273.628 163.14 269.988 163.14ZM294.068 123.1C297.428 123.1 300.321 121.933 302.748 119.6C305.268 117.173 306.528 114.373 306.528 111.2C306.528 107.933 305.268 105.133 302.748 102.8C300.321 100.373 297.428 99.16 294.068 99.16C290.708 99.16 287.768 100.373 285.248 102.8C282.821 105.133 281.608 107.933 281.608 111.2C281.608 114.373 282.821 117.173 285.248 119.6C287.768 121.933 290.708 123.1 294.068 123.1ZM360.102 163.28C353.662 163.28 348.575 160.153 344.842 153.9C341.202 147.647 339.055 139.433 338.402 129.26C337.655 116.66 339.008 105.553 342.462 95.94C346.008 86.2333 351.328 78.6733 358.422 73.26C365.515 67.8467 373.962 65.14 383.762 65.14C393.655 65.14 402.102 67.8467 409.102 73.26C416.195 78.6733 421.468 86.1867 424.922 95.8C428.468 105.413 429.822 116.567 428.982 129.26C428.328 139.713 426.135 147.973 422.402 154.04C418.762 160.107 413.722 163.14 407.282 163.14C403.642 163.14 400.842 162.487 398.882 161.18C396.922 159.78 395.522 158.053 394.682 156C393.935 153.853 393.562 151.707 393.562 149.56C393.562 147.32 393.702 145.407 393.982 143.82C390.995 143.913 387.495 144.007 383.482 144.1C379.468 144.1 376.108 144.007 373.402 143.82C373.682 145.407 373.822 147.32 373.822 149.56C373.822 151.707 373.402 153.853 372.562 156C371.815 158.053 370.462 159.78 368.502 161.18C366.542 162.58 363.742 163.28 360.102 163.28ZM372.422 118.9C379.795 118.62 387.168 118.62 394.542 118.9C395.008 115.633 394.962 112.507 394.402 109.52C393.842 106.533 392.675 104.107 390.902 102.24C389.128 100.373 386.608 99.44 383.342 99.44C380.075 99.44 377.555 100.373 375.782 102.24C374.102 104.107 372.982 106.533 372.422 109.52C371.955 112.413 371.955 115.54 372.422 118.9Z"/></mask><path d="M22.8877 163C19.9943 163 17.4277 161.833 15.1877 159.5C13.041 157.167 11.221 154.087 9.72766 150.26C8.32766 146.433 7.16099 142.233 6.22766 137.66C5.38766 133.087 4.78099 128.513 4.40766 123.94C4.03432 119.273 3.84766 115.073 3.84766 111.34C3.84766 106.58 4.22099 101.54 4.96766 96.22C5.71432 90.9 7.02099 85.9067 8.88766 81.24C10.7543 76.48 13.321 72.6067 16.5877 69.62C19.8543 66.6333 24.0543 65.14 29.1877 65.14C32.7343 65.14 35.8143 66.3067 38.4277 68.64C41.1343 70.88 43.561 74.0533 45.7077 78.16C47.8543 82.1733 49.9077 86.7933 51.8677 92.02C53.8277 97.2467 55.9277 102.8 58.1677 108.68C57.7943 100.653 58.0277 93.3733 58.8677 86.84C59.801 80.2133 61.6677 74.94 64.4677 71.02C67.2677 67.1 71.2343 65.14 76.3677 65.14C80.7543 65.14 84.2543 66.6333 86.8677 69.62C89.5743 72.6067 91.6277 76.48 93.0277 81.24C94.4277 85.9067 95.361 90.9 95.8277 96.22C96.3877 101.54 96.6677 106.58 96.6677 111.34C96.6677 115.167 96.3877 119.367 95.8277 123.94C95.2677 128.513 94.3343 133.087 93.0277 137.66C91.721 142.233 89.9477 146.433 87.7077 150.26C85.4677 154.087 82.7143 157.167 79.4477 159.5C76.2743 161.833 72.4477 163 67.9677 163C63.9543 163 60.501 161.74 57.6077 159.22C54.8077 156.607 52.2877 153.2 50.0477 149C47.901 144.707 45.8943 139.993 44.0277 134.86C42.161 129.727 40.201 124.593 38.1477 119.46C38.241 125.9 38.241 131.827 38.1477 137.24C38.0543 142.56 37.541 147.133 36.6077 150.96C35.7677 154.787 34.2743 157.773 32.1277 159.92C29.981 161.973 26.901 163 22.8877 163ZM150.165 163C146.338 163 142.232 162.72 137.845 162.16C133.552 161.6 129.305 160.433 125.105 158.66C120.905 156.887 117.078 154.273 113.625 150.82C110.172 147.367 107.418 142.793 105.365 137.1C103.312 131.313 102.285 124.173 102.285 115.68C102.285 106.347 103.872 97.8533 107.045 90.2C110.218 82.5467 115.025 76.4333 121.465 71.86C127.905 67.2867 135.978 65 145.685 65C152.685 65 158.378 65.6067 162.765 66.82C167.245 68.0333 170.745 69.62 173.265 71.58C175.785 73.54 177.512 75.6867 178.445 78.02C179.472 80.3533 179.985 82.6867 179.985 85.02C179.985 87.4467 179.332 89.78 178.025 92.02C176.812 94.26 174.852 96.0333 172.145 97.34C169.532 98.5533 166.825 99.1133 164.025 99.02C161.225 98.8333 158.705 98.74 156.465 98.74C151.612 98.74 147.785 99.6267 144.985 101.4C142.278 103.08 140.365 105.693 139.245 109.24C140.738 109.147 142.372 109.1 144.145 109.1C146.012 109.007 147.925 108.96 149.885 108.96C153.712 108.96 157.352 109.053 160.805 109.24C164.352 109.333 166.825 109.52 168.225 109.8C171.492 110.453 173.965 111.76 175.645 113.72C177.325 115.587 178.165 117.733 178.165 120.16C178.165 122.493 177.372 124.593 175.785 126.46C174.198 128.327 171.632 129.633 168.085 130.38C166.778 130.66 164.258 130.893 160.525 131.08C156.885 131.173 153.058 131.22 149.045 131.22C147.458 131.22 145.918 131.22 144.425 131.22C142.932 131.127 141.578 131.08 140.365 131.08C141.672 133.973 143.632 136.26 146.245 137.94C148.952 139.527 152.405 140.32 156.605 140.32C158.192 140.32 160.478 140.18 163.465 139.9C166.452 139.527 169.345 139.76 172.145 140.6C176.625 142 178.865 144.94 178.865 149.42C178.865 151.847 178.025 154.133 176.345 156.28C174.758 158.333 171.865 159.967 167.665 161.18C163.558 162.393 157.725 163 150.165 163ZM217.324 162.58C214.057 162.58 210.744 162.533 207.384 162.44C204.024 162.253 200.944 161.787 198.144 161.04C195.344 160.293 193.057 159.033 191.284 157.26C189.604 155.487 188.764 153.013 188.764 149.84C188.764 145.733 190.164 142.84 192.964 141.16C195.764 139.387 199.17 138.22 203.184 137.66C202.904 134.393 202.717 130.847 202.624 127.02C202.53 123.1 202.484 118.9 202.484 114.42C202.484 110.313 202.53 106.44 202.624 102.8C202.717 99.0667 202.857 95.66 203.044 92.58C198.284 92.02 194.177 90.8067 190.724 88.94C187.364 87.0733 185.684 83.76 185.684 79C185.684 75.4533 186.617 72.7467 188.484 70.88C190.35 68.92 192.824 67.5667 195.904 66.82C199.077 65.98 202.484 65.4667 206.124 65.28C209.857 65.0933 213.544 65 217.184 65C220.824 65 224.51 65.0933 228.244 65.28C231.977 65.4667 235.384 65.98 238.464 66.82C241.544 67.5667 244.017 68.92 245.884 70.88C247.844 72.7467 248.824 75.4533 248.824 79C248.824 82.1733 248.03 84.6933 246.444 86.56C244.857 88.4267 242.71 89.8267 240.004 90.76C237.297 91.6 234.357 92.2067 231.184 92.58C231.464 95.66 231.65 99.02 231.744 102.66C231.837 106.3 231.884 110.22 231.884 114.42C231.884 118.9 231.79 123.1 231.604 127.02C231.51 130.847 231.324 134.393 231.044 137.66C235.244 138.127 238.79 139.247 241.684 141.02C244.67 142.7 246.164 145.64 246.164 149.84C246.164 153.013 245.277 155.487 243.504 157.26C241.824 159.033 239.537 160.293 236.644 161.04C233.844 161.787 230.764 162.253 227.404 162.44C224.044 162.533 220.684 162.58 217.324 162.58ZM269.988 163.14C265.788 163.14 262.288 161.787 259.488 159.08C256.781 156.28 254.634 152.593 253.048 148.02C251.461 143.353 250.341 138.267 249.688 132.76C249.128 127.253 248.848 121.793 248.848 116.38C248.848 110.033 249.688 103.827 251.368 97.76C253.141 91.6933 255.801 86.2333 259.348 81.38C262.988 76.4333 267.561 72.5133 273.068 69.62C278.574 66.7267 285.108 65.28 292.668 65.28C300.321 65.28 307.228 66.8667 313.388 70.04C319.641 73.2133 324.634 77.74 328.368 83.62C332.101 89.5 333.968 96.5 333.968 104.62C333.968 111.713 332.894 117.873 330.748 123.1C328.694 128.233 325.941 132.48 322.488 135.84C323.888 137.987 325.008 140.273 325.848 142.7C326.688 145.127 327.108 147.46 327.108 149.7C327.108 152.313 326.408 154.647 325.008 156.7C323.608 158.66 321.788 160.2 319.548 161.32C317.401 162.44 315.114 163 312.688 163C310.634 163 308.721 162.673 306.948 162.02C305.174 161.367 303.214 160.247 301.068 158.66C299.108 157.167 297.381 155.207 295.888 152.78C294.394 150.26 293.181 147.787 292.248 145.36C288.981 144.987 285.901 144.193 283.008 142.98C283.474 145.22 283.708 147.507 283.708 149.84C283.801 152.173 283.428 154.367 282.588 156.42C281.841 158.38 280.441 160.013 278.388 161.32C276.428 162.533 273.628 163.14 269.988 163.14ZM294.068 123.1C297.428 123.1 300.321 121.933 302.748 119.6C305.268 117.173 306.528 114.373 306.528 111.2C306.528 107.933 305.268 105.133 302.748 102.8C300.321 100.373 297.428 99.16 294.068 99.16C290.708 99.16 287.768 100.373 285.248 102.8C282.821 105.133 281.608 107.933 281.608 111.2C281.608 114.373 282.821 117.173 285.248 119.6C287.768 121.933 290.708 123.1 294.068 123.1ZM360.102 163.28C353.662 163.28 348.575 160.153 344.842 153.9C341.202 147.647 339.055 139.433 338.402 129.26C337.655 116.66 339.008 105.553 342.462 95.94C346.008 86.2333 351.328 78.6733 358.422 73.26C365.515 67.8467 373.962 65.14 383.762 65.14C393.655 65.14 402.102 67.8467 409.102 73.26C416.195 78.6733 421.468 86.1867 424.922 95.8C428.468 105.413 429.822 116.567 428.982 129.26C428.328 139.713 426.135 147.973 422.402 154.04C418.762 160.107 413.722 163.14 407.282 163.14C403.642 163.14 400.842 162.487 398.882 161.18C396.922 159.78 395.522 158.053 394.682 156C393.935 153.853 393.562 151.707 393.562 149.56C393.562 147.32 393.702 145.407 393.982 143.82C390.995 143.913 387.495 144.007 383.482 144.1C379.468 144.1 376.108 144.007 373.402 143.82C373.682 145.407 373.822 147.32 373.822 149.56C373.822 151.707 373.402 153.853 372.562 156C371.815 158.053 370.462 159.78 368.502 161.18C366.542 162.58 363.742 163.28 360.102 163.28ZM372.422 118.9C379.795 118.62 387.168 118.62 394.542 118.9C395.008 115.633 394.962 112.507 394.402 109.52C393.842 106.533 392.675 104.107 390.902 102.24C389.128 100.373 386.608 99.44 383.342 99.44C380.075 99.44 377.555 100.373 375.782 102.24C374.102 104.107 372.982 106.533 372.422 109.52C371.955 112.413 371.955 115.54 372.422 118.9Z" fill="white"/><path d="M15.1877 159.5L11.508 162.885L11.544 162.924L11.5807 162.963L15.1877 159.5ZM9.72766 150.26L5.03204 151.978L5.05037 152.028L5.06977 152.078L9.72766 150.26ZM6.22766 137.66L1.30992 138.563L1.3188 138.612L1.32864 138.66L6.22766 137.66ZM4.40766 123.94L-0.576427 124.339L-0.575767 124.347L4.40766 123.94ZM4.96766 96.22L0.0161863 95.5251H0.0161863L4.96766 96.22ZM8.88766 81.24L13.53 83.0969L13.5363 83.0812L13.5425 83.0654L8.88766 81.24ZM38.4277 68.64L35.0976 72.3697L35.1676 72.4322L35.2398 72.492L38.4277 68.64ZM45.7077 78.16L41.2765 80.4763L41.2875 80.4973L41.2987 80.5183L45.7077 78.16ZM51.8677 92.02L56.5493 90.2644V90.2644L51.8677 92.02ZM58.1677 108.68L53.4952 110.46L63.1623 108.448L58.1677 108.68ZM58.8677 86.84L53.9165 86.1427L53.9123 86.1725L53.9085 86.2024L58.8677 86.84ZM64.4677 71.02L68.5363 73.9262V73.9262L64.4677 71.02ZM86.8677 69.62L83.1048 72.9125L83.1335 72.9453L83.1627 72.9776L86.8677 69.62ZM93.0277 81.24L88.2308 82.6508L88.2346 82.6638L88.2385 82.6767L93.0277 81.24ZM95.8277 96.22L90.8468 96.6569L90.8506 96.7002L90.8551 96.7434L95.8277 96.22ZM95.8277 123.94L90.8647 123.332L95.8277 123.94ZM93.0277 137.66L97.8353 139.034V139.034L93.0277 137.66ZM87.7077 150.26L83.3926 147.734L87.7077 150.26ZM79.4477 159.5L76.5415 155.431L76.5134 155.451L76.4857 155.472L79.4477 159.5ZM57.6077 159.22L54.1961 162.875L54.2589 162.934L54.3238 162.99L57.6077 159.22ZM50.0477 149L45.5755 151.236L45.6049 151.295L45.6359 151.353L50.0477 149ZM44.0277 134.86L39.3287 136.569L44.0277 134.86ZM38.1477 119.46L42.79 117.603L33.1482 119.532L38.1477 119.46ZM38.1477 137.24L43.1469 137.328L43.1469 137.326L38.1477 137.24ZM36.6077 150.96L31.7501 149.775L31.7363 149.831L31.7239 149.888L36.6077 150.96ZM32.1277 159.92L35.5838 163.533L35.6239 163.495L35.6632 163.456L32.1277 159.92ZM22.8877 158C21.5229 158 20.2141 157.516 18.7946 156.037L11.5807 162.963C14.6412 166.151 18.4657 168 22.8877 168V158ZM18.8673 156.115C17.2453 154.352 15.7165 151.853 14.3855 148.442L5.06977 152.078C6.72544 156.32 8.83671 159.982 11.508 162.885L18.8673 156.115ZM14.4233 148.542C13.1201 144.98 12.0172 141.024 11.1267 136.66L1.32864 138.66C2.30477 143.443 3.53518 147.886 5.03204 151.978L14.4233 148.542ZM11.1454 136.757C10.3352 132.346 9.75064 127.938 9.39108 123.533L-0.575767 124.347C-0.188664 129.089 0.440149 133.828 1.30992 138.563L11.1454 136.757ZM9.39173 123.541C9.02648 118.976 8.84766 114.912 8.84766 111.34H-1.15234C-1.15234 115.235 -0.957836 119.571 -0.57642 124.339L9.39173 123.541ZM8.84766 111.34C8.84766 106.84 9.20074 102.033 9.91913 96.9149L0.0161863 95.5251C-0.758757 101.047 -1.15234 106.32 -1.15234 111.34H8.84766ZM9.91913 96.9149C10.6137 91.966 11.8227 87.3654 13.53 83.0969L4.24527 79.383C2.21933 84.4479 0.814939 89.8339 0.0161863 95.5251L9.91913 96.9149ZM13.5425 83.0654C15.1735 78.9064 17.3401 75.7068 19.9615 73.3101L13.2138 65.9298C9.30187 69.5065 6.33511 74.0536 4.23279 79.4146L13.5425 83.0654ZM19.9615 73.3101C22.1607 71.2995 25.0902 70.14 29.1877 70.14V60.14C23.0185 60.14 17.548 61.9672 13.2138 65.9298L19.9615 73.3101ZM29.1877 70.14C31.5227 70.14 33.413 70.8656 35.0976 72.3697L41.7577 64.9103C38.2157 61.7478 33.946 60.14 29.1877 60.14V70.14ZM35.2398 72.492C37.2988 74.196 39.3447 76.7806 41.2765 80.4763L50.1388 75.8437C47.7773 71.3261 44.9698 67.564 41.6155 64.788L35.2398 72.492ZM41.2987 80.5183C43.3211 84.2992 45.2869 88.7113 47.186 93.7756L56.5493 90.2644C54.5284 84.8754 52.3875 80.0474 50.1166 75.8017L41.2987 80.5183ZM47.186 93.7756C49.1494 99.0114 51.2525 104.573 53.4952 110.46L62.8401 106.9C60.6028 101.027 58.5059 95.482 56.5493 90.2644L47.186 93.7756ZM63.1623 108.448C62.7996 100.651 63.0309 93.6679 63.8268 87.4776L53.9085 86.2024C53.0244 93.0787 52.789 100.656 53.1731 108.912L63.1623 108.448ZM63.8188 87.5373C64.6812 81.4143 66.3499 76.9871 68.5363 73.9262L60.399 68.1138C56.9854 72.8929 54.9208 79.0124 53.9165 86.1427L63.8188 87.5373ZM68.5363 73.9262C70.3277 71.4183 72.7246 70.14 76.3677 70.14V60.14C69.744 60.14 64.2076 62.7817 60.399 68.1138L68.5363 73.9262ZM76.3677 70.14C79.4829 70.14 81.5476 71.1329 83.1048 72.9125L90.6305 66.3275C86.9611 62.1338 82.0258 60.14 76.3677 60.14V70.14ZM83.1627 72.9776C85.2602 75.292 86.9954 78.4502 88.2308 82.6508L97.8245 79.8292C96.26 74.5098 93.8885 69.9213 90.5726 66.2624L83.1627 72.9776ZM88.2385 82.6767C89.5319 86.9881 90.407 91.6438 90.8468 96.6569L100.809 95.7831C100.315 90.1562 99.3234 84.8252 97.8168 79.8033L88.2385 82.6767ZM90.8551 96.7434C91.399 101.91 91.6677 106.775 91.6677 111.34H101.668C101.668 106.385 101.376 101.17 100.8 95.6966L90.8551 96.7434ZM91.6677 111.34C91.6677 114.928 91.4048 118.921 90.8647 123.332L100.791 124.548C101.37 119.812 101.668 115.406 101.668 111.34H91.6677ZM90.8647 123.332C90.3374 127.638 89.4573 131.956 88.22 136.286L97.8353 139.034C99.2113 134.217 100.198 129.388 100.791 124.548L90.8647 123.332ZM88.22 136.286C87.0203 140.486 85.406 144.295 83.3926 147.734L92.0227 152.786C94.4894 148.572 96.4217 143.981 97.8353 139.034L88.22 136.286ZM83.3926 147.734C81.4709 151.017 79.1777 153.548 76.5415 155.431L82.3538 163.569C86.2509 160.785 89.4644 157.156 92.0227 152.786L83.3926 147.734ZM76.4857 155.472C74.2863 157.089 71.5347 158 67.9677 158V168C73.3606 168 78.2624 166.578 82.4096 163.528L76.4857 155.472ZM67.9677 158C65.1009 158 62.8299 157.138 60.8916 155.45L54.3238 162.99C58.1721 166.342 62.8077 168 67.9677 168V158ZM61.0192 155.565C58.7063 153.406 56.5005 150.474 54.4594 146.647L45.6359 151.353C48.0748 155.926 50.909 159.807 54.1961 162.875L61.0192 155.565ZM54.5198 146.764C52.4695 142.663 50.5366 138.129 48.7266 133.151L39.3287 136.569C41.2521 141.858 43.3325 146.75 45.5755 151.236L54.5198 146.764ZM48.7266 133.151C46.8417 127.968 44.8628 122.785 42.79 117.603L33.5053 121.317C35.5392 126.402 37.4803 131.486 39.3287 136.569L48.7266 133.151ZM33.1482 119.532C33.2409 125.929 33.2407 131.802 33.1484 137.154L43.1469 137.326C43.2413 131.851 43.2411 125.871 43.1471 119.388L33.1482 119.532ZM33.1484 137.152C33.0595 142.222 32.5713 146.408 31.7501 149.775L41.4653 152.145C42.5107 147.859 43.0492 142.898 43.1469 137.328L33.1484 137.152ZM31.7239 149.888C31.03 153.049 29.8927 155.084 28.5921 156.384L35.6632 163.456C38.656 160.463 40.5053 156.524 41.4914 152.032L31.7239 149.888ZM28.6715 156.307C27.7427 157.195 26.075 158 22.8877 158V168C27.727 168 32.2193 166.751 35.5838 163.533L28.6715 156.307ZM137.845 162.16L137.198 167.118L137.212 167.12L137.845 162.16ZM125.105 158.66L127.05 154.054L125.105 158.66ZM113.625 150.82L117.161 147.284L113.625 150.82ZM105.365 137.1L100.653 138.772L100.657 138.784L100.662 138.796L105.365 137.1ZM107.045 90.2L111.664 92.1151L107.045 90.2ZM121.465 71.86L124.36 75.9366L121.465 71.86ZM162.765 66.82L161.432 71.6391L161.445 71.6426L161.458 71.6461L162.765 66.82ZM173.265 71.58L176.335 67.6332L176.335 67.6332L173.265 71.58ZM178.445 78.02L173.803 79.8769L173.834 79.9559L173.869 80.0337L178.445 78.02ZM178.025 92.02L173.706 89.5006L173.666 89.569L173.629 89.6386L178.025 92.02ZM172.145 97.34L174.251 101.875L174.285 101.859L174.319 101.843L172.145 97.34ZM164.025 99.02L163.693 104.009L163.776 104.014L163.859 104.017L164.025 99.02ZM144.985 101.4L147.622 105.648L147.641 105.636L147.66 105.624L144.985 101.4ZM139.245 109.24L134.477 107.734L132.282 114.685L139.557 114.23L139.245 109.24ZM144.145 109.1V114.1H144.27L144.395 114.094L144.145 109.1ZM160.805 109.24L160.535 114.233L160.604 114.236L160.674 114.238L160.805 109.24ZM168.225 109.8L169.206 104.897L168.225 109.8ZM175.645 113.72L171.849 116.974L171.888 117.02L171.929 117.065L175.645 113.72ZM175.785 126.46L171.975 123.222V123.222L175.785 126.46ZM168.085 130.38L167.055 125.487L167.046 125.489L167.038 125.491L168.085 130.38ZM160.525 131.08L160.653 136.078L160.714 136.077L160.775 136.074L160.525 131.08ZM144.425 131.22L144.113 136.21L144.269 136.22H144.425V131.22ZM140.365 131.08V126.08H132.621L135.808 133.138L140.365 131.08ZM146.245 137.94L143.541 142.146L143.628 142.201L143.717 142.253L146.245 137.94ZM163.465 139.9L163.932 144.878L164.009 144.871L164.085 144.861L163.465 139.9ZM172.145 140.6L173.637 135.828L173.609 135.819L173.582 135.811L172.145 140.6ZM176.345 156.28L172.408 153.198L172.398 153.211L172.389 153.223L176.345 156.28ZM167.665 161.18L166.277 156.376L166.263 156.381L166.248 156.385L167.665 161.18ZM150.165 158C146.58 158 142.687 157.737 138.478 157.2L137.212 167.12C141.777 167.703 146.097 168 150.165 168V158ZM138.492 157.202C134.668 156.703 130.857 155.661 127.05 154.054L123.16 163.266C127.753 165.205 132.435 166.497 137.198 167.118L138.492 157.202ZM127.05 154.054C123.486 152.549 120.191 150.314 117.161 147.284L110.09 154.356C113.966 158.232 118.325 161.225 123.16 163.266L127.05 154.054ZM117.161 147.284C114.336 144.46 111.931 140.567 110.069 135.404L100.662 138.796C102.906 145.02 106.007 150.273 110.09 154.356L117.161 147.284ZM110.077 135.428C108.272 130.34 107.285 123.806 107.285 115.68H97.2852C97.2852 124.541 98.3516 132.286 100.653 138.772L110.077 135.428ZM107.285 115.68C107.285 106.921 108.772 99.0891 111.664 92.1151L102.426 88.2849C98.9715 96.6175 97.2852 105.772 97.2852 115.68H107.285ZM111.664 92.1151C114.496 85.2854 118.725 79.9385 124.36 75.9366L118.57 67.7834C111.325 72.9281 105.941 79.8079 102.426 88.2849L111.664 92.1151ZM124.36 75.9366C129.777 72.0898 136.775 70 145.685 70V60C135.182 60 126.033 62.4835 118.57 67.7834L124.36 75.9366ZM145.685 70C152.449 70 157.646 70.5919 161.432 71.6391L164.098 62.0009C159.111 60.6214 152.922 60 145.685 60V70ZM161.458 71.6461C165.564 72.7582 168.38 74.1146 170.195 75.5268L176.335 67.6332C173.111 65.1254 168.926 63.3084 164.072 61.9939L161.458 71.6461ZM170.195 75.5267C172.201 77.0869 173.277 78.5619 173.803 79.8769L183.088 76.163C181.747 72.8114 179.369 69.9931 176.335 67.6332L170.195 75.5267ZM173.869 80.0337C174.642 81.7917 174.985 83.4419 174.985 85.02H184.985C184.985 81.9314 184.302 78.915 183.022 76.0063L173.869 80.0337ZM174.985 85.02C174.985 86.5005 174.599 87.9709 173.706 89.5006L182.344 94.5394C184.065 91.5891 184.985 88.3929 184.985 85.02H174.985ZM173.629 89.6386C173 90.7985 171.908 91.9024 169.971 92.8372L174.319 101.843C177.796 100.164 180.623 97.7215 182.422 94.4014L173.629 89.6386ZM170.04 92.805C168.116 93.698 166.186 94.0892 164.192 94.0228L163.859 104.017C167.464 104.137 170.948 103.409 174.251 101.875L170.04 92.805ZM164.358 94.0311C161.473 93.8388 158.84 93.74 156.465 93.74V103.74C158.571 103.74 160.977 103.828 163.693 104.009L164.358 94.0311ZM156.465 93.74C151.079 93.74 146.2 94.7122 142.31 97.1759L147.66 105.624C149.37 104.541 152.145 103.74 156.465 103.74V93.74ZM142.348 97.1518C138.46 99.5651 135.893 103.25 134.477 107.734L144.013 110.746C144.837 108.137 146.097 106.595 147.622 105.648L142.348 97.1518ZM139.557 114.23C140.93 114.144 142.457 114.1 144.145 114.1V104.1C142.286 104.1 140.547 104.149 138.933 104.25L139.557 114.23ZM144.395 114.094C146.174 114.005 148.004 113.96 149.885 113.96V103.96C147.846 103.96 145.849 104.009 143.895 104.106L144.395 114.094ZM149.885 113.96C153.631 113.96 157.181 114.051 160.535 114.233L161.075 104.247C157.523 104.055 153.792 103.96 149.885 103.96V113.96ZM160.674 114.238C164.231 114.332 166.313 114.517 167.245 114.703L169.206 104.897C167.337 104.523 164.472 104.335 160.937 104.242L160.674 114.238ZM167.245 114.703C169.736 115.201 171.085 116.082 171.849 116.974L179.441 110.466C176.846 107.438 173.247 105.705 169.206 104.897L167.245 114.703ZM171.929 117.065C172.814 118.049 173.165 119.015 173.165 120.16H183.165C183.165 116.452 181.836 113.125 179.362 110.375L171.929 117.065ZM173.165 120.16C173.165 121.244 172.835 122.21 171.975 123.222L179.595 129.698C181.908 126.977 183.165 123.743 183.165 120.16H173.165ZM171.975 123.222C171.378 123.924 170.016 124.864 167.055 125.487L169.115 135.273C173.248 134.403 177.019 132.729 179.595 129.698L171.975 123.222ZM167.038 125.491C166.184 125.674 164.056 125.897 160.275 126.086L160.775 136.074C164.461 135.889 167.373 135.646 169.133 135.269L167.038 125.491ZM160.397 126.082C156.804 126.174 153.02 126.22 149.045 126.22V136.22C153.097 136.22 156.967 136.173 160.653 136.078L160.397 126.082ZM149.045 126.22C149.042 126.22 149.039 126.22 149.036 126.22C149.033 126.22 149.03 126.22 149.027 126.22C149.023 126.22 149.02 126.22 149.017 126.22C149.014 126.22 149.011 126.22 149.008 126.22C149.005 126.22 149.002 126.22 148.999 126.22C148.996 126.22 148.992 126.22 148.989 126.22C148.986 126.22 148.983 126.22 148.98 126.22C148.977 126.22 148.974 126.22 148.971 126.22C148.968 126.22 148.965 126.22 148.962 126.22C148.958 126.22 148.955 126.22 148.952 126.22C148.949 126.22 148.946 126.22 148.943 126.22C148.94 126.22 148.937 126.22 148.934 126.22C148.931 126.22 148.927 126.22 148.924 126.22C148.921 126.22 148.918 126.22 148.915 126.22C148.912 126.22 148.909 126.22 148.906 126.22C148.903 126.22 148.9 126.22 148.897 126.22C148.893 126.22 148.89 126.22 148.887 126.22C148.884 126.22 148.881 126.22 148.878 126.22C148.875 126.22 148.872 126.22 148.869 126.22C148.866 126.22 148.863 126.22 148.859 126.22C148.856 126.22 148.853 126.22 148.85 126.22C148.847 126.22 148.844 126.22 148.841 126.22C148.838 126.22 148.835 126.22 148.832 126.22C148.829 126.22 148.825 126.22 148.822 126.22C148.819 126.22 148.816 126.22 148.813 126.22C148.81 126.22 148.807 126.22 148.804 126.22C148.801 126.22 148.798 126.22 148.795 126.22C148.791 126.22 148.788 126.22 148.785 126.22C148.782 126.22 148.779 126.22 148.776 126.22C148.773 126.22 148.77 126.22 148.767 126.22C148.764 126.22 148.761 126.22 148.757 126.22C148.754 126.22 148.751 126.22 148.748 126.22C148.745 126.22 148.742 126.22 148.739 126.22C148.736 126.22 148.733 126.22 148.73 126.22C148.727 126.22 148.724 126.22 148.72 126.22C148.717 126.22 148.714 126.22 148.711 126.22C148.708 126.22 148.705 126.22 148.702 126.22C148.699 126.22 148.696 126.22 148.693 126.22C148.69 126.22 148.686 126.22 148.683 126.22C148.68 126.22 148.677 126.22 148.674 126.22C148.671 126.22 148.668 126.22 148.665 126.22C148.662 126.22 148.659 126.22 148.656 126.22C148.653 126.22 148.649 126.22 148.646 126.22C148.643 126.22 148.64 126.22 148.637 126.22C148.634 126.22 148.631 126.22 148.628 126.22C148.625 126.22 148.622 126.22 148.619 126.22C148.616 126.22 148.612 126.22 148.609 126.22C148.606 126.22 148.603 126.22 148.6 126.22C148.597 126.22 148.594 126.22 148.591 126.22C148.588 126.22 148.585 126.22 148.582 126.22C148.579 126.22 148.575 126.22 148.572 126.22C148.569 126.22 148.566 126.22 148.563 126.22C148.56 126.22 148.557 126.22 148.554 126.22C148.551 126.22 148.548 126.22 148.545 126.22C148.542 126.22 148.539 126.22 148.535 126.22C148.532 126.22 148.529 126.22 148.526 126.22C148.523 126.22 148.52 126.22 148.517 126.22C148.514 126.22 148.511 126.22 148.508 126.22C148.505 126.22 148.502 126.22 148.499 126.22C148.495 126.22 148.492 126.22 148.489 126.22C148.486 126.22 148.483 126.22 148.48 126.22C148.477 126.22 148.474 126.22 148.471 126.22C148.468 126.22 148.465 126.22 148.462 126.22C148.458 126.22 148.455 126.22 148.452 126.22C148.449 126.22 148.446 126.22 148.443 126.22C148.44 126.22 148.437 126.22 148.434 126.22C148.431 126.22 148.428 126.22 148.425 126.22C148.422 126.22 148.419 126.22 148.415 126.22C148.412 126.22 148.409 126.22 148.406 126.22C148.403 126.22 148.4 126.22 148.397 126.22C148.394 126.22 148.391 126.22 148.388 126.22C148.385 126.22 148.382 126.22 148.379 126.22C148.375 126.22 148.372 126.22 148.369 126.22C148.366 126.22 148.363 126.22 148.36 126.22C148.357 126.22 148.354 126.22 148.351 126.22C148.348 126.22 148.345 126.22 148.342 126.22C148.339 126.22 148.336 126.22 148.332 126.22C148.329 126.22 148.326 126.22 148.323 126.22C148.32 126.22 148.317 126.22 148.314 126.22C148.311 126.22 148.308 126.22 148.305 126.22C148.302 126.22 148.299 126.22 148.296 126.22C148.293 126.22 148.289 126.22 148.286 126.22C148.283 126.22 148.28 126.22 148.277 126.22C148.274 126.22 148.271 126.22 148.268 126.22C148.265 126.22 148.262 126.22 148.259 126.22C148.256 126.22 148.253 126.22 148.25 126.22C148.247 126.22 148.243 126.22 148.24 126.22C148.237 126.22 148.234 126.22 148.231 126.22C148.228 126.22 148.225 126.22 148.222 126.22C148.219 126.22 148.216 126.22 148.213 126.22C148.21 126.22 148.207 126.22 148.204 126.22C148.201 126.22 148.197 126.22 148.194 126.22C148.191 126.22 148.188 126.22 148.185 126.22C148.182 126.22 148.179 126.22 148.176 126.22C148.173 126.22 148.17 126.22 148.167 126.22C148.164 126.22 148.161 126.22 148.158 126.22C148.155 126.22 148.151 126.22 148.148 126.22C148.145 126.22 148.142 126.22 148.139 126.22C148.136 126.22 148.133 126.22 148.13 126.22C148.127 126.22 148.124 126.22 148.121 126.22C148.118 126.22 148.115 126.22 148.112 126.22C148.109 126.22 148.105 126.22 148.102 126.22C148.099 126.22 148.096 126.22 148.093 126.22C148.09 126.22 148.087 126.22 148.084 126.22C148.081 126.22 148.078 126.22 148.075 126.22C148.072 126.22 148.069 126.22 148.066 126.22C148.063 126.22 148.06 126.22 148.057 126.22C148.053 126.22 148.05 126.22 148.047 126.22C148.044 126.22 148.041 126.22 148.038 126.22C148.035 126.22 148.032 126.22 148.029 126.22C148.026 126.22 148.023 126.22 148.02 126.22C148.017 126.22 148.014 126.22 148.011 126.22C148.008 126.22 148.004 126.22 148.001 126.22C147.998 126.22 147.995 126.22 147.992 126.22C147.989 126.22 147.986 126.22 147.983 126.22C147.98 126.22 147.977 126.22 147.974 126.22C147.971 126.22 147.968 126.22 147.965 126.22C147.962 126.22 147.959 126.22 147.956 126.22C147.952 126.22 147.949 126.22 147.946 126.22C147.943 126.22 147.94 126.22 147.937 126.22C147.934 126.22 147.931 126.22 147.928 126.22C147.925 126.22 147.922 126.22 147.919 126.22C147.916 126.22 147.913 126.22 147.91 126.22C147.907 126.22 147.904 126.22 147.901 126.22C147.898 126.22 147.894 126.22 147.891 126.22C147.888 126.22 147.885 126.22 147.882 126.22C147.879 126.22 147.876 126.22 147.873 126.22C147.87 126.22 147.867 126.22 147.864 126.22C147.861 126.22 147.858 126.22 147.855 126.22C147.852 126.22 147.849 126.22 147.846 126.22C147.843 126.22 147.839 126.22 147.836 126.22C147.833 126.22 147.83 126.22 147.827 126.22C147.824 126.22 147.821 126.22 147.818 126.22C147.815 126.22 147.812 126.22 147.809 126.22C147.806 126.22 147.803 126.22 147.8 126.22C147.797 126.22 147.794 126.22 147.791 126.22C147.788 126.22 147.785 126.22 147.782 126.22C147.778 126.22 147.775 126.22 147.772 126.22C147.769 126.22 147.766 126.22 147.763 126.22C147.76 126.22 147.757 126.22 147.754 126.22C147.751 126.22 147.748 126.22 147.745 126.22C147.742 126.22 147.739 126.22 147.736 126.22C147.733 126.22 147.73 126.22 147.727 126.22C147.724 126.22 147.721 126.22 147.717 126.22C147.714 126.22 147.711 126.22 147.708 126.22C147.705 126.22 147.702 126.22 147.699 126.22C147.696 126.22 147.693 126.22 147.69 126.22C147.687 126.22 147.684 126.22 147.681 126.22C147.678 126.22 147.675 126.22 147.672 126.22C147.669 126.22 147.666 126.22 147.663 126.22C147.66 126.22 147.657 126.22 147.654 126.22C147.65 126.22 147.647 126.22 147.644 126.22C147.641 126.22 147.638 126.22 147.635 126.22C147.632 126.22 147.629 126.22 147.626 126.22C147.623 126.22 147.62 126.22 147.617 126.22C147.614 126.22 147.611 126.22 147.608 126.22C147.605 126.22 147.602 126.22 147.599 126.22C147.596 126.22 147.593 126.22 147.59 126.22C147.587 126.22 147.583 126.22 147.58 126.22C147.577 126.22 147.574 126.22 147.571 126.22C147.568 126.22 147.565 126.22 147.562 126.22C147.559 126.22 147.556 126.22 147.553 126.22C147.55 126.22 147.547 126.22 147.544 126.22C147.541 126.22 147.538 126.22 147.535 126.22C147.532 126.22 147.529 126.22 147.526 126.22C147.523 126.22 147.52 126.22 147.517 126.22C147.514 126.22 147.511 126.22 147.507 126.22C147.504 126.22 147.501 126.22 147.498 126.22C147.495 126.22 147.492 126.22 147.489 126.22C147.486 126.22 147.483 126.22 147.48 126.22C147.477 126.22 147.474 126.22 147.471 126.22C147.468 126.22 147.465 126.22 147.462 126.22C147.459 126.22 147.456 126.22 147.453 126.22C147.45 126.22 147.447 126.22 147.444 126.22C147.441 126.22 147.438 126.22 147.435 126.22C147.432 126.22 147.428 126.22 147.425 126.22C147.422 126.22 147.419 126.22 147.416 126.22C147.413 126.22 147.41 126.22 147.407 126.22C147.404 126.22 147.401 126.22 147.398 126.22C147.395 126.22 147.392 126.22 147.389 126.22C147.386 126.22 147.383 126.22 147.38 126.22C147.377 126.22 147.374 126.22 147.371 126.22C147.368 126.22 147.365 126.22 147.362 126.22C147.359 126.22 147.356 126.22 147.353 126.22C147.35 126.22 147.347 126.22 147.344 126.22C147.34 126.22 147.337 126.22 147.334 126.22C147.331 126.22 147.328 126.22 147.325 126.22C147.322 126.22 147.319 126.22 147.316 126.22C147.313 126.22 147.31 126.22 147.307 126.22C147.304 126.22 147.301 126.22 147.298 126.22C147.295 126.22 147.292 126.22 147.289 126.22C147.286 126.22 147.283 126.22 147.28 126.22C147.277 126.22 147.274 126.22 147.271 126.22C147.268 126.22 147.265 126.22 147.262 126.22C147.259 126.22 147.256 126.22 147.253 126.22C147.25 126.22 147.247 126.22 147.243 126.22C147.24 126.22 147.237 126.22 147.234 126.22C147.231 126.22 147.228 126.22 147.225 126.22C147.222 126.22 147.219 126.22 147.216 126.22C147.213 126.22 147.21 126.22 147.207 126.22C147.204 126.22 147.201 126.22 147.198 126.22C147.195 126.22 147.192 126.22 147.189 126.22C147.186 126.22 147.183 126.22 147.18 126.22C147.177 126.22 147.174 126.22 147.171 126.22C147.168 126.22 147.165 126.22 147.162 126.22C147.159 126.22 147.156 126.22 147.153 126.22C147.15 126.22 147.147 126.22 147.144 126.22C147.141 126.22 147.138 126.22 147.135 126.22C147.131 126.22 147.128 126.22 147.125 126.22C147.122 126.22 147.119 126.22 147.116 126.22C147.113 126.22 147.11 126.22 147.107 126.22C147.104 126.22 147.101 126.22 147.098 126.22C147.095 126.22 147.092 126.22 147.089 126.22C147.086 126.22 147.083 126.22 147.08 126.22C147.077 126.22 147.074 126.22 147.071 126.22C147.068 126.22 147.065 126.22 147.062 126.22C147.059 126.22 147.056 126.22 147.053 126.22C147.05 126.22 147.047 126.22 147.044 126.22C147.041 126.22 147.038 126.22 147.035 126.22C147.032 126.22 147.029 126.22 147.026 126.22C147.023 126.22 147.02 126.22 147.017 126.22C147.014 126.22 147.011 126.22 147.008 126.22C147.005 126.22 147.002 126.22 146.999 126.22C146.995 126.22 146.992 126.22 146.989 126.22C146.986 126.22 146.983 126.22 146.98 126.22C146.977 126.22 146.974 126.22 146.971 126.22C146.968 126.22 146.965 126.22 146.962 126.22C146.959 126.22 146.956 126.22 146.953 126.22C146.95 126.22 146.947 126.22 146.944 126.22C146.941 126.22 146.938 126.22 146.935 126.22C146.932 126.22 146.929 126.22 146.926 126.22C146.923 126.22 146.92 126.22 146.917 126.22C146.914 126.22 146.911 126.22 146.908 126.22C146.905 126.22 146.902 126.22 146.899 126.22C146.896 126.22 146.893 126.22 146.89 126.22C146.887 126.22 146.884 126.22 146.881 126.22C146.878 126.22 146.875 126.22 146.872 126.22C146.869 126.22 146.866 126.22 146.863 126.22C146.86 126.22 146.857 126.22 146.854 126.22C146.851 126.22 146.848 126.22 146.845 126.22C146.842 126.22 146.839 126.22 146.836 126.22C146.833 126.22 146.83 126.22 146.827 126.22C146.824 126.22 146.821 126.22 146.818 126.22C146.815 126.22 146.812 126.22 146.809 126.22C146.806 126.22 146.802 126.22 146.799 126.22C146.796 126.22 146.793 126.22 146.79 126.22C146.787 126.22 146.784 126.22 146.781 126.22C146.778 126.22 146.775 126.22 146.772 126.22C146.769 126.22 146.766 126.22 146.763 126.22C146.76 126.22 146.757 126.22 146.754 126.22C146.751 126.22 146.748 126.22 146.745 126.22C146.742 126.22 146.739 126.22 146.736 126.22C146.733 126.22 146.73 126.22 146.727 126.22C146.724 126.22 146.721 126.22 146.718 126.22C146.715 126.22 146.712 126.22 146.709 126.22C146.706 126.22 146.703 126.22 146.7 126.22C146.697 126.22 146.694 126.22 146.691 126.22C146.688 126.22 146.685 126.22 146.682 126.22C146.679 126.22 146.676 126.22 146.673 126.22C146.67 126.22 146.667 126.22 146.664 126.22C146.661 126.22 146.658 126.22 146.655 126.22C146.652 126.22 146.649 126.22 146.646 126.22C146.643 126.22 146.64 126.22 146.637 126.22C146.634 126.22 146.631 126.22 146.628 126.22C146.625 126.22 146.622 126.22 146.619 126.22C146.616 126.22 146.613 126.22 146.61 126.22C146.607 126.22 146.604 126.22 146.601 126.22C146.598 126.22 146.595 126.22 146.592 126.22C146.589 126.22 146.586 126.22 146.583 126.22C146.58 126.22 146.577 126.22 146.574 126.22C146.571 126.22 146.568 126.22 146.565 126.22C146.562 126.22 146.559 126.22 146.556 126.22C146.553 126.22 146.55 126.22 146.547 126.22C146.544 126.22 146.541 126.22 146.538 126.22C146.535 126.22 146.532 126.22 146.529 126.22C146.526 126.22 146.523 126.22 146.52 126.22C146.517 126.22 146.514 126.22 146.511 126.22C146.508 126.22 146.505 126.22 146.502 126.22C146.499 126.22 146.496 126.22 146.493 126.22C146.49 126.22 146.487 126.22 146.484 126.22C146.481 126.22 146.478 126.22 146.475 126.22C146.472 126.22 146.469 126.22 146.466 126.22C146.463 126.22 146.46 126.22 146.457 126.22C146.454 126.22 146.451 126.22 146.448 126.22C146.445 126.22 146.442 126.22 146.439 126.22C146.436 126.22 146.433 126.22 146.43 126.22C146.427 126.22 146.424 126.22 146.421 126.22C146.418 126.22 146.415 126.22 146.412 126.22C146.409 126.22 146.406 126.22 146.403 126.22C146.4 126.22 146.397 126.22 146.394 126.22C146.391 126.22 146.388 126.22 146.385 126.22C146.382 126.22 146.379 126.22 146.376 126.22C146.373 126.22 146.37 126.22 146.367 126.22C146.364 126.22 146.361 126.22 146.358 126.22C146.355 126.22 146.352 126.22 146.349 126.22C146.346 126.22 146.343 126.22 146.34 126.22C146.337 126.22 146.334 126.22 146.331 126.22C146.328 126.22 146.325 126.22 146.322 126.22C146.319 126.22 146.316 126.22 146.313 126.22C146.31 126.22 146.307 126.22 146.304 126.22C146.301 126.22 146.298 126.22 146.295 126.22C146.292 126.22 146.289 126.22 146.286 126.22C146.283 126.22 146.28 126.22 146.277 126.22C146.274 126.22 146.271 126.22 146.268 126.22C146.265 126.22 146.262 126.22 146.259 126.22C146.256 126.22 146.253 126.22 146.25 126.22C146.247 126.22 146.244 126.22 146.241 126.22C146.238 126.22 146.235 126.22 146.232 126.22C146.229 126.22 146.226 126.22 146.223 126.22C146.22 126.22 146.217 126.22 146.214 126.22C146.211 126.22 146.208 126.22 146.205 126.22C146.202 126.22 146.2 126.22 146.197 126.22C146.194 126.22 146.191 126.22 146.188 126.22C146.185 126.22 146.182 126.22 146.179 126.22C146.176 126.22 146.173 126.22 146.17 126.22C146.167 126.22 146.164 126.22 146.161 126.22C146.158 126.22 146.155 126.22 146.152 126.22C146.149 126.22 146.146 126.22 146.143 126.22C146.14 126.22 146.137 126.22 146.134 126.22C146.131 126.22 146.128 126.22 146.125 126.22C146.122 126.22 146.119 126.22 146.116 126.22C146.113 126.22 146.11 126.22 146.107 126.22C146.104 126.22 146.101 126.22 146.098 126.22C146.095 126.22 146.092 126.22 146.089 126.22C146.086 126.22 146.083 126.22 146.08 126.22C146.077 126.22 146.074 126.22 146.071 126.22C146.068 126.22 146.065 126.22 146.062 126.22C146.059 126.22 146.056 126.22 146.053 126.22C146.05 126.22 146.047 126.22 146.044 126.22C146.041 126.22 146.038 126.22 146.035 126.22C146.032 126.22 146.029 126.22 146.026 126.22C146.023 126.22 146.02 126.22 146.017 126.22C146.014 126.22 146.012 126.22 146.009 126.22C146.006 126.22 146.003 126.22 146 126.22C145.997 126.22 145.994 126.22 145.991 126.22C145.988 126.22 145.985 126.22 145.982 126.22C145.979 126.22 145.976 126.22 145.973 126.22C145.97 126.22 145.967 126.22 145.964 126.22C145.961 126.22 145.958 126.22 145.955 126.22C145.952 126.22 145.949 126.22 145.946 126.22C145.943 126.22 145.94 126.22 145.937 126.22C145.934 126.22 145.931 126.22 145.928 126.22C145.925 126.22 145.922 126.22 145.919 126.22C145.916 126.22 145.913 126.22 145.91 126.22C145.907 126.22 145.904 126.22 145.901 126.22C145.898 126.22 145.895 126.22 145.892 126.22C145.889 126.22 145.886 126.22 145.883 126.22C145.88 126.22 145.878 126.22 145.875 126.22C145.872 126.22 145.869 126.22 145.866 126.22C145.863 126.22 145.86 126.22 145.857 126.22C145.854 126.22 145.851 126.22 145.848 126.22C145.845 126.22 145.842 126.22 145.839 126.22C145.836 126.22 145.833 126.22 145.83 126.22C145.827 126.22 145.824 126.22 145.821 126.22C145.818 126.22 145.815 126.22 145.812 126.22C145.809 126.22 145.806 126.22 145.803 126.22C145.8 126.22 145.797 126.22 145.794 126.22C145.791 126.22 145.788 126.22 145.785 126.22C145.782 126.22 145.779 126.22 145.776 126.22C145.773 126.22 145.77 126.22 145.768 126.22C145.765 126.22 145.762 126.22 145.759 126.22C145.756 126.22 145.753 126.22 145.75 126.22C145.747 126.22 145.744 126.22 145.741 126.22C145.738 126.22 145.735 126.22 145.732 126.22C145.729 126.22 145.726 126.22 145.723 126.22C145.72 126.22 145.717 126.22 145.714 126.22C145.711 126.22 145.708 126.22 145.705 126.22C145.702 126.22 145.699 126.22 145.696 126.22C145.693 126.22 145.69 126.22 145.687 126.22C145.684 126.22 145.681 126.22 145.678 126.22C145.675 126.22 145.672 126.22 145.67 126.22C145.667 126.22 145.664 126.22 145.661 126.22C145.658 126.22 145.655 126.22 145.652 126.22C145.649 126.22 145.646 126.22 145.643 126.22C145.64 126.22 145.637 126.22 145.634 126.22C145.631 126.22 145.628 126.22 145.625 126.22C145.622 126.22 145.619 126.22 145.616 126.22C145.613 126.22 145.61 126.22 145.607 126.22C145.604 126.22 145.601 126.22 145.598 126.22C145.595 126.22 145.592 126.22 145.589 126.22C145.587 126.22 145.584 126.22 145.581 126.22C145.578 126.22 145.575 126.22 145.572 126.22C145.569 126.22 145.566 126.22 145.563 126.22C145.56 126.22 145.557 126.22 145.554 126.22C145.551 126.22 145.548 126.22 145.545 126.22C145.542 126.22 145.539 126.22 145.536 126.22C145.533 126.22 145.53 126.22 145.527 126.22C145.524 126.22 145.521 126.22 145.518 126.22C145.515 126.22 145.512 126.22 145.509 126.22C145.507 126.22 145.504 126.22 145.501 126.22C145.498 126.22 145.495 126.22 145.492 126.22C145.489 126.22 145.486 126.22 145.483 126.22C145.48 126.22 145.477 126.22 145.474 126.22C145.471 126.22 145.468 126.22 145.465 126.22C145.462 126.22 145.459 126.22 145.456 126.22C145.453 126.22 145.45 126.22 145.447 126.22C145.444 126.22 145.441 126.22 145.438 126.22C145.436 126.22 145.433 126.22 145.43 126.22C145.427 126.22 145.424 126.22 145.421 126.22C145.418 126.22 145.415 126.22 145.412 126.22C145.409 126.22 145.406 126.22 145.403 126.22C145.4 126.22 145.397 126.22 145.394 126.22C145.391 126.22 145.388 126.22 145.385 126.22C145.382 126.22 145.379 126.22 145.376 126.22C145.373 126.22 145.37 126.22 145.368 126.22C145.365 126.22 145.362 126.22 145.359 126.22C145.356 126.22 145.353 126.22 145.35 126.22C145.347 126.22 145.344 126.22 145.341 126.22C145.338 126.22 145.335 126.22 145.332 126.22C145.329 126.22 145.326 126.22 145.323 126.22C145.32 126.22 145.317 126.22 145.314 126.22C145.311 126.22 145.308 126.22 145.305 126.22C145.303 126.22 145.3 126.22 145.297 126.22C145.294 126.22 145.291 126.22 145.288 126.22C145.285 126.22 145.282 126.22 145.279 126.22C145.276 126.22 145.273 126.22 145.27 126.22C145.267 126.22 145.264 126.22 145.261 126.22C145.258 126.22 145.255 126.22 145.252 126.22C145.249 126.22 145.246 126.22 145.244 126.22C145.241 126.22 145.238 126.22 145.235 126.22C145.232 126.22 145.229 126.22 145.226 126.22C145.223 126.22 145.22 126.22 145.217 126.22C145.214 126.22 145.211 126.22 145.208 126.22C145.205 126.22 145.202 126.22 145.199 126.22C145.196 126.22 145.193 126.22 145.19 126.22C145.188 126.22 145.185 126.22 145.182 126.22C145.179 126.22 145.176 126.22 145.173 126.22C145.17 126.22 145.167 126.22 145.164 126.22C145.161 126.22 145.158 126.22 145.155 126.22C145.152 126.22 145.149 126.22 145.146 126.22C145.143 126.22 145.14 126.22 145.137 126.22C145.134 126.22 145.132 126.22 145.129 126.22C145.126 126.22 145.123 126.22 145.12 126.22C145.117 126.22 145.114 126.22 145.111 126.22C145.108 126.22 145.105 126.22 145.102 126.22C145.099 126.22 145.096 126.22 145.093 126.22C145.09 126.22 145.087 126.22 145.084 126.22C145.081 126.22 145.079 126.22 145.076 126.22C145.073 126.22 145.07 126.22 145.067 126.22C145.064 126.22 145.061 126.22 145.058 126.22C145.055 126.22 145.052 126.22 145.049 126.22C145.046 126.22 145.043 126.22 145.04 126.22C145.037 126.22 145.034 126.22 145.031 126.22C145.029 126.22 145.026 126.22 145.023 126.22C145.02 126.22 145.017 126.22 145.014 126.22C145.011 126.22 145.008 126.22 145.005 126.22C145.002 126.22 144.999 126.22 144.996 126.22C144.993 126.22 144.99 126.22 144.987 126.22C144.984 126.22 144.981 126.22 144.979 126.22C144.976 126.22 144.973 126.22 144.97 126.22C144.967 126.22 144.964 126.22 144.961 126.22C144.958 126.22 144.955 126.22 144.952 126.22C144.949 126.22 144.946 126.22 144.943 126.22C144.94 126.22 144.937 126.22 144.934 126.22C144.932 126.22 144.929 126.22 144.926 126.22C144.923 126.22 144.92 126.22 144.917 126.22C144.914 126.22 144.911 126.22 144.908 126.22C144.905 126.22 144.902 126.22 144.899 126.22C144.896 126.22 144.893 126.22 144.89 126.22C144.887 126.22 144.885 126.22 144.882 126.22C144.879 126.22 144.876 126.22 144.873 126.22C144.87 126.22 144.867 126.22 144.864 126.22C144.861 126.22 144.858 126.22 144.855 126.22C144.852 126.22 144.849 126.22 144.846 126.22C144.843 126.22 144.841 126.22 144.838 126.22C144.835 126.22 144.832 126.22 144.829 126.22C144.826 126.22 144.823 126.22 144.82 126.22C144.817 126.22 144.814 126.22 144.811 126.22C144.808 126.22 144.805 126.22 144.802 126.22C144.799 126.22 144.797 126.22 144.794 126.22C144.791 126.22 144.788 126.22 144.785 126.22C144.782 126.22 144.779 126.22 144.776 126.22C144.773 126.22 144.77 126.22 144.767 126.22C144.764 126.22 144.761 126.22 144.758 126.22C144.755 126.22 144.753 126.22 144.75 126.22C144.747 126.22 144.744 126.22 144.741 126.22C144.738 126.22 144.735 126.22 144.732 126.22C144.729 126.22 144.726 126.22 144.723 126.22C144.72 126.22 144.717 126.22 144.714 126.22C144.712 126.22 144.709 126.22 144.706 126.22C144.703 126.22 144.7 126.22 144.697 126.22C144.694 126.22 144.691 126.22 144.688 126.22C144.685 126.22 144.682 126.22 144.679 126.22C144.676 126.22 144.674 126.22 144.671 126.22C144.668 126.22 144.665 126.22 144.662 126.22C144.659 126.22 144.656 126.22 144.653 126.22C144.65 126.22 144.647 126.22 144.644 126.22C144.641 126.22 144.638 126.22 144.635 126.22C144.633 126.22 144.63 126.22 144.627 126.22C144.624 126.22 144.621 126.22 144.618 126.22C144.615 126.22 144.612 126.22 144.609 126.22C144.606 126.22 144.603 126.22 144.6 126.22C144.597 126.22 144.595 126.22 144.592 126.22C144.589 126.22 144.586 126.22 144.583 126.22C144.58 126.22 144.577 126.22 144.574 126.22C144.571 126.22 144.568 126.22 144.565 126.22C144.562 126.22 144.559 126.22 144.557 126.22C144.554 126.22 144.551 126.22 144.548 126.22C144.545 126.22 144.542 126.22 144.539 126.22C144.536 126.22 144.533 126.22 144.53 126.22C144.527 126.22 144.524 126.22 144.521 126.22C144.519 126.22 144.516 126.22 144.513 126.22C144.51 126.22 144.507 126.22 144.504 126.22C144.501 126.22 144.498 126.22 144.495 126.22C144.492 126.22 144.489 126.22 144.486 126.22C144.484 126.22 144.481 126.22 144.478 126.22C144.475 126.22 144.472 126.22 144.469 126.22C144.466 126.22 144.463 126.22 144.46 126.22C144.457 126.22 144.454 126.22 144.451 126.22C144.449 126.22 144.446 126.22 144.443 126.22C144.44 126.22 144.437 126.22 144.434 126.22C144.431 126.22 144.428 126.22 144.425 126.22V136.22C144.428 136.22 144.431 136.22 144.434 136.22C144.437 136.22 144.44 136.22 144.443 136.22C144.446 136.22 144.449 136.22 144.451 136.22C144.454 136.22 144.457 136.22 144.46 136.22C144.463 136.22 144.466 136.22 144.469 136.22C144.472 136.22 144.475 136.22 144.478 136.22C144.481 136.22 144.484 136.22 144.486 136.22C144.489 136.22 144.492 136.22 144.495 136.22C144.498 136.22 144.501 136.22 144.504 136.22C144.507 136.22 144.51 136.22 144.513 136.22C144.516 136.22 144.519 136.22 144.521 136.22C144.524 136.22 144.527 136.22 144.53 136.22C144.533 136.22 144.536 136.22 144.539 136.22C144.542 136.22 144.545 136.22 144.548 136.22C144.551 136.22 144.554 136.22 144.557 136.22C144.559 136.22 144.562 136.22 144.565 136.22C144.568 136.22 144.571 136.22 144.574 136.22C144.577 136.22 144.58 136.22 144.583 136.22C144.586 136.22 144.589 136.22 144.592 136.22C144.595 136.22 144.597 136.22 144.6 136.22C144.603 136.22 144.606 136.22 144.609 136.22C144.612 136.22 144.615 136.22 144.618 136.22C144.621 136.22 144.624 136.22 144.627 136.22C144.63 136.22 144.633 136.22 144.635 136.22C144.638 136.22 144.641 136.22 144.644 136.22C144.647 136.22 144.65 136.22 144.653 136.22C144.656 136.22 144.659 136.22 144.662 136.22C144.665 136.22 144.668 136.22 144.671 136.22C144.674 136.22 144.676 136.22 144.679 136.22C144.682 136.22 144.685 136.22 144.688 136.22C144.691 136.22 144.694 136.22 144.697 136.22C144.7 136.22 144.703 136.22 144.706 136.22C144.709 136.22 144.712 136.22 144.714 136.22C144.717 136.22 144.72 136.22 144.723 136.22C144.726 136.22 144.729 136.22 144.732 136.22C144.735 136.22 144.738 136.22 144.741 136.22C144.744 136.22 144.747 136.22 144.75 136.22C144.753 136.22 144.755 136.22 144.758 136.22C144.761 136.22 144.764 136.22 144.767 136.22C144.77 136.22 144.773 136.22 144.776 136.22C144.779 136.22 144.782 136.22 144.785 136.22C144.788 136.22 144.791 136.22 144.794 136.22C144.797 136.22 144.799 136.22 144.802 136.22C144.805 136.22 144.808 136.22 144.811 136.22C144.814 136.22 144.817 136.22 144.82 136.22C144.823 136.22 144.826 136.22 144.829 136.22C144.832 136.22 144.835 136.22 144.838 136.22C144.841 136.22 144.843 136.22 144.846 136.22C144.849 136.22 144.852 136.22 144.855 136.22C144.858 136.22 144.861 136.22 144.864 136.22C144.867 136.22 144.87 136.22 144.873 136.22C144.876 136.22 144.879 136.22 144.882 136.22C144.885 136.22 144.887 136.22 144.89 136.22C144.893 136.22 144.896 136.22 144.899 136.22C144.902 136.22 144.905 136.22 144.908 136.22C144.911 136.22 144.914 136.22 144.917 136.22C144.92 136.22 144.923 136.22 144.926 136.22C144.929 136.22 144.932 136.22 144.934 136.22C144.937 136.22 144.94 136.22 144.943 136.22C144.946 136.22 144.949 136.22 144.952 136.22C144.955 136.22 144.958 136.22 144.961 136.22C144.964 136.22 144.967 136.22 144.97 136.22C144.973 136.22 144.976 136.22 144.979 136.22C144.981 136.22 144.984 136.22 144.987 136.22C144.99 136.22 144.993 136.22 144.996 136.22C144.999 136.22 145.002 136.22 145.005 136.22C145.008 136.22 145.011 136.22 145.014 136.22C145.017 136.22 145.02 136.22 145.023 136.22C145.026 136.22 145.029 136.22 145.031 136.22C145.034 136.22 145.037 136.22 145.04 136.22C145.043 136.22 145.046 136.22 145.049 136.22C145.052 136.22 145.055 136.22 145.058 136.22C145.061 136.22 145.064 136.22 145.067 136.22C145.07 136.22 145.073 136.22 145.076 136.22C145.079 136.22 145.081 136.22 145.084 136.22C145.087 136.22 145.09 136.22 145.093 136.22C145.096 136.22 145.099 136.22 145.102 136.22C145.105 136.22 145.108 136.22 145.111 136.22C145.114 136.22 145.117 136.22 145.12 136.22C145.123 136.22 145.126 136.22 145.129 136.22C145.132 136.22 145.134 136.22 145.137 136.22C145.14 136.22 145.143 136.22 145.146 136.22C145.149 136.22 145.152 136.22 145.155 136.22C145.158 136.22 145.161 136.22 145.164 136.22C145.167 136.22 145.17 136.22 145.173 136.22C145.176 136.22 145.179 136.22 145.182 136.22C145.185 136.22 145.188 136.22 145.19 136.22C145.193 136.22 145.196 136.22 145.199 136.22C145.202 136.22 145.205 136.22 145.208 136.22C145.211 136.22 145.214 136.22 145.217 136.22C145.22 136.22 145.223 136.22 145.226 136.22C145.229 136.22 145.232 136.22 145.235 136.22C145.238 136.22 145.241 136.22 145.244 136.22C145.246 136.22 145.249 136.22 145.252 136.22C145.255 136.22 145.258 136.22 145.261 136.22C145.264 136.22 145.267 136.22 145.27 136.22C145.273 136.22 145.276 136.22 145.279 136.22C145.282 136.22 145.285 136.22 145.288 136.22C145.291 136.22 145.294 136.22 145.297 136.22C145.3 136.22 145.303 136.22 145.305 136.22C145.308 136.22 145.311 136.22 145.314 136.22C145.317 136.22 145.32 136.22 145.323 136.22C145.326 136.22 145.329 136.22 145.332 136.22C145.335 136.22 145.338 136.22 145.341 136.22C145.344 136.22 145.347 136.22 145.35 136.22C145.353 136.22 145.356 136.22 145.359 136.22C145.362 136.22 145.365 136.22 145.368 136.22C145.37 136.22 145.373 136.22 145.376 136.22C145.379 136.22 145.382 136.22 145.385 136.22C145.388 136.22 145.391 136.22 145.394 136.22C145.397 136.22 145.4 136.22 145.403 136.22C145.406 136.22 145.409 136.22 145.412 136.22C145.415 136.22 145.418 136.22 145.421 136.22C145.424 136.22 145.427 136.22 145.43 136.22C145.433 136.22 145.436 136.22 145.438 136.22C145.441 136.22 145.444 136.22 145.447 136.22C145.45 136.22 145.453 136.22 145.456 136.22C145.459 136.22 145.462 136.22 145.465 136.22C145.468 136.22 145.471 136.22 145.474 136.22C145.477 136.22 145.48 136.22 145.483 136.22C145.486 136.22 145.489 136.22 145.492 136.22C145.495 136.22 145.498 136.22 145.501 136.22C145.504 136.22 145.507 136.22 145.509 136.22C145.512 136.22 145.515 136.22 145.518 136.22C145.521 136.22 145.524 136.22 145.527 136.22C145.53 136.22 145.533 136.22 145.536 136.22C145.539 136.22 145.542 136.22 145.545 136.22C145.548 136.22 145.551 136.22 145.554 136.22C145.557 136.22 145.56 136.22 145.563 136.22C145.566 136.22 145.569 136.22 145.572 136.22C145.575 136.22 145.578 136.22 145.581 136.22C145.584 136.22 145.587 136.22 145.589 136.22C145.592 136.22 145.595 136.22 145.598 136.22C145.601 136.22 145.604 136.22 145.607 136.22C145.61 136.22 145.613 136.22 145.616 136.22C145.619 136.22 145.622 136.22 145.625 136.22C145.628 136.22 145.631 136.22 145.634 136.22C145.637 136.22 145.64 136.22 145.643 136.22C145.646 136.22 145.649 136.22 145.652 136.22C145.655 136.22 145.658 136.22 145.661 136.22C145.664 136.22 145.667 136.22 145.67 136.22C145.672 136.22 145.675 136.22 145.678 136.22C145.681 136.22 145.684 136.22 145.687 136.22C145.69 136.22 145.693 136.22 145.696 136.22C145.699 136.22 145.702 136.22 145.705 136.22C145.708 136.22 145.711 136.22 145.714 136.22C145.717 136.22 145.72 136.22 145.723 136.22C145.726 136.22 145.729 136.22 145.732 136.22C145.735 136.22 145.738 136.22 145.741 136.22C145.744 136.22 145.747 136.22 145.75 136.22C145.753 136.22 145.756 136.22 145.759 136.22C145.762 136.22 145.765 136.22 145.768 136.22C145.77 136.22 145.773 136.22 145.776 136.22C145.779 136.22 145.782 136.22 145.785 136.22C145.788 136.22 145.791 136.22 145.794 136.22C145.797 136.22 145.8 136.22 145.803 136.22C145.806 136.22 145.809 136.22 145.812 136.22C145.815 136.22 145.818 136.22 145.821 136.22C145.824 136.22 145.827 136.22 145.83 136.22C145.833 136.22 145.836 136.22 145.839 136.22C145.842 136.22 145.845 136.22 145.848 136.22C145.851 136.22 145.854 136.22 145.857 136.22C145.86 136.22 145.863 136.22 145.866 136.22C145.869 136.22 145.872 136.22 145.875 136.22C145.878 136.22 145.88 136.22 145.883 136.22C145.886 136.22 145.889 136.22 145.892 136.22C145.895 136.22 145.898 136.22 145.901 136.22C145.904 136.22 145.907 136.22 145.91 136.22C145.913 136.22 145.916 136.22 145.919 136.22C145.922 136.22 145.925 136.22 145.928 136.22C145.931 136.22 145.934 136.22 145.937 136.22C145.94 136.22 145.943 136.22 145.946 136.22C145.949 136.22 145.952 136.22 145.955 136.22C145.958 136.22 145.961 136.22 145.964 136.22C145.967 136.22 145.97 136.22 145.973 136.22C145.976 136.22 145.979 136.22 145.982 136.22C145.985 136.22 145.988 136.22 145.991 136.22C145.994 136.22 145.997 136.22 146 136.22C146.003 136.22 146.006 136.22 146.009 136.22C146.012 136.22 146.014 136.22 146.017 136.22C146.02 136.22 146.023 136.22 146.026 136.22C146.029 136.22 146.032 136.22 146.035 136.22C146.038 136.22 146.041 136.22 146.044 136.22C146.047 136.22 146.05 136.22 146.053 136.22C146.056 136.22 146.059 136.22 146.062 136.22C146.065 136.22 146.068 136.22 146.071 136.22C146.074 136.22 146.077 136.22 146.08 136.22C146.083 136.22 146.086 136.22 146.089 136.22C146.092 136.22 146.095 136.22 146.098 136.22C146.101 136.22 146.104 136.22 146.107 136.22C146.11 136.22 146.113 136.22 146.116 136.22C146.119 136.22 146.122 136.22 146.125 136.22C146.128 136.22 146.131 136.22 146.134 136.22C146.137 136.22 146.14 136.22 146.143 136.22C146.146 136.22 146.149 136.22 146.152 136.22C146.155 136.22 146.158 136.22 146.161 136.22C146.164 136.22 146.167 136.22 146.17 136.22C146.173 136.22 146.176 136.22 146.179 136.22C146.182 136.22 146.185 136.22 146.188 136.22C146.191 136.22 146.194 136.22 146.197 136.22C146.2 136.22 146.202 136.22 146.205 136.22C146.208 136.22 146.211 136.22 146.214 136.22C146.217 136.22 146.22 136.22 146.223 136.22C146.226 136.22 146.229 136.22 146.232 136.22C146.235 136.22 146.238 136.22 146.241 136.22C146.244 136.22 146.247 136.22 146.25 136.22C146.253 136.22 146.256 136.22 146.259 136.22C146.262 136.22 146.265 136.22 146.268 136.22C146.271 136.22 146.274 136.22 146.277 136.22C146.28 136.22 146.283 136.22 146.286 136.22C146.289 136.22 146.292 136.22 146.295 136.22C146.298 136.22 146.301 136.22 146.304 136.22C146.307 136.22 146.31 136.22 146.313 136.22C146.316 136.22 146.319 136.22 146.322 136.22C146.325 136.22 146.328 136.22 146.331 136.22C146.334 136.22 146.337 136.22 146.34 136.22C146.343 136.22 146.346 136.22 146.349 136.22C146.352 136.22 146.355 136.22 146.358 136.22C146.361 136.22 146.364 136.22 146.367 136.22C146.37 136.22 146.373 136.22 146.376 136.22C146.379 136.22 146.382 136.22 146.385 136.22C146.388 136.22 146.391 136.22 146.394 136.22C146.397 136.22 146.4 136.22 146.403 136.22C146.406 136.22 146.409 136.22 146.412 136.22C146.415 136.22 146.418 136.22 146.421 136.22C146.424 136.22 146.427 136.22 146.43 136.22C146.433 136.22 146.436 136.22 146.439 136.22C146.442 136.22 146.445 136.22 146.448 136.22C146.451 136.22 146.454 136.22 146.457 136.22C146.46 136.22 146.463 136.22 146.466 136.22C146.469 136.22 146.472 136.22 146.475 136.22C146.478 136.22 146.481 136.22 146.484 136.22C146.487 136.22 146.49 136.22 146.493 136.22C146.496 136.22 146.499 136.22 146.502 136.22C146.505 136.22 146.508 136.22 146.511 136.22C146.514 136.22 146.517 136.22 146.52 136.22C146.523 136.22 146.526 136.22 146.529 136.22C146.532 136.22 146.535 136.22 146.538 136.22C146.541 136.22 146.544 136.22 146.547 136.22C146.55 136.22 146.553 136.22 146.556 136.22C146.559 136.22 146.562 136.22 146.565 136.22C146.568 136.22 146.571 136.22 146.574 136.22C146.577 136.22 146.58 136.22 146.583 136.22C146.586 136.22 146.589 136.22 146.592 136.22C146.595 136.22 146.598 136.22 146.601 136.22C146.604 136.22 146.607 136.22 146.61 136.22C146.613 136.22 146.616 136.22 146.619 136.22C146.622 136.22 146.625 136.22 146.628 136.22C146.631 136.22 146.634 136.22 146.637 136.22C146.64 136.22 146.643 136.22 146.646 136.22C146.649 136.22 146.652 136.22 146.655 136.22C146.658 136.22 146.661 136.22 146.664 136.22C146.667 136.22 146.67 136.22 146.673 136.22C146.676 136.22 146.679 136.22 146.682 136.22C146.685 136.22 146.688 136.22 146.691 136.22C146.694 136.22 146.697 136.22 146.7 136.22C146.703 136.22 146.706 136.22 146.709 136.22C146.712 136.22 146.715 136.22 146.718 136.22C146.721 136.22 146.724 136.22 146.727 136.22C146.73 136.22 146.733 136.22 146.736 136.22C146.739 136.22 146.742 136.22 146.745 136.22C146.748 136.22 146.751 136.22 146.754 136.22C146.757 136.22 146.76 136.22 146.763 136.22C146.766 136.22 146.769 136.22 146.772 136.22C146.775 136.22 146.778 136.22 146.781 136.22C146.784 136.22 146.787 136.22 146.79 136.22C146.793 136.22 146.796 136.22 146.799 136.22C146.802 136.22 146.806 136.22 146.809 136.22C146.812 136.22 146.815 136.22 146.818 136.22C146.821 136.22 146.824 136.22 146.827 136.22C146.83 136.22 146.833 136.22 146.836 136.22C146.839 136.22 146.842 136.22 146.845 136.22C146.848 136.22 146.851 136.22 146.854 136.22C146.857 136.22 146.86 136.22 146.863 136.22C146.866 136.22 146.869 136.22 146.872 136.22C146.875 136.22 146.878 136.22 146.881 136.22C146.884 136.22 146.887 136.22 146.89 136.22C146.893 136.22 146.896 136.22 146.899 136.22C146.902 136.22 146.905 136.22 146.908 136.22C146.911 136.22 146.914 136.22 146.917 136.22C146.92 136.22 146.923 136.22 146.926 136.22C146.929 136.22 146.932 136.22 146.935 136.22C146.938 136.22 146.941 136.22 146.944 136.22C146.947 136.22 146.95 136.22 146.953 136.22C146.956 136.22 146.959 136.22 146.962 136.22C146.965 136.22 146.968 136.22 146.971 136.22C146.974 136.22 146.977 136.22 146.98 136.22C146.983 136.22 146.986 136.22 146.989 136.22C146.992 136.22 146.995 136.22 146.999 136.22C147.002 136.22 147.005 136.22 147.008 136.22C147.011 136.22 147.014 136.22 147.017 136.22C147.02 136.22 147.023 136.22 147.026 136.22C147.029 136.22 147.032 136.22 147.035 136.22C147.038 136.22 147.041 136.22 147.044 136.22C147.047 136.22 147.05 136.22 147.053 136.22C147.056 136.22 147.059 136.22 147.062 136.22C147.065 136.22 147.068 136.22 147.071 136.22C147.074 136.22 147.077 136.22 147.08 136.22C147.083 136.22 147.086 136.22 147.089 136.22C147.092 136.22 147.095 136.22 147.098 136.22C147.101 136.22 147.104 136.22 147.107 136.22C147.11 136.22 147.113 136.22 147.116 136.22C147.119 136.22 147.122 136.22 147.125 136.22C147.128 136.22 147.131 136.22 147.135 136.22C147.138 136.22 147.141 136.22 147.144 136.22C147.147 136.22 147.15 136.22 147.153 136.22C147.156 136.22 147.159 136.22 147.162 136.22C147.165 136.22 147.168 136.22 147.171 136.22C147.174 136.22 147.177 136.22 147.18 136.22C147.183 136.22 147.186 136.22 147.189 136.22C147.192 136.22 147.195 136.22 147.198 136.22C147.201 136.22 147.204 136.22 147.207 136.22C147.21 136.22 147.213 136.22 147.216 136.22C147.219 136.22 147.222 136.22 147.225 136.22C147.228 136.22 147.231 136.22 147.234 136.22C147.237 136.22 147.24 136.22 147.243 136.22C147.247 136.22 147.25 136.22 147.253 136.22C147.256 136.22 147.259 136.22 147.262 136.22C147.265 136.22 147.268 136.22 147.271 136.22C147.274 136.22 147.277 136.22 147.28 136.22C147.283 136.22 147.286 136.22 147.289 136.22C147.292 136.22 147.295 136.22 147.298 136.22C147.301 136.22 147.304 136.22 147.307 136.22C147.31 136.22 147.313 136.22 147.316 136.22C147.319 136.22 147.322 136.22 147.325 136.22C147.328 136.22 147.331 136.22 147.334 136.22C147.337 136.22 147.34 136.22 147.344 136.22C147.347 136.22 147.35 136.22 147.353 136.22C147.356 136.22 147.359 136.22 147.362 136.22C147.365 136.22 147.368 136.22 147.371 136.22C147.374 136.22 147.377 136.22 147.38 136.22C147.383 136.22 147.386 136.22 147.389 136.22C147.392 136.22 147.395 136.22 147.398 136.22C147.401 136.22 147.404 136.22 147.407 136.22C147.41 136.22 147.413 136.22 147.416 136.22C147.419 136.22 147.422 136.22 147.425 136.22C147.428 136.22 147.432 136.22 147.435 136.22C147.438 136.22 147.441 136.22 147.444 136.22C147.447 136.22 147.45 136.22 147.453 136.22C147.456 136.22 147.459 136.22 147.462 136.22C147.465 136.22 147.468 136.22 147.471 136.22C147.474 136.22 147.477 136.22 147.48 136.22C147.483 136.22 147.486 136.22 147.489 136.22C147.492 136.22 147.495 136.22 147.498 136.22C147.501 136.22 147.504 136.22 147.507 136.22C147.511 136.22 147.514 136.22 147.517 136.22C147.52 136.22 147.523 136.22 147.526 136.22C147.529 136.22 147.532 136.22 147.535 136.22C147.538 136.22 147.541 136.22 147.544 136.22C147.547 136.22 147.55 136.22 147.553 136.22C147.556 136.22 147.559 136.22 147.562 136.22C147.565 136.22 147.568 136.22 147.571 136.22C147.574 136.22 147.577 136.22 147.58 136.22C147.583 136.22 147.587 136.22 147.59 136.22C147.593 136.22 147.596 136.22 147.599 136.22C147.602 136.22 147.605 136.22 147.608 136.22C147.611 136.22 147.614 136.22 147.617 136.22C147.62 136.22 147.623 136.22 147.626 136.22C147.629 136.22 147.632 136.22 147.635 136.22C147.638 136.22 147.641 136.22 147.644 136.22C147.647 136.22 147.65 136.22 147.654 136.22C147.657 136.22 147.66 136.22 147.663 136.22C147.666 136.22 147.669 136.22 147.672 136.22C147.675 136.22 147.678 136.22 147.681 136.22C147.684 136.22 147.687 136.22 147.69 136.22C147.693 136.22 147.696 136.22 147.699 136.22C147.702 136.22 147.705 136.22 147.708 136.22C147.711 136.22 147.714 136.22 147.717 136.22C147.721 136.22 147.724 136.22 147.727 136.22C147.73 136.22 147.733 136.22 147.736 136.22C147.739 136.22 147.742 136.22 147.745 136.22C147.748 136.22 147.751 136.22 147.754 136.22C147.757 136.22 147.76 136.22 147.763 136.22C147.766 136.22 147.769 136.22 147.772 136.22C147.775 136.22 147.778 136.22 147.782 136.22C147.785 136.22 147.788 136.22 147.791 136.22C147.794 136.22 147.797 136.22 147.8 136.22C147.803 136.22 147.806 136.22 147.809 136.22C147.812 136.22 147.815 136.22 147.818 136.22C147.821 136.22 147.824 136.22 147.827 136.22C147.83 136.22 147.833 136.22 147.836 136.22C147.839 136.22 147.843 136.22 147.846 136.22C147.849 136.22 147.852 136.22 147.855 136.22C147.858 136.22 147.861 136.22 147.864 136.22C147.867 136.22 147.87 136.22 147.873 136.22C147.876 136.22 147.879 136.22 147.882 136.22C147.885 136.22 147.888 136.22 147.891 136.22C147.894 136.22 147.898 136.22 147.901 136.22C147.904 136.22 147.907 136.22 147.91 136.22C147.913 136.22 147.916 136.22 147.919 136.22C147.922 136.22 147.925 136.22 147.928 136.22C147.931 136.22 147.934 136.22 147.937 136.22C147.94 136.22 147.943 136.22 147.946 136.22C147.949 136.22 147.952 136.22 147.956 136.22C147.959 136.22 147.962 136.22 147.965 136.22C147.968 136.22 147.971 136.22 147.974 136.22C147.977 136.22 147.98 136.22 147.983 136.22C147.986 136.22 147.989 136.22 147.992 136.22C147.995 136.22 147.998 136.22 148.001 136.22C148.004 136.22 148.008 136.22 148.011 136.22C148.014 136.22 148.017 136.22 148.02 136.22C148.023 136.22 148.026 136.22 148.029 136.22C148.032 136.22 148.035 136.22 148.038 136.22C148.041 136.22 148.044 136.22 148.047 136.22C148.05 136.22 148.053 136.22 148.057 136.22C148.06 136.22 148.063 136.22 148.066 136.22C148.069 136.22 148.072 136.22 148.075 136.22C148.078 136.22 148.081 136.22 148.084 136.22C148.087 136.22 148.09 136.22 148.093 136.22C148.096 136.22 148.099 136.22 148.102 136.22C148.105 136.22 148.109 136.22 148.112 136.22C148.115 136.22 148.118 136.22 148.121 136.22C148.124 136.22 148.127 136.22 148.13 136.22C148.133 136.22 148.136 136.22 148.139 136.22C148.142 136.22 148.145 136.22 148.148 136.22C148.151 136.22 148.155 136.22 148.158 136.22C148.161 136.22 148.164 136.22 148.167 136.22C148.17 136.22 148.173 136.22 148.176 136.22C148.179 136.22 148.182 136.22 148.185 136.22C148.188 136.22 148.191 136.22 148.194 136.22C148.197 136.22 148.201 136.22 148.204 136.22C148.207 136.22 148.21 136.22 148.213 136.22C148.216 136.22 148.219 136.22 148.222 136.22C148.225 136.22 148.228 136.22 148.231 136.22C148.234 136.22 148.237 136.22 148.24 136.22C148.243 136.22 148.247 136.22 148.25 136.22C148.253 136.22 148.256 136.22 148.259 136.22C148.262 136.22 148.265 136.22 148.268 136.22C148.271 136.22 148.274 136.22 148.277 136.22C148.28 136.22 148.283 136.22 148.286 136.22C148.289 136.22 148.293 136.22 148.296 136.22C148.299 136.22 148.302 136.22 148.305 136.22C148.308 136.22 148.311 136.22 148.314 136.22C148.317 136.22 148.32 136.22 148.323 136.22C148.326 136.22 148.329 136.22 148.332 136.22C148.336 136.22 148.339 136.22 148.342 136.22C148.345 136.22 148.348 136.22 148.351 136.22C148.354 136.22 148.357 136.22 148.36 136.22C148.363 136.22 148.366 136.22 148.369 136.22C148.372 136.22 148.375 136.22 148.379 136.22C148.382 136.22 148.385 136.22 148.388 136.22C148.391 136.22 148.394 136.22 148.397 136.22C148.4 136.22 148.403 136.22 148.406 136.22C148.409 136.22 148.412 136.22 148.415 136.22C148.419 136.22 148.422 136.22 148.425 136.22C148.428 136.22 148.431 136.22 148.434 136.22C148.437 136.22 148.44 136.22 148.443 136.22C148.446 136.22 148.449 136.22 148.452 136.22C148.455 136.22 148.458 136.22 148.462 136.22C148.465 136.22 148.468 136.22 148.471 136.22C148.474 136.22 148.477 136.22 148.48 136.22C148.483 136.22 148.486 136.22 148.489 136.22C148.492 136.22 148.495 136.22 148.499 136.22C148.502 136.22 148.505 136.22 148.508 136.22C148.511 136.22 148.514 136.22 148.517 136.22C148.52 136.22 148.523 136.22 148.526 136.22C148.529 136.22 148.532 136.22 148.535 136.22C148.539 136.22 148.542 136.22 148.545 136.22C148.548 136.22 148.551 136.22 148.554 136.22C148.557 136.22 148.56 136.22 148.563 136.22C148.566 136.22 148.569 136.22 148.572 136.22C148.575 136.22 148.579 136.22 148.582 136.22C148.585 136.22 148.588 136.22 148.591 136.22C148.594 136.22 148.597 136.22 148.6 136.22C148.603 136.22 148.606 136.22 148.609 136.22C148.612 136.22 148.616 136.22 148.619 136.22C148.622 136.22 148.625 136.22 148.628 136.22C148.631 136.22 148.634 136.22 148.637 136.22C148.64 136.22 148.643 136.22 148.646 136.22C148.649 136.22 148.653 136.22 148.656 136.22C148.659 136.22 148.662 136.22 148.665 136.22C148.668 136.22 148.671 136.22 148.674 136.22C148.677 136.22 148.68 136.22 148.683 136.22C148.686 136.22 148.69 136.22 148.693 136.22C148.696 136.22 148.699 136.22 148.702 136.22C148.705 136.22 148.708 136.22 148.711 136.22C148.714 136.22 148.717 136.22 148.72 136.22C148.724 136.22 148.727 136.22 148.73 136.22C148.733 136.22 148.736 136.22 148.739 136.22C148.742 136.22 148.745 136.22 148.748 136.22C148.751 136.22 148.754 136.22 148.757 136.22C148.761 136.22 148.764 136.22 148.767 136.22C148.77 136.22 148.773 136.22 148.776 136.22C148.779 136.22 148.782 136.22 148.785 136.22C148.788 136.22 148.791 136.22 148.795 136.22C148.798 136.22 148.801 136.22 148.804 136.22C148.807 136.22 148.81 136.22 148.813 136.22C148.816 136.22 148.819 136.22 148.822 136.22C148.825 136.22 148.829 136.22 148.832 136.22C148.835 136.22 148.838 136.22 148.841 136.22C148.844 136.22 148.847 136.22 148.85 136.22C148.853 136.22 148.856 136.22 148.859 136.22C148.863 136.22 148.866 136.22 148.869 136.22C148.872 136.22 148.875 136.22 148.878 136.22C148.881 136.22 148.884 136.22 148.887 136.22C148.89 136.22 148.893 136.22 148.897 136.22C148.9 136.22 148.903 136.22 148.906 136.22C148.909 136.22 148.912 136.22 148.915 136.22C148.918 136.22 148.921 136.22 148.924 136.22C148.927 136.22 148.931 136.22 148.934 136.22C148.937 136.22 148.94 136.22 148.943 136.22C148.946 136.22 148.949 136.22 148.952 136.22C148.955 136.22 148.958 136.22 148.962 136.22C148.965 136.22 148.968 136.22 148.971 136.22C148.974 136.22 148.977 136.22 148.98 136.22C148.983 136.22 148.986 136.22 148.989 136.22C148.992 136.22 148.996 136.22 148.999 136.22C149.002 136.22 149.005 136.22 149.008 136.22C149.011 136.22 149.014 136.22 149.017 136.22C149.02 136.22 149.023 136.22 149.027 136.22C149.03 136.22 149.033 136.22 149.036 136.22C149.039 136.22 149.042 136.22 149.045 136.22V126.22ZM144.737 126.23C143.163 126.131 141.703 126.08 140.365 126.08V136.08C141.454 136.08 142.701 136.122 144.113 136.21L144.737 126.23ZM135.808 133.138C137.503 136.891 140.097 139.932 143.541 142.146L148.949 133.734C147.166 132.588 145.841 131.056 144.922 129.022L135.808 133.138ZM143.717 142.253C147.407 144.417 151.807 145.32 156.605 145.32V135.32C153.003 135.32 150.496 134.636 148.774 133.627L143.717 142.253ZM156.605 145.32C158.429 145.32 160.901 145.162 163.932 144.878L162.998 134.922C160.056 135.198 157.955 135.32 156.605 135.32V145.32ZM164.085 144.861C166.403 144.572 168.595 144.755 170.708 145.389L173.582 135.811C170.096 134.765 166.501 134.482 162.845 134.939L164.085 144.861ZM170.654 145.372C172.172 145.847 172.867 146.438 173.208 146.885C173.533 147.312 173.865 148.036 173.865 149.42H183.865C183.865 146.324 183.077 143.338 181.162 140.825C179.263 138.332 176.598 136.753 173.637 135.828L170.654 145.372ZM173.865 149.42C173.865 150.593 173.489 151.817 172.408 153.198L180.283 159.362C182.562 156.45 183.865 153.101 183.865 149.42H173.865ZM172.389 153.223C171.762 154.034 170.088 155.275 166.277 156.376L169.053 165.984C173.642 164.658 177.755 162.633 180.302 159.337L172.389 153.223ZM166.248 156.385C162.824 157.397 157.552 158 150.165 158V168C157.898 168 164.293 167.39 169.082 165.975L166.248 156.385ZM207.384 162.44L207.106 167.432L207.175 167.436L207.245 167.438L207.384 162.44ZM198.144 161.04L196.855 165.871L198.144 161.04ZM191.284 157.26L187.654 160.699L187.7 160.748L187.748 160.796L191.284 157.26ZM192.964 141.16L195.536 145.447L195.588 145.416L195.639 145.384L192.964 141.16ZM203.184 137.66L203.875 142.612L208.57 141.957L208.165 137.233L203.184 137.66ZM202.624 127.02L197.625 127.139L197.625 127.142L202.624 127.02ZM202.624 102.8L207.622 102.928L207.622 102.925L202.624 102.8ZM203.044 92.58L208.034 92.8825L208.32 88.1663L203.628 87.6142L203.044 92.58ZM190.724 88.94L188.295 93.3108L188.321 93.3248L188.346 93.3385L190.724 88.94ZM188.484 70.88L192.019 74.4155L192.062 74.3724L192.104 74.3283L188.484 70.88ZM195.904 66.82L197.082 71.6792L197.132 71.6669L197.183 71.6535L195.904 66.82ZM206.124 65.28L205.874 60.2862L205.868 60.2866L206.124 65.28ZM228.244 65.28L227.994 70.2738L228.244 65.28ZM238.464 66.82L237.148 71.6438L237.217 71.6625L237.286 71.6792L238.464 66.82ZM245.884 70.88L242.263 74.3283L242.347 74.4166L242.435 74.5007L245.884 70.88ZM246.444 86.56L250.253 89.7982V89.7982L246.444 86.56ZM240.004 90.76L241.486 95.5353L241.56 95.5122L241.634 95.4869L240.004 90.76ZM231.184 92.58L230.599 87.6142L225.763 88.1832L226.204 93.0327L231.184 92.58ZM231.744 102.66L226.745 102.788V102.788L231.744 102.66ZM231.604 127.02L226.609 126.782L226.606 126.84L226.605 126.898L231.604 127.02ZM231.044 137.66L226.062 137.233L225.645 142.091L230.491 142.629L231.044 137.66ZM241.684 141.02L239.071 145.283L239.151 145.332L239.232 145.378L241.684 141.02ZM243.504 157.26L239.968 153.724L239.92 153.772L239.874 153.821L243.504 157.26ZM236.644 161.04L235.394 156.199L235.375 156.204L235.355 156.209L236.644 161.04ZM227.404 162.44L227.542 167.438L227.612 167.436L227.681 167.432L227.404 162.44ZM217.324 157.58C214.105 157.58 210.837 157.534 207.522 157.442L207.245 167.438C210.65 167.533 214.009 167.58 217.324 167.58V157.58ZM207.661 157.448C204.589 157.277 201.853 156.855 199.432 156.209L196.855 165.871C200.034 166.719 203.458 167.23 207.106 167.432L207.661 157.448ZM199.432 156.209C197.348 155.653 195.879 154.785 194.819 153.724L187.748 160.796C190.235 163.282 193.339 164.934 196.855 165.871L199.432 156.209ZM194.913 153.821C194.352 153.229 193.764 152.13 193.764 149.84H183.764C183.764 153.897 184.855 157.745 187.654 160.699L194.913 153.821ZM193.764 149.84C193.764 146.967 194.642 145.984 195.536 145.447L190.391 136.873C185.686 139.696 183.764 144.499 183.764 149.84H193.764ZM195.639 145.384C197.718 144.067 200.413 143.095 203.875 142.612L202.493 132.708C197.927 133.345 193.809 134.706 190.288 136.936L195.639 145.384ZM208.165 137.233C207.895 134.083 207.713 130.639 207.622 126.898L197.625 127.142C197.721 131.054 197.912 134.704 198.202 138.087L208.165 137.233ZM207.622 126.901C207.53 123.026 207.484 118.866 207.484 114.42H197.484C197.484 118.934 197.531 123.174 197.625 127.139L207.622 126.901ZM207.484 114.42C207.484 110.351 207.53 106.52 207.622 102.928L197.625 102.672C197.531 106.36 197.484 110.276 197.484 114.42H207.484ZM207.622 102.925C207.714 99.239 207.852 95.8926 208.034 92.8825L198.053 92.2775C197.862 95.4274 197.72 98.8943 197.625 102.675L207.622 102.925ZM203.628 87.6142C199.361 87.1123 195.89 86.0489 193.101 84.5415L188.346 93.3385C192.464 95.5644 197.206 96.9277 202.459 97.5458L203.628 87.6142ZM193.152 84.5692C191.78 83.8068 190.684 82.4537 190.684 79H180.684C180.684 85.0663 182.948 90.3398 188.295 93.3108L193.152 84.5692ZM190.684 79C190.684 76.3101 191.377 75.0579 192.019 74.4155L184.948 67.3445C181.857 70.4354 180.684 74.5966 180.684 79H190.684ZM192.104 74.3283C193.202 73.1752 194.772 72.2392 197.082 71.6792L194.726 61.9607C190.875 62.8942 187.498 64.6648 184.863 67.4317L192.104 74.3283ZM197.183 71.6535C199.987 70.9112 203.048 70.4443 206.38 70.2734L205.868 60.2866C201.919 60.489 198.166 61.0488 194.624 61.9865L197.183 71.6535ZM206.373 70.2738C210.026 70.0911 213.629 70 217.184 70V60C213.458 60 209.688 60.0955 205.874 60.2862L206.373 70.2738ZM217.184 70C220.738 70 224.342 70.0911 227.994 70.2738L228.493 60.2862C224.679 60.0955 220.909 60 217.184 60V70ZM227.994 70.2738C231.426 70.4454 234.469 70.9132 237.148 71.6438L239.779 61.9962C236.298 61.0467 232.528 60.4879 228.493 60.2862L227.994 70.2738ZM237.286 71.6792C239.595 72.2392 241.165 73.1752 242.263 74.3283L249.504 67.4317C246.869 64.6648 243.492 62.8942 239.642 61.9607L237.286 71.6792ZM242.435 74.5007C243.123 75.1554 243.824 76.3769 243.824 79H253.824C253.824 74.5298 252.564 70.3379 249.332 67.2593L242.435 74.5007ZM243.824 79C243.824 81.344 243.249 82.5983 242.634 83.3218L250.253 89.7982C252.812 86.7884 253.824 83.0027 253.824 79H243.824ZM242.634 83.3218C241.719 84.3982 240.378 85.342 238.374 86.0331L241.634 95.4869C245.043 94.3113 247.995 92.4551 250.253 89.7982L242.634 83.3218ZM238.522 85.9847C236.142 86.7232 233.506 87.2723 230.599 87.6142L231.768 97.5458C235.208 97.141 238.452 96.4768 241.486 95.5353L238.522 85.9847ZM226.204 93.0327C226.473 95.9879 226.654 99.2381 226.745 102.788L236.742 102.532C236.646 98.8019 236.454 95.3321 236.163 92.1273L226.204 93.0327ZM226.745 102.788C226.837 106.38 226.884 110.256 226.884 114.42H236.884C236.884 110.184 236.837 106.22 236.742 102.532L226.745 102.788ZM226.884 114.42C226.884 118.832 226.792 122.952 226.609 126.782L236.598 127.258C236.789 123.248 236.884 118.968 236.884 114.42H226.884ZM226.605 126.898C226.514 130.639 226.332 134.083 226.062 137.233L236.025 138.087C236.315 134.704 236.507 131.054 236.602 127.142L226.605 126.898ZM230.491 142.629C234.135 143.034 236.938 143.976 239.071 145.283L244.296 136.757C240.642 134.517 236.352 133.219 231.596 132.691L230.491 142.629ZM239.232 145.378C240.266 145.96 241.164 146.966 241.164 149.84H251.164C251.164 144.314 249.074 139.44 244.135 136.662L239.232 145.378ZM241.164 149.84C241.164 152.057 240.571 153.122 239.968 153.724L247.039 160.796C249.983 157.852 251.164 153.969 251.164 149.84H241.164ZM239.874 153.821C238.971 154.775 237.582 155.634 235.394 156.199L237.893 165.881C241.492 164.953 244.677 163.292 247.133 160.699L239.874 153.821ZM235.355 156.209C232.934 156.855 230.198 157.277 227.126 157.448L227.681 167.432C231.329 167.23 234.753 166.719 237.932 165.871L235.355 156.209ZM227.265 157.442C223.951 157.534 220.637 157.58 217.324 157.58V167.58C220.73 167.58 224.136 167.533 227.542 167.438L227.265 157.442ZM259.488 159.08L255.893 162.555L255.952 162.616L256.013 162.675L259.488 159.08ZM253.048 148.02L248.314 149.63L248.319 149.644L248.324 149.659L253.048 148.02ZM249.688 132.76L244.713 133.266L244.718 133.308L244.722 133.349L249.688 132.76ZM251.368 97.76L246.568 96.3572L246.559 96.3913L246.549 96.4256L251.368 97.76ZM259.348 81.38L255.32 78.4166L255.316 78.4232L255.311 78.4299L259.348 81.38ZM273.068 69.62L270.742 65.1938L270.742 65.1938L273.068 69.62ZM313.388 70.04L311.098 74.4849L311.111 74.4918L311.125 74.4987L313.388 70.04ZM328.368 83.62L332.589 80.94L328.368 83.62ZM330.748 123.1L326.123 121.2L326.114 121.222L326.105 121.243L330.748 123.1ZM322.488 135.84L319.001 132.256L316.052 135.125L318.3 138.571L322.488 135.84ZM325.848 142.7L330.573 141.064V141.064L325.848 142.7ZM325.008 156.7L329.076 159.606L329.108 159.562L329.139 159.517L325.008 156.7ZM319.548 161.32L317.312 156.848L317.273 156.867L317.235 156.887L319.548 161.32ZM301.068 158.66L298.037 162.637L298.066 162.659L298.096 162.681L301.068 158.66ZM295.888 152.78L291.586 155.329L291.607 155.365L291.629 155.4L295.888 152.78ZM292.248 145.36L296.914 143.565L295.826 140.736L292.815 140.392L292.248 145.36ZM283.008 142.98L284.941 138.369L276.174 134.692L278.113 144L283.008 142.98ZM283.708 149.84H278.708V149.94L278.712 150.04L283.708 149.84ZM282.588 156.42L277.96 154.527L277.937 154.583L277.915 154.64L282.588 156.42ZM278.388 161.32L281.019 165.571L281.046 165.555L281.072 165.538L278.388 161.32ZM302.748 119.6L306.213 123.204L306.216 123.202L302.748 119.6ZM302.748 102.8L299.212 106.336L299.28 106.403L299.351 106.469L302.748 102.8ZM285.248 102.8L288.713 106.404L288.716 106.402L285.248 102.8ZM285.248 119.6L281.712 123.136L281.78 123.203L281.851 123.269L285.248 119.6ZM269.988 158.14C266.973 158.14 264.753 157.216 262.963 155.485L256.013 162.675C259.822 166.358 264.603 168.14 269.988 168.14V158.14ZM263.083 155.605C260.989 153.439 259.176 150.43 257.771 146.381L248.324 149.659C250.092 154.757 252.573 159.121 255.893 162.555L263.083 155.605ZM257.782 146.41C256.32 142.113 255.27 137.373 254.653 132.171L244.722 133.349C245.412 139.161 246.602 144.594 248.314 149.63L257.782 146.41ZM254.662 132.254C254.119 126.912 253.848 121.621 253.848 116.38H243.848C243.848 121.966 244.137 127.595 244.713 133.266L254.662 132.254ZM253.848 116.38C253.848 110.481 254.628 104.723 256.186 99.0944L246.549 96.4256C244.748 102.93 243.848 109.586 243.848 116.38H253.848ZM256.167 99.1628C257.786 93.6233 260.197 88.692 263.385 84.3301L255.311 78.4299C251.405 83.7747 248.496 89.7634 246.568 96.3572L256.167 99.1628ZM263.375 84.3434C266.56 80.015 270.548 76.5918 275.393 74.0462L270.742 65.1938C264.574 68.4348 259.415 72.8516 255.32 78.4166L263.375 84.3434ZM275.393 74.0462C280.044 71.6026 285.745 70.28 292.668 70.28V60.28C284.47 60.28 277.105 61.8507 270.742 65.1938L275.393 74.0462ZM292.668 70.28C299.609 70.28 305.718 71.7132 311.098 74.4849L315.677 65.5951C308.738 62.0201 301.033 60.28 292.668 60.28V70.28ZM311.125 74.4987C316.583 77.2687 320.898 81.1834 324.147 86.3L332.589 80.94C328.371 74.2965 322.699 69.158 315.65 65.5812L311.125 74.4987ZM324.147 86.3C327.292 91.2533 328.968 97.2888 328.968 104.62H338.968C338.968 95.7112 336.91 87.7467 332.589 80.94L324.147 86.3ZM328.968 104.62C328.968 111.222 327.967 116.709 326.123 121.2L335.373 125C337.821 119.038 338.968 112.204 338.968 104.62H328.968ZM326.105 121.243C324.274 125.822 321.884 129.452 319.001 132.256L325.974 139.424C329.998 135.508 333.115 130.645 335.39 124.957L326.105 121.243ZM318.3 138.571C319.476 140.375 320.416 142.294 321.123 144.336L330.573 141.064C329.599 138.253 328.299 135.598 326.676 133.109L318.3 138.571ZM321.123 144.336C321.807 146.312 322.108 148.092 322.108 149.7H332.108C332.108 146.828 331.568 143.941 330.573 141.064L321.123 144.336ZM322.108 149.7C322.108 151.363 321.68 152.704 320.877 153.883L329.139 159.517C331.135 156.589 332.108 153.263 332.108 149.7H322.108ZM320.939 153.794C320.032 155.063 318.852 156.078 317.312 156.848L321.784 165.792C324.723 164.322 327.183 162.257 329.076 159.606L320.939 153.794ZM317.235 156.887C315.804 157.634 314.311 158 312.688 158V168C315.918 168 318.998 167.246 321.861 165.753L317.235 156.887ZM312.688 158C311.173 158 309.85 157.761 308.676 157.328L305.219 166.712C307.592 167.586 310.096 168 312.688 168V158ZM308.676 157.328C307.488 156.891 305.949 156.05 304.04 154.639L298.096 162.681C300.48 164.443 302.861 165.843 305.219 166.712L308.676 157.328ZM304.098 154.683C302.697 153.616 301.367 152.143 300.146 150.16L291.629 155.4C293.395 158.27 295.518 160.718 298.037 162.637L304.098 154.683ZM300.189 150.231C298.821 147.922 297.736 145.7 296.914 143.565L287.581 147.155C288.626 149.873 289.968 152.598 291.586 155.329L300.189 150.231ZM292.815 140.392C289.996 140.07 287.378 139.391 284.941 138.369L281.074 147.591C284.424 148.996 287.966 149.903 291.68 150.328L292.815 140.392ZM278.113 144C278.508 145.898 278.708 147.842 278.708 149.84H288.708C288.708 147.171 288.44 144.542 287.903 141.96L278.113 144ZM278.712 150.04C278.778 151.696 278.514 153.171 277.96 154.527L287.215 158.313C288.341 155.562 288.824 152.651 288.704 149.64L278.712 150.04ZM277.915 154.64C277.611 155.439 277 156.277 275.703 157.102L281.072 165.538C283.882 163.75 286.071 161.321 287.26 158.2L277.915 154.64ZM275.756 157.069C274.92 157.586 273.189 158.14 269.988 158.14V168.14C274.066 168.14 277.935 167.481 281.019 165.571L275.756 157.069ZM294.068 128.1C298.723 128.1 302.857 126.431 306.213 123.204L299.282 115.996C297.785 117.436 296.133 118.1 294.068 118.1V128.1ZM306.216 123.202C309.604 119.939 311.528 115.879 311.528 111.2H301.528C301.528 112.868 300.931 114.408 299.279 115.998L306.216 123.202ZM311.528 111.2C311.528 106.462 309.628 102.356 306.145 99.1312L299.351 106.469C300.908 107.911 301.528 109.405 301.528 111.2H311.528ZM306.283 99.2645C302.941 95.9226 298.785 94.16 294.068 94.16V104.16C296.07 104.16 297.701 104.824 299.212 106.336L306.283 99.2645ZM294.068 94.16C289.356 94.16 285.189 95.9155 281.779 99.1984L288.716 106.402C290.347 104.831 292.059 104.16 294.068 104.16V94.16ZM281.782 99.1958C278.409 102.439 276.608 106.527 276.608 111.2H286.608C286.608 109.339 287.233 107.827 288.713 106.404L281.782 99.1958ZM276.608 111.2C276.608 115.814 278.432 119.856 281.712 123.136L288.783 116.064C287.21 114.491 286.608 112.933 286.608 111.2H276.608ZM281.851 123.269C285.272 126.437 289.418 128.1 294.068 128.1V118.1C291.998 118.1 290.263 117.43 288.645 115.931L281.851 123.269ZM344.842 153.9L340.52 156.415L340.534 156.439L340.549 156.463L344.842 153.9ZM338.402 129.26L333.41 129.556L333.411 129.568L333.412 129.58L338.402 129.26ZM342.462 95.94L337.765 94.224L337.761 94.2368L337.756 94.2496L342.462 95.94ZM358.422 73.26L361.455 77.2347L358.422 73.26ZM409.102 73.26L406.043 77.2153L406.056 77.225L406.068 77.2347L409.102 73.26ZM424.922 95.8L420.216 97.4904L420.223 97.5105L420.231 97.5306L424.922 95.8ZM428.982 129.26L423.993 128.93L423.992 128.939L423.991 128.948L428.982 129.26ZM422.402 154.04L418.143 151.42L418.129 151.443L418.114 151.468L422.402 154.04ZM398.882 161.18L395.976 165.249L396.041 165.296L396.108 165.34L398.882 161.18ZM394.682 156L389.959 157.643L390.003 157.769L390.054 157.893L394.682 156ZM393.982 143.82L398.906 144.689L399.975 138.63L393.826 138.822L393.982 143.82ZM383.482 144.1V149.1H383.54L383.598 149.099L383.482 144.1ZM373.402 143.82L373.746 138.832L367.367 138.392L368.478 144.689L373.402 143.82ZM372.562 156L367.906 154.178L367.883 154.234L367.863 154.291L372.562 156ZM368.502 161.18L365.596 157.111L368.502 161.18ZM372.422 118.9L367.469 119.588L368.092 124.068L372.611 123.896L372.422 118.9ZM394.542 118.9L394.352 123.896L398.854 124.067L399.491 119.607L394.542 118.9ZM394.402 109.52L399.316 108.599V108.599L394.402 109.52ZM390.902 102.24L387.277 105.684L390.902 102.24ZM375.782 102.24L372.157 98.7962L372.11 98.8451L372.065 98.8952L375.782 102.24ZM372.422 109.52L367.507 108.599L367.496 108.661L367.486 108.724L372.422 109.52ZM360.102 158.28C355.681 158.28 352.107 156.315 349.135 151.337L340.549 156.463C345.043 163.991 351.643 168.28 360.102 168.28V158.28ZM349.163 151.385C346.039 146.018 344.014 138.636 343.391 128.94L333.412 129.58C334.096 140.231 336.364 149.275 340.52 156.415L349.163 151.385ZM343.393 128.964C342.677 116.884 343.989 106.477 347.167 97.6304L337.756 94.2496C334.027 104.63 332.633 116.436 333.41 129.556L343.393 128.964ZM347.158 97.656C350.43 88.7007 355.234 81.9823 361.455 77.2347L355.388 69.2852C347.423 75.3643 341.587 83.766 337.765 94.224L347.158 97.656ZM361.455 77.2347C367.591 72.5524 374.944 70.14 383.762 70.14V60.14C372.98 60.14 363.44 63.1409 355.388 69.2852L361.455 77.2347ZM383.762 70.14C392.686 70.14 400.022 72.5589 406.043 77.2153L412.16 69.3047C404.182 63.1344 394.624 60.14 383.762 60.14V70.14ZM406.068 77.2347C412.289 81.9825 417.04 88.649 420.216 97.4904L429.627 94.1096C425.897 83.7243 420.101 75.3642 412.135 69.2852L406.068 77.2347ZM420.231 97.5306C423.483 106.347 424.797 116.772 423.993 128.93L433.971 129.59C434.846 116.361 433.453 104.48 429.613 94.0694L420.231 97.5306ZM423.991 128.948C423.367 138.94 421.293 146.302 418.143 151.42L426.66 156.66C430.978 149.645 433.29 140.487 433.972 129.572L423.991 128.948ZM418.114 151.468C415.271 156.207 411.766 158.14 407.282 158.14V168.14C415.677 168.14 422.253 164.006 426.689 156.612L418.114 151.468ZM407.282 158.14C404.13 158.14 402.459 157.556 401.655 157.02L396.108 165.34C399.225 167.418 403.154 168.14 407.282 168.14V158.14ZM401.788 157.111C400.527 156.211 399.762 155.212 399.309 154.107L390.054 157.893C391.282 160.894 393.316 163.349 395.976 165.249L401.788 157.111ZM399.404 154.357C398.83 152.708 398.562 151.115 398.562 149.56H388.562C388.562 152.298 389.04 154.999 389.959 157.643L399.404 154.357ZM398.562 149.56C398.562 147.508 398.692 145.902 398.906 144.689L389.058 142.951C388.712 144.911 388.562 147.132 388.562 149.56H398.562ZM393.826 138.822C390.856 138.915 387.37 139.008 383.365 139.101L383.598 149.099C387.62 149.005 391.134 148.911 394.138 148.818L393.826 138.822ZM383.482 139.1C379.534 139.1 376.298 139.008 373.746 138.832L373.058 148.808C375.919 149.005 379.402 149.1 383.482 149.1V139.1ZM368.478 144.689C368.692 145.902 368.822 147.508 368.822 149.56H378.822C378.822 147.132 378.672 144.911 378.326 142.951L368.478 144.689ZM368.822 149.56C368.822 151.038 368.535 152.569 367.906 154.178L377.218 157.822C378.268 155.138 378.822 152.375 378.822 149.56H368.822ZM367.863 154.291C367.497 155.298 366.821 156.236 365.596 157.111L371.408 165.249C374.102 163.324 376.133 160.809 377.261 157.709L367.863 154.291ZM365.596 157.111C364.817 157.668 363.202 158.28 360.102 158.28V168.28C364.282 168.28 368.267 167.492 371.408 165.249L365.596 157.111ZM372.611 123.896C379.858 123.621 387.105 123.621 394.352 123.896L394.731 113.904C387.232 113.619 379.732 113.619 372.232 113.904L372.611 123.896ZM399.491 119.607C400.029 115.846 399.985 112.167 399.316 108.599L389.487 110.441C389.938 112.847 389.988 115.421 389.592 118.193L399.491 119.607ZM399.316 108.599C398.611 104.838 397.076 101.48 394.527 98.7962L387.277 105.684C388.274 106.734 389.072 108.229 389.487 110.441L399.316 108.599ZM394.527 98.7962C391.571 95.6846 387.589 94.44 383.342 94.44V104.44C385.628 104.44 386.686 105.062 387.277 105.684L394.527 98.7962ZM383.342 94.44C379.095 94.44 375.113 95.6846 372.157 98.7962L379.407 105.684C379.997 105.062 381.055 104.44 383.342 104.44V94.44ZM372.065 98.8952C369.653 101.575 368.201 104.9 367.507 108.599L377.336 110.441C377.763 108.167 378.55 106.638 379.498 105.585L372.065 98.8952ZM367.486 108.724C366.928 112.179 366.945 115.811 367.469 119.588L377.374 118.212C376.965 115.269 376.982 112.648 377.358 110.316L367.486 108.724Z" fill="black" mask="url(#path-1-outside-1_83_15563)"/></svg>