<svg xmlns="http://www.w3.org/2000/svg" width="70" height="56" viewBox="0 0 70 56" fill="none"><ellipse cx="34.697" cy="28.8121" rx="29.7097" ry="25.0477" fill="#FFEC01"/><path d="M3.52792 17.7896C7.36342 10.0093 15.817 2.88931 23.8965 0.635914C25.6535 0.145484 28.278 -0.0656964 31.5655 0.0177812C36.0583 0.132066 36.8936 0.307962 39.8342 1.7554C45.4357 4.51314 46.4955 8.08281 40.9403 5.48109C38.3202 4.25377 37.4496 4.1052 33.0273 4.12707C27.2023 4.15638 23.8999 5.28333 18.6403 9.03634C10.7984 14.6318 6.00094 24.9224 7.48665 32.9596C8.38552 37.8237 10.4476 40.9909 14.545 43.8013C25.9049 51.592 48.2411 48.965 58.5849 38.6212C62.6763 34.5293 64.4666 29.145 63.1061 25.0223C61.6815 20.7068 56.732 16.2716 48.1825 11.6515C43.1564 8.93497 41.8546 8.02815 42.3182 7.56505C42.7197 7.16306 46.3638 7.96405 51.6995 9.62615C60.6529 12.4157 68.1465 19.8502 69.2302 27.0173C69.675 29.9589 68.711 34.4533 66.9063 37.852C62.716 45.7446 53.923 51.7585 42.3559 54.6429C36.0211 56.223 25.646 56.228 20.208 54.6538C9.57458 51.5766 2.89538 45.2095 0.749311 36.1054C0.336395 34.3544 -0.000496341 32.0275 0 30.9343C0.002485 27.3482 1.42061 22.0638 3.52792 17.7896Z" fill="#332424"/><path d="M22.9328 18.9501C22.2907 18.1075 22.8916 16.8943 23.9508 16.8943V16.8943C24.3503 16.8943 24.7268 17.0808 24.9689 17.3985L41.9449 39.6758C42.7444 40.7249 41.9962 42.2357 40.6772 42.2357V42.2357L22.9328 18.9501ZM29.1103 19.4542C28.3108 18.4051 29.0589 16.8943 30.378 16.8943V16.8943L48.1224 40.1799C48.7644 41.0225 48.1636 42.2357 47.1043 42.2357V42.2357C46.7049 42.2357 46.3284 42.0492 46.0863 41.7315L29.1103 19.4542ZM23.941 18.1614C23.941 17.4616 24.5083 16.8943 25.2081 16.8943H30.378V16.8943C30.378 18.2939 29.2434 19.4284 27.8439 19.4284H25.2081C24.5083 19.4284 23.941 18.8611 23.941 18.1614V18.1614ZM40.6772 42.2357C40.6772 40.8361 41.8117 39.7015 43.2113 39.7015H45.8471C46.5469 39.7015 47.1142 40.2688 47.1142 40.9686V40.9686C47.1142 41.6684 46.5469 42.2357 45.8471 42.2357H40.6772V42.2357ZM43.3856 17.4849C43.7095 17.1099 44.1805 16.8943 44.676 16.8943V16.8943C46.1358 16.8943 46.9206 18.6091 45.9665 19.7138L27.0259 41.6451C26.702 42.0201 26.231 42.2357 25.7354 42.2357V42.2357C24.2757 42.2357 23.4909 40.5209 24.445 39.4161L43.3856 17.4849Z" fill="#332424"/></svg>